<svg xmlns="http://www.w3.org/2000/svg">
<defs>
<font id="GothamSSm-Medium" horiz-adv-x="420" >
  <font-face 
    font-family="Gotham SSm Medium"
    font-weight="350"
    font-stretch="normal"
    units-per-em="1000"
    panose-1="0 0 0 0 0 0 0 0 0 0"
    ascent="800"
    descent="-200"
    x-height="548"
    cap-height="728"
    bbox="-227 -282 1229 1046"
    underline-thickness="50"
    underline-position="-50"
    unicode-range="U+0020-U+FB04"
  />
<missing-glyph horiz-adv-x="500" 
d="M0 800h10h10h10h10h10h10h10h10h10h10h10h10h10h10h10h10h10h10h10h10h10h10h10h10h10h10h10h10h10h10h10h10h10h10h10h10h10h10h10h10h10h10h10h10h10h10h10h10h10h10v-10v-10v-10v-10v-10v-10v-10v-10v-10v-10v-10v-10v-10v-10v-10v-10v-10v-10v-10v-10v-10v-10v-10
v-10v-10v-10v-10v-10v-10v-10v-10v-10v-10v-10v-10v-10v-10v-10v-10v-10v-10v-10v-10v-10v-10v-10v-10v-10v-10v-10v-10v-10v-10v-10v-10v-10v-10v-10v-10v-10v-10v-10v-10v-10v-10v-10v-10v-10v-10v-10v-10v-10v-10v-10v-10v-10v-10v-10v-10v-10v-10v-10v-10v-10v-10v-10
v-10v-10v-10v-10v-10v-10v-10v-10v-10v-10v-10v-10v-10v-10h-10h-10h-10h-10h-10h-10h-10h-10h-10h-10h-10h-10h-10h-10h-10h-10h-10h-10h-10h-10h-10h-10h-10h-10h-10h-10h-10h-10h-10h-10h-10h-10h-10h-10h-10h-10h-10h-10h-10h-10h-10h-10h-10h-10h-10h-10h-10h-10h-10
h-10v10v10v10v10v10v10v10v10v10v10v10v10v10v10v10v10v10v10v10v10v10v10v10v10v10v10v10v10v10v10v10v10v10v10v10v10v10v10v10v10v10v10v10v10v10v10v10v10v10v10v10v10v10v10v10v10v10v10v10v10v10v10v10v10v10v10v10v10v10v10v10v10v10v10v10v10v10v10v10v10v10v10v10
v10v10v10v10v10v10v10v10v10v10v10v10v10v10v10v10v10zM250 360l4 9l4 9l4 9l5 9l4 9l4 9l4 9l4 10l4 9l5 9l4 9l4 9l4 9l4 9l4 9l5 9l4 9l4 9l4 9l4 9l4 9l5 10l4 9l4 9l4 9l4 9l4 9l5 9l4 9l4 9l4 9l4 9l4 9l5 9l4 9l4 10l4 9l4 9l4 9l5 9l4 9l4 9l4 9h-10h-10h-10h-10
h-10h-10h-10h-10h-9h-10h-10h-10h-10h-10h-10h-10h-10h-10h-10h-10h-10h-10h-10h-10h-10h-10h-9h-10h-10h-10h-10h-10h-10h-10h-10h-10l4 -9l4 -9l4 -9l5 -9l4 -9l4 -9l4 -9l4 -10l4 -9l5 -9l4 -9l4 -9l4 -9l4 -9l4 -9l5 -9l4 -9l4 -9l4 -9l4 -9l4 -9l5 -10l4 -9l4 -9l4 -9

<glyph glyph-name="f_f" unicode="ff" horiz-adv-x="788" 
d="M112 444h-10h-10h-10h-9h-10h-10h-10v10v10v10v10v11v10v10v10v10v10h10h10h10h9h10h10h10v10v11v10v10v12l1 12l1 11l1 11l2 10l2 10l3 9l3 9l4 9l3 8l5 8l4 7l6 7l5 7l6 6l7 6l7 6l8 6l8 4l8 5l9 4l10 3l10 3l10 2l10 2l12 1l11 1h12h11h10l10 -1l9 -1h8l9 -1l9 -2
l9 -2l9 -2l9 -2l8 -3v-10v-10v-11v-10v-10v-10v-10v-11v-10v-10l-10 3l-9 2l-10 3l-8 2l-9 1l-10 1l-9 1h-10l-11 -1l-10 -1l-9 -3l-9 -3l-7 -5l-7 -5l-5 -7l-5 -8l-4 -8l-3 -10l-2 -11l-2 -11v-13v-11v-10v-11h10h10h9h10h10h10h10h9h10h10h10h10h9h10h10v-10v-10v-10v-10
v-10v-10v-10v-10v-10v-10h-10h-9h-10h-10h-10h-9h-10h-10h-10h-9h-10h-10h-10h-9h-10v-10v-10v-10v-10v-10v-11v-10v-10v-10v-10v-10v-10v-10v-10v-10v-10v-11v-10v-10v-10v-10v-10v-10v-10v-10v-10v-10v-11v-10v-10v-10v-10v-10v-10v-10v-10v-10v-10v-11v-10v-10v-10v-10
v-10h-10h-10h-10h-10h-10h-10h-11h-10h-10h-10h-10h-10v10v10v10v10v10v11v10v10v10v10v10v10v10v10v10v10v11v10v10v10v10v10v10v10v10v10v10v11v10v10v10v10v10v10v10v10v10v10v11v10v10v10v10v10zM502 444h-10h-10h-10h-9h-10h-10h-10v10v10v10v10v11v10v10v10v10v10h10
h10h10h9h10h10h10v10v11v10v10v12l1 12l1 11l1 11l2 10l2 10l3 9l3 9l4 9l3 8l5 8l4 7l6 7l5 7l6 6l7 6l7 6l8 6l8 4l8 5l9 4l10 3l10 3l10 2l10 2l12 1l11 1h12h11h10l10 -1l9 -1h8l9 -1l9 -2l9 -2l9 -2l9 -2l8 -3v-10v-10v-11v-10v-10v-10v-10v-11v-10v-10l-10 3l-9 2
l-10 3l-8 2l-9 1l-10 1l-9 1h-10l-11 -1l-10 -1l-9 -3l-9 -3l-7 -5l-7 -5l-5 -7l-5 -8l-4 -8l-3 -10l-2 -11l-2 -11v-13v-11v-10v-11h10h10h9h10h10h10h10h9h10h10h10h10h9h10h10v-10v-10v-10v-10v-10v-10v-10v-10v-10v-10h-10h-9h-10h-10h-10h-9h-10h-10h-10h-9h-10h-10
h-10h-9h-10v-10v-10v-10v-10v-10v-11v-10v-10v-10v-10v-10v-10v-10v-10v-10v-10v-11v-10v-10v-10v-10v-10v-10v-10v-10v-10v-10v-11v-10v-10v-10v-10v-10v-10v-10v-10v-10v-10v-11v-10v-10v-10v-10v-10h-10h-10h-10h-10h-10h-10h-11h-10h-10h-10h-10h-10v10v10v10v10v10v11
v10v10v10v10v10v10v10v10v10v10v11v10v10v10v10v10v10v10v10v10v10v11v10v10v10v10v10v10v10v10v10v10v11v10v10v10v10v10z" />
    <glyph glyph-name="fi" unicode="fi" horiz-adv-x="693" 
d="M112 444h-10h-10h-10h-9h-10h-10h-10v10v10v10v10v11v10v10v10v10v10h10h10h10h9h10h10h10v10v11v10v10v12l1 12l1 11l1 11l2 10l2 10l3 9l3 9l4 9l3 8l5 8l4 7l6 7l5 7l6 6l7 6l7 6l8 6l8 4l8 5l9 4l10 3l10 3l10 2l10 2l12 1l11 1h12h11h10l10 -1l9 -1h8l9 -1l9 -2
l9 -2l9 -2l9 -2l8 -3v-10v-10v-11v-10v-10v-10v-10v-11v-10v-10l-10 3l-9 2l-10 3l-8 2l-9 1l-10 1l-9 1h-10l-11 -1l-10 -1l-9 -3l-9 -3l-7 -5l-7 -5l-5 -7l-5 -8l-4 -8l-3 -10l-2 -11l-2 -11v-13v-11v-10v-11h10h10h9h10h10h10h10h9h10h10h10h10h9h10h10v-10v-10v-10v-10
v-10v-10v-10v-10v-10v-10h-10h-9h-10h-10h-10h-9h-10h-10h-10h-9h-10h-10h-10h-9h-10v-10v-10v-10v-10v-10v-11v-10v-10v-10v-10v-10v-10v-10v-10v-10v-10v-11v-10v-10v-10v-10v-10v-10v-10v-10v-10v-10v-11v-10v-10v-10v-10v-10v-10v-10v-10v-10v-10v-11v-10v-10v-10v-10
v-10h-10h-10h-10h-10h-10h-10h-11h-10h-10h-10h-10h-10v10v10v10v10v10v11v10v10v10v10v10v10v10v10v10v10v11v10v10v10v10v10v10v10v10v10v10v11v10v10v10v10v10v10v10v10v10v10v11v10v10v10v10v10zM476 752h10h10h10h10h10h10h11h10h10h10h10h10h10v-10v-9v-10v-10v-9v-10
v-10v-9v-10v-10v-9v-10h-10h-10h-10h-10h-10h-10h-11h-10h-10h-10h-10h-10h-10v10v9v10v10v9v10v10v9v10v10v9v10zM481 548h10h10h10h10h10h11h10h10h10h10h10h10v-10v-10v-10v-10v-10v-10v-10v-10v-10v-10v-10v-10v-10v-9v-10v-10v-10v-10v-10v-10v-10v-10v-10v-10v-10v-10
v-10v-10v-10v-10v-10v-10v-10v-10v-10v-10v-10v-10v-10v-10v-10v-9v-10v-10v-10v-10v-10v-10v-10v-10v-10v-10v-10v-10v-10h-10h-10h-10h-10h-10h-10h-11h-10h-10h-10h-10h-10v10v10v10v10v10v10v10v10v10v10v10v10v10v9v10v10v10v10v10v10v10v10v10v10v10v10v10v10v10v10
v10v10v10v10v10v10v10v10v10v10v10v9v10v10v10v10v10v10v10v10v10v10v10v10v10z" />
    <glyph glyph-name="fl" unicode="fl" horiz-adv-x="693" 
d="M112 444h-10h-10h-10h-9h-10h-10h-10v10v10v10v10v11v10v10v10v10v10h10h10h10h9h10h10h10v10v11v10v10v12l1 12l1 11l1 11l2 10l2 10l3 9l3 9l4 9l3 8l5 8l4 7l6 7l5 7l6 6l7 6l7 6l8 6l8 4l8 5l9 4l10 3l10 3l10 2l10 2l12 1l11 1h12h11h10l10 -1l9 -1h8l9 -1l9 -2
l9 -2l9 -2l9 -2l8 -3v-10v-10v-11v-10v-10v-10v-10v-11v-10v-10l-10 3l-9 2l-10 3l-8 2l-9 1l-10 1l-9 1h-10l-11 -1l-10 -1l-9 -3l-9 -3l-7 -5l-7 -5l-5 -7l-5 -8l-4 -8l-3 -10l-2 -11l-2 -11v-13v-11v-10v-11h10h10h9h10h10h10h10h9h10h10h10h10h9h10h10v-10v-10v-10v-10
v-10v-10v-10v-10v-10v-10h-10h-9h-10h-10h-10h-9h-10h-10h-10h-9h-10h-10h-10h-9h-10v-10v-10v-10v-10v-10v-11v-10v-10v-10v-10v-10v-10v-10v-10v-10v-10v-11v-10v-10v-10v-10v-10v-10v-10v-10v-10v-10v-11v-10v-10v-10v-10v-10v-10v-10v-10v-10v-10v-11v-10v-10v-10v-10
v-10h-10h-10h-10h-10h-10h-10h-11h-10h-10h-10h-10h-10v10v10v10v10v10v11v10v10v10v10v10v10v10v10v10v10v11v10v10v10v10v10v10v10v10v10v10v11v10v10v10v10v10v10v10v10v10v10v11v10v10v10v10v10zM481 759h10h10h10h10h10h11h10h10h10h10h10h10v-10v-10v-10v-10v-10v-10
v-10v-10v-10v-10v-10v-10v-10v-10v-10v-10v-10v-10v-10v-10v-10v-10v-10v-10v-10v-10v-10v-10v-10v-10v-10v-10v-10v-10v-10v-10v-10v-9v-10v-10v-10v-10v-10v-10v-10v-10v-10v-10v-10v-10v-10v-10v-10v-10v-10v-10v-10v-10v-10v-10v-10v-10v-10v-10v-10v-10v-10v-10v-10
v-10v-10v-10v-10v-10v-10v-10h-10h-10h-10h-10h-10h-10h-11h-10h-10h-10h-10h-10v10v10v10v10v10v10v10v10v10v10v10v10v10v10v10v10v10v10v10v10v10v10v10v10v10v10v10v10v10v10v10v10v10v10v10v10v10v10v9v10v10v10v10v10v10v10v10v10v10v10v10v10v10v10v10v10v10v10v10
v10v10v10v10v10v10v10v10v10v10v10v10v10v10v10v10v10z" />
    <glyph glyph-name="f_f_i" unicode="ffi" horiz-adv-x="1083" 
d="M112 444h-10h-10h-10h-9h-10h-10h-10v10v10v10v10v11v10v10v10v10v10h10h10h10h9h10h10h10v10v11v10v10v12l1 12l1 11l1 11l2 10l2 10l3 9l3 9l4 9l3 8l5 8l4 7l6 7l5 7l6 6l7 6l7 6l8 6l8 4l8 5l9 4l10 3l10 3l10 2l10 2l12 1l11 1h12h11h10l10 -1l9 -1h8l9 -1l9 -2
l9 -2l9 -2l9 -2l8 -3v-10v-10v-11v-10v-10v-10v-10v-11v-10v-10l-10 3l-9 2l-10 3l-8 2l-9 1l-10 1l-9 1h-10l-11 -1l-10 -1l-9 -3l-9 -3l-7 -5l-7 -5l-5 -7l-5 -8l-4 -8l-3 -10l-2 -11l-2 -11v-13v-11v-10v-11h10h10h9h10h10h10h10h9h10h10h10h10h9h10h10v-10v-10v-10v-10
v-10v-10v-10v-10v-10v-10h-10h-9h-10h-10h-10h-9h-10h-10h-10h-9h-10h-10h-10h-9h-10v-10v-10v-10v-10v-10v-11v-10v-10v-10v-10v-10v-10v-10v-10v-10v-10v-11v-10v-10v-10v-10v-10v-10v-10v-10v-10v-10v-11v-10v-10v-10v-10v-10v-10v-10v-10v-10v-10v-11v-10v-10v-10v-10
v-10h-10h-10h-10h-10h-10h-10h-11h-10h-10h-10h-10h-10v10v10v10v10v10v11v10v10v10v10v10v10v10v10v10v10v11v10v10v10v10v10v10v10v10v10v10v11v10v10v10v10v10v10v10v10v10v10v11v10v10v10v10v10zM502 444h-10h-10h-10h-9h-10h-10h-10v10v10v10v10v11v10v10v10v10v10h10
h10h10h9h10h10h10v10v11v10v10v12l1 12l1 11l1 11l2 10l2 10l3 9l3 9l4 9l3 8l5 8l4 7l6 7l5 7l6 6l7 6l7 6l8 6l8 4l8 5l9 4l10 3l10 3l10 2l10 2l12 1l11 1h12h11h10l10 -1l9 -1h8l9 -1l9 -2l9 -2l9 -2l9 -2l8 -3v-10v-10v-11v-10v-10v-10v-10v-11v-10v-10l-10 3l-9 2
l-10 3l-8 2l-9 1l-10 1l-9 1h-10l-11 -1l-10 -1l-9 -3l-9 -3l-7 -5l-7 -5l-5 -7l-5 -8l-4 -8l-3 -10l-2 -11l-2 -11v-13v-11v-10v-11h10h10h9h10h10h10h10h9h10h10h10h10h9h10h10v-10v-10v-10v-10v-10v-10v-10v-10v-10v-10h-10h-9h-10h-10h-10h-9h-10h-10h-10h-9h-10h-10
h-10h-9h-10v-10v-10v-10v-10v-10v-11v-10v-10v-10v-10v-10v-10v-10v-10v-10v-10v-11v-10v-10v-10v-10v-10v-10v-10v-10v-10v-10v-11v-10v-10v-10v-10v-10v-10v-10v-10v-10v-10v-11v-10v-10v-10v-10v-10h-10h-10h-10h-10h-10h-10h-11h-10h-10h-10h-10h-10v10v10v10v10v10v11
v10v10v10v10v10v10v10v10v10v10v11v10v10v10v10v10v10v10v10v10v10v11v10v10v10v10v10v10v10v10v10v10v11v10v10v10v10v10zM866 752h10h10h10h10h10h10h11h10h10h10h10h10h10v-10v-9v-10v-10v-9v-10v-10v-9v-10v-10v-9v-10h-10h-10h-10h-10h-10h-10h-11h-10h-10h-10h-10h-10
h-10v10v9v10v10v9v10v10v9v10v10v9v10zM871 548h10h10h10h10h10h11h10h10h10h10h10h10v-10v-10v-10v-10v-10v-10v-10v-10v-10v-10v-10v-10v-10v-9v-10v-10v-10v-10v-10v-10v-10v-10v-10v-10v-10v-10v-10v-10v-10v-10v-10v-10v-10v-10v-10v-10v-10v-10v-10v-10v-10v-9v-10
v-10v-10v-10v-10v-10v-10v-10v-10v-10v-10v-10v-10h-10h-10h-10h-10h-10h-10h-11h-10h-10h-10h-10h-10v10v10v10v10v10v10v10v10v10v10v10v10v10v9v10v10v10v10v10v10v10v10v10v10v10v10v10v10v10v10v10v10v10v10v10v10v10v10v10v10v10v9v10v10v10v10v10v10v10v10v10v10v10
v10v10z" />
    <glyph glyph-name="f_f_l" unicode="ffl" horiz-adv-x="1083" 
d="M112 444h-10h-10h-10h-9h-10h-10h-10v10v10v10v10v11v10v10v10v10v10h10h10h10h9h10h10h10v10v11v10v10v12l1 12l1 11l1 11l2 10l2 10l3 9l3 9l4 9l3 8l5 8l4 7l6 7l5 7l6 6l7 6l7 6l8 6l8 4l8 5l9 4l10 3l10 3l10 2l10 2l12 1l11 1h12h11h10l10 -1l9 -1h8l9 -1l9 -2
l9 -2l9 -2l9 -2l8 -3v-10v-10v-11v-10v-10v-10v-10v-11v-10v-10l-10 3l-9 2l-10 3l-8 2l-9 1l-10 1l-9 1h-10l-11 -1l-10 -1l-9 -3l-9 -3l-7 -5l-7 -5l-5 -7l-5 -8l-4 -8l-3 -10l-2 -11l-2 -11v-13v-11v-10v-11h10h10h9h10h10h10h10h9h10h10h10h10h9h10h10v-10v-10v-10v-10
v-10v-10v-10v-10v-10v-10h-10h-9h-10h-10h-10h-9h-10h-10h-10h-9h-10h-10h-10h-9h-10v-10v-10v-10v-10v-10v-11v-10v-10v-10v-10v-10v-10v-10v-10v-10v-10v-11v-10v-10v-10v-10v-10v-10v-10v-10v-10v-10v-11v-10v-10v-10v-10v-10v-10v-10v-10v-10v-10v-11v-10v-10v-10v-10
v-10h-10h-10h-10h-10h-10h-10h-11h-10h-10h-10h-10h-10v10v10v10v10v10v11v10v10v10v10v10v10v10v10v10v10v11v10v10v10v10v10v10v10v10v10v10v11v10v10v10v10v10v10v10v10v10v10v11v10v10v10v10v10zM502 444h-10h-10h-10h-9h-10h-10h-10v10v10v10v10v11v10v10v10v10v10h10
h10h10h9h10h10h10v10v11v10v10v12l1 12l1 11l1 11l2 10l2 10l3 9l3 9l4 9l3 8l5 8l4 7l6 7l5 7l6 6l7 6l7 6l8 6l8 4l8 5l9 4l10 3l10 3l10 2l10 2l12 1l11 1h12h11h10l10 -1l9 -1h8l9 -1l9 -2l9 -2l9 -2l9 -2l8 -3v-10v-10v-11v-10v-10v-10v-10v-11v-10v-10l-10 3l-9 2
l-10 3l-8 2l-9 1l-10 1l-9 1h-10l-11 -1l-10 -1l-9 -3l-9 -3l-7 -5l-7 -5l-5 -7l-5 -8l-4 -8l-3 -10l-2 -11l-2 -11v-13v-11v-10v-11h10h10h9h10h10h10h10h9h10h10h10h10h9h10h10v-10v-10v-10v-10v-10v-10v-10v-10v-10v-10h-10h-9h-10h-10h-10h-9h-10h-10h-10h-9h-10h-10
h-10h-9h-10v-10v-10v-10v-10v-10v-11v-10v-10v-10v-10v-10v-10v-10v-10v-10v-10v-11v-10v-10v-10v-10v-10v-10v-10v-10v-10v-10v-11v-10v-10v-10v-10v-10v-10v-10v-10v-10v-10v-11v-10v-10v-10v-10v-10h-10h-10h-10h-10h-10h-10h-11h-10h-10h-10h-10h-10v10v10v10v10v10v11
v10v10v10v10v10v10v10v10v10v10v11v10v10v10v10v10v10v10v10v10v10v11v10v10v10v10v10v10v10v10v10v10v11v10v10v10v10v10zM871 759h10h10h10h10h10h11h10h10h10h10h10h10v-10v-10v-10v-10v-10v-10v-10v-10v-10v-10v-10v-10v-10v-10v-10v-10v-10v-10v-10v-10v-10v-10v-10
v-10v-10v-10v-10v-10v-10v-10v-10v-10v-10v-10v-10v-10v-10v-9v-10v-10v-10v-10v-10v-10v-10v-10v-10v-10v-10v-10v-10v-10v-10v-10v-10v-10v-10v-10v-10v-10v-10v-10v-10v-10v-10v-10v-10v-10v-10v-10v-10v-10v-10v-10v-10v-10h-10h-10h-10h-10h-10h-10h-11h-10h-10h-10
h-10h-10v10v10v10v10v10v10v10v10v10v10v10v10v10v10v10v10v10v10v10v10v10v10v10v10v10v10v10v10v10v10v10v10v10v10v10v10v10v10v9v10v10v10v10v10v10v10v10v10v10v10v10v10v10v10v10v10v10v10v10v10v10v10v10v10v10v10v10v10v10v10v10v10v10v10v10v10z" />
    <glyph glyph-name=".notdef" horiz-adv-x="500" 
d="M0 800h10h10h10h10h10h10h10h10h10h10h10h10h10h10h10h10h10h10h10h10h10h10h10h10h10h10h10h10h10h10h10h10h10h10h10h10h10h10h10h10h10h10h10h10h10h10h10h10h10h10v-10v-10v-10v-10v-10v-10v-10v-10v-10v-10v-10v-10v-10v-10v-10v-10v-10v-10v-10v-10v-10v-10v-10
v-10v-10v-10v-10v-10v-10v-10v-10v-10v-10v-10v-10v-10v-10v-10v-10v-10v-10v-10v-10v-10v-10v-10v-10v-10v-10v-10v-10v-10v-10v-10v-10v-10v-10v-10v-10v-10v-10v-10v-10v-10v-10v-10v-10v-10v-10v-10v-10v-10v-10v-10v-10v-10v-10v-10v-10v-10v-10v-10v-10v-10v-10v-10
v-10v-10v-10v-10v-10v-10v-10v-10v-10v-10v-10v-10v-10v-10h-10h-10h-10h-10h-10h-10h-10h-10h-10h-10h-10h-10h-10h-10h-10h-10h-10h-10h-10h-10h-10h-10h-10h-10h-10h-10h-10h-10h-10h-10h-10h-10h-10h-10h-10h-10h-10h-10h-10h-10h-10h-10h-10h-10h-10h-10h-10h-10h-10
h-10v10v10v10v10v10v10v10v10v10v10v10v10v10v10v10v10v10v10v10v10v10v10v10v10v10v10v10v10v10v10v10v10v10v10v10v10v10v10v10v10v10v10v10v10v10v10v10v10v10v10v10v10v10v10v10v10v10v10v10v10v10v10v10v10v10v10v10v10v10v10v10v10v10v10v10v10v10v10v10v10v10v10v10
v10v10v10v10v10v10v10v10v10v10v10v10v10v10v10v10v10zM250 360l4 9l4 9l4 9l5 9l4 9l4 9l4 9l4 10l4 9l5 9l4 9l4 9l4 9l4 9l4 9l5 9l4 9l4 9l4 9l4 9l4 9l5 10l4 9l4 9l4 9l4 9l4 9l5 9l4 9l4 9l4 9l4 9l4 9l5 9l4 9l4 10l4 9l4 9l4 9l5 9l4 9l4 9l4 9h-10h-10h-10h-10
h-10h-10h-10h-10h-9h-10h-10h-10h-10h-10h-10h-10h-10h-10h-10h-10h-10h-10h-10h-10h-10h-10h-9h-10h-10h-10h-10h-10h-10h-10h-10h-10l4 -9l4 -9l4 -9l5 -9l4 -9l4 -9l4 -9l4 -10l4 -9l5 -9l4 -9l4 -9l4 -9l4 -9l4 -9l5 -9l4 -9l4 -9l4 -9l4 -9l4 -9l5 -10l4 -9l4 -9l4 -9
l4 -9l4 -9l5 -9l4 -9l4 -9l4 -9l4 -9l4 -9l5 -9l4 -9l4 -10l4 -9l4 -9l4 -9l5 -9l4 -9l4 -9zM222 300l-4 9l-4 9l-5 10l-4 9l-4 9l-4 9l-4 9l-5 9l-4 10l-4 9l-4 9l-4 9l-5 9l-4 9l-4 10l-4 9l-4 9l-5 9l-4 9l-4 9l-4 10l-4 9l-4 9l-5 9l-4 9l-4 9l-4 10l-4 9l-5 9l-4 9
l-4 9l-4 9l-4 10l-5 9l-4 9l-4 9l-4 9l-4 9l-5 10l-4 9l-4 9v-10v-10v-10v-10v-10v-10v-10v-10v-10v-10v-10v-10v-10v-10v-10v-10v-10v-10v-11v-10v-10v-10v-10v-10v-10v-10v-10v-10v-10v-10v-10v-10v-10v-10v-10v-10v-10v-10v-10v-10v-10v-10v-10v-10v-10v-10v-10v-10v-10
v-10v-10v-10v-10v-10v-10v-10v-11v-10v-10v-10v-10v-10v-10v-10v-10v-10v-10v-10v-10v-10v-10v-10v-10v-10v-10l4 9l4 9l5 10l4 9l4 9l4 9l4 9l5 9l4 10l4 9l4 9l4 9l5 9l4 9l4 10l4 9l4 9l5 9l4 9l4 9l4 10l4 9l4 9l5 9l4 9l4 9l4 10l4 9l5 9l4 9l4 9l4 9l4 10l5 9l4 9l4 9
l4 9l4 9l5 10l4 9zM278 300l4 -9l4 -9l5 -10l4 -9l4 -9l4 -9l4 -9l5 -9l4 -10l4 -9l4 -9l4 -9l5 -9l4 -9l4 -10l4 -9l4 -9l5 -9l4 -9l4 -9l4 -10l4 -9l4 -9l5 -9l4 -9l4 -9l4 -10l4 -9l5 -9l4 -9l4 -9l4 -9l4 -10l5 -9l4 -9l4 -9l4 -9l4 -9l5 -10l4 -9l4 -9v10v10v10v10v10
v10v10v10v10v10v10v10v10v10v10v10v10v10v11v10v10v10v10v10v10v10v10v10v10v10v10v10v10v10v10v10v10v10v10v10v10v10v10v10v10v10v10v10v10v10v10v10v10v10v10v10v11v10v10v10v10v10v10v10v10v10v10v10v10v10v10v10v10v10v10l-4 -9l-4 -9l-5 -10l-4 -9l-4 -9l-4 -9l-4 -9
l-5 -9l-4 -10l-4 -9l-4 -9l-4 -9l-5 -9l-4 -9l-4 -10l-4 -9l-4 -9l-5 -9l-4 -9l-4 -9l-4 -10l-4 -9l-4 -9l-5 -9l-4 -9l-4 -9l-4 -10l-4 -9l-5 -9l-4 -9l-4 -9l-4 -9l-4 -10l-5 -9l-4 -9l-4 -9l-4 -9l-4 -9l-5 -10l-4 -9zM71 -150h10h10h10h10h10h10h10h10h10h9h10h10h10h10
h10h10h10h10h10h10h10h10h10h10h10h10h10h9h10h10h10h10h10h10h10h10l-4 9l-4 9l-4 9l-5 9l-4 9l-4 9l-4 9l-4 10l-4 9l-5 9l-4 9l-4 9l-4 9l-4 9l-4 9l-5 9l-4 9l-4 9l-4 9l-4 9l-4 9l-5 10l-4 9l-4 9l-4 9l-4 9l-4 9l-5 9l-4 9l-4 9l-4 9l-4 9l-4 9l-5 9l-4 9l-4 10l-4 9
l-4 9l-4 9l-5 9l-4 9l-4 9l-4 9l-4 -9l-4 -9l-4 -9l-5 -9l-4 -9l-4 -9l-4 -9l-4 -10l-4 -9l-5 -9l-4 -9l-4 -9l-4 -9l-4 -9l-4 -9l-5 -9l-4 -9l-4 -9l-4 -9l-4 -9l-4 -9l-5 -10l-4 -9l-4 -9l-4 -9l-4 -9l-4 -9l-5 -9l-4 -9l-4 -9l-4 -9l-4 -9l-4 -9l-5 -9l-4 -9l-4 -10
l-4 -9l-4 -9l-4 -9l-5 -9l-4 -9l-4 -9z" />
    <glyph glyph-name="NUL" horiz-adv-x="0" 
 />
    <glyph glyph-name="nonmarkingreturn" horiz-adv-x="320" 
 />
    <glyph glyph-name="space" unicode=" " horiz-adv-x="320" 
 />
    <glyph glyph-name="D" unicode="D" horiz-adv-x="821" 
d="M99 728h10h10h10h10h10h10h10h10h10h10h10h10h10h9h10h10h10h10h10h10h10h10h10h10h10h10h10h11h10l11 -1l10 -1l10 -1l10 -1l10 -1l10 -2l10 -2l10 -2l9 -2l10 -2l9 -3l9 -3l9 -3l9 -3l10 -5l10 -4l10 -4l9 -5l9 -5l9 -5l9 -5l9 -6l8 -6l8 -6l8 -6l8 -6l8 -7l7 -7l7 -7
l7 -7l7 -8l6 -7l7 -8l6 -8l5 -8l6 -9l5 -8l5 -9l5 -8l5 -9l4 -10l5 -9l3 -9l4 -9l3 -9l3 -9l2 -9l3 -10l2 -9l2 -10l1 -9l2 -10l1 -10l1 -10v-10l1 -10v-10v-2v-10l-1 -10v-10l-1 -10l-1 -10l-2 -10l-1 -10l-2 -9l-2 -10l-3 -9l-2 -9l-3 -9l-3 -10l-4 -9l-3 -8l-5 -10l-4 -9
l-5 -9l-5 -9l-5 -9l-5 -8l-6 -9l-5 -8l-6 -8l-7 -8l-6 -7l-7 -8l-7 -7l-7 -7l-7 -6l-7 -7l-7 -6l-8 -6l-7 -5l-8 -6l-8 -5l-8 -5l-8 -5l-9 -5l-9 -5l-8 -4l-9 -4l-10 -4l-9 -4l-9 -3l-9 -4l-9 -3l-9 -2l-10 -3l-9 -2l-10 -2l-10 -2l-10 -2l-10 -1l-10 -1l-10 -1l-10 -1
l-11 -1h-10h-11h-10h-10h-10h-10h-10h-10h-10h-10h-10h-10h-10h-10h-10h-9h-10h-10h-10h-10h-10h-10h-10h-10h-10h-10h-10h-10h-10v10v10v10v10v10v10v10v10v10v10v10v10v10v10v10v10v10v10v9v10v10v10v10v10v10v10v10v10v10v10v10v10v10v10v10v10v10v10v10v10v10v10v10v10
v10v10v10v10v10v10v10v10v10v10v9v10v10v10v10v10v10v10v10v10v10v10v10v10v10v10v10v10v10zM222 617v-10v-10v-10v-10v-10v-10v-9v-10v-10v-10v-10v-10v-10v-10v-10v-10v-10v-10v-10v-9v-10v-10v-10v-10v-10v-10v-10v-10v-10v-10v-10v-9v-10v-10v-10v-10v-10v-10v-10v-10
v-10v-10v-10v-10v-9v-10v-10v-10v-10v-10v-10h10h9h10h10h10h9h10h10h10h9h10h10h10h9h10h10l11 1h10l10 2l10 1l9 2l10 2l9 2l9 3l9 3l9 3l9 4l10 4l8 5l9 5l8 5l8 5l8 6l8 6l7 6l7 7l6 6l6 7l6 8l6 7l5 8l5 8l5 9l5 8l4 9l4 9l3 9l3 10l3 9l2 10l2 10l2 10l1 10l1 11l1 10
v11v2v11l-1 10l-1 11l-1 10l-2 10l-2 10l-2 10l-3 10l-3 9l-3 10l-4 9l-4 9l-5 8l-5 9l-5 8l-5 8l-6 7l-6 8l-6 7l-6 7l-7 6l-7 6l-8 6l-8 6l-8 6l-8 5l-9 5l-8 4l-10 4l-9 5l-9 3l-9 3l-9 3l-9 2l-10 2l-9 2l-10 1l-10 2h-10l-11 1h-10h-10h-9h-10h-10h-10h-9h-10h-10h-10
h-9h-10h-10h-10h-9h-10z" />
    <glyph glyph-name="E" unicode="E" horiz-adv-x="705" 
d="M99 728h10h10h10h10h10h10h10h10h10h10h10h10h10h9h10h10h10h10h10h10h10h10h10h10h10h10h10h10h10h10h10h10h10h10h10h10h10h10h10h10h9h10h10h10h10h10h10h10h10h10h10h10h10h10v-10v-10v-10v-10v-10v-10v-10v-10v-10v-10v-10h-10h-10h-10h-10h-10h-9h-10h-10h-10h-10
h-10h-10h-10h-10h-10h-9h-10h-10h-10h-10h-10h-10h-10h-10h-10h-10h-9h-10h-10h-10h-10h-10h-10h-10h-10h-10h-9h-10h-10h-10h-10h-10v-10v-10v-9v-10v-10v-10v-10v-9v-10v-10v-10v-10v-9v-10v-10v-10v-10v-9v-10v-10h10h10h10h10h10h10h10h10h10h10h10h10h10h10h10h10h10
h10h9h10h10h10h10h10h10h10h10h10h10h10h10h10h10h10h10h10h10v-10v-10v-10v-10v-10v-10v-10v-10v-10v-10v-10h-10h-10h-10h-10h-10h-10h-10h-10h-10h-10h-10h-10h-10h-10h-10h-10h-10h-10h-9h-10h-10h-10h-10h-10h-10h-10h-10h-10h-10h-10h-10h-10h-10h-10h-10h-10h-10v-10
v-10v-10v-10v-10v-11v-10v-10v-10v-10v-10v-10v-10v-10v-10v-11v-10v-10v-10v-10h10h10h10h10h10h10h10h10h10h10h10h10h10h10h10h10h10h10h10h10h11h10h10h10h10h10h10h10h10h10h10h10h10h10h10h10h10h10h10h10h10h10v-10v-10v-10v-10v-10v-10v-10v-10v-10v-10v-10h-10h-10
h-10h-10h-10h-10h-10h-10h-10h-11h-10h-10h-10h-10h-10h-10h-10h-10h-10h-10h-10h-10h-10h-10h-10h-10h-10h-11h-10h-10h-10h-10h-10h-10h-10h-10h-10h-10h-10h-10h-10h-10h-10h-10h-10h-11h-10h-10h-10h-10h-10h-10h-10h-10v10v10v10v10v10v10v10v10v10v10v10v10v10v10v10
v10v10v10v9v10v10v10v10v10v10v10v10v10v10v10v10v10v10v10v10v10v10v10v10v10v10v10v10v10v10v10v10v10v10v10v10v10v10v10v9v10v10v10v10v10v10v10v10v10v10v10v10v10v10v10v10v10v10z" />
    <glyph glyph-name="F" unicode="F" horiz-adv-x="690" 
d="M99 728h10h10h10h10h10h10h10h10h10h10h10h10h10h10h10h10h10h10h10h10h10h10h10h10h10h10h10h9h10h10h10h10h10h10h10h10h10h10h10h10h10h10h10h10h10h10h10h10h10h10h10h10h10h10v-10v-10v-11v-10v-10v-10v-10v-10v-11v-10v-10h-10h-10h-10h-10h-10h-9h-10h-10h-10h-10
h-10h-10h-10h-10h-10h-9h-10h-10h-10h-10h-10h-10h-10h-10h-10h-10h-9h-10h-10h-10h-10h-10h-10h-10h-10h-10h-9h-10h-10h-10h-10h-10v-10v-10v-9v-10v-10v-10v-9v-10v-10v-10v-9v-10v-10v-10v-9v-10v-10v-10v-9v-10v-10h10h10h10h10h10h10h10h10h10h10h10h10h10h10h10h10
h10h10h10h10h10h10h10h10h10h10h10h10h10h10h10h10h10h10h10h10h10v-10v-10v-11v-10v-10v-10v-10v-10v-11v-10v-10h-10h-10h-10h-10h-10h-10h-10h-10h-10h-10h-10h-10h-10h-10h-10h-10h-10h-10h-10h-10h-10h-10h-10h-10h-10h-10h-10h-10h-10h-10h-10h-10h-10h-10h-10h-10
h-10v-10v-10v-10v-10v-10v-10v-10v-10v-10v-10v-10v-10v-10v-10v-9v-10v-10v-10v-10v-10v-10v-10v-10v-10v-10v-10v-10v-10v-10v-10h-10h-10h-11h-10h-10h-10h-11h-10h-10h-10h-11h-10v10v10v10v10v10v10v10v10v10v10v10v10v10v10v10v10v10v10v9v10v10v10v10v10v10v10v10v10
v10v10v10v10v10v10v10v10v10v10v10v10v10v10v10v10v10v10v10v10v10v10v10v10v10v10v9v10v10v10v10v10v10v10v10v10v10v10v10v10v10v10v10v10v10z" />
    <glyph glyph-name="G" unicode="G" horiz-adv-x="823" 
d="M443 -12h-11h-10l-11 1l-10 1l-10 1l-10 1l-10 1l-10 2l-10 2l-9 2l-9 2l-10 3l-9 3l-9 3l-9 3l-8 4l-10 4l-10 4l-9 5l-10 5l-9 5l-8 5l-9 6l-8 5l-8 6l-8 6l-8 7l-8 7l-7 6l-7 8l-7 7l-7 7l-6 8l-6 8l-6 8l-6 8l-5 8l-6 9l-5 9l-5 9l-4 9l-5 9l-4 9l-4 10l-3 9l-4 9
l-3 10l-2 9l-3 10l-2 9l-2 10l-2 10l-2 10l-1 10l-1 10l-1 10l-1 11v10v11v2v10v10l1 10l1 10l1 10l1 10l2 9l2 10l2 10l2 9l3 9l3 10l3 9l3 9l4 10l4 9l4 10l4 9l5 9l5 9l5 9l5 9l6 8l6 9l6 8l6 8l7 7l7 8l7 8l7 7l7 7l8 7l7 6l8 7l9 6l8 6l8 5l9 6l9 5l9 5l10 5l9 5l10 4
l9 4l8 3l9 3l9 3l9 3l10 2l9 3l9 2l10 1l9 2l10 1l10 1l10 1l10 1h10h10h12h11l12 -1l11 -1h10l11 -2l10 -1l10 -1l10 -2l10 -2l9 -2l9 -2l9 -3l9 -3l8 -2l9 -3l9 -4l9 -4l9 -4l9 -5l8 -4l9 -5l9 -5l8 -6l9 -5l8 -6l9 -6l8 -6l8 -6l8 -7l-6 -8l-7 -7l-6 -8l-7 -8l-6 -8
l-7 -7l-6 -8l-7 -8l-6 -8l-7 -7l-6 -8l-7 -8l-8 6l-8 7l-8 6l-8 5l-8 6l-8 5l-8 5l-8 4l-9 5l-8 4l-8 4l-8 3l-9 3l-8 3l-9 3l-9 2l-10 2l-10 1l-10 2l-10 1h-11l-11 1h-12h-10l-10 -1l-10 -1l-10 -1l-10 -2l-10 -3l-9 -2l-9 -3l-9 -4l-9 -4l-9 -4l-8 -5l-8 -5l-8 -5l-8 -6
l-8 -5l-7 -7l-7 -6l-7 -7l-6 -6l-7 -8l-6 -7l-6 -8l-5 -8l-5 -8l-5 -8l-5 -9l-4 -9l-4 -9l-4 -9l-3 -10l-3 -10l-3 -9l-3 -10l-1 -10l-2 -10l-1 -11l-1 -10l-1 -10v-11v-2v-10l1 -10v-10l1 -10l2 -10l1 -10l2 -9l3 -9l2 -10l3 -9l3 -8l4 -10l4 -9l4 -9l5 -9l5 -9l5 -8l6 -8
l5 -8l7 -7l6 -7l7 -7l7 -7l7 -6l8 -6l7 -6l8 -6l9 -5l8 -4l9 -5l10 -4l8 -3l9 -4l9 -2l9 -3l9 -2l9 -2l10 -1l10 -2h10l10 -1h10h11l10 1h11l10 1l10 2l10 2l10 2l9 2l10 3l9 3l10 3l10 4l9 4l10 4l8 5l9 5l8 5l8 5l8 6v10v10v10v10v10v10v11v10v10v10v10v10v10v10h-10h-10
h-10h-10h-10h-10h-10h-10h-10h-10h-10h-10h-10h-10h-10h-10h-10h-10h-10v10v10v9v10v10v10v10v10v9v10v10h10h10h10h10h10h10h10h10h10h10h10h10h10h10h10h9h10h10h10h10h10h10h10h10h10h10h10h10h10h10h10v-10v-10v-10v-11v-10v-10v-10v-10v-10v-10v-10v-11v-10v-10v-10
v-10v-10v-10v-11v-10v-10v-10v-10v-10v-10v-10v-11v-10v-10v-10l-7 -6l-8 -6l-7 -6l-8 -6l-8 -6l-9 -5l-8 -6l-9 -5l-9 -5l-9 -5l-9 -5l-10 -5l-9 -5l-10 -5l-10 -4l-9 -4l-9 -3l-9 -3l-8 -3l-10 -3l-9 -2l-9 -3l-9 -2l-10 -2l-10 -1l-9 -2l-10 -1l-10 -1l-10 -1l-11 -1
l-10 -1h-10h-11z" />
    <glyph glyph-name="H" unicode="H" horiz-adv-x="798" 
d="M99 728h10h11h10h10h10h11h10h10h10h11h10h10v-10v-10v-10v-9v-10v-10v-10v-10v-10v-9v-10v-10v-10v-10v-10v-9v-10v-10v-10v-10v-10v-9v-10v-10v-10v-10v-10v-9v-10v-10v-10h10h10h10h9h10h10h10h10h10h10h9h10h10h10h10h10h10h10h9h10h10h10h10h10h10h9h10h10h10h10h10
h10h9h10h10h10v10v10v10v9v10v10v10v10v10v9v10v10v10v10v10v9v10v10v10v10v10v9v10v10v10v10v10v9v10v10v10h10h11h10h10h10h11h10h10h10h11h10h10v-10v-10v-10v-10v-10v-10v-10v-10v-10v-10v-10v-10v-10v-10v-10v-10v-10v-10v-9v-10v-10v-10v-10v-10v-10v-10v-10v-10v-10
v-10v-10v-10v-10v-10v-10v-10v-10v-10v-10v-10v-10v-10v-10v-10v-10v-10v-10v-10v-10v-10v-10v-10v-10v-10v-9v-10v-10v-10v-10v-10v-10v-10v-10v-10v-10v-10v-10v-10v-10v-10v-10v-10v-10h-10h-10h-11h-10h-10h-10h-11h-10h-10h-10h-11h-10v10v10v10v10v10v10v10v10v10v10
v10v10v10v10v10v9v10v10v10v10v10v10v10v10v10v10v10v10v10v10v10h-10h-10h-10h-9h-10h-10h-10h-10h-10h-10h-9h-10h-10h-10h-10h-10h-10h-9h-10h-10h-10h-10h-10h-10h-10h-9h-10h-10h-10h-10h-10h-10h-9h-10h-10h-10v-10v-10v-10v-10v-10v-10v-10v-10v-10v-10v-10v-10v-10
v-10v-10v-9v-10v-10v-10v-10v-10v-10v-10v-10v-10v-10v-10v-10v-10v-10v-10h-10h-10h-11h-10h-10h-10h-11h-10h-10h-10h-11h-10v10v10v10v10v10v10v10v10v10v10v10v10v10v10v10v10v10v10v9v10v10v10v10v10v10v10v10v10v10v10v10v10v10v10v10v10v10v10v10v10v10v10v10v10v10
v10v10v10v10v10v10v10v10v10v9v10v10v10v10v10v10v10v10v10v10v10v10v10v10v10v10v10v10z" />
    <glyph glyph-name="I" unicode="I" horiz-adv-x="335" 
d="M106 728h10h11h10h10h10h11h10h10h10h11h10h10v-10v-10v-10v-10v-10v-10v-10v-10v-10v-10v-10v-10v-10v-10v-10v-10v-10v-10v-9v-10v-10v-10v-10v-10v-10v-10v-10v-10v-10v-10v-10v-10v-10v-10v-10v-10v-10v-10v-10v-10v-10v-10v-10v-10v-10v-10v-10v-10v-10v-10v-10v-10
v-10v-10v-9v-10v-10v-10v-10v-10v-10v-10v-10v-10v-10v-10v-10v-10v-10v-10v-10v-10v-10h-10h-10h-11h-10h-10h-10h-11h-10h-10h-10h-11h-10v10v10v10v10v10v10v10v10v10v10v10v10v10v10v10v10v10v10v9v10v10v10v10v10v10v10v10v10v10v10v10v10v10v10v10v10v10v10v10v10v10
v10v10v10v10v10v10v10v10v10v10v10v10v10v9v10v10v10v10v10v10v10v10v10v10v10v10v10v10v10v10v10v10z" />
    <glyph glyph-name="J" unicode="J" horiz-adv-x="589" 
d="M259 -10h-11l-11 1h-10l-11 1l-10 2l-10 1l-9 2l-10 3l-9 2l-9 3l-8 3l-8 4l-9 4l-7 4l-8 4l-8 5l-9 6l-8 6l-8 5l-7 7l-7 6l-8 6l-6 7l-7 7l-6 7l-6 7l-6 7l-6 8l7 7l7 7l6 7l7 7l7 7l7 7l6 6l7 7l7 7l7 7l6 7l7 7l7 -9l7 -9l8 -8l7 -8l7 -7l8 -7l7 -6l8 -6l8 -5l7 -5
l9 -4l8 -4l9 -3l9 -2l10 -2l9 -2l11 -1h10h11l10 1l9 2l10 3l9 3l8 4l8 5l8 5l7 6l7 7l5 6l4 7l5 7l4 8l3 9l3 9l2 9l2 10l2 11l1 11l1 12v12v10v10v10v10v10v10v10v10v10v10v10v10v9v10v10v10v10v10v10v10v10v10v10v10v10v10v10v10v10v10v10v10v10v10v10v10v9v10v10v10v10
v10v10v10v10v10v10v10h10h9h10h10h9h10h10h10h9h10h10h9h10v-10v-10v-10v-10v-10v-10v-10v-10v-10v-10v-10v-10v-10v-10v-10v-10v-10v-10v-10v-10v-10v-10v-10v-10v-11v-10v-10v-10v-10v-10v-10v-10v-10v-10v-10v-10v-10v-10v-10v-10v-10v-10v-10v-10v-10v-10v-10v-10v-11
v-10l-1 -10l-1 -10l-1 -10l-1 -10l-2 -9l-2 -9l-2 -9l-2 -9l-3 -8l-3 -8l-4 -9l-4 -10l-4 -8l-5 -9l-4 -8l-6 -8l-5 -7l-6 -8l-6 -6l-6 -7l-7 -7l-8 -6l-8 -7l-8 -5l-8 -6l-9 -5l-9 -4l-10 -4l-9 -4l-9 -3l-10 -3l-9 -2l-10 -2l-9 -2l-10 -1l-10 -2h-11l-10 -1h-11z" />
    <glyph glyph-name="K" unicode="K" horiz-adv-x="762" 
d="M99 728h10h11h10h10h10h11h10h10h10h11h10h10v-10v-10v-10v-10v-11v-10v-10v-10v-10v-10v-10v-10v-10v-11v-10v-10v-10v-10v-10v-10v-10v-10v-10v-11v-10v-10v-10v-10v-10v-10v-10v-10v-11v-10v-10v-10v-10l7 7l7 8l7 7l7 7l7 8l7 7l6 7l7 8l7 7l7 7l7 8l7 7l7 7l7 8l7 7
l7 7l7 8l7 7l7 7l6 8l7 7l7 7l7 8l7 7l7 7l7 8l7 7l7 7l7 8l7 7l7 7l6 8l7 7l7 7l7 8l7 7l7 7l7 8l7 7l7 7l7 8l7 7l7 7l7 8l6 7l7 7l7 8l7 7l7 7l7 8l7 7h10h10h11h10h10h10h10h11h10h10h10h10h11h10h10l-7 -7l-7 -7l-7 -7l-7 -7l-7 -8l-6 -7l-7 -7l-7 -7l-7 -7l-7 -7
l-7 -7l-7 -7l-7 -7l-7 -8l-7 -7l-7 -7l-6 -7l-7 -7l-7 -7l-7 -7l-7 -7l-7 -7l-7 -8l-7 -7l-7 -7l-7 -7l-7 -7l-6 -7l-7 -7l-7 -7l-7 -8l-7 -7l-7 -7l-7 -7l-7 -7l-7 -7l-7 -7l-7 -7l-6 -7l-7 -8l-7 -7l-7 -7l-7 -7l-7 -7l6 -8l6 -8l6 -8l6 -8l6 -8l7 -8l6 -8l6 -8l6 -8l6 -8
l6 -8l6 -8l6 -8l6 -8l6 -8l7 -8l6 -8l6 -8l6 -8l6 -8l6 -8l6 -8l6 -8l6 -8l6 -8l7 -7l6 -8l6 -8l6 -8l6 -8l6 -8l6 -8l6 -8l6 -8l6 -8l6 -8l7 -8l6 -8l6 -8l6 -8l6 -8l6 -8l6 -8l6 -8l6 -8l6 -8l7 -8l6 -8l6 -8l6 -8l6 -8l6 -8h-10h-10h-10h-10h-10h-10h-10h-10h-10h-10h-10
h-10h-10h-10h-10l-6 8l-6 8l-6 8l-6 8l-7 8l-6 8l-6 8l-6 8l-6 8l-6 8l-6 9l-6 8l-7 8l-6 8l-6 8l-6 8l-6 8l-6 8l-6 8l-6 8l-7 8l-6 8l-6 8l-6 8l-6 8l-6 8l-6 8l-6 8l-7 8l-6 8l-6 9l-6 8l-6 8l-6 8l-6 8l-6 8l-7 8l-6 8l-6 8l-6 8l-6 8l-7 -7l-7 -7l-7 -7l-7 -7l-7 -8
l-7 -7l-7 -7l-7 -7l-6 -7l-7 -7l-7 -7l-7 -7l-7 -8l-7 -7l-7 -7l-7 -7l-7 -7v-10v-10v-10v-10v-10v-10v-10v-10v-10v-10v-9v-10v-10v-10v-10v-10v-10v-10v-10v-10v-10h-10h-10h-11h-10h-10h-10h-11h-10h-10h-10h-11h-10v10v10v10v10v10v10v10v10v10v10v10v10v10v10v10v10v10
v10v9v10v10v10v10v10v10v10v10v10v10v10v10v10v10v10v10v10v10v10v10v10v10v10v10v10v10v10v10v10v10v10v10v10v10v10v9v10v10v10v10v10v10v10v10v10v10v10v10v10v10v10v10v10v10z" />
    <glyph glyph-name="L" unicode="L" horiz-adv-x="650" 
d="M99 728h10h11h10h10h10h11h10h10h10h11h10h10v-10v-10v-10v-10v-10v-10v-10v-9v-10v-10v-10v-10v-10v-10v-10v-10v-10v-10v-10v-10v-10v-10v-10v-9v-10v-10v-10v-10v-10v-10v-10v-10v-10v-10v-10v-10v-10v-10v-9v-10v-10v-10v-10v-10v-10v-10v-10v-10v-10v-10v-10v-10
v-10v-10v-9v-10v-10v-10v-10v-10v-10v-10h10h10h10h9h10h10h10h10h10h10h10h9h10h10h10h10h10h10h10h9h10h10h10h10h10h10h10h9h10h10h10h10h10h10h10h9h10h10h10v-10v-10v-11v-10v-10v-10v-10v-10v-11v-10v-10h-10h-10h-10h-10h-10h-10h-10h-10h-10h-10h-10h-10h-9h-10h-10
h-10h-10h-10h-10h-10h-10h-10h-10h-10h-10h-10h-10h-10h-10h-10h-10h-10h-10h-10h-10h-10h-10h-10h-9h-10h-10h-10h-10h-10h-10h-10h-10h-10h-10h-10h-10v10v10v10v10v10v10v10v10v10v10v10v10v10v10v10v10v10v10v9v10v10v10v10v10v10v10v10v10v10v10v10v10v10v10v10v10v10
v10v10v10v10v10v10v10v10v10v10v10v10v10v10v10v10v10v9v10v10v10v10v10v10v10v10v10v10v10v10v10v10v10v10v10v10z" />
    <glyph glyph-name="M" unicode="M" horiz-adv-x="911" 
d="M99 728h10h10h10h10h10h10h10h10h10h10h10h10h10l5 -8l6 -9l5 -8l6 -8l5 -9l5 -8l6 -8l5 -9l5 -8l6 -9l5 -8l6 -8l5 -9l5 -8l6 -8l5 -9l5 -8l6 -8l5 -9l6 -8l5 -8l5 -9l6 -8l5 -9l6 -8l5 -8l5 -9l6 -8l5 -8l5 -9l6 -8l5 -8l6 -9l5 -8l5 -8l6 -9l5 -8l5 -9l6 -8l5 -8l6 -9
l5 -8l5 8l6 9l5 8l6 8l5 9l5 8l6 9l5 8l6 8l5 9l5 8l6 8l5 9l6 8l5 8l5 9l6 8l5 8l6 9l5 8l6 9l5 8l5 8l6 9l5 8l6 8l5 9l5 8l6 8l5 9l6 8l5 8l5 9l6 8l5 9l6 8l5 8l5 9l6 8l5 8l6 9l5 8h10h10h10h10h10h10h10h10h10h10h10h10h10v-10v-10v-10v-10v-10v-10v-10v-10v-10v-10
v-10v-10v-10v-10v-10v-10v-10v-10v-9v-10v-10v-10v-10v-10v-10v-10v-10v-10v-10v-10v-10v-10v-10v-10v-10v-10v-10v-10v-10v-10v-10v-10v-10v-10v-10v-10v-10v-10v-10v-10v-10v-10v-10v-10v-9v-10v-10v-10v-10v-10v-10v-10v-10v-10v-10v-10v-10v-10v-10v-10v-10v-10v-10h-10
h-10h-10h-11h-10h-10h-10h-10h-10h-11h-10h-10v10v10v10v10v10v10v10v10v10v10v10v10v10v10v10v10v10v10v10v10v10v10v10v10v10v10v10v10v10v10v10v10v10v10v10v10v10v10v10v10v10v10v10v10v10v10v10v10v10v10v10v10v10l-6 -8l-5 -9l-6 -8l-5 -8l-6 -9l-5 -8l-6 -8l-6 -8
l-5 -9l-6 -8l-5 -8l-6 -9l-5 -8l-6 -8l-6 -9l-5 -8l-6 -8l-5 -9l-6 -8l-5 -8l-6 -8l-6 -9l-5 -8l-6 -8l-5 -9l-6 -8l-5 -8l-6 -9l-6 -8l-5 -8l-6 -9l-5 -8l-6 -8l-5 -9l-6 -8l-6 -8l-5 -8l-6 -9l-5 -8l-6 -8l-5 -9l-6 -8h-4l-6 8l-5 9l-6 8l-5 8l-6 8l-5 9l-6 8l-5 8l-6 8
l-5 9l-6 8l-6 8l-5 8l-6 9l-5 8l-6 8l-5 8l-6 9l-5 8l-6 8l-5 9l-6 8l-6 8l-5 8l-6 9l-5 8l-6 8l-5 8l-6 9l-5 8l-6 8l-6 8l-5 9l-6 8l-5 8l-6 8l-5 9l-6 8l-5 8l-6 8l-5 9l-6 8v-10v-10v-10v-10v-10v-10v-10v-10v-10v-10v-10v-10v-10v-9v-10v-10v-10v-10v-10v-10v-10v-10
v-10v-10v-10v-10v-10v-10v-10v-10v-10v-10v-10v-10v-10v-10v-10v-10v-10v-9v-10v-10v-10v-10v-10v-10v-10v-10v-10v-10v-10v-10v-10h-10h-10h-10h-10h-10h-10h-10h-10h-10h-10h-10h-10v10v10v10v10v10v10v10v10v10v10v10v10v10v10v10v10v10v10v9v10v10v10v10v10v10v10v10v10
v10v10v10v10v10v10v10v10v10v10v10v10v10v10v10v10v10v10v10v10v10v10v10v10v10v10v9v10v10v10v10v10v10v10v10v10v10v10v10v10v10v10v10v10v10z" />
    <glyph glyph-name="N" unicode="N" horiz-adv-x="830" 
d="M99 728h10h11h10h10h10h11h10h10h10h11h10l6 -8l6 -8l6 -8l6 -8l7 -7l6 -8l6 -8l6 -8l6 -8l6 -8l6 -8l6 -8l7 -8l6 -7l6 -8l6 -8l6 -8l6 -8l6 -8l6 -8l7 -8l6 -8l6 -8l6 -7l6 -8l6 -8l6 -8l6 -8l7 -8l6 -8l6 -8l6 -8l6 -7l6 -8l6 -8l6 -8l7 -8l6 -8l6 -8l6 -8l6 -8l6 -7
l6 -8l6 -8l7 -8l6 -8l6 -8l6 -8l6 -8l6 -8l6 -8l6 -7l7 -8l6 -8l6 -8l6 -8l6 -8l6 -8l6 -8l6 -8l7 -7l6 -8l6 -8l6 -8l6 -8v10v10v10v10v10v10v10v10v11v10v10v10v10v10v10v10v10v10v10v10v10v10v10v10v10v11v10v10v10v10v10v10v10v10v10v10v10v10v10v10v10v10v11v10v10v10
v10v10v10v10v10h10h10h10h10h10h11h10h10h10h10h10h10v-10v-10v-10v-10v-10v-10v-10v-10v-10v-10v-10v-10v-10v-10v-10v-10v-10v-10v-9v-10v-10v-10v-10v-10v-10v-10v-10v-10v-10v-10v-10v-10v-10v-10v-10v-10v-10v-10v-10v-10v-10v-10v-10v-10v-10v-10v-10v-10v-10v-10v-10
v-10v-10v-10v-9v-10v-10v-10v-10v-10v-10v-10v-10v-10v-10v-10v-10v-10v-10v-10v-10v-10v-10h-10h-11h-10h-10h-10h-11h-10h-10h-11h-10l-6 8l-6 8l-6 8l-6 7l-6 8l-7 8l-6 8l-6 8l-6 8l-6 8l-6 8l-6 7l-6 8l-6 8l-6 8l-6 8l-7 8l-6 8l-6 7l-6 8l-6 8l-6 8l-6 8l-6 8l-6 8
l-6 8l-6 7l-7 8l-6 8l-6 8l-6 8l-6 8l-6 8l-6 7l-6 8l-6 8l-6 8l-6 8l-6 8l-7 8l-6 7l-6 8l-6 8l-6 8l-6 8l-6 8l-6 8l-6 8l-6 7l-6 8l-7 8l-6 8l-6 8l-6 8l-6 8l-6 7l-6 8l-6 8l-6 8l-6 8l-6 8l-7 8l-6 8l-6 7l-6 8l-6 8l-6 8v-10v-10v-10v-10v-10v-10v-10v-10v-9v-10v-10
v-10v-10v-10v-10v-10v-10v-10v-10v-10v-10v-10v-10v-10v-10v-10v-9v-10v-10v-10v-10v-10v-10v-10v-10v-10v-10v-10v-10v-10v-10v-10v-10v-10v-9v-10v-10v-10v-10v-10v-10v-10v-10h-10h-10h-10h-10h-10h-10h-11h-10h-10h-10h-10h-10v10v10v10v10v10v10v10v10v10v10v10v10v10
v10v10v10v10v10v9v10v10v10v10v10v10v10v10v10v10v10v10v10v10v10v10v10v10v10v10v10v10v10v10v10v10v10v10v10v10v10v10v10v10v10v9v10v10v10v10v10v10v10v10v10v10v10v10v10v10v10v10v10v10z" />
    <glyph glyph-name="O" unicode="O" horiz-adv-x="892" 
d="M445 -12h-10h-11l-10 1l-10 1l-10 1l-10 1l-10 2l-9 1l-10 2l-9 3l-10 2l-9 3l-9 2l-9 4l-9 3l-8 4l-10 4l-9 4l-9 4l-8 5l-9 5l-8 5l-8 5l-8 5l-8 6l-7 5l-8 6l-7 6l-7 7l-7 6l-7 7l-7 7l-7 8l-6 8l-7 8l-6 8l-6 8l-5 8l-6 9l-5 9l-5 9l-5 9l-5 9l-4 9l-4 10l-4 9l-3 9
l-3 10l-3 9l-3 9l-2 10l-2 9l-2 10l-2 10l-1 10l-1 10l-1 10l-1 10v10v10v2v10v10l1 10l1 10l1 10l1 10l2 9l2 10l2 10l2 9l3 9l3 10l3 9l3 9l4 10l4 9l4 10l5 9l5 9l5 9l5 9l6 9l5 8l6 9l6 8l7 8l7 7l6 8l8 8l6 6l7 7l7 6l8 6l7 6l8 6l8 6l8 5l8 6l9 5l8 4l9 5l9 5l9 4l9 4
l9 4l9 3l9 3l9 3l9 3l9 2l10 3l10 2l9 1l10 2l10 1l10 1l10 1l10 1h11h10h10h11l10 -1l10 -1l10 -1l10 -1l10 -2l9 -1l10 -2l9 -3l10 -2l9 -3l9 -3l9 -3l9 -3l9 -4l9 -4l9 -4l9 -5l8 -4l9 -5l8 -5l8 -6l8 -5l8 -6l8 -5l7 -6l7 -6l7 -7l7 -6l7 -7l7 -7l7 -8l6 -8l7 -8l6 -8
l6 -8l6 -8l5 -9l5 -9l5 -9l5 -9l5 -9l4 -9l4 -10l4 -9l3 -9l3 -10l3 -9l3 -9l2 -10l2 -9l2 -10l2 -9l1 -10l1 -10l1 -10l1 -10v-10v-10v-2v-10v-10l-1 -10l-1 -10l-1 -10l-1 -10l-2 -10l-2 -10l-2 -9l-2 -10l-3 -9l-3 -9l-3 -10l-3 -9l-4 -9l-4 -10l-4 -9l-5 -9l-5 -10
l-5 -8l-5 -9l-6 -9l-5 -8l-6 -9l-6 -8l-7 -8l-7 -7l-6 -8l-7 -7l-7 -7l-7 -7l-7 -6l-8 -6l-7 -6l-8 -6l-8 -6l-8 -5l-8 -6l-8 -5l-9 -4l-9 -5l-9 -5l-9 -4l-9 -4l-9 -4l-9 -3l-9 -3l-9 -3l-9 -3l-9 -2l-10 -3l-9 -2l-10 -1l-10 -2l-10 -1l-10 -1l-10 -1l-10 -1h-11h-10z
M447 101h11l11 1l10 1l11 1l10 2l10 2l10 3l9 3l10 4l9 4l9 4l9 4l8 5l9 5l8 6l8 6l7 6l7 6l7 7l7 7l6 7l7 7l5 8l6 8l5 8l5 8l5 9l5 9l4 9l4 10l3 9l3 10l3 10l2 10l2 10l2 10l1 10l1 11l1 10v11v2v11l-1 10l-1 11l-1 10l-2 11l-2 10l-2 10l-3 10l-3 9l-3 10l-4 9l-4 10
l-5 9l-5 8l-5 9l-5 8l-6 8l-6 8l-6 7l-6 8l-7 6l-7 7l-8 6l-7 7l-8 5l-8 6l-9 5l-8 5l-9 5l-9 4l-10 4l-9 4l-10 3l-10 2l-10 3l-10 2l-11 1l-10 1l-11 1h-11h-11l-11 -1l-10 -1l-11 -1l-10 -2l-10 -2l-10 -3l-9 -3l-10 -4l-9 -3l-9 -5l-9 -4l-8 -5l-9 -5l-8 -6l-8 -5l-7 -7
l-7 -6l-7 -7l-7 -6l-6 -8l-7 -7l-5 -8l-6 -8l-5 -8l-5 -8l-5 -9l-5 -9l-4 -9l-3 -9l-4 -10l-3 -10l-3 -10l-2 -10l-2 -10l-2 -10l-1 -10l-1 -11l-1 -10v-11v-2v-11l1 -10l1 -11l1 -10l2 -10l2 -11l2 -10l3 -10l3 -9l4 -10l3 -9l5 -10l4 -9l5 -8l5 -9l5 -8l6 -8l6 -8l6 -7
l7 -7l6 -7l7 -7l8 -6l7 -7l8 -5l8 -6l9 -5l8 -5l9 -5l10 -4l9 -4l9 -4l10 -3l10 -2l10 -3l10 -2l11 -1l10 -1l11 -1h11z" />
    <glyph glyph-name="P" unicode="P" horiz-adv-x="703" 
d="M99 728h10h10h9h10h10h10h10h10h9h10h10h10h10h10h9h10h10h10h10h10h9h10h10h10h10h10h9h10h10h10h11l10 -1l10 -1l9 -1l10 -1l9 -2l10 -2l9 -2l9 -2l8 -3l9 -2l10 -4l10 -4l9 -4l9 -5l9 -4l9 -6l8 -5l8 -5l8 -6l7 -6l8 -8l7 -7l7 -8l7 -8l6 -9l6 -8l5 -9l5 -10l5 -9
l3 -9l4 -10l2 -9l3 -10l2 -9l2 -10l1 -10l1 -11l1 -10v-11v-3v-11l-1 -11l-1 -10l-1 -10l-2 -10l-2 -10l-2 -10l-3 -9l-3 -9l-4 -9l-4 -8l-5 -10l-5 -8l-5 -9l-6 -8l-6 -8l-7 -8l-6 -7l-7 -7l-8 -7l-7 -6l-9 -6l-8 -6l-8 -5l-9 -5l-9 -5l-10 -5l-9 -4l-10 -4l-10 -3l-10 -3
l-10 -3l-10 -3l-10 -2l-10 -2l-10 -1l-10 -2l-10 -1l-11 -1h-10l-11 -1h-11h-10h-10h-10h-9h-10h-10h-10h-10h-10h-10h-10h-9h-10h-10h-10v-10v-10v-10v-9v-10v-10v-10v-10v-10v-10v-10v-9v-10v-10v-10v-10v-10v-10v-10v-9v-10v-10v-10v-10h-10h-10h-11h-10h-10h-10h-11h-10
h-10h-10h-11h-10v10v10v10v10v10v10v10v10v10v10v10v10v10v10v10v10v10v10v9v10v10v10v10v10v10v10v10v10v10v10v10v10v10v10v10v10v10v10v10v10v10v10v10v10v10v10v10v10v10v10v10v10v10v10v9v10v10v10v10v10v10v10v10v10v10v10v10v10v10v10v10v10v10zM374 347h11l11 1
l11 1l10 2l10 2l10 2l9 3l8 3l9 4l8 4l7 5l8 5l7 6l7 6l7 8l6 8l5 8l5 8l4 9l3 9l3 9l2 10l1 10v11v2v12l-1 11l-2 11l-3 10l-3 9l-4 9l-5 9l-5 8l-6 8l-7 7l-8 6l-7 5l-7 5l-8 4l-8 4l-8 3l-9 3l-9 3l-10 2l-9 2l-10 1l-11 1l-11 1h-11h-10h-10h-10h-11h-10h-10h-10h-10
h-10h-10h-10h-11h-10h-10h-10v-10v-10v-10v-10v-10v-10v-10v-10v-10v-10v-10v-10v-10v-10v-10v-10v-10v-10v-10v-10v-10v-10v-10v-10v-10v-10v-10h10h10h10h11h10h10h10h10h10h10h10h11h10h10h10z" />
    <glyph glyph-name="Q" unicode="Q" horiz-adv-x="892" 
d="M756 -22l-7 7l-8 6l-7 7l-7 6l-8 7l-7 7l-7 6l-8 7l-7 6l-7 7l-8 6l-7 7l-8 -5l-8 -5l-8 -5l-8 -5l-9 -4l-8 -5l-9 -4l-9 -4l-9 -3l-9 -4l-9 -3l-9 -3l-9 -3l-10 -3l-9 -3l-10 -2l-10 -2l-10 -1l-10 -2l-10 -1l-10 -1h-11l-10 -1h-11h-10h-11l-10 1l-10 1l-10 1l-10 1
l-10 2l-9 1l-10 2l-9 3l-10 2l-9 3l-9 2l-9 4l-9 3l-8 4l-10 4l-9 4l-9 4l-8 5l-9 5l-8 5l-8 5l-8 5l-8 6l-7 5l-8 6l-7 6l-7 7l-7 6l-7 7l-7 7l-7 8l-6 8l-7 8l-6 8l-6 8l-5 8l-6 9l-5 9l-5 9l-5 9l-5 9l-4 9l-4 10l-4 9l-3 9l-3 10l-3 9l-3 9l-2 10l-2 9l-2 10l-2 10
l-1 10l-1 10l-1 10l-1 10v10v10v2v10v10l1 10l1 10l1 10l1 10l2 9l2 10l2 10l2 9l3 9l3 10l3 9l3 9l4 10l4 9l4 10l5 9l5 9l5 9l5 9l6 9l5 8l6 9l6 8l7 8l7 7l6 8l8 8l6 6l7 7l7 6l8 6l7 6l8 6l8 6l8 5l8 6l9 5l8 4l9 5l9 5l9 4l9 4l9 4l9 3l9 3l9 3l9 3l9 2l10 3l10 2l9 1
l10 2l10 1l10 1l10 1l10 1h11h10h10h11l10 -1l10 -1l10 -1l10 -1l10 -2l9 -1l10 -2l9 -3l10 -2l9 -3l9 -3l9 -3l9 -3l9 -4l9 -4l9 -4l9 -5l8 -4l9 -5l8 -5l8 -6l8 -5l8 -6l8 -5l7 -6l7 -6l7 -7l7 -6l7 -7l7 -7l7 -8l6 -8l7 -8l6 -8l6 -8l6 -8l5 -9l5 -9l5 -9l5 -9l5 -9l4 -9
l4 -10l4 -9l3 -9l3 -10l3 -9l3 -9l2 -10l2 -9l2 -10l2 -9l1 -10l1 -10l1 -10l1 -10v-10v-10v-2v-10l-1 -11v-10l-1 -10l-1 -11l-2 -10l-2 -10l-2 -10l-2 -9l-3 -10l-3 -10l-3 -9l-3 -10l-4 -9l-4 -10l-4 -9l-4 -9l-5 -9l-4 -8l-5 -9l-5 -8l-6 -9l-5 -8l-6 -8l8 -7l7 -6l8 -7
l8 -6l7 -7l8 -6l7 -7l8 -6l8 -7l7 -6l8 -7l-7 -7l-6 -8l-7 -7l-6 -7l-7 -8l-6 -7l-7 -7l-7 -8l-6 -7l-7 -7l-6 -8zM447 101h10l11 1l10 1l10 1l10 2l9 2l10 2l9 3l9 3l9 3l8 4l9 4l8 4l8 5l-7 6l-8 7l-7 6l-8 7l-7 6l-8 6l-7 7l-8 6l-7 7l-8 6l-7 7l-8 6l-7 6l-8 7l-7 6
l-8 7l-7 6l7 8l6 7l7 8l7 7l6 8l7 7l7 8l6 7l7 8l7 7l6 8l7 7l8 -7l7 -7l8 -7l7 -7l8 -6l8 -7l7 -7l8 -7l7 -7l8 -7l7 -7l8 -7l8 -6l7 -7l8 -7l7 -7l8 -7l5 9l5 9l4 9l4 10l4 10l3 10l3 10l2 9l2 9l2 10l2 9l1 10v10l1 10v10v2v11l-1 10l-1 11l-1 10l-2 11l-2 10l-2 10
l-3 10l-3 9l-3 10l-4 9l-4 10l-5 9l-5 8l-5 9l-5 8l-6 8l-6 8l-6 7l-6 8l-7 6l-7 7l-8 6l-7 7l-8 5l-8 6l-9 5l-8 5l-9 5l-9 4l-10 4l-9 4l-10 3l-10 2l-10 3l-10 2l-11 1l-10 1l-11 1h-11h-11l-11 -1l-10 -1l-11 -1l-10 -2l-10 -2l-10 -3l-9 -3l-10 -4l-9 -3l-9 -5l-9 -4
l-8 -5l-9 -5l-8 -6l-8 -5l-7 -7l-7 -6l-7 -7l-7 -6l-6 -8l-7 -7l-5 -8l-6 -8l-5 -8l-5 -8l-5 -9l-5 -9l-4 -9l-3 -9l-4 -10l-3 -10l-3 -10l-2 -10l-2 -10l-2 -10l-1 -10l-1 -11l-1 -10v-11v-2v-11l1 -10l1 -11l1 -10l2 -10l2 -11l2 -10l3 -10l3 -9l4 -10l3 -9l5 -10l4 -9
l5 -8l5 -9l5 -8l6 -8l6 -8l6 -7l7 -7l6 -7l7 -7l8 -6l7 -7l8 -5l8 -6l9 -5l8 -5l9 -5l10 -4l9 -4l9 -4l10 -3l10 -2l10 -3l10 -2l11 -1l10 -1l11 -1h11z" />
    <glyph glyph-name="Q.alt" horiz-adv-x="892" 
d="M581 11l-9 -3l-9 -3l-10 -3l-9 -2l-10 -2l-9 -2l-10 -2l-10 -2l-10 -1l-10 -1l-10 -1l-10 -1h-10h-10h-10h-11l-10 1l-10 1l-10 1l-10 1l-10 2l-9 1l-10 2l-9 3l-10 2l-9 3l-9 2l-9 4l-9 3l-8 4l-10 4l-9 4l-9 4l-8 5l-9 5l-8 5l-8 5l-8 5l-8 6l-7 5l-8 6l-7 6l-7 7l-7 6
l-7 7l-7 7l-7 8l-6 8l-7 8l-6 8l-6 8l-5 8l-6 9l-5 9l-5 9l-5 9l-5 9l-4 9l-4 10l-4 9l-3 9l-3 10l-3 9l-3 9l-2 10l-2 9l-2 10l-2 10l-1 10l-1 10l-1 10l-1 10v10v10v2v10v10l1 10l1 10l1 10l1 10l2 9l2 10l2 10l2 9l3 9l3 10l3 9l3 9l4 10l4 9l4 10l5 9l5 9l5 9l5 9l6 9
l5 8l6 9l6 8l7 8l7 7l6 8l8 8l6 6l7 7l7 6l8 6l7 6l8 6l8 6l8 5l8 6l9 5l8 4l9 5l9 5l9 4l9 4l9 4l9 3l9 3l9 3l9 3l9 2l10 3l10 2l9 1l10 2l10 1l10 1l10 1l10 1h11h10h10h11l10 -1l10 -1l10 -1l10 -1l10 -2l9 -1l10 -2l9 -3l10 -2l9 -3l9 -3l9 -3l9 -3l9 -4l9 -4l9 -4
l9 -5l8 -4l9 -5l8 -5l8 -6l8 -5l8 -6l8 -5l7 -6l7 -6l7 -7l7 -6l7 -7l7 -7l7 -8l6 -8l7 -8l6 -8l6 -8l6 -8l5 -9l5 -9l5 -9l5 -9l5 -9l4 -9l4 -10l4 -9l3 -9l3 -10l3 -9l3 -9l2 -10l2 -9l2 -10l2 -9l1 -10l1 -10l1 -10l1 -10v-10v-10v-2v-10l-1 -11v-10l-1 -10l-1 -10
l-2 -10l-1 -10l-2 -10l-2 -10l-3 -10l-3 -9l-3 -10l-3 -9l-3 -10l-4 -9l-4 -9l-4 -9l-5 -9l-4 -9l-5 -8l-5 -9l-6 -8l-5 -8l-6 -8l-6 -8l-6 -7l-6 -8l-7 -7l-6 -7l-7 -7l-8 -7l-7 -7l7 -7l7 -7l7 -7l7 -7l8 -7l7 -7l7 -7l7 -7l7 -7l7 -7l7 -7l7 -7l8 -7l7 -7l7 -7l7 -7l7 -7
l7 -7l7 -7l7 -7l7 -7l8 -7l7 -7l7 -7l7 -7l7 -7v-4h-10h-10h-10h-11h-10h-10h-10h-10h-10h-11h-10h-10h-10h-10h-10h-11h-10h-10l-7 7l-7 7l-7 6l-7 7l-8 7l-7 7l-7 7l-7 7l-7 6l-7 7l-7 7l-7 7l-8 7l-7 7l-7 6l-7 7zM447 101h11l11 1l10 1l11 1l10 2l10 2l10 3l9 3l10 4
l9 4l9 4l9 4l8 5l9 5l8 6l8 6l7 6l7 6l7 7l7 7l6 7l7 7l5 8l6 8l5 8l5 8l5 9l5 9l4 9l4 10l3 9l3 10l3 10l2 10l2 10l2 10l1 10l1 11l1 10v11v2v11l-1 10l-1 11l-1 10l-2 11l-2 10l-2 10l-3 10l-3 9l-3 10l-4 9l-4 10l-5 9l-5 8l-5 9l-5 8l-6 8l-6 8l-6 7l-6 8l-7 6l-7 7
l-8 6l-7 7l-8 5l-8 6l-9 5l-8 5l-9 5l-9 4l-10 4l-9 4l-10 3l-10 2l-10 3l-10 2l-11 1l-10 1l-11 1h-11h-11l-11 -1l-10 -1l-11 -1l-10 -2l-10 -2l-10 -3l-9 -3l-10 -4l-9 -3l-9 -5l-9 -4l-8 -5l-9 -5l-8 -6l-8 -5l-7 -7l-7 -6l-7 -7l-7 -6l-6 -8l-7 -7l-5 -8l-6 -8l-5 -8
l-5 -8l-5 -9l-5 -9l-4 -9l-3 -9l-4 -10l-3 -10l-3 -10l-2 -10l-2 -10l-2 -10l-1 -10l-1 -11l-1 -10v-11v-2v-11l1 -10l1 -11l1 -10l2 -10l2 -11l2 -10l3 -10l3 -9l4 -10l3 -9l5 -10l4 -9l5 -8l5 -9l5 -8l6 -8l6 -8l6 -7l7 -7l6 -7l7 -7l8 -6l7 -7l8 -5l8 -6l9 -5l8 -5l9 -5
l10 -4l9 -4l9 -4l10 -3l10 -2l10 -3l10 -2l11 -1l10 -1l11 -1h11z" />
    <glyph glyph-name="R" unicode="R" horiz-adv-x="760" 
d="M99 728h10h10h10h10h10h11h10h10h10h10h10h10h10h10h10h11h10h10h10h10h10h10h10h10h10h10h11h10h10h10h10h10h11l12 -1h11l10 -1l11 -1l10 -2l10 -1l10 -2l10 -3l9 -2l9 -3l9 -3l10 -4l10 -4l10 -5l10 -5l9 -5l8 -6l8 -5l8 -7l8 -6l7 -7l7 -7l6 -7l6 -8l5 -8l6 -8l4 -8
l5 -9l3 -9l4 -9l3 -10l3 -9l2 -10l2 -10l1 -11l1 -11l1 -11v-11v-2v-11l-1 -11l-1 -10l-1 -11l-2 -10l-2 -9l-2 -10l-3 -9l-4 -9l-3 -8l-4 -9l-5 -8l-4 -7l-6 -8l-5 -7l-6 -7l-7 -7l-7 -7l-7 -6l-7 -6l-8 -6l-8 -6l-8 -5l-9 -5l-8 -5l-9 -4l-9 -4l-10 -4l-10 -4l-10 -3
l-10 -3l6 -8l6 -8l6 -9l6 -8l5 -8l6 -8l6 -8l6 -8l6 -9l6 -8l6 -8l6 -8l5 -8l6 -8l6 -9l6 -8l6 -8l6 -8l6 -8l6 -9l6 -8l5 -8l6 -8l6 -8l6 -8l6 -9l6 -8l6 -8l6 -8l5 -8l6 -8l6 -9l6 -8l6 -8h-10h-9h-10h-10h-10h-9h-10h-10h-10h-9h-10h-10h-10h-9h-10l-6 8l-6 9l-6 8l-5 8
l-6 8l-6 9l-6 8l-6 8l-6 9l-6 8l-6 8l-5 8l-6 9l-6 8l-6 8l-6 9l-6 8l-6 8l-6 9l-5 8l-6 8l-6 8l-6 9l-6 8l-6 8l-6 9l-6 8l-5 8l-6 8l-6 9l-6 8h-10h-9h-10h-10h-10h-9h-10h-10h-9h-10h-10h-9h-10h-10h-10h-9h-10v-10v-10v-10v-10v-9v-10v-10v-10v-10v-10v-10v-10v-9v-10
v-10v-10v-10v-10v-10v-10v-10v-9v-10v-10v-10v-10h-10h-10h-11h-10h-10h-10h-11h-10h-10h-10h-11h-10v10v10v10v10v10v10v10v10v10v10v10v10v10v10v10v10v10v10v9v10v10v10v10v10v10v10v10v10v10v10v10v10v10v10v10v10v10v10v10v10v10v10v10v10v10v10v10v10v10v10v10v10v10
v10v9v10v10v10v10v10v10v10v10v10v10v10v10v10v10v10v10v10v10zM413 366h11l12 1l10 1l11 2l9 2l10 3l9 3l9 3l8 4l8 5l8 5l7 5l8 7l7 8l6 7l6 9l5 9l3 9l3 10l2 10l2 11v11v2v12l-2 11l-2 10l-3 11l-3 9l-5 9l-5 8l-6 8l-7 7l-8 7l-7 5l-8 5l-7 4l-9 4l-9 3l-9 3l-10 2
l-10 2l-10 2l-12 1l-11 1h-12h-10h-10h-10h-10h-10h-10h-10h-10h-10h-10h-10h-10h-10h-10h-10h-10h-10h-10h-10v-10v-10v-10v-10v-10v-10v-10v-10v-10v-10v-10v-10v-11v-10v-10v-10v-10v-10v-10v-10v-10v-10v-10v-10v-10h10h10h10h10h10h10h10h10h10h11h10h10h10h10h10h10
h10h10h10z" />
    <glyph glyph-name="S" unicode="S" horiz-adv-x="674" 
d="M353 -10h-11h-10l-11 1l-10 1l-10 1l-10 1l-11 1l-10 2l-10 2l-10 2l-10 2l-9 3l-10 3l-10 3l-9 3l-10 4l-9 3l-9 4l-9 4l-8 4l-9 4l-8 4l-9 5l-8 5l-9 5l-8 6l-8 5l-8 6l-8 6l-8 6l-8 7l-8 6l-8 7l7 8l6 8l7 8l7 8l7 8l6 8l7 8l7 8l7 8l6 8l7 8l8 -7l8 -7l9 -6l8 -6
l8 -6l8 -6l9 -5l8 -5l8 -5l9 -5l8 -4l9 -5l8 -3l9 -4l8 -3l9 -4l9 -2l9 -3l10 -2l9 -2l10 -1l10 -2l10 -1h10l10 -1h11h12l11 1l11 1l11 2l10 3l9 2l9 4l9 4l8 4l7 5l8 7l8 7l6 8l5 8l4 9l3 10l1 10l1 10v2v10l-2 9l-2 8l-3 9l-4 7l-6 8l-7 7l-8 7l-7 4l-7 4l-8 5l-9 4
l-10 4l-10 4l-8 3l-8 2l-8 3l-9 3l-9 2l-10 3l-10 3l-11 2l-11 3l-11 3l-10 2l-10 3l-10 3l-10 2l-9 3l-10 3l-9 3l-9 3l-8 3l-8 3l-10 4l-10 4l-9 4l-9 5l-8 4l-8 5l-8 5l-8 5l-6 6l-8 6l-7 6l-6 7l-6 8l-6 7l-5 8l-5 8l-4 9l-3 8l-3 8l-3 9l-2 9l-2 10l-1 9l-1 11l-1 10
v11v2v10l1 10l1 10l2 9l2 10l2 9l3 9l4 9l4 9l4 9l6 9l5 9l7 8l6 8l7 8l8 7l8 8l7 5l8 6l8 6l8 5l9 4l9 5l9 4l10 4l10 4l9 2l9 3l10 2l9 2l10 2l10 2l10 1h11l10 1h11h11h10l11 -1l10 -1l10 -1l10 -1l10 -1l9 -2l10 -1l9 -2l9 -2l9 -3l9 -2l9 -3l9 -3l9 -3l8 -4l9 -4l9 -4
l9 -4l9 -5l8 -4l9 -5l8 -6l8 -5l9 -6l8 -6l8 -6l8 -6l-6 -8l-6 -9l-6 -8l-6 -9l-6 -8l-7 -9l-6 -8l-6 -9l-6 -8l-6 -9l-6 -8l-9 7l-9 6l-9 6l-9 6l-9 5l-9 5l-9 5l-9 5l-9 4l-9 4l-9 3l-9 4l-9 2l-9 3l-9 2l-9 2l-9 2l-9 2l-10 1h-9l-9 1h-9h-11l-11 -1l-11 -1l-9 -2l-10 -2
l-8 -3l-9 -3l-7 -4l-8 -5l-6 -4l-9 -8l-7 -8l-6 -9l-5 -9l-3 -9l-2 -10l-1 -11v-2v-11l2 -10l2 -9l4 -8l4 -9l6 -7l8 -8l9 -6l7 -5l8 -4l9 -5l9 -4l10 -4l11 -4l8 -3l8 -2l9 -3l9 -3l10 -2l10 -3l11 -3l11 -2l12 -3l10 -3l11 -2l10 -3l9 -3l10 -3l9 -2l9 -3l9 -3l8 -4l8 -3
l9 -3l9 -4l9 -4l9 -5l8 -4l9 -5l7 -5l8 -5l7 -6l7 -5l8 -7l7 -8l7 -8l6 -8l6 -9l5 -9l5 -9l3 -9l3 -9l2 -9l2 -10l2 -10l1 -10l1 -11v-11v-2v-11l-1 -11l-1 -11l-2 -10l-2 -10l-2 -10l-3 -10l-4 -9l-4 -9l-4 -9l-5 -8l-5 -8l-6 -8l-6 -8l-6 -7l-7 -7l-7 -6l-7 -6l-8 -6
l-8 -6l-9 -5l-9 -5l-9 -5l-9 -5l-10 -4l-10 -4l-10 -3l-9 -3l-8 -2l-9 -2l-10 -2l-9 -2l-9 -1l-10 -1l-10 -1l-10 -1h-10h-10z" />
    <glyph glyph-name="T" unicode="T" horiz-adv-x="678" 
d="M278 615h-10h-10h-10h-11h-10h-10h-10h-10h-10h-10h-10h-11h-10h-10h-10h-10h-10h-10h-10h-11h-10h-10h-10v10v11v10v10v10v11v10v10v10v11v10h10h10h10h10h10h10h10h10h10h10h10h10h10h10h9h10h10h10h10h10h10h10h10h10h10h10h10h10h10h10h10h10h10h10h10h10h10h10h10
h10h10h10h10h10h9h10h10h10h10h10h10h10h10h10h10h10h10h10h10v-10v-11v-10v-10v-10v-11v-10v-10v-10v-11v-10h-10h-10h-10h-10h-10h-11h-10h-10h-10h-10h-10h-10h-10h-10h-10h-10h-10h-11h-10h-10h-10h-10h-10v-10v-10v-10v-10v-10v-10v-9v-10v-10v-10v-10v-10v-10v-10v-10
v-10v-10v-10v-9v-10v-10v-10v-10v-10v-10v-10v-10v-10v-10v-10v-9v-10v-10v-10v-10v-10v-10v-10v-10v-10v-10v-10v-10v-9v-10v-10v-10v-10v-10v-10v-10v-10v-10v-10v-10v-9v-10v-10v-10v-10v-10v-10h-10h-10h-11h-10h-10h-10h-11h-10h-10h-10h-11h-10v10v10v10v10v10v10v9
v10v10v10v10v10v10v10v10v10v10v10v9v10v10v10v10v10v10v10v10v10v10v10v10v9v10v10v10v10v10v10v10v10v10v10v10v9v10v10v10v10v10v10v10v10v10v10v10v9v10v10v10v10v10v10z" />
    <glyph glyph-name="U" unicode="U" horiz-adv-x="796" 
d="M396 -11h-11h-11l-10 1l-10 1l-11 1l-10 1l-9 2l-10 2l-10 2l-9 2l-9 3l-9 2l-9 4l-9 3l-10 4l-8 4l-9 4l-9 5l-8 5l-8 5l-7 6l-8 5l-7 6l-7 6l-7 7l-7 7l-6 7l-6 7l-6 8l-5 8l-5 8l-6 8l-4 9l-5 9l-4 10l-4 9l-4 10l-3 9l-3 9l-2 9l-3 9l-2 9l-2 10l-1 10l-2 10l-1 10
l-1 10l-1 11l-1 11v11v11v10v10v10v10v10v10v10v10v10v10v10v10v10v10v10v10v10v10v10v10v10v9v10v10v10v10v10v10v10v10v10v10v10v10v10v10v10v10v10v10v10v10h10h11h10h10h10h11h10h10h10h11h10h10v-10v-10v-10v-10v-9v-10v-10v-10v-10v-10v-10v-10v-9v-10v-10v-10v-10
v-10v-10v-10v-9v-10v-10v-10v-10v-10v-10v-10v-10v-9v-10v-10v-10v-10v-10v-10v-10v-9v-10v-10v-10v-10v-12l1 -12l1 -11l1 -11l1 -10l2 -11l2 -10l3 -9l3 -9l3 -9l4 -9l4 -8l4 -8l5 -7l5 -8l5 -6l6 -7l7 -7l7 -6l8 -6l7 -6l9 -5l8 -5l9 -4l9 -3l10 -3l10 -3l10 -2l11 -2
l11 -1l11 -1h12h11l12 1l10 1l11 2l10 2l10 2l9 3l9 4l9 4l8 4l8 5l8 5l8 6l7 6l7 7l5 6l5 6l5 7l5 8l4 7l4 8l4 9l3 8l3 9l3 10l2 10l2 10l1 10l1 11l1 11l1 12v12v10v10v10v10v10v10v10v10v10v10v10v10v10v10v10v10v10v10v10v10v10v10v10v10v10v10v10v10v10v10v10v10v10
v10v10v10v10v10v10v10v10v10h10h11h10h10h10h11h10h10h10h11h10h10v-10v-10v-10v-10v-10v-11v-10v-10v-10v-10v-10v-10v-10v-10v-10v-11v-10v-10v-10v-10v-10v-10v-10v-10v-10v-11v-10v-10v-10v-10v-10v-10v-10v-10v-10v-11v-10v-10v-10v-10v-10v-11v-12l-1 -11l-1 -11
l-1 -10l-1 -11l-1 -10l-2 -10l-2 -10l-2 -10l-3 -9l-2 -9l-3 -9l-3 -9l-4 -10l-4 -10l-4 -9l-5 -9l-5 -9l-5 -9l-5 -8l-6 -8l-6 -8l-6 -7l-6 -8l-7 -6l-7 -7l-7 -6l-8 -6l-7 -6l-8 -6l-8 -5l-8 -5l-9 -5l-9 -4l-9 -4l-9 -4l-9 -3l-9 -4l-10 -2l-9 -3l-9 -2l-10 -2l-9 -2
l-10 -2l-10 -1l-11 -1l-10 -1l-10 -1h-11h-11z" />
    <glyph glyph-name="V" unicode="V" horiz-adv-x="788" 
d="M36 728h10h9h10h10h10h9h10h10h9h10h10h10h9h10l4 -9l3 -10l4 -9l4 -9l3 -10l4 -9l4 -9l3 -9l4 -10l4 -9l3 -9l4 -10l4 -9l3 -9l4 -10l4 -9l3 -9l4 -10l4 -9l3 -9l4 -10l4 -9l3 -9l4 -9l4 -10l3 -9l4 -9l4 -10l3 -9l4 -9l4 -10l4 -9l3 -9l4 -10l4 -9l3 -9l4 -10l4 -9
l3 -9l4 -9l4 -10l3 -9l4 -9l4 -10l3 -9l4 -9l4 -10l3 -9l4 -9l4 -10l3 -9l4 -9l4 -10l3 -9l4 -9l4 -9l3 -10l4 -9l4 -9l3 -10l4 -9l4 9l3 10l4 9l4 9l3 10l4 9l4 9l3 9l4 10l4 9l3 9l4 10l4 9l3 9l4 10l4 9l3 9l4 10l4 9l3 9l4 10l4 9l3 9l4 9l4 10l3 9l4 9l4 10l3 9l4 9
l4 10l4 9l3 9l4 10l4 9l3 9l4 10l4 9l3 9l4 9l4 10l3 9l4 9l4 10l3 9l4 9l4 10l3 9l4 9l4 10l3 9l4 9l4 10l3 9l4 9l4 9l3 10l4 9l4 9l3 10l4 9h10h10h10h11h10h10h10h10h10h11h10h10h10l-4 -9l-4 -10l-4 -9l-3 -9l-4 -9l-4 -10l-4 -9l-4 -9l-4 -10l-3 -9l-4 -9l-4 -9
l-4 -10l-4 -9l-4 -9l-4 -9l-3 -10l-4 -9l-4 -9l-4 -10l-4 -9l-4 -9l-4 -9l-3 -10l-4 -9l-4 -9l-4 -10l-4 -9l-4 -9l-3 -9l-4 -10l-4 -9l-4 -9l-4 -9l-4 -10l-4 -9l-3 -9l-4 -10l-4 -9l-4 -9l-4 -9l-4 -10l-3 -9l-4 -9l-4 -10l-4 -9l-4 -9l-4 -9l-4 -10l-3 -9l-4 -9l-4 -9
l-4 -10l-4 -9l-4 -9l-3 -10l-4 -9l-4 -9l-4 -9l-4 -10l-4 -9l-4 -9l-3 -10l-4 -9l-4 -9l-4 -9l-4 -10l-4 -9l-4 -9l-3 -9l-4 -10l-4 -9l-4 -9l-4 -10l-4 -9l-3 -9l-4 -9l-4 -10l-4 -9h-10h-10h-9h-10h-10h-10h-10h-10h-9h-10h-10l-4 9l-4 10l-4 9l-3 9l-4 9l-4 10l-4 9l-4 9
l-4 10l-3 9l-4 9l-4 9l-4 10l-4 9l-4 9l-4 9l-3 10l-4 9l-4 9l-4 10l-4 9l-4 9l-4 9l-3 10l-4 9l-4 9l-4 10l-4 9l-4 9l-3 9l-4 10l-4 9l-4 9l-4 9l-4 10l-4 9l-3 9l-4 10l-4 9l-4 9l-4 9l-4 10l-3 9l-4 9l-4 10l-4 9l-4 9l-4 9l-4 10l-3 9l-4 9l-4 9l-4 10l-4 9l-4 9l-3 10
l-4 9l-4 9l-4 9l-4 10l-4 9l-4 9l-3 10l-4 9l-4 9l-4 9l-4 10l-4 9l-4 9l-3 9l-4 10l-4 9l-4 9l-4 10l-4 9l-3 9l-4 9l-4 10z" />
    <glyph glyph-name="W" unicode="W" horiz-adv-x="1168" 
d="M42 728h10h10h11h10h10h10h11h10h10h10h11h10h10l3 -9l3 -10l3 -9l3 -10l3 -9l3 -10l3 -9l4 -9l3 -10l3 -9l3 -10l3 -9l3 -10l3 -9l3 -9l3 -10l3 -9l3 -10l3 -9l3 -10l3 -9l4 -9l3 -10l3 -9l3 -10l3 -9l3 -10l3 -9l3 -9l3 -10l3 -9l3 -10l3 -9l3 -10l3 -9l3 -10l4 -9
l3 -9l3 -10l3 -9l3 -10l3 -9l3 -10l3 -9l3 -9l3 -10l3 -9l3 -10l3 -9l3 -10l4 -9l3 -9l3 -10l3 -9l3 -10l3 -9l3 -10l3 -9l3 9l3 10l3 9l3 10l4 9l3 10l3 9l3 10l3 9l3 10l3 9l3 10l4 9l3 10l3 9l3 9l3 10l3 9l3 10l3 9l4 10l3 9l3 10l3 9l3 10l3 9l3 10l3 9l4 10l3 9l3 9
l3 10l3 9l3 10l3 9l3 10l3 9l4 10l3 9l3 10l3 9l3 10l3 9l3 9l3 10l4 9l3 10l3 9l3 10l3 9l3 10l3 9l3 10l4 9l3 10l3 9l3 10l3 9h10h11h10h11h10h10h11h10h11h10l3 -9l3 -10l3 -9l3 -10l4 -9l3 -10l3 -9l3 -10l3 -9l3 -10l3 -9l3 -10l4 -9l3 -10l3 -9l3 -9l3 -10l3 -9
l3 -10l3 -9l4 -10l3 -9l3 -10l3 -9l3 -10l3 -9l3 -10l3 -9l4 -9l3 -10l3 -9l3 -10l3 -9l3 -10l3 -9l3 -10l3 -9l4 -10l3 -9l3 -10l3 -9l3 -10l3 -9l3 -9l3 -10l4 -9l3 -10l3 -9l3 -10l3 -9l3 -10l3 -9l3 -10l4 -9l3 -10l3 -9l3 -10l3 -9l3 9l3 10l3 9l3 10l3 9l3 10l3 9l4 9
l3 10l3 9l3 10l3 9l3 10l3 9l3 9l3 10l3 9l3 10l3 9l3 10l3 9l4 9l3 10l3 9l3 10l3 9l3 10l3 9l3 10l3 9l3 9l3 10l3 9l3 10l3 9l3 10l4 9l3 9l3 10l3 9l3 10l3 9l3 10l3 9l3 9l3 10l3 9l3 10l3 9l3 10l4 9l3 9l3 10l3 9l3 10l3 9l3 10l3 9h10h10h10h9h10h10h10h10h10h9h10
h10h10l-3 -9l-4 -10l-3 -9l-3 -10l-3 -9l-4 -9l-3 -10l-3 -9l-3 -10l-4 -9l-3 -9l-3 -10l-3 -9l-4 -10l-3 -9l-3 -9l-3 -10l-4 -9l-3 -10l-3 -9l-3 -9l-4 -10l-3 -9l-3 -10l-3 -9l-4 -9l-3 -10l-3 -9l-3 -10l-4 -9l-3 -9l-3 -10l-3 -9l-4 -10l-3 -9l-3 -9l-3 -10l-4 -9
l-3 -9l-3 -10l-4 -9l-3 -10l-3 -9l-3 -9l-4 -10l-3 -9l-3 -10l-3 -9l-4 -9l-3 -10l-3 -9l-3 -10l-4 -9l-3 -9l-3 -10l-3 -9l-4 -10l-3 -9l-3 -9l-3 -10l-4 -9l-3 -10l-3 -9l-3 -9l-4 -10l-3 -9l-3 -10l-3 -9l-4 -9l-3 -10l-3 -9l-3 -10l-4 -9l-3 -9l-3 -10l-3 -9l-4 -10
l-3 -9h-10h-9h-10h-10h-9h-10h-9h-10h-10h-9h-10l-3 9l-3 10l-4 9l-3 10l-3 9l-3 10l-4 9l-3 10l-3 9l-3 10l-4 9l-3 10l-3 9l-3 10l-3 9l-4 10l-3 9l-3 10l-3 9l-4 10l-3 9l-3 10l-3 9l-4 10l-3 9l-3 10l-3 9l-3 10l-4 9l-3 9l-3 10l-3 9l-4 10l-3 9l-3 10l-3 9l-4 10l-3 9
l-3 10l-3 9l-4 10l-3 9l-3 10l-3 9l-3 10l-4 9l-3 10l-3 9l-3 10l-4 9l-3 10l-3 9l-3 10l-4 9l-3 10l-3 9l-3 -9l-3 -10l-4 -9l-3 -10l-3 -9l-3 -10l-4 -9l-3 -10l-3 -9l-3 -10l-4 -9l-3 -10l-3 -9l-3 -10l-4 -9l-3 -10l-3 -9l-3 -10l-4 -9l-3 -10l-3 -9l-3 -10l-4 -9
l-3 -10l-3 -9l-3 -10l-4 -9l-3 -9l-3 -10l-3 -9l-4 -10l-3 -9l-3 -10l-3 -9l-4 -10l-3 -9l-3 -10l-3 -9l-4 -10l-3 -9l-3 -10l-3 -9l-4 -10l-3 -9l-3 -10l-3 -9l-4 -10l-3 -9l-3 -10l-3 -9l-4 -10l-3 -9l-3 -10l-3 -9l-4 -10l-3 -9h-10h-9h-10h-9h-10h-9h-10h-9h-10h-9h-10
l-3 9l-4 10l-3 9l-3 10l-3 9l-4 9l-3 10l-3 9l-3 10l-4 9l-3 9l-3 10l-3 9l-4 10l-3 9l-3 9l-4 10l-3 9l-3 10l-3 9l-4 9l-3 10l-3 9l-3 10l-4 9l-3 9l-3 10l-4 9l-3 10l-3 9l-3 9l-4 10l-3 9l-3 10l-3 9l-4 9l-3 10l-3 9l-3 10l-4 9l-3 9l-3 10l-4 9l-3 9l-3 10l-3 9l-4 10
l-3 9l-3 9l-3 10l-4 9l-3 10l-3 9l-4 9l-3 10l-3 9l-3 10l-4 9l-3 9l-3 10l-3 9l-4 10l-3 9l-3 9l-3 10l-4 9l-3 10l-3 9l-4 9l-3 10l-3 9l-3 10l-4 9l-3 9l-3 10l-3 9l-4 10z" />
    <glyph glyph-name="X" unicode="X" horiz-adv-x="766" 
d="M712 728l-6 -8l-6 -8l-5 -8l-6 -8l-6 -8l-6 -9l-6 -8l-6 -8l-5 -8l-6 -8l-6 -8l-6 -8l-6 -8l-5 -8l-6 -8l-6 -8l-6 -9l-6 -8l-6 -8l-5 -8l-6 -8l-6 -8l-6 -8l-6 -8l-5 -8l-6 -8l-6 -8l-6 -9l-6 -8l-6 -8l-5 -8l-6 -8l-6 -8l-6 -8l-6 -8l-5 -8l-6 -8l-6 -8l-6 -9l-6 -8
l-6 -8l-5 -8l-6 -8l-6 -8l6 -8l6 -8l5 -8l6 -8l6 -8l6 -9l5 -8l6 -8l6 -8l6 -8l6 -8l5 -8l6 -8l6 -8l6 -8l6 -8l5 -8l6 -9l6 -8l6 -8l5 -8l6 -8l6 -8l6 -8l6 -8l5 -8l6 -8l6 -8l6 -9l5 -8l6 -8l6 -8l6 -8l6 -8l5 -8l6 -8l6 -8l6 -8l6 -8l5 -8l6 -9l6 -8l6 -8l5 -8l6 -8l6 -8
h-10h-11h-10h-10h-10h-11h-10h-10h-11h-10h-10h-10h-11h-10l-6 8l-6 9l-5 8l-6 8l-6 8l-6 9l-6 8l-5 8l-6 9l-6 8l-6 8l-6 9l-5 8l-6 8l-6 8l-6 9l-5 8l-6 8l-6 9l-6 8l-6 8l-5 8l-6 9l-6 8l-6 8l-6 9l-5 8l-6 8l-6 9l-6 8l-6 8l-5 8l-6 9l-6 8l-6 -8l-6 -9l-5 -8l-6 -8
l-6 -8l-6 -9l-6 -8l-5 -8l-6 -9l-6 -8l-6 -8l-6 -9l-5 -8l-6 -8l-6 -8l-6 -9l-5 -8l-6 -8l-6 -9l-6 -8l-6 -8l-5 -8l-6 -9l-6 -8l-6 -8l-6 -9l-5 -8l-6 -8l-6 -9l-6 -8l-6 -8l-5 -8l-6 -9l-6 -8h-10h-10h-10h-10h-10h-10h-10h-10h-10h-10h-10h-10h-10h-10l6 8l6 8l5 8l6 8
l6 8l6 8l5 8l6 8l6 8l6 8l5 8l6 9l6 8l6 8l5 8l6 8l6 8l6 8l5 8l6 8l6 8l6 8l6 8l5 8l6 8l6 8l6 8l5 8l6 8l6 8l6 8l5 8l6 8l6 8l6 9l5 8l6 8l6 8l6 8l5 8l6 8l6 8l6 8l5 8l6 8l6 8l-6 8l-6 8l-5 8l-6 9l-6 8l-6 8l-6 8l-5 8l-6 8l-6 8l-6 9l-6 8l-5 8l-6 8l-6 8l-6 8l-6 8
l-5 8l-6 9l-6 8l-6 8l-5 8l-6 8l-6 8l-6 8l-6 9l-5 8l-6 8l-6 8l-6 8l-6 8l-5 8l-6 9l-6 8l-6 8l-6 8l-5 8l-6 8l-6 8l-6 8l-6 9l-5 8l-6 8l-6 8h10h11h10h10h10h11h10h10h11h10h10h10h11h10l6 -8l5 -8l6 -8l6 -8l5 -8l6 -9l5 -8l6 -8l6 -8l5 -8l6 -8l6 -8l5 -8l6 -8l6 -8
l5 -8l6 -9l5 -8l6 -8l6 -8l5 -8l6 -8l6 -8l5 -8l6 -8l6 -8l5 -8l6 -9l5 -8l6 -8l6 -8l5 -8l6 -8l6 8l5 8l6 8l6 8l5 8l6 9l6 8l5 8l6 8l6 8l5 8l6 8l6 8l5 8l6 8l6 8l5 9l6 8l6 8l5 8l6 8l6 8l5 8l6 8l6 8l5 8l6 8l6 9l5 8l6 8l6 8l5 8l6 8h10h10h10h10h10h10h11h10h10h10
h10h10h10h10z" />
    <glyph glyph-name="Y" unicode="Y" horiz-adv-x="753" 
d="M315 287l-5 8l-6 9l-5 8l-6 8l-5 9l-6 8l-5 8l-6 9l-5 8l-6 8l-5 9l-6 8l-5 8l-6 8l-5 9l-6 8l-5 8l-6 9l-5 8l-6 8l-5 9l-6 8l-5 8l-6 9l-5 8l-6 8l-5 9l-6 8l-5 8l-6 9l-5 8l-6 8l-5 9l-6 8l-5 8l-6 9l-5 8l-6 8l-5 9l-6 8l-5 8l-6 8l-5 9l-6 8l-5 8l-6 9l-5 8l-6 8
l-5 9l-6 8l-5 8l-6 9l-5 8h10h9h10h10h9h10h10h9h10h10h9h10h10h9h10l5 -8l6 -9l5 -8l5 -9l6 -8l5 -8l5 -9l6 -8l5 -8l5 -9l6 -8l5 -9l5 -8l6 -8l5 -9l5 -8l6 -9l5 -8l5 -8l6 -9l5 -8l5 -8l6 -9l5 -8l5 -9l6 -8l5 -8l5 -9l6 -8l5 -9l5 -8l6 -8l5 -9l5 -8l6 -8l5 -9l5 -8
l6 -9l5 -8l5 8l6 9l5 8l6 9l5 8l5 8l6 9l5 8l6 8l5 9l6 8l5 9l5 8l6 8l5 9l6 8l5 9l5 8l6 8l5 9l6 8l5 8l5 9l6 8l5 9l6 8l5 8l5 9l6 8l5 9l6 8l5 8l6 9l5 8l5 8l6 9l5 8l6 9l5 8h10h10h10h10h10h10h11h10h10h10h10h10h10h10l-5 -8l-6 -9l-5 -8l-6 -8l-5 -8l-6 -9l-5 -8
l-6 -8l-5 -8l-6 -9l-5 -8l-6 -8l-5 -8l-6 -9l-5 -8l-6 -8l-5 -8l-6 -9l-5 -8l-6 -8l-5 -9l-6 -8l-5 -8l-6 -8l-5 -9l-6 -8l-5 -8l-6 -8l-5 -9l-6 -8l-5 -8l-6 -8l-5 -9l-6 -8l-5 -8l-6 -9l-5 -8l-6 -8l-5 -8l-6 -9l-5 -8l-6 -8l-5 -8l-6 -9l-5 -8l-6 -8l-5 -8l-6 -9l-5 -8
l-6 -8l-5 -8l-6 -9l-5 -8v-10v-10v-10v-10v-10v-10v-10v-10v-10v-10v-10v-10v-10v-10v-10v-10v-10v-10v-10v-10v-10v-10v-10v-10v-10v-10v-10v-10v-10h-10h-10h-11h-10h-10h-10h-11h-10h-10h-10h-11h-10v10v10v10v10v9v10v10v10v10v10v10v10v10v10v9v10v10v10v10v10v10v10
v10v10v9v10v10v10v10z" />
    <glyph glyph-name="Z" unicode="Z" horiz-adv-x="737" 
d="M71 90l6 8l7 7l6 8l6 8l7 7l6 8l6 8l6 7l7 8l6 8l6 7l7 8l6 8l6 8l7 7l6 8l6 8l6 7l7 8l6 8l6 7l7 8l6 8l6 7l7 8l6 8l6 7l7 8l6 8l6 7l6 8l7 8l6 7l6 8l7 8l6 8l6 7l7 8l6 8l6 7l6 8l7 8l6 7l6 8l7 8l6 7l6 8l7 8l6 7l6 8l7 8l6 7l6 8l6 8l7 7l6 8l6 8l7 8l6 7l6 8l7 8
l6 7l6 8l6 8l7 7l6 8l6 8l7 7l6 8h-10h-10h-10h-10h-10h-10h-10h-10h-10h-10h-10h-10h-10h-10h-10h-10h-10h-10h-10h-10h-10h-10h-10h-10h-10h-10h-10h-10h-10h-10h-10h-10h-10h-10h-10h-10h-10h-10h-10h-10h-10h-10v10v10v9v10v10v10v10v10v9v10v10h10h10h10h10h10h10h10
h10h10h10h10h10h10h10h10h10h10h10h10h10h10h10h10h10h10h10h10h10h11h10h10h10h10h10h10h10h10h10h10h10h10h10h10h10h10h10h10h10h10h10h10h10h10h10h10h10h10h10v-10v-10v-10v-10v-10v-10v-10v-10v-10l-6 -8l-7 -7l-6 -8l-6 -8l-7 -7l-6 -8l-6 -8l-6 -7l-7 -8l-6 -8
l-6 -7l-7 -8l-6 -8l-6 -8l-7 -7l-6 -8l-6 -8l-6 -7l-7 -8l-6 -8l-6 -7l-7 -8l-6 -8l-6 -7l-7 -8l-6 -8l-6 -7l-7 -8l-6 -8l-6 -7l-6 -8l-7 -8l-6 -7l-6 -8l-7 -8l-6 -8l-6 -7l-7 -8l-6 -8l-6 -7l-6 -8l-7 -8l-6 -7l-6 -8l-7 -8l-6 -7l-6 -8l-7 -8l-6 -7l-6 -8l-7 -8l-6 -7
l-6 -8l-6 -8l-7 -7l-6 -8l-6 -8l-7 -8l-6 -7l-6 -8l-7 -8l-6 -7l-6 -8l-6 -8l-7 -7l-6 -8l-6 -8l-7 -7l-6 -8h10h10h10h10h9h10h10h10h10h10h10h10h10h9h10h10h10h10h10h10h10h10h9h10h10h10h10h10h10h10h9h10h10h10h10h10h10h10h10h9h10h10h10h10v-10v-10v-9v-10v-10v-10
v-10v-10v-9v-10v-10h-10h-10h-10h-10h-10h-10h-10h-9h-10h-10h-10h-10h-10h-10h-10h-10h-10h-10h-10h-10h-10h-10h-9h-10h-10h-10h-10h-10h-10h-10h-10h-10h-10h-10h-10h-10h-10h-9h-10h-10h-10h-10h-10h-10h-10h-10h-10h-10h-10h-10h-10h-10h-9h-10h-10h-10h-10h-10h-10
h-10v10v10v10v10v10v10v10v10v10z" />
    <glyph glyph-name="a" unicode="a" horiz-adv-x="617" 
d="M243 -11h-10l-9 1l-10 1l-9 1l-9 1l-10 2l-9 2l-8 3l-10 3l-10 4l-9 4l-9 5l-9 5l-8 6l-8 6l-7 6l-8 7l-6 7l-6 7l-6 8l-5 9l-5 9l-4 9l-4 9l-3 10l-2 11l-2 10l-1 11v12v2v11l1 10l1 10l2 10l2 10l3 9l4 9l4 8l4 9l6 9l6 8l7 8l7 8l8 6l8 7l8 5l8 5l8 5l9 4l9 4l10 4
l10 3l10 3l9 2l10 2l10 2l10 2l10 1l11 1h10l11 1h11h12h11l11 -1h10l10 -1l10 -1l9 -2l10 -1l10 -2l10 -2l9 -2l10 -2l9 -3l10 -3l9 -3v14v12l-1 11l-2 10l-3 10l-3 10l-4 9l-4 8l-6 8l-6 7l-6 7l-7 5l-7 5l-8 4l-9 4l-8 4l-10 2l-10 3l-10 2l-11 1l-12 1h-12h-12l-11 -1
h-11l-10 -1l-11 -2l-10 -1l-9 -2l-9 -2l-10 -2l-9 -3l-9 -3l-9 -3l-10 -3l-9 -3l-10 -4l-9 -4l-3 9l-3 10l-4 9l-3 10l-3 9l-3 9l-3 10l-4 9l-3 10l-3 9l9 4l9 4l9 3l9 4l10 3l9 3l9 3l10 3l9 3l10 3l9 2l9 2l9 1l10 2l10 1l10 1l11 1l11 1l11 1h11h12h11l11 -1h10l10 -1
l10 -1l10 -2l9 -1l10 -2l8 -3l9 -2l9 -3l9 -4l10 -4l9 -4l9 -5l8 -5l8 -5l7 -6l7 -6l7 -6l7 -7l7 -8l6 -9l6 -8l5 -10l5 -9l4 -10l4 -10l3 -9l2 -9l2 -9l2 -9l2 -10l1 -10l1 -10v-10l1 -10v-11v-10v-10v-10v-10v-9v-10v-10v-10v-10v-10v-10v-10v-9v-10v-10v-10v-10v-10v-10
v-10v-9v-10v-10v-10v-10v-10v-10v-10v-9v-10v-10v-10v-10h-10h-9h-10h-10h-10h-9h-10h-10h-10h-9h-10h-10v10v10v10v10v10v10v10l-6 -7l-7 -8l-7 -6l-8 -7l-8 -7l-8 -6l-9 -6l-9 -5l-10 -5l-8 -5l-9 -3l-8 -4l-10 -2l-9 -3l-10 -2l-10 -2l-11 -1l-10 -1l-12 -1h-11zM275 77
h11l10 1l10 1l10 2l9 2l10 3l10 4l10 4l10 5l9 6l9 6l7 6l7 7l7 7l6 8l5 9l4 9l3 9l2 10l2 10v11v10v10v10v10l-9 3l-8 3l-10 2l-10 3l-10 2l-10 3l-10 1l-10 2l-10 1l-10 1h-10l-11 1h-11h-12l-12 -1l-11 -1l-11 -2l-10 -2l-9 -3l-9 -3l-9 -4l-7 -4l-7 -5l-9 -7l-7 -7
l-6 -7l-4 -9l-4 -9l-3 -9l-1 -10l-1 -11v-2l1 -12l2 -10l3 -10l4 -9l6 -9l8 -7l8 -7l8 -5l9 -5l9 -3l10 -3l9 -3l11 -2l11 -1h11z" />
    <glyph glyph-name="a.alt" horiz-adv-x="705" 
d="M311 -11h-10l-9 1l-10 1l-9 1l-9 2l-10 2l-9 2l-10 3l-9 3l-9 4l-9 4l-9 4l-9 5l-8 5l-8 5l-9 6l-7 6l-8 6l-8 7l-7 7l-6 7l-7 7l-6 7l-5 7l-6 8l-5 8l-5 9l-5 8l-4 9l-4 10l-4 9l-4 9l-3 9l-3 9l-2 10l-3 10l-2 10l-1 10l-2 10l-1 11v11l-1 11v11v2v11l1 11v11l1 11
l2 10l1 10l2 10l3 10l2 10l3 9l3 9l4 9l4 9l4 10l4 9l5 8l5 9l5 8l6 8l5 7l6 7l6 7l7 7l7 7l7 7l8 6l8 6l8 6l8 5l8 5l9 5l9 4l9 4l9 4l10 3l9 3l9 2l10 2l9 2l10 1l10 1l9 1h10h11l11 -1l11 -1l10 -1l10 -2l10 -2l10 -3l9 -3l8 -4l9 -3l8 -5l8 -4l8 -6l9 -7l8 -6l8 -7l8 -6
l7 -7l7 -7l7 -8l6 -7l6 -8v10v9v10v10v9v10v10v9v10h10h10h10h10h10h11h10h10h10h10h10h10v-10v-10v-10v-10v-10v-10v-10v-10v-10v-10v-10v-10v-10v-9v-10v-10v-10v-10v-10v-10v-10v-10v-10v-10v-10v-10v-10v-10v-10v-10v-10v-10v-10v-10v-10v-10v-10v-10v-10v-10v-10v-9
v-10v-10v-10v-10v-10v-10v-10v-10v-10v-10v-10v-10v-10h-10h-10h-10h-10h-10h-10h-11h-10h-10h-10h-10h-10v10v11v10v11v10v11v10v11v10l-6 -9l-7 -8l-6 -8l-8 -8l-7 -8l-8 -7l-8 -7l-8 -7l-9 -7l-9 -5l-8 -5l-8 -4l-8 -4l-9 -4l-9 -3l-9 -3l-9 -2l-10 -2l-10 -2l-11 -1
l-11 -1h-11zM339 93h11l11 1l10 2l10 3l11 3l10 4l9 5l9 5l9 6l9 6l8 7l8 8l6 6l6 8l5 7l5 8l5 9l4 9l5 9l3 8l2 9l3 9l2 9l1 9l1 10l1 10v10v2v10l-1 10l-1 9l-1 9l-2 9l-3 9l-2 9l-3 9l-5 9l-4 9l-5 8l-5 9l-5 7l-6 8l-6 7l-8 7l-8 7l-9 6l-9 6l-9 5l-9 5l-10 4l-11 3
l-10 3l-10 2l-11 1h-11h-11l-11 -1l-10 -2l-10 -3l-11 -3l-9 -3l-10 -5l-9 -5l-9 -6l-8 -6l-8 -7l-7 -7l-6 -7l-6 -8l-5 -7l-5 -8l-5 -9l-4 -9l-4 -9l-3 -8l-3 -9l-2 -9l-2 -9l-1 -10l-1 -10l-1 -10v-10v-2v-10l1 -10l1 -10l1 -9l2 -9l2 -9l3 -9l3 -8l4 -9l4 -9l5 -9l5 -8
l5 -7l6 -8l6 -6l8 -8l7 -7l9 -6l8 -6l10 -5l9 -5l10 -4l10 -3l10 -3l10 -2l11 -1h11z" />
    <glyph glyph-name="b" unicode="b" horiz-adv-x="705" 
d="M394 -11h-11l-11 1l-11 1l-10 1l-10 2l-10 2l-10 3l-9 3l-8 4l-9 3l-8 5l-7 5l-9 5l-9 7l-8 6l-8 7l-8 6l-8 7l-7 7l-6 8l-7 7l-6 8v-10v-9v-10v-10v-9v-10v-10v-9v-10h-10h-10h-10h-10h-10h-10h-10h-10h-10h-10h-10h-10v10v10v10v10v10v10v10v10v10v10v10v10v10v10v10
v10v10v10v10v10v10v10v10v10v10v10v10v10v10v10v10v10v10v10v10v10v10v10v9v10v10v10v10v10v10v10v10v10v10v10v10v10v10v10v10v10v10v10v10v10v10v10v10v10v10v10v10v10v10v10v10v10v10v10v10v10h10h10h10h10h10h10h10h10h10h10h10h10v-10v-10v-10v-9v-10v-10v-10v-10v-10
v-9v-10v-10v-10v-10v-10v-9v-10v-10v-10v-10v-10v-9v-10v-10v-10v-10v-10v-9v-10v-10v-10l6 8l6 8l6 7l6 7l7 7l7 7l7 7l8 6l7 6l8 6l9 6l7 4l8 5l9 4l8 3l9 4l10 2l9 3l10 2l10 1l11 1l11 1h11h10l9 -1l10 -1l9 -1l10 -2l9 -2l9 -2l10 -3l9 -3l9 -4l9 -4l9 -4l9 -5l8 -5
l9 -5l8 -6l8 -6l7 -6l8 -7l7 -7l6 -7l7 -7l6 -7l5 -7l6 -8l5 -8l5 -9l5 -8l4 -9l4 -10l5 -9l3 -9l3 -9l3 -9l2 -10l3 -10l2 -10l1 -10l2 -10l1 -11v-11l1 -11v-11v-2v-11l-1 -11v-11l-1 -11l-2 -10l-1 -10l-2 -10l-3 -10l-2 -10l-3 -9l-3 -9l-3 -9l-5 -9l-4 -10l-4 -9l-5 -8
l-5 -9l-5 -8l-6 -8l-5 -7l-6 -7l-6 -7l-6 -7l-8 -7l-7 -7l-8 -6l-8 -6l-8 -6l-8 -5l-8 -5l-9 -5l-9 -4l-9 -4l-9 -4l-10 -3l-9 -3l-9 -2l-10 -2l-9 -2l-10 -1l-10 -1l-9 -1h-10zM366 93h11l11 1l10 2l10 3l11 3l10 4l9 4l9 5l9 6l8 6l8 7l8 8l5 6l6 8l5 7l5 8l5 9l4 9l4 9
l3 8l3 9l2 9l2 9l1 10l1 10l1 10v10v2v10l-1 10l-1 10l-1 9l-2 9l-2 9l-3 9l-3 8l-4 9l-4 9l-5 9l-5 8l-5 7l-6 8l-6 7l-8 7l-7 7l-9 6l-8 6l-10 5l-9 5l-10 4l-10 3l-10 3l-10 2l-11 1h-11h-11l-11 -1l-10 -2l-10 -3l-11 -3l-9 -4l-10 -5l-9 -5l-9 -6l-9 -6l-8 -7l-7 -7
l-7 -7l-6 -8l-5 -7l-5 -9l-5 -8l-4 -9l-4 -9l-4 -9l-2 -9l-3 -9l-2 -9l-1 -9l-1 -9l-1 -10v-10v-2v-10l1 -10l1 -10l1 -9l2 -9l3 -9l2 -9l4 -8l4 -9l4 -9l5 -9l5 -8l5 -7l6 -8l7 -6l7 -8l8 -7l9 -6l9 -6l9 -5l10 -5l9 -4l11 -3l10 -3l10 -2l11 -1h11z" />
    <glyph glyph-name="c" unicode="c" horiz-adv-x="602" 
d="M337 -12h-10l-10 1h-10l-10 1l-9 2l-10 2l-9 2l-9 2l-9 3l-9 3l-9 3l-9 4l-9 4l-9 4l-9 5l-9 5l-8 5l-8 6l-8 6l-8 6l-7 6l-8 7l-6 7l-7 7l-7 7l-6 7l-6 8l-5 8l-6 8l-5 9l-5 8l-4 9l-4 9l-4 10l-4 9l-4 9l-3 10l-2 10l-3 10l-2 10l-1 10l-1 10l-1 10l-1 11v10v2v10l1 11
l1 10l1 10l1 10l2 10l3 10l2 10l3 10l4 9l4 10l4 9l4 9l4 9l5 9l5 9l6 8l5 8l6 8l6 7l7 8l7 7l6 7l8 7l7 6l8 6l8 6l8 6l8 5l9 5l9 5l9 5l9 4l9 4l9 3l9 3l9 3l9 2l10 2l9 2l10 1l10 2h10l10 1h10h12l11 -1h11l11 -2l11 -1l10 -2l10 -2l9 -2l10 -3l9 -3l8 -3l9 -4l8 -3l9 -5
l9 -6l9 -5l9 -6l8 -6l9 -6l8 -7l7 -6l8 -7l7 -7l7 -8l-7 -7l-7 -8l-7 -7l-7 -7l-7 -8l-6 -7l-7 -8l-7 -7l-7 -7l-7 -8l-7 -7l-7 8l-8 7l-7 7l-8 6l-8 6l-8 6l-8 6l-8 5l-9 5l-9 4l-10 3l-10 3l-10 2l-11 2l-11 1h-12h-10l-10 -1l-9 -2l-9 -2l-9 -2l-9 -3l-9 -4l-8 -4l-8 -5
l-8 -5l-8 -5l-7 -6l-7 -7l-6 -6l-6 -8l-6 -7l-5 -8l-5 -8l-4 -9l-4 -8l-4 -9l-3 -10l-3 -9l-2 -10l-2 -10l-1 -10l-1 -11v-10v-2v-11l1 -10l1 -11l2 -10l2 -9l3 -10l4 -9l3 -10l4 -8l5 -9l5 -8l5 -8l6 -7l7 -7l6 -7l7 -7l7 -6l8 -5l8 -5l8 -5l9 -4l9 -4l9 -3l10 -2l9 -2
l10 -2l11 -1h10h11l11 1l10 2l10 2l10 2l10 4l9 4l9 4l8 5l9 5l8 6l8 6l8 6l8 7l8 7l8 8l7 -7l8 -7l7 -7l7 -7l8 -7l7 -8l7 -7l7 -7l8 -7l7 -7l-7 -7l-7 -8l-7 -6l-8 -7l-7 -7l-8 -6l-8 -6l-8 -6l-8 -5l-8 -6l-8 -5l-9 -5l-8 -4l-7 -4l-9 -3l-8 -3l-9 -3l-9 -3l-9 -2l-9 -2
l-10 -1l-10 -2l-10 -1h-11l-11 -1h-11z" />
    <glyph glyph-name="d" unicode="d" horiz-adv-x="705" 
d="M311 -11h-10l-9 1l-10 1l-9 1l-9 2l-10 2l-9 2l-10 3l-9 3l-9 4l-9 4l-9 4l-9 5l-8 5l-8 5l-9 6l-7 6l-8 6l-8 7l-7 7l-6 7l-7 7l-6 7l-5 7l-6 8l-5 8l-5 9l-5 8l-4 9l-4 10l-4 9l-4 9l-3 9l-3 9l-2 10l-3 10l-2 10l-1 10l-2 10l-1 11v11l-1 11v11v2v11l1 11v11l1 11
l2 10l1 10l2 10l3 10l2 10l3 9l3 9l4 9l4 9l4 10l4 9l5 8l5 9l5 8l6 8l5 7l6 7l6 7l7 7l7 7l7 7l8 6l8 6l8 6l8 5l8 5l9 5l9 4l9 4l9 4l10 3l9 3l9 2l10 2l9 2l10 1l10 1l9 1h10h11l11 -1l11 -1l10 -1l10 -2l10 -2l10 -3l9 -3l8 -4l9 -3l8 -5l8 -4l8 -6l9 -7l8 -6l8 -7l8 -6
l7 -7l7 -7l7 -8l6 -7l6 -8v10v10v10v10v10v10v10v9v10v10v10v10v10v10v10v10v10v10v10v10v10v10v9v10v10v10v10v10v10v10h10h10h10h10h10h11h10h10h10h10h10h10v-10v-10v-10v-10v-10v-10v-10v-10v-10v-10v-10v-10v-10v-10v-10v-10v-10v-10v-10v-10v-10v-10v-10v-10v-10v-10
v-10v-10v-10v-10v-10v-10v-10v-10v-10v-10v-10v-9v-10v-10v-10v-10v-10v-10v-10v-10v-10v-10v-10v-10v-10v-10v-10v-10v-10v-10v-10v-10v-10v-10v-10v-10v-10v-10v-10v-10v-10v-10v-10v-10v-10v-10v-10v-10v-10v-10h-10h-10h-10h-10h-10h-10h-11h-10h-10h-10h-10h-10v10v11
v10v11v10v11v10v11v10l-6 -9l-7 -8l-6 -8l-8 -8l-7 -8l-8 -7l-8 -7l-8 -7l-9 -7l-9 -5l-8 -5l-8 -4l-8 -4l-9 -4l-9 -3l-9 -3l-9 -2l-10 -2l-10 -2l-11 -1l-11 -1h-11zM339 93h11l11 1l10 2l10 3l11 3l10 4l9 5l9 5l9 6l9 6l8 7l8 8l6 6l6 8l5 7l5 8l5 9l4 9l5 9l3 8l2 9
l3 9l2 9l1 9l1 10l1 10v10v2v10l-1 10l-1 9l-1 9l-2 9l-3 9l-2 9l-3 9l-5 9l-4 9l-5 8l-5 9l-5 7l-6 8l-6 7l-8 7l-8 7l-9 6l-9 6l-9 5l-9 5l-10 4l-11 3l-10 3l-10 2l-11 1h-11h-11l-11 -1l-10 -2l-10 -3l-11 -3l-9 -3l-10 -5l-9 -5l-9 -6l-8 -6l-8 -7l-7 -7l-6 -7l-6 -8
l-5 -7l-5 -8l-5 -9l-4 -9l-4 -9l-3 -8l-3 -9l-2 -9l-2 -9l-1 -10l-1 -10l-1 -10v-10v-2v-10l1 -10l1 -10l1 -9l2 -9l2 -9l3 -9l3 -8l4 -9l4 -9l5 -9l5 -8l5 -7l6 -8l6 -6l8 -8l7 -7l9 -6l8 -6l10 -5l9 -5l10 -4l10 -3l10 -3l10 -2l11 -1h11z" />
    <glyph glyph-name="e" unicode="e" horiz-adv-x="635" 
d="M334 -12h-11l-10 1l-11 1l-10 1l-10 1l-10 2l-10 2l-10 3l-10 3l-9 3l-9 4l-10 3l-9 5l-9 4l-8 5l-8 5l-9 5l-7 5l-8 6l-7 6l-8 7l-6 7l-7 6l-7 8l-6 7l-6 8l-5 8l-6 8l-5 8l-5 9l-4 9l-4 9l-4 10l-4 8l-3 9l-3 9l-2 10l-3 9l-2 10l-1 9l-2 10l-1 10v10l-1 11v10v2v11
l1 10v11l2 10l1 10l2 10l2 10l3 10l2 10l4 9l3 10l4 9l4 9l4 9l5 9l4 8l5 9l6 8l5 7l6 8l6 7l6 8l7 7l8 7l7 7l8 7l9 6l8 6l9 6l9 5l9 5l10 5l9 3l9 4l9 3l10 3l10 2l9 2l10 2l11 1l10 1l10 1h11h11l10 -1h11l10 -2l9 -1l10 -2l9 -2l10 -2l9 -3l8 -3l9 -4l8 -3l10 -5l9 -6
l9 -5l9 -6l8 -6l8 -7l8 -7l7 -7l7 -8l7 -7l5 -8l6 -8l5 -8l5 -8l5 -8l4 -9l4 -8l4 -9l4 -9l3 -10l4 -9l2 -10l3 -10l2 -10l2 -10l2 -10l2 -10l1 -11l1 -10v-11l1 -10v-11v-8v-8v-9l-1 -9h-10h-10h-10h-10h-10h-9h-10h-10h-10h-10h-10h-10h-10h-10h-10h-9h-10h-10h-10h-10
h-10h-10h-10h-10h-10h-9h-10h-10h-10h-10h-10h-10h-10h-10h-10h-9h-10h-10h-10h-10h-10l2 -11l2 -11l3 -11l3 -10l4 -10l5 -9l4 -8l5 -9l6 -7l6 -8l7 -7l7 -6l7 -6l8 -5l8 -5l8 -5l9 -3l9 -4l9 -3l9 -2l10 -2l10 -1l10 -1h10h11l10 1l10 1l9 1l9 2l9 3l9 2l8 3l9 4l8 4l9 5
l9 6l8 6l9 6l8 7l8 7l8 8l7 -6l7 -7l8 -6l7 -6l7 -6l7 -7l7 -6l8 -6l7 -7l7 -6l-7 -8l-7 -7l-7 -7l-7 -7l-8 -7l-8 -6l-8 -6l-8 -6l-8 -6l-9 -5l-9 -5l-8 -4l-9 -5l-9 -3l-9 -4l-9 -3l-10 -3l-9 -2l-10 -2l-11 -2l-10 -1l-11 -2h-11l-11 -1h-12zM463 311l-1 10l-2 10l-2 10
l-3 10l-3 9l-3 10l-4 8l-4 9l-5 8l-5 8l-5 7l-6 7l-7 8l-9 7l-8 6l-9 6l-10 5l-9 3l-8 3l-10 2l-9 2l-11 1h-10h-11l-10 -1l-10 -2l-10 -2l-9 -4l-9 -3l-9 -5l-8 -5l-8 -6l-8 -6l-7 -7l-6 -8l-6 -7l-6 -8l-5 -8l-4 -8l-4 -9l-4 -9l-4 -10l-3 -10l-2 -10l-2 -10l-2 -11h10h10
h10h10h10h10h10h10h10h10h10h10h10h10h10h10h10h10h10h10h10h10h10h10h10h10h10h10h10z" />
    <glyph glyph-name="f" unicode="f" horiz-adv-x="398" 
d="M112 444h-10h-10h-10h-9h-10h-10h-10v10v10v10v10v11v10v10v10v10v10h10h10h10h9h10h10h10v10v11v10v10v12l1 12l1 11l1 11l2 10l2 10l3 9l3 9l4 9l3 8l5 8l4 7l6 7l5 7l6 6l7 6l7 6l8 6l8 4l8 5l9 4l10 3l10 3l10 2l10 2l12 1l11 1h12h11h10l10 -1l9 -1h8l9 -1l9 -2
l9 -2l9 -2l9 -2l8 -3v-10v-10v-11v-10v-10v-10v-10v-11v-10v-10l-10 3l-9 2l-10 3l-8 2l-9 1l-10 1l-9 1h-10l-11 -1l-10 -1l-9 -3l-9 -3l-7 -5l-7 -5l-5 -7l-5 -8l-4 -8l-3 -10l-2 -11l-2 -11v-13v-11v-10v-11h10h10h9h10h10h10h10h9h10h10h10h10h9h10h10v-10v-10v-10v-10
v-10v-10v-10v-10v-10v-10h-10h-9h-10h-10h-10h-9h-10h-10h-10h-9h-10h-10h-10h-9h-10v-10v-10v-10v-10v-10v-11v-10v-10v-10v-10v-10v-10v-10v-10v-10v-10v-11v-10v-10v-10v-10v-10v-10v-10v-10v-10v-10v-11v-10v-10v-10v-10v-10v-10v-10v-10v-10v-10v-11v-10v-10v-10v-10
v-10h-10h-10h-10h-10h-10h-10h-11h-10h-10h-10h-10h-10v10v10v10v10v10v11v10v10v10v10v10v10v10v10v10v10v11v10v10v10v10v10v10v10v10v10v10v11v10v10v10v10v10v10v10v10v10v10v11v10v10v10v10v10z" />
    <glyph glyph-name="g" unicode="g" horiz-adv-x="705" 
d="M328 -168h-10h-11l-10 1l-10 1l-10 1l-10 1l-10 1l-10 1l-10 2l-10 2l-10 2l-9 2l-10 3l-9 3l-10 3l-9 3l-9 3l-10 3l-9 4l-8 4l-9 4l-9 4l-9 4l-8 5l-9 4l-8 5l5 9l4 9l5 9l4 9l5 9l5 10l4 9l5 9l4 9l5 9l9 -6l9 -5l9 -5l9 -5l10 -5l9 -4l9 -4l10 -3l9 -4l10 -3l8 -3
l9 -2l9 -2l9 -2l10 -2l9 -1l10 -1l10 -1l10 -1h10h10h12l11 1l12 1l10 2l11 1l10 3l9 3l9 3l9 4l8 4l8 5l8 5l7 5l7 6l6 6l6 7l5 7l5 8l4 8l4 9l4 9l3 9l2 10l2 10l2 11l1 11l1 11v12v11v11v11v11l-7 -9l-7 -8l-7 -8l-8 -8l-8 -7l-8 -8l-9 -6l-8 -7l-9 -6l-9 -5l-8 -5l-9 -4
l-8 -3l-9 -4l-9 -3l-9 -2l-10 -3l-10 -2l-10 -1l-11 -1l-11 -1h-11h-10l-9 1l-10 1l-10 1l-9 1l-9 2l-10 3l-9 2l-9 3l-9 4l-10 4l-9 4l-10 5l-9 5l-9 6l-8 6l-9 6l-8 7l-7 7l-7 7l-7 7l-6 7l-6 8l-6 8l-5 8l-5 8l-5 9l-5 9l-4 10l-4 8l-3 9l-3 9l-2 10l-3 9l-2 10l-1 10
l-1 10l-1 11l-1 10v11v2v11l1 11l1 10l1 11l1 10l2 10l3 9l2 10l3 9l3 9l4 9l4 9l5 9l5 9l5 8l6 8l5 8l6 8l7 7l6 7l7 7l7 6l7 7l8 5l8 6l8 5l8 5l8 5l8 4l9 4l9 4l9 3l9 3l9 2l9 3l10 2l9 1l9 1l10 1l9 1h10h12l11 -1l11 -1l10 -1l10 -2l10 -2l10 -3l9 -2l9 -4l8 -3l8 -5
l8 -4l9 -6l9 -6l8 -6l9 -6l8 -7l7 -7l8 -7l7 -7l6 -7l7 -8v11v10v11v10v11v10v11v10h10h10h10h10h10h11h10h10h10h10h10h10v-10v-10v-10v-10v-10v-10v-10v-9v-10v-10v-10v-10v-10v-10v-10v-10v-10v-10v-10v-10v-10v-9v-10v-10v-10v-10v-10v-10v-10v-10v-10v-10v-10v-10v-10
v-10v-9v-10v-10v-10v-10v-10v-10v-10v-11v-12l-1 -10l-1 -11l-1 -10l-1 -11l-2 -10l-2 -9l-2 -10l-2 -9l-3 -9l-3 -9l-4 -10l-4 -9l-4 -10l-5 -9l-5 -9l-5 -8l-6 -8l-6 -8l-6 -7l-7 -7l-7 -7l-7 -6l-8 -6l-8 -6l-8 -5l-9 -5l-9 -5l-9 -4l-9 -4l-10 -4l-10 -4l-9 -2l-9 -2
l-9 -3l-9 -2l-10 -1l-9 -2l-10 -1l-10 -1l-11 -1l-10 -1l-11 -1h-11h-11zM337 146h11l11 1l10 2l11 2l10 3l11 4l9 4l10 4l9 5l9 6l8 6l8 6l7 7l7 7l6 8l6 8l5 9l5 10l4 9l3 10l3 10l2 11l1 11v11v2v10l-1 9l-1 10l-2 9l-3 9l-3 8l-3 9l-5 9l-5 9l-6 8l-6 8l-7 7l-7 8l-8 6
l-8 6l-9 6l-9 5l-10 4l-9 4l-11 3l-10 3l-11 2l-10 2l-11 1h-11h-11l-11 -1l-10 -2l-10 -2l-10 -3l-10 -3l-9 -4l-9 -4l-9 -5l-8 -6l-8 -6l-7 -6l-7 -8l-7 -7l-6 -8l-5 -8l-5 -9l-4 -9l-4 -10l-3 -10l-3 -10l-2 -11l-1 -11v-11v-2v-10l1 -9l1 -10l2 -9l2 -9l3 -8l4 -8l4 -10
l5 -9l5 -8l6 -8l7 -7l7 -7l7 -6l8 -6l8 -6l9 -5l9 -4l9 -4l10 -4l10 -3l10 -2l10 -2l11 -1h11z" />
    <glyph glyph-name="h" unicode="h" horiz-adv-x="652" 
d="M84 759h10h10h10h10h10h10h10h10h10h10h10h10v-10v-10v-10v-10v-9v-10v-10v-10v-10v-10v-10v-10v-10v-10v-9v-10v-10v-10v-10v-10v-10v-10v-10v-10v-9v-10v-10v-10v-10v-10l5 8l6 7l6 7l6 8l7 7l7 7l7 7l8 6l8 6l8 5l9 5l9 5l9 4l10 4l11 3l8 2l10 2l9 2l10 1l10 1h11h11
l12 -1l10 -1l11 -2l10 -2l10 -2l10 -3l9 -3l9 -4l8 -4l8 -5l8 -5l8 -6l7 -6l7 -7l7 -6l6 -7l6 -8l5 -7l5 -8l4 -8l4 -8l4 -8l3 -9l3 -9l3 -9l3 -10l2 -10l1 -10l1 -10l1 -11l1 -11v-11v-10v-10v-10v-10v-10v-10v-10v-10v-9v-10v-10v-10v-10v-10v-10v-10v-10v-10v-10v-10v-10
v-10v-10v-10v-10v-10v-9v-10v-10v-10v-10v-10v-10v-10v-10h-10h-10h-10h-10h-10h-10h-11h-10h-10h-10h-10h-10v10v10v10v10v10v10v10v11v10v10v10v10v10v10v10v10v10v10v10v10v10v10v10v11v10v10v10v10v10v10v10v12l-1 11l-1 11l-2 10l-3 10l-2 9l-4 9l-4 8l-4 8l-5 7l-5 7
l-7 6l-7 6l-8 6l-8 4l-9 4l-9 3l-10 3l-10 2l-11 1h-11h-11l-11 -1l-10 -2l-10 -3l-10 -3l-9 -4l-9 -5l-8 -5l-8 -7l-7 -6l-6 -7l-6 -8l-5 -8l-4 -8l-4 -9l-4 -9l-2 -10l-2 -10l-2 -11l-1 -11v-12v-10v-10v-10v-10v-10v-10v-10v-10v-10v-10v-10v-10v-10v-10v-10v-10v-10v-10
v-10v-10v-10v-10v-10v-10v-10v-10v-10v-10v-10v-10v-10h-10h-10h-10h-10h-10h-10h-10h-10h-10h-10h-10h-10v10v10v10v10v10v10v10v10v10v10v10v10v10v10v10v10v10v10v10v10v10v10v10v10v10v10v10v10v10v10v10v10v10v10v10v10v10v10v9v10v10v10v10v10v10v10v10v10v10v10v10
v10v10v10v10v10v10v10v10v10v10v10v10v10v10v10v10v10v10v10v10v10v10v10v10v10z" />
    <glyph glyph-name="i" unicode="i" horiz-adv-x="303" 
d="M86 752h10h10h10h10h10h10h11h10h10h10h10h10h10v-10v-9v-10v-10v-9v-10v-10v-9v-10v-10v-9v-10h-10h-10h-10h-10h-10h-10h-11h-10h-10h-10h-10h-10h-10v10v9v10v10v9v10v10v9v10v10v9v10zM91 548h10h10h10h10h10h11h10h10h10h10h10h10v-10v-10v-10v-10v-10v-10v-10v-10
v-10v-10v-10v-10v-10v-9v-10v-10v-10v-10v-10v-10v-10v-10v-10v-10v-10v-10v-10v-10v-10v-10v-10v-10v-10v-10v-10v-10v-10v-10v-10v-10v-10v-9v-10v-10v-10v-10v-10v-10v-10v-10v-10v-10v-10v-10v-10h-10h-10h-10h-10h-10h-10h-11h-10h-10h-10h-10h-10v10v10v10v10v10v10
v10v10v10v10v10v10v10v9v10v10v10v10v10v10v10v10v10v10v10v10v10v10v10v10v10v10v10v10v10v10v10v10v10v10v10v9v10v10v10v10v10v10v10v10v10v10v10v10v10z" />
    <glyph glyph-name="j" unicode="j" horiz-adv-x="303" 
d="M86 752h10h10h10h10h10h10h11h10h10h10h10h10h10v-10v-9v-10v-10v-9v-10v-10v-9v-10v-10v-9v-10h-10h-10h-10h-10h-10h-10h-11h-10h-10h-10h-10h-10h-10v10v9v10v10v9v10v10v9v10v10v9v10zM56 -170h-11l-11 1h-9l-10 2l-9 1l-10 2v10v9v10v9v10v10v9v10v9v10l9 -1l10 -1
l8 -1h9l10 1l9 2l9 3l8 4l7 6l5 6l4 7l3 8l2 9l2 11v11v10v10v10v10v10v10v10v10v10v10v10v10v10v10v10v10v10v10v10v10v10v10v10v10v10v10v10v11v10v10v10v10v10v10v10v10v10v10v10v10v10v10v10v10v10v10v10v10v10v10v10v10v10v10v10h10h10h10h10h10h11h10h10h10h10h10h10
v-10v-10v-10v-10v-10v-10v-10v-10v-10v-10v-10v-10v-10v-9v-10v-10v-10v-10v-10v-10v-10v-10v-10v-10v-10v-10v-10v-10v-10v-10v-10v-10v-10v-10v-10v-10v-10v-10v-10v-10v-10v-9v-10v-10v-10v-10v-10v-10v-10v-10v-10v-10v-10v-10v-10v-10v-12l-1 -12l-1 -12l-2 -10l-2 -11
l-3 -10l-3 -9l-3 -9l-4 -8l-5 -8l-5 -7l-6 -7l-5 -6l-7 -6l-7 -5l-7 -5l-8 -4l-8 -4l-8 -4l-9 -3l-9 -2l-10 -2l-10 -2l-11 -1l-11 -1h-11z" />
    <glyph glyph-name="k" unicode="k" horiz-adv-x="612" 
d="M84 759h10h10h10h10h10h10h10h10h10h10h10h10v-10v-10v-10v-10v-10v-10v-10v-10v-10v-10v-10v-11v-10v-10v-10v-10v-10v-10v-10v-10v-10v-10v-10v-10v-10v-10v-10v-10v-10v-10v-10v-10v-10v-10v-11v-10v-10v-10v-10v-10v-10v-10v-10v-10v-10v-10l7 7l7 8l7 7l7 8l7 7l7 7
l7 8l7 7l6 7l7 8l7 7l7 8l7 7l7 7l7 8l7 7l7 8l7 7l7 7l7 8l7 7l7 7l7 8l7 7l7 8l6 7l7 7l7 8l7 7l7 7l7 8l7 7l7 8l7 7h10h9h10h10h10h9h10h10h10h9h10h10h10h9h10l-7 -7l-7 -8l-7 -7l-7 -7l-7 -7l-7 -8l-7 -7l-8 -7l-7 -7l-7 -8l-7 -7l-7 -7l-7 -7l-7 -8l-7 -7l-7 -7
l-7 -7l-7 -8l-7 -7l-7 -7l-7 -7l-7 -8l-7 -7l-8 -7l-7 -7l-7 -8l-7 -7l-7 -7l-7 -7l-7 -8l-7 -7l6 -8l6 -9l5 -8l6 -8l6 -8l6 -9l6 -8l6 -8l5 -9l6 -8l6 -8l6 -8l6 -9l5 -8l6 -8l6 -9l6 -8l6 -8l6 -8l5 -9l6 -8l6 -8l6 -8l6 -9l6 -8l5 -8l6 -9l6 -8l6 -8l6 -8l5 -9l6 -8
l6 -8l6 -9l6 -8l6 -8l5 -8l6 -9l6 -8h-10h-10h-10h-11h-10h-10h-10h-10h-10h-10h-11h-10h-10h-10l-6 8l-5 8l-6 9l-6 8l-6 8l-5 8l-6 9l-6 8l-6 8l-5 8l-6 9l-6 8l-5 8l-6 8l-6 9l-6 8l-5 8l-6 8l-6 9l-5 8l-6 8l-6 8l-6 9l-5 8l-6 8l-6 8l-6 9l-5 8l-6 8l-7 -7l-7 -7l-6 -7
l-7 -7l-7 -7l-7 -7l-7 -7l-7 -7l-6 -7l-7 -7l-7 -7l-7 -7v-10v-9v-10v-10v-9v-10v-10v-9v-10v-10v-10v-9v-10v-10v-9v-10h-10h-10h-10h-10h-10h-10h-10h-10h-10h-10h-10h-10v10v10v10v10v10v10v10v10v10v10v10v10v10v10v10v10v10v10v10v10v10v10v10v10v10v10v10v10v10v10v10
v10v10v10v10v10v10v10v9v10v10v10v10v10v10v10v10v10v10v10v10v10v10v10v10v10v10v10v10v10v10v10v10v10v10v10v10v10v10v10v10v10v10v10v10v10z" />
    <glyph glyph-name="l" unicode="l" horiz-adv-x="303" 
d="M91 759h10h10h10h10h10h11h10h10h10h10h10h10v-10v-10v-10v-10v-10v-10v-10v-10v-10v-10v-10v-10v-10v-10v-10v-10v-10v-10v-10v-10v-10v-10v-10v-10v-10v-10v-10v-10v-10v-10v-10v-10v-10v-10v-10v-10v-10v-9v-10v-10v-10v-10v-10v-10v-10v-10v-10v-10v-10v-10v-10v-10
v-10v-10v-10v-10v-10v-10v-10v-10v-10v-10v-10v-10v-10v-10v-10v-10v-10v-10v-10v-10v-10v-10v-10v-10h-10h-10h-10h-10h-10h-10h-11h-10h-10h-10h-10h-10v10v10v10v10v10v10v10v10v10v10v10v10v10v10v10v10v10v10v10v10v10v10v10v10v10v10v10v10v10v10v10v10v10v10v10v10
v10v10v9v10v10v10v10v10v10v10v10v10v10v10v10v10v10v10v10v10v10v10v10v10v10v10v10v10v10v10v10v10v10v10v10v10v10v10v10v10z" />
    <glyph glyph-name="m" unicode="m" horiz-adv-x="996" 
d="M84 548h10h10h10h10h10h10h10h10h10h10h10h10v-9v-10v-9v-10v-9v-10v-9v-10v-9l5 8l6 7l6 7l6 7l7 7l6 7l7 6l8 6l7 6l8 6l8 5l9 4l9 5l10 4l10 3l8 2l9 2l10 2l9 1l11 1h10h11l10 -1l10 -1l10 -2l10 -1l9 -3l9 -3l8 -3l9 -4l8 -4l8 -4l8 -6l7 -6l8 -6l7 -6l6 -7l6 -8
l6 -7l5 -8l5 -8l5 -9l6 8l6 7l7 8l7 7l6 6l7 7l8 6l7 6l8 5l8 6l8 5l8 4l8 4l9 4l9 3l10 3l10 3l10 1l11 2l10 1l12 1h11h11l11 -1l11 -1l10 -1l10 -2l10 -3l9 -3l9 -3l9 -3l8 -4l8 -5l8 -5l7 -5l8 -6l6 -6l7 -7l6 -7l5 -7l5 -7l5 -7l5 -8l4 -9l3 -8l4 -9l3 -9l2 -10l3 -9
l2 -11l1 -10l1 -11l1 -11l1 -11v-12v-10v-10v-10v-10v-10v-10v-10v-10v-9v-10v-10v-10v-10v-10v-10v-10v-10v-10v-10v-10v-10v-10v-10v-10v-10v-10v-9v-10v-10v-10v-10v-10v-10v-10v-10h-10h-10h-10h-10h-10h-10h-10h-10h-10h-10h-10h-10v10v10v10v10v10v10v10v11v10v10v10
v10v10v10v10v10v10v10v10v10v10v10v10v11v10v10v10v10v10v10v10v12l-1 11l-1 11l-2 10l-2 10l-3 10l-3 8l-4 9l-4 7l-5 7l-5 7l-8 7l-7 7l-8 5l-9 5l-10 4l-10 3l-10 2l-11 2h-12h-10l-10 -1l-10 -2l-9 -3l-9 -3l-9 -4l-8 -4l-8 -6l-7 -6l-7 -6l-6 -7l-5 -7l-5 -8l-4 -9
l-4 -8l-3 -10l-3 -10l-1 -10l-2 -11l-1 -12v-12v-10v-10v-10v-10v-10v-10v-10v-10v-10v-10v-10v-10v-10v-10v-10v-10v-10v-10v-10v-10v-10v-10v-10v-10v-10v-10v-10v-10v-10v-10v-10h-10h-10h-10h-10h-10h-10h-11h-10h-10h-10h-10h-10v10v10v10v11v10v10v10v10v10v10v10v11
v10v10v10v10v10v10v10v11v10v10v10v10v10v10v10v11v10v10v10v12l-1 11l-1 11l-2 10l-2 9l-3 10l-3 8l-4 8l-4 8l-5 7l-5 7l-7 7l-8 6l-8 6l-8 4l-10 4l-10 3l-10 2l-11 2h-12h-11l-10 -1l-10 -2l-9 -3l-9 -3l-9 -4l-8 -5l-8 -6l-7 -6l-7 -7l-6 -8l-5 -7l-5 -8l-4 -8l-4 -9
l-3 -10l-3 -9l-1 -11l-2 -10l-1 -11v-12v-10v-10v-10v-10v-10v-10v-10v-10v-10v-10v-10v-10v-10v-10v-10v-9v-10v-10v-10v-10v-10v-10v-10v-10v-10v-10v-10v-10v-10v-10v-10h-10h-10h-10h-10h-10h-10h-10h-10h-10h-10h-10h-10v10v10v10v10v10v10v10v10v10v10v10v10v10v9v10
v10v10v10v10v10v10v10v10v10v10v10v10v10v10v10v10v10v10v10v10v10v10v10v10v10v10v9v10v10v10v10v10v10v10v10v10v10v10v10v10z" />
    <glyph glyph-name="n" unicode="n" horiz-adv-x="652" 
d="M84 548h10h10h10h10h10h10h10h10h10h10h10h10v-10v-9v-10v-9v-10v-9v-10v-9v-10l5 8l6 7l6 7l6 8l7 7l7 7l7 7l8 6l8 6l8 5l9 5l9 5l9 4l10 4l11 3l8 2l10 2l9 2l10 1l10 1h11h11l12 -1l10 -1l11 -2l10 -2l10 -2l10 -3l9 -3l9 -4l8 -4l8 -5l8 -5l8 -6l7 -6l7 -7l7 -6
l6 -7l6 -8l5 -7l5 -8l4 -8l4 -8l4 -8l3 -9l3 -9l3 -9l3 -10l2 -10l1 -10l1 -10l1 -11l1 -11v-11v-10v-10v-10v-10v-10v-10v-10v-10v-9v-10v-10v-10v-10v-10v-10v-10v-10v-10v-10v-10v-10v-10v-10v-10v-10v-10v-9v-10v-10v-10v-10v-10v-10v-10v-10h-10h-10h-10h-10h-10h-10
h-11h-10h-10h-10h-10h-10v10v10v10v10v10v10v10v11v10v10v10v10v10v10v10v10v10v10v10v10v10v10v10v11v10v10v10v10v10v10v10v12l-1 11l-1 11l-2 10l-3 10l-2 9l-4 9l-4 8l-4 8l-5 7l-5 7l-7 6l-7 6l-8 6l-8 4l-9 4l-9 3l-10 3l-10 2l-11 1h-11h-11l-11 -1l-10 -2l-10 -3
l-10 -3l-9 -4l-9 -5l-8 -5l-8 -7l-7 -6l-6 -7l-6 -8l-5 -8l-4 -8l-4 -9l-4 -9l-2 -10l-2 -10l-2 -11l-1 -11v-12v-10v-10v-10v-10v-10v-10v-10v-10v-10v-10v-10v-10v-10v-10v-10v-10v-10v-10v-10v-10v-10v-10v-10v-10v-10v-10v-10v-10v-10v-10v-10h-10h-10h-10h-10h-10h-10
h-10h-10h-10h-10h-10h-10v10v10v10v10v10v10v10v10v10v10v10v10v10v9v10v10v10v10v10v10v10v10v10v10v10v10v10v10v10v10v10v10v10v10v10v10v10v10v10v10v10v9v10v10v10v10v10v10v10v10v10v10v10v10v10z" />
    <glyph glyph-name="o" unicode="o" horiz-adv-x="690" 
d="M344 -12h-10l-11 1h-10l-10 1l-10 2l-9 2l-10 2l-10 2l-9 3l-9 3l-9 3l-9 4l-10 4l-9 4l-9 5l-9 5l-8 5l-9 6l-8 5l-7 6l-8 7l-7 6l-7 7l-7 7l-7 7l-6 8l-6 7l-6 8l-6 8l-5 9l-5 8l-4 9l-5 9l-4 10l-4 9l-3 9l-3 10l-3 10l-2 10l-2 10l-2 10l-1 10l-1 11l-1 10v11v2v10
l1 11l1 10l1 10l2 10l2 10l2 10l3 10l3 10l3 9l4 10l4 9l5 9l4 9l5 9l6 9l5 8l6 8l6 8l6 7l7 8l7 7l7 7l8 7l7 6l8 6l8 6l9 6l9 5l8 5l10 5l9 5l10 4l8 4l10 3l9 3l9 3l10 2l9 2l10 2l10 1l10 2h10l11 1h10h10l11 -1h10l10 -1l10 -2l10 -2l9 -2l10 -2l9 -3l9 -3l9 -3l9 -3
l10 -5l9 -4l9 -5l9 -5l8 -5l9 -6l8 -6l7 -6l8 -6l7 -7l8 -6l6 -8l7 -7l6 -7l6 -8l6 -8l6 -8l5 -9l5 -8l4 -9l5 -9l4 -9l4 -10l3 -9l3 -10l3 -10l2 -10l2 -10l2 -10l1 -10l1 -11l1 -10v-11v-2v-11l-1 -10l-1 -11l-1 -10l-2 -10l-2 -10l-2 -10l-3 -10l-3 -10l-3 -9l-4 -9
l-4 -10l-5 -9l-4 -9l-5 -8l-6 -9l-5 -8l-6 -8l-6 -8l-6 -7l-7 -8l-7 -7l-7 -7l-8 -7l-7 -6l-8 -6l-8 -6l-9 -6l-9 -5l-8 -5l-10 -5l-9 -4l-9 -4l-9 -4l-10 -3l-9 -3l-9 -3l-10 -2l-9 -2l-10 -2l-10 -2l-10 -1h-10l-11 -1h-10zM346 93h11l11 1l10 2l10 2l10 2l9 3l9 4l9 4
l8 5l8 5l8 5l7 6l7 7l7 7l6 7l6 7l5 8l5 8l4 9l4 8l4 10l3 9l3 9l2 10l2 10l1 10l1 10v10v2v10l-1 11l-1 10l-2 10l-3 10l-3 9l-3 10l-4 9l-4 8l-5 9l-5 8l-5 8l-6 8l-6 7l-7 7l-7 6l-8 7l-7 5l-8 5l-9 5l-9 5l-9 3l-10 4l-9 2l-10 2l-10 2l-11 1h-10h-11l-11 -1l-10 -2
l-10 -2l-10 -2l-9 -4l-9 -3l-9 -5l-8 -5l-8 -5l-8 -5l-7 -6l-7 -7l-6 -6l-7 -8l-5 -7l-6 -8l-5 -8l-4 -9l-4 -8l-4 -9l-3 -10l-3 -9l-2 -10l-2 -10l-1 -10l-1 -10v-10v-2v-10l1 -11l1 -10l2 -10l3 -10l3 -9l3 -9l4 -10l4 -8l5 -9l5 -8l5 -8l6 -7l7 -7l6 -7l7 -7l7 -6l8 -5
l8 -5l9 -5l9 -4l9 -4l9 -4l10 -2l10 -2l10 -2l10 -1h11z" />
    <glyph glyph-name="p" unicode="p" horiz-adv-x="705" 
d="M84 548h10h10h10h10h10h10h10h10h10h10h10h10v-10v-11v-10v-11v-10v-11v-10v-11v-10l6 8l6 8l6 7l6 7l7 7l7 7l7 7l8 6l7 6l8 6l9 6l7 4l8 5l9 4l8 3l9 4l10 2l9 3l10 2l10 1l11 1l11 1h11h10l9 -1l10 -1l9 -1l10 -2l9 -2l9 -2l10 -3l9 -3l9 -4l9 -4l9 -4l9 -5l8 -5l9 -5
l8 -6l8 -6l7 -6l8 -7l7 -7l6 -7l7 -7l6 -7l5 -7l6 -8l5 -8l5 -9l5 -8l4 -9l4 -10l5 -9l3 -9l3 -9l3 -9l2 -10l3 -10l2 -10l1 -10l2 -10l1 -11v-11l1 -11v-11v-2v-11l-1 -11v-11l-1 -11l-2 -10l-1 -10l-2 -10l-3 -10l-2 -10l-3 -9l-3 -9l-3 -9l-5 -9l-4 -10l-4 -9l-5 -8
l-5 -9l-5 -8l-6 -8l-5 -7l-6 -7l-6 -7l-6 -7l-8 -7l-7 -7l-8 -6l-8 -6l-8 -6l-8 -5l-8 -5l-9 -5l-9 -4l-9 -4l-9 -4l-10 -3l-9 -3l-9 -2l-10 -2l-9 -2l-10 -1l-10 -1l-9 -1h-10h-11l-11 1l-11 1l-10 1l-10 2l-10 2l-10 3l-9 3l-8 4l-9 3l-8 5l-7 5l-9 5l-9 7l-8 6l-8 7l-8 6
l-8 7l-7 7l-6 8l-7 7l-6 8v-10v-10v-10v-10v-11v-10v-10v-10v-10v-10v-10v-10v-11v-10v-10v-10v-10v-10v-10v-10v-11v-10v-10v-10v-10h-10h-10h-10h-10h-10h-10h-10h-10h-10h-10h-10h-10v10v10v10v10v10v10v10v10v11v10v10v10v10v10v10v10v10v10v10v10v10v10v10v10v10v10v11
v10v10v10v10v10v10v10v10v10v10v10v10v10v10v10v10v10v11v10v10v10v10v10v10v10v10v10v10v10v10v10v10v10v10v10v11v10v10v10v10v10v10v10v10zM366 93h11l11 1l10 2l10 3l11 3l10 4l9 4l9 5l9 6l8 6l8 7l8 8l5 6l6 8l5 7l5 8l5 9l4 9l4 9l3 8l3 9l2 9l2 9l1 10l1 10l1 10v10
v2v10l-1 10l-1 10l-1 9l-2 9l-2 9l-3 9l-3 8l-4 9l-4 9l-5 9l-5 8l-5 7l-6 8l-6 7l-8 7l-7 7l-9 6l-8 6l-10 5l-9 5l-10 4l-10 3l-10 3l-10 2l-11 1h-11h-11l-11 -1l-10 -2l-10 -3l-11 -3l-9 -4l-10 -5l-9 -5l-9 -6l-9 -6l-8 -7l-7 -7l-7 -7l-6 -8l-5 -7l-5 -9l-5 -8l-4 -9
l-4 -9l-4 -9l-2 -9l-3 -9l-2 -9l-1 -9l-1 -9l-1 -10v-10v-2v-10l1 -10l1 -10l1 -9l2 -9l3 -9l2 -9l4 -8l4 -9l4 -9l5 -9l5 -8l5 -7l6 -8l7 -6l7 -8l8 -7l9 -6l9 -6l9 -5l10 -5l9 -4l11 -3l10 -3l10 -2l11 -1h11z" />
    <glyph glyph-name="q" unicode="q" horiz-adv-x="705" 
d="M500 94l-6 -9l-7 -8l-6 -8l-8 -8l-7 -8l-8 -7l-8 -7l-8 -7l-9 -7l-9 -5l-8 -5l-8 -4l-8 -4l-9 -4l-9 -3l-9 -3l-9 -2l-10 -2l-10 -2l-11 -1l-11 -1h-11h-10l-9 1l-10 1l-9 1l-9 2l-10 2l-9 2l-10 3l-9 3l-9 4l-9 4l-9 4l-9 5l-8 5l-8 5l-9 6l-7 6l-8 6l-8 7l-7 7l-6 7
l-7 7l-6 7l-5 7l-6 8l-5 8l-5 9l-5 8l-4 9l-4 10l-4 9l-4 9l-3 9l-3 9l-2 10l-3 10l-2 10l-1 10l-2 10l-1 11v11l-1 11v11v2v11l1 11v11l1 11l2 10l1 10l2 10l3 10l2 10l3 9l3 9l4 9l4 9l4 10l4 9l5 8l5 9l5 8l6 8l5 7l6 7l6 7l7 7l7 7l7 7l8 6l8 6l8 6l8 5l8 5l9 5l9 4l9 4
l9 4l10 3l9 3l9 2l10 2l9 2l10 1l10 1l9 1h10h11l11 -1l11 -1l10 -1l10 -2l10 -2l10 -3l9 -3l8 -4l9 -3l8 -5l8 -4l8 -6l9 -7l8 -6l8 -7l8 -6l7 -7l7 -7l7 -8l6 -7l6 -8v10v9v10v10v9v10v10v9v10h10h10h10h10h10h11h10h10h10h10h10h10v-10v-10v-10v-10v-10v-10v-10v-10v-11
v-10v-10v-10v-10v-10v-10v-10v-10v-10v-10v-10v-10v-10v-10v-10v-10v-10v-11v-10v-10v-10v-10v-10v-10v-10v-10v-10v-10v-10v-10v-10v-10v-10v-10v-10v-11v-10v-10v-10v-10v-10v-10v-10v-10v-10v-10v-10v-10v-10v-10v-10v-10v-10v-11v-10v-10v-10v-10v-10v-10v-10v-10h-10
h-10h-10h-10h-10h-10h-11h-10h-10h-10h-10h-10v10v10v10v10v10v10v10v10v10v10v10v10v10v10v10v10v10v10v10v10v10v10v10v10v10v10zM339 93h11l11 1l10 2l10 3l11 3l10 4l9 5l9 5l9 6l9 6l8 7l8 8l6 6l6 8l5 7l5 8l5 9l4 9l5 9l3 8l2 9l3 9l2 9l1 9l1 10l1 10v10v2v10l-1 10
l-1 9l-1 9l-2 9l-3 9l-2 9l-3 9l-5 9l-4 9l-5 8l-5 9l-5 7l-6 8l-6 7l-8 7l-8 7l-9 6l-9 6l-9 5l-9 5l-10 4l-11 3l-10 3l-10 2l-11 1h-11h-11l-11 -1l-10 -2l-10 -3l-11 -3l-9 -3l-10 -5l-9 -5l-9 -6l-8 -6l-8 -7l-7 -7l-6 -7l-6 -8l-5 -7l-5 -8l-5 -9l-4 -9l-4 -9l-3 -8
l-3 -9l-2 -9l-2 -9l-1 -10l-1 -10l-1 -10v-10v-2v-10l1 -10l1 -10l1 -9l2 -9l2 -9l3 -9l3 -8l4 -9l4 -9l5 -9l5 -8l5 -7l6 -8l6 -6l8 -8l7 -7l9 -6l8 -6l10 -5l9 -5l10 -4l10 -3l10 -3l10 -2l11 -1h11z" />
    <glyph glyph-name="r" unicode="r" horiz-adv-x="436" 
d="M84 548h10h10h10h10h10h10h10h10h10h10h10h10v-10v-9v-10v-10v-9v-10v-10v-10v-9v-10v-10v-9v-10l4 10l5 9l5 9l5 8l5 9l6 8l5 8l7 7l6 7l7 7l6 7l8 6l7 6l8 6l8 5l8 4l8 5l9 3l9 3l10 3l9 2l10 2l11 1l10 1h11h11v-10v-10v-9v-10v-10v-10v-9v-10v-10v-10v-9v-10v-10h-7
h-10l-11 -1l-10 -1l-9 -1l-10 -2l-9 -3l-9 -3l-9 -3l-10 -4l-9 -5l-9 -5l-9 -6l-8 -7l-8 -7l-7 -7l-7 -8l-6 -7l-5 -8l-5 -8l-5 -9l-4 -10l-4 -9l-4 -10l-3 -9l-2 -9l-2 -9l-2 -9l-1 -9l-2 -10l-1 -10v-11l-1 -10v-11v-10v-10v-10v-10v-10v-10v-10v-10v-10v-10v-10v-10v-10
v-10v-10v-10v-10v-10v-10v-10v-10h-10h-10h-10h-10h-10h-10h-10h-10h-10h-10h-10h-10v10v10v10v10v10v10v10v10v10v10v10v10v10v9v10v10v10v10v10v10v10v10v10v10v10v10v10v10v10v10v10v10v10v10v10v10v10v10v10v10v10v9v10v10v10v10v10v10v10v10v10v10v10v10v10z" />
    <glyph glyph-name="s" unicode="s" horiz-adv-x="528" 
d="M271 -10h-10l-10 1h-10l-10 1l-10 1l-9 2l-11 2l-10 2l-10 2l-10 3l-10 3l-10 3l-9 3l-10 4l-9 3l-9 4l-8 4l-9 5l-9 5l-8 5l-9 5l-8 5l-8 6l-8 6l-8 6l6 8l5 8l6 9l5 8l6 8l5 8l6 8l5 9l6 8l5 8l9 -6l9 -7l9 -5l9 -6l9 -5l9 -5l9 -5l10 -4l9 -4l9 -3l10 -4l10 -3l10 -3
l10 -3l10 -2l10 -1l10 -1l10 -1h10h12l10 1l11 2l9 3l8 3l8 3l7 5l8 7l7 9l4 9l3 10l1 11v2l-1 10l-3 10l-6 8l-7 8l-10 6l-10 7l-10 4l-9 4l-11 3l-10 4l-10 3l-9 3l-9 3l-9 3l-10 3l-10 3l-10 3l-10 4l-10 3l-11 4l-10 4l-10 4l-10 4l-9 5l-9 5l-9 5l-8 6l-8 6l-8 7l-7 7
l-6 8l-6 8l-5 9l-5 7l-3 9l-3 9l-2 9l-2 10l-1 10v11v2v11l1 11l2 10l2 10l3 9l3 10l4 9l5 8l4 8l6 8l6 7l6 7l7 7l7 7l8 5l8 6l8 5l9 5l9 4l9 4l10 4l9 2l9 3l9 2l10 1l9 1l10 1l10 1h10h9l10 -1h9l10 -1l9 -1l10 -2l10 -2l9 -2l10 -2l9 -3l10 -2l10 -4l9 -3l9 -3l9 -4
l9 -4l9 -4l8 -5l9 -4l8 -5l8 -5l8 -5l-5 -9l-5 -8l-4 -9l-5 -8l-5 -9l-5 -9l-5 -8l-4 -9l-5 -8l-5 -9l-9 5l-9 5l-9 5l-9 4l-8 5l-9 4l-9 3l-9 4l-9 3l-10 3l-10 3l-9 3l-10 2l-9 1l-9 1l-9 1h-9h-12l-11 -2l-11 -2l-9 -3l-9 -4l-7 -5l-8 -7l-5 -7l-5 -8l-2 -9l-1 -10v-2
l1 -10l3 -8l6 -8l8 -8l9 -7l11 -6l9 -4l9 -5l11 -4l11 -4l9 -3l9 -3l9 -4l10 -3l10 -3l10 -3l10 -3l10 -4l10 -4l10 -3l11 -4l10 -5l9 -4l10 -5l9 -6l8 -5l9 -6l7 -6l8 -7l7 -7l6 -8l6 -8l6 -8l4 -8l3 -8l3 -8l2 -9l2 -10l1 -10v-10v-2v-11l-1 -10l-1 -10l-2 -9l-2 -9l-3 -9
l-3 -9l-3 -8l-5 -9l-5 -8l-6 -8l-6 -8l-7 -7l-7 -7l-7 -6l-9 -6l-8 -6l-9 -5l-9 -4l-10 -5l-10 -3l-10 -3l-9 -3l-10 -2l-10 -2l-9 -1l-11 -2h-10l-10 -1h-11z" />
    <glyph glyph-name="t" unicode="t" horiz-adv-x="434" 
d="M268 -9h-11l-12 1l-10 1l-11 2l-10 2l-9 2l-10 3l-9 4l-8 4l-8 5l-8 5l-7 6l-7 7l-6 7l-6 8l-5 8l-4 9l-4 10l-3 8l-3 8l-2 9l-1 9l-1 9l-1 10l-1 11v11v10v10v10v11v10v10v10v10v10v10v11v10v10v10v10v10v10v10v11v10v10v10v10v10v10v11v10v10v10h-10h-10h-10h-11h-10
h-10h-10v10v11v10v11v10v10v11v10v11v10h10h10h10h11h10h10h10v10v10v10v11v10v10v10v10v10v10v10v11v10v10v10h10h10h10h10h10h10h10h10h10h10h10h10v-10v-10v-10v-11v-10v-10v-10v-10v-10v-10v-10v-11v-10v-10v-10h10h10h10h10h10h10h10h10h10h10h10h10h10h10h10v-10v-11
v-10v-11v-10v-10v-11v-10v-11v-10h-10h-10h-10h-10h-10h-10h-10h-10h-10h-10h-10h-10h-10h-10h-10v-10v-10v-9v-10v-10v-10v-10v-10v-9v-10v-10v-10v-10v-9v-10v-10v-10v-10v-10v-9v-10v-10v-10v-10v-10v-9v-10v-10l1 -12l1 -11l3 -10l3 -8l5 -7l6 -6l6 -6l7 -4l9 -3l9 -2
l9 -2h11h10l11 1l9 2l10 2l10 3l9 3l10 4l9 4v-10v-10v-10v-10v-9v-10v-10v-10v-10v-10l-9 -5l-10 -4l-10 -4l-10 -4l-10 -3l-10 -2l-9 -2l-10 -1l-11 -1l-11 -1h-11z" />
    <glyph glyph-name="u" unicode="u" horiz-adv-x="652" 
d="M275 -11h-12l-11 1l-11 1l-10 2l-11 2l-10 2l-9 3l-9 3l-9 4l-9 4l-8 5l-8 5l-8 6l-7 6l-7 7l-7 7l-6 6l-6 8l-5 7l-5 8l-4 8l-4 8l-4 8l-3 9l-3 9l-3 9l-3 10l-2 10l-1 10l-1 10l-1 11l-1 11v11v10v10v10v10v10v10v10v10v9v10v10v10v10v10v10v10v10v10v10v10v10v10v10
v10v10v10v9v10v10v10v10v10v10v10v10h10h10h10h10h10h11h10h10h10h10h10h10v-10v-10v-10v-10v-10v-10v-10v-11v-10v-10v-10v-10v-10v-10v-10v-10v-10v-10v-10v-10v-10v-10v-10v-11v-10v-10v-10v-10v-10v-10v-10v-12l1 -11l1 -11l2 -10l3 -10l3 -9l3 -9l4 -8l4 -8l5 -7l6 -6
l7 -7l7 -6l7 -6l9 -4l8 -4l9 -3l10 -3l10 -2l11 -1h11h11l11 1l10 2l10 3l10 3l9 4l9 5l8 5l8 7l7 7l6 6l6 8l5 8l4 8l4 9l4 9l2 10l2 10l2 11l1 11v12v10v10v10v10v10v10v10v10v10v10v10v10v10v10v10v10v10v10v10v10v10v10v10v10v10v10v10v10v10v10v10h10h10h10h10h10h10
h10h10h10h10h10h10v-10v-10v-10v-10v-10v-10v-10v-10v-10v-10v-10v-10v-10v-9v-10v-10v-10v-10v-10v-10v-10v-10v-10v-10v-10v-10v-10v-10v-10v-10v-10v-10v-10v-10v-10v-10v-10v-10v-10v-10v-10v-9v-10v-10v-10v-10v-10v-10v-10v-10v-10v-10v-10v-10v-10h-10h-10h-10h-10
h-10h-10h-10h-10h-10h-10h-10h-10v10v9v10v9v10v9v10v9v10l-6 -8l-5 -7l-6 -7l-7 -8l-6 -6l-7 -7l-8 -7l-7 -6l-8 -6l-8 -6l-8 -5l-8 -5l-8 -4l-9 -3l-9 -3l-10 -3l-9 -2l-11 -2l-10 -1l-12 -1h-11z" />
    <glyph glyph-name="v" unicode="v" horiz-adv-x="625" 
d="M32 548h10h10h10h10h10h10h10h10h10h10h10h10h10l3 -9l4 -10l3 -9l4 -9l3 -9l4 -10l3 -9l3 -9l4 -9l3 -10l4 -9l3 -9l4 -10l3 -9l3 -9l4 -9l3 -10l4 -9l3 -9l4 -9l3 -10l4 -9l3 -9l3 -10l4 -9l3 -9l4 -9l3 -10l4 -9l3 -9l3 -9l4 -10l3 -9l4 -9l3 -10l4 -9l3 -9l3 -9
l4 -10l3 -9l4 -9l3 -9l4 -10l3 -9l3 9l4 10l3 9l4 9l3 9l4 10l3 9l4 9l3 9l4 10l3 9l4 9l3 10l4 9l3 9l4 9l3 10l4 9l3 9l4 9l3 10l4 9l3 9l3 10l4 9l3 9l4 9l3 10l4 9l3 9l4 9l3 10l4 9l3 9l4 10l3 9l4 9l3 9l4 10l3 9l4 9l3 9l4 10l3 9h10h10h9h10h10h10h9h10h10h10h9h10
h10l-4 -9l-4 -9l-3 -10l-4 -9l-4 -9l-4 -9l-3 -9l-4 -10l-4 -9l-4 -9l-3 -9l-4 -9l-4 -10l-4 -9l-3 -9l-4 -9l-4 -9l-4 -10l-4 -9l-3 -9l-4 -9l-4 -9l-4 -10l-3 -9l-4 -9l-4 -9l-4 -9l-3 -10l-4 -9l-4 -9l-4 -9l-4 -9l-3 -10l-4 -9l-4 -9l-4 -9l-3 -9l-4 -10l-4 -9l-4 -9
l-3 -9l-4 -9l-4 -10l-4 -9l-3 -9l-4 -9l-4 -9l-4 -10l-4 -9l-3 -9l-4 -9l-4 -9l-4 -10l-3 -9l-4 -9l-4 -9l-4 -9l-3 -10l-4 -9l-4 -9h-10h-10h-10h-10h-10h-9h-10h-10h-10h-10h-10l-4 9l-4 9l-3 10l-4 9l-4 9l-4 9l-3 9l-4 10l-4 9l-4 9l-3 9l-4 9l-4 10l-4 9l-3 9l-4 9
l-4 9l-4 10l-4 9l-3 9l-4 9l-4 9l-4 10l-3 9l-4 9l-4 9l-4 9l-3 10l-4 9l-4 9l-4 9l-4 9l-3 10l-4 9l-4 9l-4 9l-3 9l-4 10l-4 9l-4 9l-3 9l-4 9l-4 10l-4 9l-3 9l-4 9l-4 9l-4 10l-4 9l-3 9l-4 9l-4 9l-4 10l-3 9l-4 9l-4 9l-4 9l-3 10l-4 9z" />
    <glyph glyph-name="w" unicode="w" horiz-adv-x="903" 
d="M38 548h10h11h10h10h11h10h10h11h10h10h11h10l3 -10l3 -9l3 -10l2 -9l3 -10l3 -9l3 -10l3 -10l3 -9l3 -10l2 -9l3 -10l3 -9l3 -10l3 -10l3 -9l2 -10l3 -9l3 -10l3 -9l3 -10l3 -10l3 -9l2 -10l3 -9l3 -10l3 -10l3 -9l3 -10l3 -9l2 -10l3 -9l3 -10l3 -10l3 -9l3 -10l2 -9
l3 -10l3 -9l3 -10l3 10l3 9l3 10l4 10l3 9l3 10l3 9l3 10l3 10l3 9l3 10l4 10l3 9l3 10l3 9l3 10l3 10l3 9l3 10l4 10l3 9l3 10l3 9l3 10l3 10l3 9l3 10l4 10l3 9l3 10l3 9l3 10l3 10l3 9l3 10l4 10l3 9l3 10l3 9l3 10h10h10h11h10h10h10h10h11h10h10l3 -10l3 -9l3 -10l4 -9
l3 -10l3 -10l3 -9l3 -10l3 -10l3 -9l3 -10l4 -9l3 -10l3 -10l3 -9l3 -10l3 -10l3 -9l3 -10l4 -9l3 -10l3 -10l3 -9l3 -10l3 -10l3 -9l3 -10l4 -9l3 -10l3 -10l3 -9l3 -10l3 -10l3 -9l3 -10l4 -9l3 -10l3 -10l3 -9l3 -10l3 10l3 9l3 10l3 9l3 10l2 9l3 10l3 10l3 9l3 10l3 9
l3 10l3 9l3 10l3 10l2 9l3 10l3 9l3 10l3 10l3 9l3 10l3 9l3 10l3 9l2 10l3 10l3 9l3 10l3 9l3 10l3 9l3 10l3 10l3 9l2 10l3 9l3 10l3 9l3 10h10h10h10h10h10h11h10h10h10h10h10h10l-3 -10l-3 -9l-3 -10l-3 -9l-4 -10l-3 -9l-3 -10l-3 -9l-3 -10l-3 -9l-3 -10l-3 -9l-4 -10
l-3 -9l-3 -10l-3 -9l-3 -10l-3 -9l-3 -10l-3 -9l-4 -10l-3 -9l-3 -10l-3 -9l-3 -10l-3 -9l-3 -10l-3 -9l-3 -10l-4 -10l-3 -9l-3 -10l-3 -9l-3 -10l-3 -9l-3 -10l-3 -9l-4 -10l-3 -9l-3 -10l-3 -9l-3 -10l-3 -9l-3 -10l-3 -9l-4 -10l-3 -9l-3 -10l-3 -9l-3 -10l-3 -9l-3 -10
l-3 -9l-4 -10l-3 -9l-3 -10l-3 -9l-3 -10h-10h-9h-10h-10h-10h-9h-10h-10h-10h-9h-10l-3 10l-3 9l-3 10l-3 9l-4 10l-3 9l-3 10l-3 9l-3 10l-3 9l-3 10l-3 9l-4 10l-3 9l-3 10l-3 9l-3 10l-3 9l-3 10l-3 10l-4 9l-3 10l-3 9l-3 10l-3 9l-3 10l-3 9l-3 10l-4 9l-3 10l-3 9
l-3 10l-3 9l-3 10l-3 9l-3 10l-4 9l-3 10l-3 9l-3 10l-3 -10l-3 -9l-4 -10l-3 -9l-3 -10l-3 -9l-3 -10l-3 -9l-4 -10l-3 -9l-3 -10l-3 -9l-3 -10l-3 -9l-4 -10l-3 -9l-3 -10l-3 -9l-3 -10l-3 -9l-4 -10l-3 -10l-3 -9l-3 -10l-3 -9l-4 -10l-3 -9l-3 -10l-3 -9l-3 -10l-3 -9
l-4 -10l-3 -9l-3 -10l-3 -9l-3 -10l-3 -9l-4 -10l-3 -9l-3 -10h-10h-9h-10h-10h-10h-9h-10h-10h-10h-9h-10l-3 10l-3 9l-3 10l-3 9l-4 10l-3 9l-3 10l-3 9l-3 10l-3 9l-3 10l-3 9l-3 10l-3 9l-4 10l-3 9l-3 10l-3 9l-3 10l-3 9l-3 10l-3 9l-3 10l-3 9l-4 10l-3 9l-3 10l-3 9
l-3 10l-3 10l-3 9l-3 10l-3 9l-4 10l-3 9l-3 10l-3 9l-3 10l-3 9l-3 10l-3 9l-3 10l-3 9l-4 10l-3 9l-3 10l-3 9l-3 10l-3 9l-3 10l-3 9l-3 10l-3 9l-4 10l-3 9l-3 10l-3 9z" />
    <glyph glyph-name="x" unicode="x" horiz-adv-x="610" 
d="M306 361l6 8l5 8l6 8l6 9l5 8l6 8l6 8l6 8l5 8l6 8l6 8l5 9l6 8l6 8l5 8l6 8l6 8l6 8l5 8l6 9l6 8l5 8l6 8h10h10h10h10h10h10h9h10h10h10h10h10h10l-6 -8l-6 -8l-6 -8l-6 -8l-6 -8l-5 -9l-6 -8l-6 -8l-6 -8l-6 -8l-6 -8l-6 -8l-6 -8l-6 -8l-6 -8l-6 -8l-5 -9l-6 -8
l-6 -8l-6 -8l-6 -8l-6 -8l-6 -8l-6 -8l-6 -8l-6 -8l-6 -8l-5 -9l-6 -8l-6 -8l-6 -8l-6 -8l-6 -8l6 -8l6 -8l5 -8l6 -8l6 -8l6 -8l6 -8l5 -8l6 -8l6 -8l6 -8l6 -8l5 -8l6 -8l6 -8l6 -8l6 -8l5 -9l6 -8l6 -8l6 -8l6 -8l5 -8l6 -8l6 -8l6 -8l6 -8l5 -8l6 -8l6 -8l6 -8l6 -8
l5 -8l6 -8l6 -8h-10h-10h-10h-11h-10h-10h-10h-10h-10h-11h-10h-10h-10l-6 8l-6 9l-5 8l-6 8l-6 8l-6 9l-6 8l-5 8l-6 8l-6 8l-6 9l-5 8l-6 8l-6 8l-6 9l-6 8l-5 8l-6 9l-6 8l-6 8l-6 8l-5 9l-6 8l-6 8l-6 -8l-5 -8l-6 -9l-6 -8l-6 -8l-5 -8l-6 -9l-6 -8l-6 -8l-5 -8l-6 -9
l-6 -8l-6 -8l-5 -8l-6 -9l-6 -8l-6 -8l-5 -8l-6 -9l-6 -8l-6 -8l-5 -8l-6 -9l-6 -8h-10h-10h-10h-10h-10h-10h-9h-10h-10h-10h-10h-10h-10l6 8l6 8l6 9l6 8l6 8l6 8l6 8l6 9l5 8l6 8l6 8l6 8l6 9l6 8l6 8l6 8l6 9l6 8l6 8l6 8l6 8l6 9l6 8l6 8l6 8l5 8l6 9l6 8l6 8l6 8l6 8
l6 9l6 8l6 8l-6 8l-6 8l-6 8l-6 9l-5 8l-6 8l-6 8l-6 8l-6 8l-6 9l-6 8l-6 8l-5 8l-6 8l-6 8l-6 8l-6 9l-6 8l-6 8l-6 8l-5 8l-6 8l-6 8l-6 9l-6 8l-6 8l-6 8l-6 8l-5 8l-6 9l-6 8l-6 8l-6 8h10h10h10h11h10h10h10h10h10h11h10h10h10l6 -8l5 -8l6 -8l6 -9l5 -8l6 -8l6 -8
l5 -8l6 -8l6 -8l5 -8l6 -9l5 -8l6 -8l6 -8l5 -8l6 -8l6 -8l5 -8l6 -9l6 -8l5 -8z" />
    <glyph glyph-name="y" unicode="y" horiz-adv-x="628" 
d="M467 548h10h9h10h10h9h10h10h10h9h10h10h9h10l-4 -9l-3 -10l-4 -9l-4 -10l-3 -9l-4 -9l-4 -10l-3 -9l-4 -9l-3 -10l-4 -9l-4 -10l-3 -9l-4 -9l-4 -10l-3 -9l-4 -10l-4 -9l-3 -9l-4 -10l-4 -9l-3 -9l-4 -10l-4 -9l-3 -10l-4 -9l-4 -9l-3 -10l-4 -9l-3 -9l-4 -10l-4 -9
l-3 -10l-4 -9l-4 -9l-3 -10l-4 -9l-4 -10l-3 -9l-4 -9l-4 -10l-3 -9l-4 -9l-4 -10l-3 -9l-4 -10l-4 -9l-3 -9l-4 -10l-3 -9l-4 -10l-4 -9l-3 -9l-4 -10l-4 -9l-3 -9l-4 -10l-4 -9l-3 -10l-4 -9l-4 -10l-5 -10l-4 -10l-4 -9l-4 -9l-5 -8l-4 -8l-4 -8l-6 -9l-7 -9l-6 -8l-7 -8
l-7 -7l-7 -7l-7 -5l-8 -6l-8 -5l-8 -4l-8 -3l-9 -4l-9 -2l-9 -2l-10 -2l-10 -1l-10 -1h-11h-11l-10 1l-10 1l-10 1l-9 1l-10 2l-8 2l-11 4l-10 3l-10 4l-9 4l-10 5l-10 5l4 9l4 9l4 9l4 9l5 9l4 10l4 9l4 9l4 9l4 9l9 -5l9 -4l9 -4l9 -3l10 -3l9 -2l10 -1h10l11 1l10 1l9 3
l9 5l8 5l6 6l6 7l6 8l6 9l5 11l6 12l-4 9l-4 10l-4 9l-4 9l-4 9l-3 10l-4 9l-4 9l-4 10l-4 9l-4 9l-4 9l-4 10l-4 9l-4 9l-4 10l-4 9l-3 9l-4 9l-4 10l-4 9l-4 9l-4 10l-4 9l-4 9l-4 9l-4 10l-4 9l-4 9l-3 10l-4 9l-4 9l-4 10l-4 9l-4 9l-4 9l-4 10l-4 9l-4 9l-4 10l-4 9
l-3 9l-4 9l-4 10l-4 9l-4 9l-4 10l-4 9l-4 9l-4 9l-4 10l-4 9l-4 9l-3 10l-4 9l-4 9l-4 9l-4 10l-4 9h10h10h10h10h10h10h9h10h10h10h10h10h10l4 -9l3 -10l4 -9l4 -10l3 -9l4 -9l3 -10l4 -9l4 -9l3 -10l4 -9l4 -10l3 -9l4 -9l4 -10l3 -9l4 -10l3 -9l4 -9l4 -10l3 -9l4 -9
l4 -10l3 -9l4 -10l4 -9l3 -9l4 -10l3 -9l4 -10l4 -9l3 -9l4 -10l4 -9l3 -10l4 -9l4 -9l3 -10l4 -9l3 -9l4 -10l4 -9l3 -10l4 -9l3 9l4 10l3 9l3 10l4 9l3 9l3 10l4 9l3 9l3 10l4 9l3 10l3 9l3 9l4 10l3 9l3 10l4 9l3 9l3 10l4 9l3 10l3 9l4 9l3 10l3 9l4 9l3 10l3 9l4 10
l3 9l3 9l4 10l3 9l3 10l3 9l4 9l3 10l3 9l4 9l3 10l3 9l4 10z" />
    <glyph glyph-name="z" unicode="z" horiz-adv-x="590" 
d="M59 83l7 7l6 8l7 7l6 8l7 7l6 8l7 7l6 8l7 7l7 8l6 7l7 8l6 7l7 8l6 7l7 8l6 7l7 7l6 8l7 7l7 8l6 7l7 8l6 7l7 8l6 7l7 8l6 7l7 8l7 7l6 8l7 7l6 7l7 8l6 7l7 8l6 7l7 8l6 7l7 8l7 7l6 8l7 7l6 8l7 7l6 8l7 7l6 8l7 7h-10h-10h-10h-10h-10h-10h-10h-10h-10h-10h-10h-10
h-10h-10h-10h-10h-10h-10h-10h-10h-10h-10h-10h-10h-10h-10h-10h-10h-10h-10h-10v10v10v10v10v10v9v10v10v10v10h10h10h10h10h10h11h10h10h10h10h10h10h10h10h10h10h10h11h10h10h10h10h10h10h10h10h10h10h11h10h10h10h10h10h10h10h10h10h10h10h11h10h10h10h10h10v-10v-11
v-10v-10v-11v-10v-11v-10l-7 -7l-6 -8l-7 -7l-6 -8l-7 -7l-6 -8l-7 -7l-6 -8l-7 -7l-7 -8l-6 -7l-7 -8l-6 -7l-7 -8l-6 -7l-7 -8l-6 -7l-7 -7l-6 -8l-7 -7l-7 -8l-6 -7l-7 -8l-6 -7l-7 -8l-6 -7l-7 -8l-6 -7l-7 -8l-7 -7l-6 -8l-7 -7l-6 -7l-7 -8l-6 -7l-7 -8l-6 -7l-7 -8
l-6 -7l-7 -8l-7 -7l-6 -8l-7 -7l-6 -8l-7 -7l-6 -8l-7 -7l-6 -8l-7 -7h10h10h10h10h10h10h10h10h10h10h10h10h10h10h10h11h10h10h10h10h10h10h10h10h10h10h10h10h10h10h10h10v-10v-10v-10v-10v-9v-10v-10v-10v-10v-10h-10h-10h-10h-10h-9h-10h-10h-10h-10h-10h-10h-10h-10
h-10h-9h-10h-10h-10h-10h-10h-10h-10h-10h-9h-10h-10h-10h-10h-10h-10h-10h-10h-10h-9h-10h-10h-10h-10h-10h-10h-10h-10h-10h-9h-10h-10h-10h-10v10v11v10v11v10v10v11v10z" />
    <glyph glyph-name="Aacute" unicode="&#xc1;" horiz-adv-x="830" 
d="M358 733h10h11h10h10h11h10h11h10h10h11h10l4 -9l4 -9l4 -9l4 -10l4 -9l4 -9l4 -9l4 -9l4 -9l4 -10l4 -9l4 -9l4 -9l4 -9l4 -9l4 -10l4 -9l4 -9l4 -9l4 -9l4 -9l4 -10l4 -9l4 -9l4 -9l4 -9l4 -9l4 -10l4 -9l4 -9l4 -9l4 -9l4 -9l4 -10l4 -9l4 -9l4 -9l4 -9l4 -9l5 -9
l4 -10l4 -9l4 -9l4 -9l4 -9l4 -9l4 -10l4 -9l4 -9l4 -9l4 -9l4 -9l4 -10l4 -9l4 -9l4 -9l4 -9l4 -9l4 -10l4 -9l4 -9l4 -9l4 -9l4 -9l4 -10l4 -9l4 -9l4 -9l4 -9l4 -9l4 -10l4 -9l4 -9l4 -9l4 -9l4 -9l4 -10l4 -9l4 -9l4 -9h-10h-10h-10h-10h-10h-10h-9h-10h-10h-10h-10h-10
h-10l-4 9l-4 10l-4 9l-4 9l-4 10l-4 9l-4 9l-4 10l-4 9l-4 9l-4 9l-4 10l-4 9l-4 9l-4 10l-4 9l-4 9l-4 10l-4 9h-10h-10h-10h-10h-10h-10h-10h-10h-10h-10h-10h-10h-10h-10h-10h-10h-10h-10h-10h-10h-10h-10h-10h-10h-10h-10h-10h-10h-10h-10h-10h-10h-10h-10h-10l-4 -9
l-4 -10l-4 -9l-4 -9l-4 -10l-4 -9l-4 -9l-4 -10l-4 -9l-4 -9l-4 -9l-4 -10l-4 -9l-4 -9l-4 -10l-4 -9l-4 -9l-4 -10l-4 -9h-10h-9h-10h-10h-9h-10h-10h-10h-9h-10h-10h-9h-10l4 9l4 9l4 9l4 10l4 9l4 9l4 9l4 9l4 9l4 10l4 9l4 9l4 9l4 9l4 9l4 10l4 9l4 9l4 9l5 9l4 9l4 10
l4 9l4 9l4 9l4 9l4 9l4 10l4 9l4 9l4 9l4 9l4 9l4 10l4 9l4 9l4 9l4 9l4 9l4 10l4 9l4 9l4 9l4 9l4 9l4 9l4 10l4 9l4 9l4 9l4 9l4 9l4 10l4 9l4 9l4 9l4 9l4 9l4 10l5 9l4 9l4 9l4 9l4 9l4 10l4 9l4 9l4 9l4 9l4 9l4 10l4 9l4 9l4 9l4 9l4 9l4 10l4 9l4 9zM543 287l-4 9
l-4 9l-4 9l-4 9l-4 9l-4 10l-4 9l-4 9l-3 9l-4 9l-4 9l-4 9l-4 9l-4 9l-4 9l-4 9l-4 10l-4 9l-4 9l-4 9l-4 9l-4 9l-4 9l-4 9l-3 9l-4 9l-4 9l-4 10l-4 9l-4 9l-4 9l-4 9l-4 9l-4 -9l-4 -9l-4 -9l-4 -9l-4 -9l-4 -10l-4 -9l-4 -9l-3 -9l-4 -9l-4 -9l-4 -9l-4 -9l-4 -9l-4 -9
l-4 -9l-4 -10l-4 -9l-4 -9l-4 -9l-4 -9l-4 -9l-4 -9l-4 -9l-3 -9l-4 -9l-4 -9l-4 -10l-4 -9l-4 -9l-4 -9l-4 -9l-4 -9h10h10h10h10h10h10h10h10h10h10h10h10h10h10h10h10h10h10h10h10h10h10h10h10h10h10zM481 948l9 -4l9 -4l10 -4l9 -4l9 -4l9 -4l9 -5l9 -4l10 -4l9 -4l9 -4
l9 -4l-8 -6l-8 -6l-9 -7l-8 -6l-8 -6l-8 -6l-8 -7l-8 -6l-9 -6l-8 -6l-8 -7l-8 -6l-8 -6l-9 -6l-8 -7l-8 -6h-10h-11h-10h-11h-10h-11h-10h-11h-10l6 8l6 8l6 8l6 7l6 8l6 8l6 8l6 8l6 8l7 7l6 8l6 8l6 8l6 8l6 8l6 7l6 8l6 8z" />
    <glyph glyph-name="aacute" unicode="&#xe1;" horiz-adv-x="617" 
d="M243 -11h-10l-9 1l-10 1l-9 1l-9 1l-10 2l-9 2l-8 3l-10 3l-10 4l-9 4l-9 5l-9 5l-8 6l-8 6l-7 6l-8 7l-6 7l-6 7l-6 8l-5 9l-5 9l-4 9l-4 9l-3 10l-2 11l-2 10l-1 11v12v2v11l1 10l1 10l2 10l2 10l3 9l4 9l4 8l4 9l6 9l6 8l7 8l7 8l8 6l8 7l8 5l8 5l8 5l9 4l9 4l10 4
l10 3l10 3l9 2l10 2l10 2l10 2l10 1l11 1h10l11 1h11h12h11l11 -1h10l10 -1l10 -1l9 -2l10 -1l10 -2l10 -2l9 -2l10 -2l9 -3l10 -3l9 -3v14v12l-1 11l-2 10l-3 10l-3 10l-4 9l-4 8l-6 8l-6 7l-6 7l-7 5l-7 5l-8 4l-9 4l-8 4l-10 2l-10 3l-10 2l-11 1l-12 1h-12h-12l-11 -1
h-11l-10 -1l-11 -2l-10 -1l-9 -2l-9 -2l-10 -2l-9 -3l-9 -3l-9 -3l-10 -3l-9 -3l-10 -4l-9 -4l-3 9l-3 10l-4 9l-3 10l-3 9l-3 9l-3 10l-4 9l-3 10l-3 9l9 4l9 4l9 3l9 4l10 3l9 3l9 3l10 3l9 3l10 3l9 2l9 2l9 1l10 2l10 1l10 1l11 1l11 1l11 1h11h12h11l11 -1h10l10 -1
l10 -1l10 -2l9 -1l10 -2l8 -3l9 -2l9 -3l9 -4l10 -4l9 -4l9 -5l8 -5l8 -5l7 -6l7 -6l7 -6l7 -7l7 -8l6 -9l6 -8l5 -10l5 -9l4 -10l4 -10l3 -9l2 -9l2 -9l2 -9l2 -10l1 -10l1 -10v-10l1 -10v-11v-10v-10v-10v-10v-9v-10v-10v-10v-10v-10v-10v-10v-9v-10v-10v-10v-10v-10v-10
v-10v-9v-10v-10v-10v-10v-10v-10v-10v-9v-10v-10v-10v-10h-10h-9h-10h-10h-10h-9h-10h-10h-10h-9h-10h-10v10v10v10v10v10v10v10l-6 -7l-7 -8l-7 -6l-8 -7l-8 -7l-8 -6l-9 -6l-9 -5l-10 -5l-8 -5l-9 -3l-8 -4l-10 -2l-9 -3l-10 -2l-10 -2l-11 -1l-10 -1l-12 -1h-11zM275 77
h11l10 1l10 1l10 2l9 2l10 3l10 4l10 4l10 5l9 6l9 6l7 6l7 7l7 7l6 8l5 9l4 9l3 9l2 10l2 10v11v10v10v10v10l-9 3l-8 3l-10 2l-10 3l-10 2l-10 3l-10 1l-10 2l-10 1l-10 1h-10l-11 1h-11h-12l-12 -1l-11 -1l-11 -2l-10 -2l-9 -3l-9 -3l-9 -4l-7 -4l-7 -5l-9 -7l-7 -7
l-6 -7l-4 -9l-4 -9l-3 -9l-1 -10l-1 -11v-2l1 -12l2 -10l3 -10l4 -9l6 -9l8 -7l8 -7l8 -5l9 -5l9 -3l10 -3l9 -3l11 -2l11 -1h11zM369 787l9 -4l9 -4l10 -4l9 -5l9 -4l9 -4l9 -4l9 -4l10 -4l9 -5l9 -4l9 -4l-7 -7l-8 -7l-7 -7l-8 -7l-7 -7l-7 -7l-8 -7l-7 -7l-8 -6l-7 -7
l-8 -7l-7 -7l-7 -7l-8 -7l-7 -7l-8 -7l-7 -7h-10h-10h-10h-10h-11h-10h-10h-10h-10l5 8l6 9l5 8l5 9l6 8l5 8l5 9l6 8l5 9l6 8l5 8l5 9l6 8l5 9l5 8l6 8l5 9l5 8l6 9z" />
    <glyph glyph-name="aacute.alt" horiz-adv-x="705" 
d="M417 787l9 -4l9 -4l10 -4l9 -5l9 -4l9 -4l9 -4l9 -4l10 -4l9 -5l9 -4l9 -4l-7 -7l-8 -7l-7 -7l-8 -7l-7 -7l-7 -7l-8 -7l-7 -7l-8 -6l-7 -7l-8 -7l-7 -7l-7 -7l-8 -7l-7 -7l-8 -7l-7 -7h-10h-10h-10h-10h-11h-10h-10h-10h-10l5 8l6 9l5 8l5 9l6 8l5 8l5 9l6 8l5 9l6 8
l5 8l5 9l6 8l5 9l5 8l6 8l5 9l5 8l6 9zM311 -11h-10l-9 1l-10 1l-9 1l-9 2l-10 2l-9 2l-10 3l-9 3l-9 4l-9 4l-9 4l-9 5l-8 5l-8 5l-9 6l-7 6l-8 6l-8 7l-7 7l-6 7l-7 7l-6 7l-5 7l-6 8l-5 8l-5 9l-5 8l-4 9l-4 10l-4 9l-4 9l-3 9l-3 9l-2 10l-3 10l-2 10l-1 10l-2 10l-1 11
v11l-1 11v11v2v11l1 11v11l1 11l2 10l1 10l2 10l3 10l2 10l3 9l3 9l4 9l4 9l4 10l4 9l5 8l5 9l5 8l6 8l5 7l6 7l6 7l7 7l7 7l7 7l8 6l8 6l8 6l8 5l8 5l9 5l9 4l9 4l9 4l10 3l9 3l9 2l10 2l9 2l10 1l10 1l9 1h10h11l11 -1l11 -1l10 -1l10 -2l10 -2l10 -3l9 -3l8 -4l9 -3l8 -5
l8 -4l8 -6l9 -7l8 -6l8 -7l8 -6l7 -7l7 -7l7 -8l6 -7l6 -8v10v9v10v10v9v10v10v9v10h10h10h10h10h10h11h10h10h10h10h10h10v-10v-10v-10v-10v-10v-10v-10v-10v-10v-10v-10v-10v-10v-9v-10v-10v-10v-10v-10v-10v-10v-10v-10v-10v-10v-10v-10v-10v-10v-10v-10v-10v-10v-10v-10
v-10v-10v-10v-10v-10v-10v-9v-10v-10v-10v-10v-10v-10v-10v-10v-10v-10v-10v-10v-10h-10h-10h-10h-10h-10h-10h-11h-10h-10h-10h-10h-10v10v11v10v11v10v11v10v11v10l-6 -9l-7 -8l-6 -8l-8 -8l-7 -8l-8 -7l-8 -7l-8 -7l-9 -7l-9 -5l-8 -5l-8 -4l-8 -4l-9 -4l-9 -3l-9 -3
l-9 -2l-10 -2l-10 -2l-11 -1l-11 -1h-11zM339 93h11l11 1l10 2l10 3l11 3l10 4l9 5l9 5l9 6l9 6l8 7l8 8l6 6l6 8l5 7l5 8l5 9l4 9l5 9l3 8l2 9l3 9l2 9l1 9l1 10l1 10v10v2v10l-1 10l-1 9l-1 9l-2 9l-3 9l-2 9l-3 9l-5 9l-4 9l-5 8l-5 9l-5 7l-6 8l-6 7l-8 7l-8 7l-9 6
l-9 6l-9 5l-9 5l-10 4l-11 3l-10 3l-10 2l-11 1h-11h-11l-11 -1l-10 -2l-10 -3l-11 -3l-9 -3l-10 -5l-9 -5l-9 -6l-8 -6l-8 -7l-7 -7l-6 -7l-6 -8l-5 -7l-5 -8l-5 -9l-4 -9l-4 -9l-3 -8l-3 -9l-2 -9l-2 -9l-1 -10l-1 -10l-1 -10v-10v-2v-10l1 -10l1 -10l1 -9l2 -9l2 -9l3 -9
l3 -8l4 -9l4 -9l5 -9l5 -8l5 -7l6 -8l6 -6l8 -8l7 -7l9 -6l8 -6l10 -5l9 -5l10 -4l10 -3l10 -3l10 -2l11 -1h11z" />
    <glyph glyph-name="Abreve" unicode="&#x102;" horiz-adv-x="830" 
d="M358 733h10h11h10h10h11h10h11h10h10h11h10l4 -9l4 -9l4 -9l4 -10l4 -9l4 -9l4 -9l4 -9l4 -9l4 -10l4 -9l4 -9l4 -9l4 -9l4 -9l4 -10l4 -9l4 -9l4 -9l4 -9l4 -9l4 -10l4 -9l4 -9l4 -9l4 -9l4 -9l4 -10l4 -9l4 -9l4 -9l4 -9l4 -9l4 -10l4 -9l4 -9l4 -9l4 -9l4 -9l5 -9
l4 -10l4 -9l4 -9l4 -9l4 -9l4 -9l4 -10l4 -9l4 -9l4 -9l4 -9l4 -9l4 -10l4 -9l4 -9l4 -9l4 -9l4 -9l4 -10l4 -9l4 -9l4 -9l4 -9l4 -9l4 -10l4 -9l4 -9l4 -9l4 -9l4 -9l4 -10l4 -9l4 -9l4 -9l4 -9l4 -9l4 -10l4 -9l4 -9l4 -9h-10h-10h-10h-10h-10h-10h-9h-10h-10h-10h-10h-10
h-10l-4 9l-4 10l-4 9l-4 9l-4 10l-4 9l-4 9l-4 10l-4 9l-4 9l-4 9l-4 10l-4 9l-4 9l-4 10l-4 9l-4 9l-4 10l-4 9h-10h-10h-10h-10h-10h-10h-10h-10h-10h-10h-10h-10h-10h-10h-10h-10h-10h-10h-10h-10h-10h-10h-10h-10h-10h-10h-10h-10h-10h-10h-10h-10h-10h-10h-10l-4 -9
l-4 -10l-4 -9l-4 -9l-4 -10l-4 -9l-4 -9l-4 -10l-4 -9l-4 -9l-4 -9l-4 -10l-4 -9l-4 -9l-4 -10l-4 -9l-4 -9l-4 -10l-4 -9h-10h-9h-10h-10h-9h-10h-10h-10h-9h-10h-10h-9h-10l4 9l4 9l4 9l4 10l4 9l4 9l4 9l4 9l4 9l4 10l4 9l4 9l4 9l4 9l4 9l4 10l4 9l4 9l4 9l5 9l4 9l4 10
l4 9l4 9l4 9l4 9l4 9l4 10l4 9l4 9l4 9l4 9l4 9l4 10l4 9l4 9l4 9l4 9l4 9l4 10l4 9l4 9l4 9l4 9l4 9l4 9l4 10l4 9l4 9l4 9l4 9l4 9l4 10l4 9l4 9l4 9l4 9l4 9l4 10l5 9l4 9l4 9l4 9l4 9l4 10l4 9l4 9l4 9l4 9l4 9l4 10l4 9l4 9l4 9l4 9l4 9l4 10l4 9l4 9zM543 287l-4 9
l-4 9l-4 9l-4 9l-4 9l-4 10l-4 9l-4 9l-3 9l-4 9l-4 9l-4 9l-4 9l-4 9l-4 9l-4 9l-4 10l-4 9l-4 9l-4 9l-4 9l-4 9l-4 9l-4 9l-3 9l-4 9l-4 9l-4 10l-4 9l-4 9l-4 9l-4 9l-4 9l-4 -9l-4 -9l-4 -9l-4 -9l-4 -9l-4 -10l-4 -9l-4 -9l-3 -9l-4 -9l-4 -9l-4 -9l-4 -9l-4 -9l-4 -9
l-4 -9l-4 -10l-4 -9l-4 -9l-4 -9l-4 -9l-4 -9l-4 -9l-4 -9l-3 -9l-4 -9l-4 -9l-4 -10l-4 -9l-4 -9l-4 -9l-4 -9l-4 -9h10h10h10h10h10h10h10h10h10h10h10h10h10h10h10h10h10h10h10h10h10h10h10h10h10h10zM415 797h-11l-11 1l-11 1l-11 1l-10 2l-9 3l-10 2l-9 3l-9 4l-8 4
l-9 4l-7 5l-8 6l-8 6l-7 6l-6 7l-6 8l-6 7l-4 9l-5 8l-3 9l-3 10l-3 10l-2 10l-1 11h10h9h10h9h10h9h10h9h10l4 -10l6 -8l6 -8l7 -7l8 -5l8 -5l8 -3l10 -3l10 -1l12 -2h12h13l11 2l11 1l9 3l9 3l7 5l8 5l7 7l6 8l6 8l4 10h10h9h10h9h10h9h10h9h10l-1 -11l-2 -10l-3 -10
l-3 -10l-3 -9l-4 -8l-5 -9l-6 -7l-6 -8l-6 -7l-7 -6l-8 -6l-8 -6l-7 -5l-9 -4l-8 -4l-9 -4l-9 -3l-10 -2l-9 -3l-10 -2l-11 -1l-11 -1l-11 -1h-11z" />
    <glyph glyph-name="abreve" unicode="&#x103;" horiz-adv-x="617" 
d="M243 -11h-10l-9 1l-10 1l-9 1l-9 1l-10 2l-9 2l-8 3l-10 3l-10 4l-9 4l-9 5l-9 5l-8 6l-8 6l-7 6l-8 7l-6 7l-6 7l-6 8l-5 9l-5 9l-4 9l-4 9l-3 10l-2 11l-2 10l-1 11v12v2v11l1 10l1 10l2 10l2 10l3 9l4 9l4 8l4 9l6 9l6 8l7 8l7 8l8 6l8 7l8 5l8 5l8 5l9 4l9 4l10 4
l10 3l10 3l9 2l10 2l10 2l10 2l10 1l11 1h10l11 1h11h12h11l11 -1h10l10 -1l10 -1l9 -2l10 -1l10 -2l10 -2l9 -2l10 -2l9 -3l10 -3l9 -3v14v12l-1 11l-2 10l-3 10l-3 10l-4 9l-4 8l-6 8l-6 7l-6 7l-7 5l-7 5l-8 4l-9 4l-8 4l-10 2l-10 3l-10 2l-11 1l-12 1h-12h-12l-11 -1
h-11l-10 -1l-11 -2l-10 -1l-9 -2l-9 -2l-10 -2l-9 -3l-9 -3l-9 -3l-10 -3l-9 -3l-10 -4l-9 -4l-3 9l-3 10l-4 9l-3 10l-3 9l-3 9l-3 10l-4 9l-3 10l-3 9l9 4l9 4l9 3l9 4l10 3l9 3l9 3l10 3l9 3l10 3l9 2l9 2l9 1l10 2l10 1l10 1l11 1l11 1l11 1h11h12h11l11 -1h10l10 -1
l10 -1l10 -2l9 -1l10 -2l8 -3l9 -2l9 -3l9 -4l10 -4l9 -4l9 -5l8 -5l8 -5l7 -6l7 -6l7 -6l7 -7l7 -8l6 -9l6 -8l5 -10l5 -9l4 -10l4 -10l3 -9l2 -9l2 -9l2 -9l2 -10l1 -10l1 -10v-10l1 -10v-11v-10v-10v-10v-10v-9v-10v-10v-10v-10v-10v-10v-10v-9v-10v-10v-10v-10v-10v-10
v-10v-9v-10v-10v-10v-10v-10v-10v-10v-9v-10v-10v-10v-10h-10h-9h-10h-10h-10h-9h-10h-10h-10h-9h-10h-10v10v10v10v10v10v10v10l-6 -7l-7 -8l-7 -6l-8 -7l-8 -7l-8 -6l-9 -6l-9 -5l-10 -5l-8 -5l-9 -3l-8 -4l-10 -2l-9 -3l-10 -2l-10 -2l-11 -1l-10 -1l-12 -1h-11zM275 77
h11l10 1l10 1l10 2l9 2l10 3l10 4l10 4l10 5l9 6l9 6l7 6l7 7l7 7l6 8l5 9l4 9l3 9l2 10l2 10v11v10v10v10v10l-9 3l-8 3l-10 2l-10 3l-10 2l-10 3l-10 1l-10 2l-10 1l-10 1h-10l-11 1h-11h-12l-12 -1l-11 -1l-11 -2l-10 -2l-9 -3l-9 -3l-9 -4l-7 -4l-7 -5l-9 -7l-7 -7
l-6 -7l-4 -9l-4 -9l-3 -9l-1 -10l-1 -11v-2l1 -12l2 -10l3 -10l4 -9l6 -9l8 -7l8 -7l8 -5l9 -5l9 -3l10 -3l9 -3l11 -2l11 -1h11zM310 617h-11l-11 1l-11 1l-11 2l-10 2l-9 2l-10 3l-9 4l-9 3l-8 5l-8 5l-8 5l-7 6l-8 6l-6 6l-6 7l-6 7l-5 8l-4 8l-4 8l-4 9l-3 9l-2 10
l-2 10l-2 10l-1 11h10h11h10h11h10h10h11h10l3 -9l4 -9l5 -8l6 -8l6 -6l7 -6l6 -5l7 -4l8 -3l9 -3l10 -2l10 -1h11h11l10 1l10 2l9 3l8 3l7 4l7 5l6 6l6 6l6 8l5 8l4 9l3 9h11h10h11h10h11h10h11h10l-1 -11l-2 -10l-2 -10l-3 -10l-3 -9l-3 -9l-4 -8l-5 -8l-5 -8l-6 -7l-6 -7
l-6 -6l-7 -6l-8 -6l-8 -5l-8 -5l-8 -5l-9 -3l-9 -4l-10 -3l-9 -2l-10 -2l-11 -2l-11 -1l-11 -1h-11z" />
    <glyph glyph-name="abreve.alt" horiz-adv-x="705" 
d="M311 -11h-10l-9 1l-10 1l-9 1l-9 2l-10 2l-9 2l-10 3l-9 3l-9 4l-9 4l-9 4l-9 5l-8 5l-8 5l-9 6l-7 6l-8 6l-8 7l-7 7l-6 7l-7 7l-6 7l-5 7l-6 8l-5 8l-5 9l-5 8l-4 9l-4 10l-4 9l-4 9l-3 9l-3 9l-2 10l-3 10l-2 10l-1 10l-2 10l-1 11v11l-1 11v11v2v11l1 11v11l1 11
l2 10l1 10l2 10l3 10l2 10l3 9l3 9l4 9l4 9l4 10l4 9l5 8l5 9l5 8l6 8l5 7l6 7l6 7l7 7l7 7l7 7l8 6l8 6l8 6l8 5l8 5l9 5l9 4l9 4l9 4l10 3l9 3l9 2l10 2l9 2l10 1l10 1l9 1h10h11l11 -1l11 -1l10 -1l10 -2l10 -2l10 -3l9 -3l8 -4l9 -3l8 -5l8 -4l8 -6l9 -7l8 -6l8 -7l8 -6
l7 -7l7 -7l7 -8l6 -7l6 -8v10v9v10v10v9v10v10v9v10h10h10h10h10h10h11h10h10h10h10h10h10v-10v-10v-10v-10v-10v-10v-10v-10v-10v-10v-10v-10v-10v-9v-10v-10v-10v-10v-10v-10v-10v-10v-10v-10v-10v-10v-10v-10v-10v-10v-10v-10v-10v-10v-10v-10v-10v-10v-10v-10v-10v-9
v-10v-10v-10v-10v-10v-10v-10v-10v-10v-10v-10v-10v-10h-10h-10h-10h-10h-10h-10h-11h-10h-10h-10h-10h-10v10v11v10v11v10v11v10v11v10l-6 -9l-7 -8l-6 -8l-8 -8l-7 -8l-8 -7l-8 -7l-8 -7l-9 -7l-9 -5l-8 -5l-8 -4l-8 -4l-9 -4l-9 -3l-9 -3l-9 -2l-10 -2l-10 -2l-11 -1
l-11 -1h-11zM339 93h11l11 1l10 2l10 3l11 3l10 4l9 5l9 5l9 6l9 6l8 7l8 8l6 6l6 8l5 7l5 8l5 9l4 9l5 9l3 8l2 9l3 9l2 9l1 9l1 10l1 10v10v2v10l-1 10l-1 9l-1 9l-2 9l-3 9l-2 9l-3 9l-5 9l-4 9l-5 8l-5 9l-5 7l-6 8l-6 7l-8 7l-8 7l-9 6l-9 6l-9 5l-9 5l-10 4l-11 3
l-10 3l-10 2l-11 1h-11h-11l-11 -1l-10 -2l-10 -3l-11 -3l-9 -3l-10 -5l-9 -5l-9 -6l-8 -6l-8 -7l-7 -7l-6 -7l-6 -8l-5 -7l-5 -8l-5 -9l-4 -9l-4 -9l-3 -8l-3 -9l-2 -9l-2 -9l-1 -10l-1 -10l-1 -10v-10v-2v-10l1 -10l1 -10l1 -9l2 -9l2 -9l3 -9l3 -8l4 -9l4 -9l5 -9l5 -8
l5 -7l6 -8l6 -6l8 -8l7 -7l9 -6l8 -6l10 -5l9 -5l10 -4l10 -3l10 -3l10 -2l11 -1h11zM358 617h-11l-11 1l-11 1l-11 2l-10 2l-9 2l-10 3l-9 4l-9 3l-8 5l-8 5l-8 5l-7 6l-8 6l-6 6l-6 7l-6 7l-5 8l-4 8l-4 8l-4 9l-3 9l-2 10l-2 10l-2 10l-1 11h10h11h10h11h10h10h11h10
l3 -9l4 -9l5 -8l6 -8l6 -6l7 -6l6 -5l7 -4l8 -3l9 -3l10 -2l10 -1h11h11l10 1l10 2l9 3l8 3l7 4l7 5l6 6l6 6l6 8l5 8l4 9l3 9h11h10h11h10h11h10h11h10l-1 -11l-2 -10l-2 -10l-3 -10l-3 -9l-3 -9l-4 -8l-5 -8l-5 -8l-6 -7l-6 -7l-6 -6l-7 -6l-8 -6l-8 -5l-8 -5l-8 -5l-9 -3
l-9 -4l-10 -3l-9 -2l-10 -2l-11 -2l-11 -1l-11 -1h-11z" />
    <glyph glyph-name="Acircumflex" unicode="&#xc2;" horiz-adv-x="830" 
d="M358 733h10h11h10h10h11h10h11h10h10h11h10l4 -9l4 -9l4 -9l4 -10l4 -9l4 -9l4 -9l4 -9l4 -9l4 -10l4 -9l4 -9l4 -9l4 -9l4 -9l4 -10l4 -9l4 -9l4 -9l4 -9l4 -9l4 -10l4 -9l4 -9l4 -9l4 -9l4 -9l4 -10l4 -9l4 -9l4 -9l4 -9l4 -9l4 -10l4 -9l4 -9l4 -9l4 -9l4 -9l5 -9
l4 -10l4 -9l4 -9l4 -9l4 -9l4 -9l4 -10l4 -9l4 -9l4 -9l4 -9l4 -9l4 -10l4 -9l4 -9l4 -9l4 -9l4 -9l4 -10l4 -9l4 -9l4 -9l4 -9l4 -9l4 -10l4 -9l4 -9l4 -9l4 -9l4 -9l4 -10l4 -9l4 -9l4 -9l4 -9l4 -9l4 -10l4 -9l4 -9l4 -9h-10h-10h-10h-10h-10h-10h-9h-10h-10h-10h-10h-10
h-10l-4 9l-4 10l-4 9l-4 9l-4 10l-4 9l-4 9l-4 10l-4 9l-4 9l-4 9l-4 10l-4 9l-4 9l-4 10l-4 9l-4 9l-4 10l-4 9h-10h-10h-10h-10h-10h-10h-10h-10h-10h-10h-10h-10h-10h-10h-10h-10h-10h-10h-10h-10h-10h-10h-10h-10h-10h-10h-10h-10h-10h-10h-10h-10h-10h-10h-10l-4 -9
l-4 -10l-4 -9l-4 -9l-4 -10l-4 -9l-4 -9l-4 -10l-4 -9l-4 -9l-4 -9l-4 -10l-4 -9l-4 -9l-4 -10l-4 -9l-4 -9l-4 -10l-4 -9h-10h-9h-10h-10h-9h-10h-10h-10h-9h-10h-10h-9h-10l4 9l4 9l4 9l4 10l4 9l4 9l4 9l4 9l4 9l4 10l4 9l4 9l4 9l4 9l4 9l4 10l4 9l4 9l4 9l5 9l4 9l4 10
l4 9l4 9l4 9l4 9l4 9l4 10l4 9l4 9l4 9l4 9l4 9l4 10l4 9l4 9l4 9l4 9l4 9l4 10l4 9l4 9l4 9l4 9l4 9l4 9l4 10l4 9l4 9l4 9l4 9l4 9l4 10l4 9l4 9l4 9l4 9l4 9l4 10l5 9l4 9l4 9l4 9l4 9l4 10l4 9l4 9l4 9l4 9l4 9l4 10l4 9l4 9l4 9l4 9l4 9l4 10l4 9l4 9zM543 287l-4 9
l-4 9l-4 9l-4 9l-4 9l-4 10l-4 9l-4 9l-3 9l-4 9l-4 9l-4 9l-4 9l-4 9l-4 9l-4 9l-4 10l-4 9l-4 9l-4 9l-4 9l-4 9l-4 9l-4 9l-3 9l-4 9l-4 9l-4 10l-4 9l-4 9l-4 9l-4 9l-4 9l-4 -9l-4 -9l-4 -9l-4 -9l-4 -9l-4 -10l-4 -9l-4 -9l-3 -9l-4 -9l-4 -9l-4 -9l-4 -9l-4 -9l-4 -9
l-4 -9l-4 -10l-4 -9l-4 -9l-4 -9l-4 -9l-4 -9l-4 -9l-4 -9l-3 -9l-4 -9l-4 -9l-4 -10l-4 -9l-4 -9l-4 -9l-4 -9l-4 -9h10h10h10h10h10h10h10h10h10h10h10h10h10h10h10h10h10h10h10h10h10h10h10h10h10h10zM358 934h10h11h10h10h11h10h11h10h10h11h10l7 -7l6 -8l7 -7l6 -7
l7 -7l6 -8l7 -7l6 -7l7 -7l6 -8l7 -7l6 -7l7 -7l6 -8l7 -7l6 -7l7 -7l6 -8l7 -7h-10h-10h-11h-10h-10h-10h-10h-11h-10h-10l-8 6l-8 6l-8 6l-8 6l-8 6l-8 6l-8 6l-8 6l-8 6l-8 6l-8 -6l-8 -6l-8 -6l-8 -6l-8 -6l-8 -6l-8 -6l-8 -6l-8 -6l-8 -6h-10h-10h-10h-10h-10h-10h-10
h-10h-10h-10l7 7l6 8l7 7l6 7l7 7l6 8l7 7l6 7l7 7l6 8l7 7l6 7l7 7l6 8l7 7l6 7l7 7l6 8z" />
    <glyph glyph-name="acircumflex" unicode="&#xe2;" horiz-adv-x="617" 
d="M243 -11h-10l-9 1l-10 1l-9 1l-9 1l-10 2l-9 2l-8 3l-10 3l-10 4l-9 4l-9 5l-9 5l-8 6l-8 6l-7 6l-8 7l-6 7l-6 7l-6 8l-5 9l-5 9l-4 9l-4 9l-3 10l-2 11l-2 10l-1 11v12v2v11l1 10l1 10l2 10l2 10l3 9l4 9l4 8l4 9l6 9l6 8l7 8l7 8l8 6l8 7l8 5l8 5l8 5l9 4l9 4l10 4
l10 3l10 3l9 2l10 2l10 2l10 2l10 1l11 1h10l11 1h11h12h11l11 -1h10l10 -1l10 -1l9 -2l10 -1l10 -2l10 -2l9 -2l10 -2l9 -3l10 -3l9 -3v14v12l-1 11l-2 10l-3 10l-3 10l-4 9l-4 8l-6 8l-6 7l-6 7l-7 5l-7 5l-8 4l-9 4l-8 4l-10 2l-10 3l-10 2l-11 1l-12 1h-12h-12l-11 -1
h-11l-10 -1l-11 -2l-10 -1l-9 -2l-9 -2l-10 -2l-9 -3l-9 -3l-9 -3l-10 -3l-9 -3l-10 -4l-9 -4l-3 9l-3 10l-4 9l-3 10l-3 9l-3 9l-3 10l-4 9l-3 10l-3 9l9 4l9 4l9 3l9 4l10 3l9 3l9 3l10 3l9 3l10 3l9 2l9 2l9 1l10 2l10 1l10 1l11 1l11 1l11 1h11h12h11l11 -1h10l10 -1
l10 -1l10 -2l9 -1l10 -2l8 -3l9 -2l9 -3l9 -4l10 -4l9 -4l9 -5l8 -5l8 -5l7 -6l7 -6l7 -6l7 -7l7 -8l6 -9l6 -8l5 -10l5 -9l4 -10l4 -10l3 -9l2 -9l2 -9l2 -9l2 -10l1 -10l1 -10v-10l1 -10v-11v-10v-10v-10v-10v-9v-10v-10v-10v-10v-10v-10v-10v-9v-10v-10v-10v-10v-10v-10
v-10v-9v-10v-10v-10v-10v-10v-10v-10v-9v-10v-10v-10v-10h-10h-9h-10h-10h-10h-9h-10h-10h-10h-9h-10h-10v10v10v10v10v10v10v10l-6 -7l-7 -8l-7 -6l-8 -7l-8 -7l-8 -6l-9 -6l-9 -5l-10 -5l-8 -5l-9 -3l-8 -4l-10 -2l-9 -3l-10 -2l-10 -2l-11 -1l-10 -1l-12 -1h-11zM275 77
h11l10 1l10 1l10 2l9 2l10 3l10 4l10 4l10 5l9 6l9 6l7 6l7 7l7 7l6 8l5 9l4 9l3 9l2 10l2 10v11v10v10v10v10l-9 3l-8 3l-10 2l-10 3l-10 2l-10 3l-10 1l-10 2l-10 1l-10 1h-10l-11 1h-11h-12l-12 -1l-11 -1l-11 -2l-10 -2l-9 -3l-9 -3l-9 -4l-7 -4l-7 -5l-9 -7l-7 -7
l-6 -7l-4 -9l-4 -9l-3 -9l-1 -10l-1 -11v-2l1 -12l2 -10l3 -10l4 -9l6 -9l8 -7l8 -7l8 -5l9 -5l9 -3l10 -3l9 -3l11 -2l11 -1h11zM254 769h10h10h11h10h10h10h10h10h11h10h10l6 -8l7 -8l6 -8l6 -8l7 -7l6 -8l6 -8l7 -8l6 -8l6 -8l6 -8l7 -8l6 -8l6 -8l7 -7l6 -8l6 -8l7 -8
l6 -8h-10h-9h-10h-10h-9h-10h-10h-10h-9h-10l-7 6l-8 7l-7 6l-7 6l-7 6l-8 7l-7 6l-7 6l-7 6l-8 7l-7 6l-7 -6l-8 -7l-7 -6l-7 -6l-7 -6l-8 -7l-7 -6l-7 -6l-7 -6l-8 -7l-7 -6h-10h-11h-10h-11h-10h-11h-10h-11h-10l6 8l7 8l6 8l6 8l6 7l7 8l6 8l6 8l6 8l7 8l6 8l6 8l6 8
l7 8l6 7l6 8l6 8l7 8z" />
    <glyph glyph-name="acircumflex.alt" horiz-adv-x="705" 
d="M302 769h10h10h11h10h10h10h10h10h11h10h10l6 -8l7 -8l6 -8l6 -8l7 -7l6 -8l6 -8l7 -8l6 -8l6 -8l6 -8l7 -8l6 -8l6 -8l7 -7l6 -8l6 -8l7 -8l6 -8h-10h-9h-10h-10h-9h-10h-10h-10h-9h-10l-7 6l-8 7l-7 6l-7 6l-7 6l-8 7l-7 6l-7 6l-7 6l-8 7l-7 6l-7 -6l-8 -7l-7 -6
l-7 -6l-7 -6l-8 -7l-7 -6l-7 -6l-7 -6l-8 -7l-7 -6h-10h-11h-10h-11h-10h-11h-10h-11h-10l6 8l7 8l6 8l6 8l6 7l7 8l6 8l6 8l6 8l7 8l6 8l6 8l6 8l7 8l6 7l6 8l6 8l7 8zM311 -11h-10l-9 1l-10 1l-9 1l-9 2l-10 2l-9 2l-10 3l-9 3l-9 4l-9 4l-9 4l-9 5l-8 5l-8 5l-9 6l-7 6
l-8 6l-8 7l-7 7l-6 7l-7 7l-6 7l-5 7l-6 8l-5 8l-5 9l-5 8l-4 9l-4 10l-4 9l-4 9l-3 9l-3 9l-2 10l-3 10l-2 10l-1 10l-2 10l-1 11v11l-1 11v11v2v11l1 11v11l1 11l2 10l1 10l2 10l3 10l2 10l3 9l3 9l4 9l4 9l4 10l4 9l5 8l5 9l5 8l6 8l5 7l6 7l6 7l7 7l7 7l7 7l8 6l8 6l8 6
l8 5l8 5l9 5l9 4l9 4l9 4l10 3l9 3l9 2l10 2l9 2l10 1l10 1l9 1h10h11l11 -1l11 -1l10 -1l10 -2l10 -2l10 -3l9 -3l8 -4l9 -3l8 -5l8 -4l8 -6l9 -7l8 -6l8 -7l8 -6l7 -7l7 -7l7 -8l6 -7l6 -8v10v9v10v10v9v10v10v9v10h10h10h10h10h10h11h10h10h10h10h10h10v-10v-10v-10v-10
v-10v-10v-10v-10v-10v-10v-10v-10v-10v-9v-10v-10v-10v-10v-10v-10v-10v-10v-10v-10v-10v-10v-10v-10v-10v-10v-10v-10v-10v-10v-10v-10v-10v-10v-10v-10v-10v-9v-10v-10v-10v-10v-10v-10v-10v-10v-10v-10v-10v-10v-10h-10h-10h-10h-10h-10h-10h-11h-10h-10h-10h-10h-10v10
v11v10v11v10v11v10v11v10l-6 -9l-7 -8l-6 -8l-8 -8l-7 -8l-8 -7l-8 -7l-8 -7l-9 -7l-9 -5l-8 -5l-8 -4l-8 -4l-9 -4l-9 -3l-9 -3l-9 -2l-10 -2l-10 -2l-11 -1l-11 -1h-11zM339 93h11l11 1l10 2l10 3l11 3l10 4l9 5l9 5l9 6l9 6l8 7l8 8l6 6l6 8l5 7l5 8l5 9l4 9l5 9l3 8l2 9
l3 9l2 9l1 9l1 10l1 10v10v2v10l-1 10l-1 9l-1 9l-2 9l-3 9l-2 9l-3 9l-5 9l-4 9l-5 8l-5 9l-5 7l-6 8l-6 7l-8 7l-8 7l-9 6l-9 6l-9 5l-9 5l-10 4l-11 3l-10 3l-10 2l-11 1h-11h-11l-11 -1l-10 -2l-10 -3l-11 -3l-9 -3l-10 -5l-9 -5l-9 -6l-8 -6l-8 -7l-7 -7l-6 -7l-6 -8
l-5 -7l-5 -8l-5 -9l-4 -9l-4 -9l-3 -8l-3 -9l-2 -9l-2 -9l-1 -10l-1 -10l-1 -10v-10v-2v-10l1 -10l1 -10l1 -9l2 -9l2 -9l3 -9l3 -8l4 -9l4 -9l5 -9l5 -8l5 -7l6 -8l6 -6l8 -8l7 -7l9 -6l8 -6l10 -5l9 -5l10 -4l10 -3l10 -3l10 -2l11 -1h11z" />
    <glyph glyph-name="Adieresis" unicode="&#xc4;" horiz-adv-x="830" 
d="M358 733h10h11h10h10h11h10h11h10h10h11h10l4 -9l4 -9l4 -9l4 -10l4 -9l4 -9l4 -9l4 -9l4 -9l4 -10l4 -9l4 -9l4 -9l4 -9l4 -9l4 -10l4 -9l4 -9l4 -9l4 -9l4 -9l4 -10l4 -9l4 -9l4 -9l4 -9l4 -9l4 -10l4 -9l4 -9l4 -9l4 -9l4 -9l4 -10l4 -9l4 -9l4 -9l4 -9l4 -9l5 -9
l4 -10l4 -9l4 -9l4 -9l4 -9l4 -9l4 -10l4 -9l4 -9l4 -9l4 -9l4 -9l4 -10l4 -9l4 -9l4 -9l4 -9l4 -9l4 -10l4 -9l4 -9l4 -9l4 -9l4 -9l4 -10l4 -9l4 -9l4 -9l4 -9l4 -9l4 -10l4 -9l4 -9l4 -9l4 -9l4 -9l4 -10l4 -9l4 -9l4 -9h-10h-10h-10h-10h-10h-10h-9h-10h-10h-10h-10h-10
h-10l-4 9l-4 10l-4 9l-4 9l-4 10l-4 9l-4 9l-4 10l-4 9l-4 9l-4 9l-4 10l-4 9l-4 9l-4 10l-4 9l-4 9l-4 10l-4 9h-10h-10h-10h-10h-10h-10h-10h-10h-10h-10h-10h-10h-10h-10h-10h-10h-10h-10h-10h-10h-10h-10h-10h-10h-10h-10h-10h-10h-10h-10h-10h-10h-10h-10h-10l-4 -9
l-4 -10l-4 -9l-4 -9l-4 -10l-4 -9l-4 -9l-4 -10l-4 -9l-4 -9l-4 -9l-4 -10l-4 -9l-4 -9l-4 -10l-4 -9l-4 -9l-4 -10l-4 -9h-10h-9h-10h-10h-9h-10h-10h-10h-9h-10h-10h-9h-10l4 9l4 9l4 9l4 10l4 9l4 9l4 9l4 9l4 9l4 10l4 9l4 9l4 9l4 9l4 9l4 10l4 9l4 9l4 9l5 9l4 9l4 10
l4 9l4 9l4 9l4 9l4 9l4 10l4 9l4 9l4 9l4 9l4 9l4 10l4 9l4 9l4 9l4 9l4 9l4 10l4 9l4 9l4 9l4 9l4 9l4 9l4 10l4 9l4 9l4 9l4 9l4 9l4 10l4 9l4 9l4 9l4 9l4 9l4 10l5 9l4 9l4 9l4 9l4 9l4 10l4 9l4 9l4 9l4 9l4 9l4 10l4 9l4 9l4 9l4 9l4 9l4 10l4 9l4 9zM543 287l-4 9
l-4 9l-4 9l-4 9l-4 9l-4 10l-4 9l-4 9l-3 9l-4 9l-4 9l-4 9l-4 9l-4 9l-4 9l-4 9l-4 10l-4 9l-4 9l-4 9l-4 9l-4 9l-4 9l-4 9l-3 9l-4 9l-4 9l-4 10l-4 9l-4 9l-4 9l-4 9l-4 9l-4 -9l-4 -9l-4 -9l-4 -9l-4 -9l-4 -10l-4 -9l-4 -9l-3 -9l-4 -9l-4 -9l-4 -9l-4 -9l-4 -9l-4 -9
l-4 -9l-4 -10l-4 -9l-4 -9l-4 -9l-4 -9l-4 -9l-4 -9l-4 -9l-3 -9l-4 -9l-4 -9l-4 -10l-4 -9l-4 -9l-4 -9l-4 -9l-4 -9h10h10h10h10h10h10h10h10h10h10h10h10h10h10h10h10h10h10h10h10h10h10h10h10h10h10zM458 912h10h9h10h9h10h10h9h10h10h9h10h9h10v-10v-11v-10v-10v-10
v-11v-10v-10v-10v-11v-10h-10h-9h-10h-9h-10h-10h-9h-10h-10h-9h-10h-9h-10v10v11v10v10v10v11v10v10v10v11v10zM246 912h10h9h10h10h9h10h10h10h9h10h10h9h10v-10v-11v-10v-10v-10v-11v-10v-10v-10v-11v-10h-10h-9h-10h-10h-9h-10h-10h-10h-9h-10h-10h-9h-10v10v11v10v10
v10v11v10v10v10v11v10z" />
    <glyph glyph-name="adieresis" unicode="&#xe4;" horiz-adv-x="617" 
d="M243 -11h-10l-9 1l-10 1l-9 1l-9 1l-10 2l-9 2l-8 3l-10 3l-10 4l-9 4l-9 5l-9 5l-8 6l-8 6l-7 6l-8 7l-6 7l-6 7l-6 8l-5 9l-5 9l-4 9l-4 9l-3 10l-2 11l-2 10l-1 11v12v2v11l1 10l1 10l2 10l2 10l3 9l4 9l4 8l4 9l6 9l6 8l7 8l7 8l8 6l8 7l8 5l8 5l8 5l9 4l9 4l10 4
l10 3l10 3l9 2l10 2l10 2l10 2l10 1l11 1h10l11 1h11h12h11l11 -1h10l10 -1l10 -1l9 -2l10 -1l10 -2l10 -2l9 -2l10 -2l9 -3l10 -3l9 -3v14v12l-1 11l-2 10l-3 10l-3 10l-4 9l-4 8l-6 8l-6 7l-6 7l-7 5l-7 5l-8 4l-9 4l-8 4l-10 2l-10 3l-10 2l-11 1l-12 1h-12h-12l-11 -1
h-11l-10 -1l-11 -2l-10 -1l-9 -2l-9 -2l-10 -2l-9 -3l-9 -3l-9 -3l-10 -3l-9 -3l-10 -4l-9 -4l-3 9l-3 10l-4 9l-3 10l-3 9l-3 9l-3 10l-4 9l-3 10l-3 9l9 4l9 4l9 3l9 4l10 3l9 3l9 3l10 3l9 3l10 3l9 2l9 2l9 1l10 2l10 1l10 1l11 1l11 1l11 1h11h12h11l11 -1h10l10 -1
l10 -1l10 -2l9 -1l10 -2l8 -3l9 -2l9 -3l9 -4l10 -4l9 -4l9 -5l8 -5l8 -5l7 -6l7 -6l7 -6l7 -7l7 -8l6 -9l6 -8l5 -10l5 -9l4 -10l4 -10l3 -9l2 -9l2 -9l2 -9l2 -10l1 -10l1 -10v-10l1 -10v-11v-10v-10v-10v-10v-9v-10v-10v-10v-10v-10v-10v-10v-9v-10v-10v-10v-10v-10v-10
v-10v-9v-10v-10v-10v-10v-10v-10v-10v-9v-10v-10v-10v-10h-10h-9h-10h-10h-10h-9h-10h-10h-10h-9h-10h-10v10v10v10v10v10v10v10l-6 -7l-7 -8l-7 -6l-8 -7l-8 -7l-8 -6l-9 -6l-9 -5l-10 -5l-8 -5l-9 -3l-8 -4l-10 -2l-9 -3l-10 -2l-10 -2l-11 -1l-10 -1l-12 -1h-11zM275 77
h11l10 1l10 1l10 2l9 2l10 3l10 4l10 4l10 5l9 6l9 6l7 6l7 7l7 7l6 8l5 9l4 9l3 9l2 10l2 10v11v10v10v10v10l-9 3l-8 3l-10 2l-10 3l-10 2l-10 3l-10 1l-10 2l-10 1l-10 1h-10l-11 1h-11h-12l-12 -1l-11 -1l-11 -2l-10 -2l-9 -3l-9 -3l-9 -4l-7 -4l-7 -5l-9 -7l-7 -7
l-6 -7l-4 -9l-4 -9l-3 -9l-1 -10l-1 -11v-2l1 -12l2 -10l3 -10l4 -9l6 -9l8 -7l8 -7l8 -5l9 -5l9 -3l10 -3l9 -3l11 -2l11 -1h11zM348 739h10h11h10h10h11h10h10h11h10h10h11h10v-10v-10v-10v-10v-10v-10v-10v-10v-10v-10v-10v-10h-10h-11h-10h-10h-11h-10h-10h-11h-10h-10
h-11h-10v10v10v10v10v10v10v10v10v10v10v10v10zM148 739h10h11h10h10h11h10h10h11h10h10h11h10v-10v-10v-10v-10v-10v-10v-10v-10v-10v-10v-10v-10h-10h-11h-10h-10h-11h-10h-10h-11h-10h-10h-11h-10v10v10v10v10v10v10v10v10v10v10v10v10z" />
    <glyph glyph-name="adieresis.alt" horiz-adv-x="705" 
d="M396 739h10h11h10h10h11h10h10h11h10h10h11h10v-10v-10v-10v-10v-10v-10v-10v-10v-10v-10v-10v-10h-10h-11h-10h-10h-11h-10h-10h-11h-10h-10h-11h-10v10v10v10v10v10v10v10v10v10v10v10v10zM196 739h10h11h10h10h11h10h10h11h10h10h11h10v-10v-10v-10v-10v-10v-10v-10
v-10v-10v-10v-10v-10h-10h-11h-10h-10h-11h-10h-10h-11h-10h-10h-11h-10v10v10v10v10v10v10v10v10v10v10v10v10zM311 -11h-10l-9 1l-10 1l-9 1l-9 2l-10 2l-9 2l-10 3l-9 3l-9 4l-9 4l-9 4l-9 5l-8 5l-8 5l-9 6l-7 6l-8 6l-8 7l-7 7l-6 7l-7 7l-6 7l-5 7l-6 8l-5 8l-5 9
l-5 8l-4 9l-4 10l-4 9l-4 9l-3 9l-3 9l-2 10l-3 10l-2 10l-1 10l-2 10l-1 11v11l-1 11v11v2v11l1 11v11l1 11l2 10l1 10l2 10l3 10l2 10l3 9l3 9l4 9l4 9l4 10l4 9l5 8l5 9l5 8l6 8l5 7l6 7l6 7l7 7l7 7l7 7l8 6l8 6l8 6l8 5l8 5l9 5l9 4l9 4l9 4l10 3l9 3l9 2l10 2l9 2
l10 1l10 1l9 1h10h11l11 -1l11 -1l10 -1l10 -2l10 -2l10 -3l9 -3l8 -4l9 -3l8 -5l8 -4l8 -6l9 -7l8 -6l8 -7l8 -6l7 -7l7 -7l7 -8l6 -7l6 -8v10v9v10v10v9v10v10v9v10h10h10h10h10h10h11h10h10h10h10h10h10v-10v-10v-10v-10v-10v-10v-10v-10v-10v-10v-10v-10v-10v-9v-10v-10
v-10v-10v-10v-10v-10v-10v-10v-10v-10v-10v-10v-10v-10v-10v-10v-10v-10v-10v-10v-10v-10v-10v-10v-10v-10v-9v-10v-10v-10v-10v-10v-10v-10v-10v-10v-10v-10v-10v-10h-10h-10h-10h-10h-10h-10h-11h-10h-10h-10h-10h-10v10v11v10v11v10v11v10v11v10l-6 -9l-7 -8l-6 -8l-8 -8
l-7 -8l-8 -7l-8 -7l-8 -7l-9 -7l-9 -5l-8 -5l-8 -4l-8 -4l-9 -4l-9 -3l-9 -3l-9 -2l-10 -2l-10 -2l-11 -1l-11 -1h-11zM339 93h11l11 1l10 2l10 3l11 3l10 4l9 5l9 5l9 6l9 6l8 7l8 8l6 6l6 8l5 7l5 8l5 9l4 9l5 9l3 8l2 9l3 9l2 9l1 9l1 10l1 10v10v2v10l-1 10l-1 9l-1 9
l-2 9l-3 9l-2 9l-3 9l-5 9l-4 9l-5 8l-5 9l-5 7l-6 8l-6 7l-8 7l-8 7l-9 6l-9 6l-9 5l-9 5l-10 4l-11 3l-10 3l-10 2l-11 1h-11h-11l-11 -1l-10 -2l-10 -3l-11 -3l-9 -3l-10 -5l-9 -5l-9 -6l-8 -6l-8 -7l-7 -7l-6 -7l-6 -8l-5 -7l-5 -8l-5 -9l-4 -9l-4 -9l-3 -8l-3 -9l-2 -9
l-2 -9l-1 -10l-1 -10l-1 -10v-10v-2v-10l1 -10l1 -10l1 -9l2 -9l2 -9l3 -9l3 -8l4 -9l4 -9l5 -9l5 -8l5 -7l6 -8l6 -6l8 -8l7 -7l9 -6l8 -6l10 -5l9 -5l10 -4l10 -3l10 -3l10 -2l11 -1h11z" />
    <glyph glyph-name="Agrave" unicode="&#xc0;" horiz-adv-x="830" 
d="M358 733h10h11h10h10h11h10h11h10h10h11h10l4 -9l4 -9l4 -9l4 -10l4 -9l4 -9l4 -9l4 -9l4 -9l4 -10l4 -9l4 -9l4 -9l4 -9l4 -9l4 -10l4 -9l4 -9l4 -9l4 -9l4 -9l4 -10l4 -9l4 -9l4 -9l4 -9l4 -9l4 -10l4 -9l4 -9l4 -9l4 -9l4 -9l4 -10l4 -9l4 -9l4 -9l4 -9l4 -9l5 -9
l4 -10l4 -9l4 -9l4 -9l4 -9l4 -9l4 -10l4 -9l4 -9l4 -9l4 -9l4 -9l4 -10l4 -9l4 -9l4 -9l4 -9l4 -9l4 -10l4 -9l4 -9l4 -9l4 -9l4 -9l4 -10l4 -9l4 -9l4 -9l4 -9l4 -9l4 -10l4 -9l4 -9l4 -9l4 -9l4 -9l4 -10l4 -9l4 -9l4 -9h-10h-10h-10h-10h-10h-10h-9h-10h-10h-10h-10h-10
h-10l-4 9l-4 10l-4 9l-4 9l-4 10l-4 9l-4 9l-4 10l-4 9l-4 9l-4 9l-4 10l-4 9l-4 9l-4 10l-4 9l-4 9l-4 10l-4 9h-10h-10h-10h-10h-10h-10h-10h-10h-10h-10h-10h-10h-10h-10h-10h-10h-10h-10h-10h-10h-10h-10h-10h-10h-10h-10h-10h-10h-10h-10h-10h-10h-10h-10h-10l-4 -9
l-4 -10l-4 -9l-4 -9l-4 -10l-4 -9l-4 -9l-4 -10l-4 -9l-4 -9l-4 -9l-4 -10l-4 -9l-4 -9l-4 -10l-4 -9l-4 -9l-4 -10l-4 -9h-10h-9h-10h-10h-9h-10h-10h-10h-9h-10h-10h-9h-10l4 9l4 9l4 9l4 10l4 9l4 9l4 9l4 9l4 9l4 10l4 9l4 9l4 9l4 9l4 9l4 10l4 9l4 9l4 9l5 9l4 9l4 10
l4 9l4 9l4 9l4 9l4 9l4 10l4 9l4 9l4 9l4 9l4 9l4 10l4 9l4 9l4 9l4 9l4 9l4 10l4 9l4 9l4 9l4 9l4 9l4 9l4 10l4 9l4 9l4 9l4 9l4 9l4 10l4 9l4 9l4 9l4 9l4 9l4 10l5 9l4 9l4 9l4 9l4 9l4 10l4 9l4 9l4 9l4 9l4 9l4 10l4 9l4 9l4 9l4 9l4 9l4 10l4 9l4 9zM543 287l-4 9
l-4 9l-4 9l-4 9l-4 9l-4 10l-4 9l-4 9l-3 9l-4 9l-4 9l-4 9l-4 9l-4 9l-4 9l-4 9l-4 10l-4 9l-4 9l-4 9l-4 9l-4 9l-4 9l-4 9l-3 9l-4 9l-4 9l-4 10l-4 9l-4 9l-4 9l-4 9l-4 9l-4 -9l-4 -9l-4 -9l-4 -9l-4 -9l-4 -10l-4 -9l-4 -9l-3 -9l-4 -9l-4 -9l-4 -9l-4 -9l-4 -9l-4 -9
l-4 -9l-4 -10l-4 -9l-4 -9l-4 -9l-4 -9l-4 -9l-4 -9l-4 -9l-3 -9l-4 -9l-4 -9l-4 -10l-4 -9l-4 -9l-4 -9l-4 -9l-4 -9h10h10h10h10h10h10h10h10h10h10h10h10h10h10h10h10h10h10h10h10h10h10h10h10h10h10zM369 799l-8 6l-8 7l-9 6l-8 6l-8 6l-8 7l-8 6l-8 6l-9 6l-8 7l-8 6
l-8 6l-8 6l-9 7l-8 6l-8 6l9 4l9 4l10 4l9 4l9 4l9 5l9 4l9 4l10 4l9 4l9 4l9 4l6 -8l6 -8l6 -8l6 -7l7 -8l6 -8l6 -8l6 -8l6 -8l6 -7l6 -8l6 -8l6 -8l6 -8l7 -8l6 -7l6 -8l6 -8l6 -8h-9h-10h-9h-10h-9h-10h-9h-10h-9h-10z" />
    <glyph glyph-name="agrave" unicode="&#xe0;" horiz-adv-x="617" 
d="M243 -11h-10l-9 1l-10 1l-9 1l-9 1l-10 2l-9 2l-8 3l-10 3l-10 4l-9 4l-9 5l-9 5l-8 6l-8 6l-7 6l-8 7l-6 7l-6 7l-6 8l-5 9l-5 9l-4 9l-4 9l-3 10l-2 11l-2 10l-1 11v12v2v11l1 10l1 10l2 10l2 10l3 9l4 9l4 8l4 9l6 9l6 8l7 8l7 8l8 6l8 7l8 5l8 5l8 5l9 4l9 4l10 4
l10 3l10 3l9 2l10 2l10 2l10 2l10 1l11 1h10l11 1h11h12h11l11 -1h10l10 -1l10 -1l9 -2l10 -1l10 -2l10 -2l9 -2l10 -2l9 -3l10 -3l9 -3v14v12l-1 11l-2 10l-3 10l-3 10l-4 9l-4 8l-6 8l-6 7l-6 7l-7 5l-7 5l-8 4l-9 4l-8 4l-10 2l-10 3l-10 2l-11 1l-12 1h-12h-12l-11 -1
h-11l-10 -1l-11 -2l-10 -1l-9 -2l-9 -2l-10 -2l-9 -3l-9 -3l-9 -3l-10 -3l-9 -3l-10 -4l-9 -4l-3 9l-3 10l-4 9l-3 10l-3 9l-3 9l-3 10l-4 9l-3 10l-3 9l9 4l9 4l9 3l9 4l10 3l9 3l9 3l10 3l9 3l10 3l9 2l9 2l9 1l10 2l10 1l10 1l11 1l11 1l11 1h11h12h11l11 -1h10l10 -1
l10 -1l10 -2l9 -1l10 -2l8 -3l9 -2l9 -3l9 -4l10 -4l9 -4l9 -5l8 -5l8 -5l7 -6l7 -6l7 -6l7 -7l7 -8l6 -9l6 -8l5 -10l5 -9l4 -10l4 -10l3 -9l2 -9l2 -9l2 -9l2 -10l1 -10l1 -10v-10l1 -10v-11v-10v-10v-10v-10v-9v-10v-10v-10v-10v-10v-10v-10v-9v-10v-10v-10v-10v-10v-10
v-10v-9v-10v-10v-10v-10v-10v-10v-10v-9v-10v-10v-10v-10h-10h-9h-10h-10h-10h-9h-10h-10h-10h-9h-10h-10v10v10v10v10v10v10v10l-6 -7l-7 -8l-7 -6l-8 -7l-8 -7l-8 -6l-9 -6l-9 -5l-10 -5l-8 -5l-9 -3l-8 -4l-10 -2l-9 -3l-10 -2l-10 -2l-11 -1l-10 -1l-12 -1h-11zM275 77
h11l10 1l10 1l10 2l9 2l10 3l10 4l10 4l10 5l9 6l9 6l7 6l7 7l7 7l6 8l5 9l4 9l3 9l2 10l2 10v11v10v10v10v10l-9 3l-8 3l-10 2l-10 3l-10 2l-10 3l-10 1l-10 2l-10 1l-10 1h-10l-11 1h-11h-12l-12 -1l-11 -1l-11 -2l-10 -2l-9 -3l-9 -3l-9 -4l-7 -4l-7 -5l-9 -7l-7 -7
l-6 -7l-4 -9l-4 -9l-3 -9l-1 -10l-1 -11v-2l1 -12l2 -10l3 -10l4 -9l6 -9l8 -7l8 -7l8 -5l9 -5l9 -3l10 -3l9 -3l11 -2l11 -1h11zM141 737l9 4l9 4l10 5l9 4l9 4l9 4l9 4l9 4l10 5l9 4l9 4l9 4l5 -8l6 -9l5 -8l5 -9l6 -8l5 -8l5 -9l6 -8l5 -9l6 -8l5 -8l5 -9l6 -8l5 -9l5 -8
l6 -8l5 -9l5 -8l6 -9l5 -8h-10h-10h-10h-10h-11h-10h-10h-10h-10l-7 7l-8 7l-7 7l-8 7l-7 7l-7 7l-8 7l-7 7l-8 6l-7 7l-8 7l-7 7l-7 7l-8 7l-7 7l-8 7z" />
    <glyph glyph-name="agrave.alt" horiz-adv-x="705" 
d="M311 -11h-10l-9 1l-10 1l-9 1l-9 2l-10 2l-9 2l-10 3l-9 3l-9 4l-9 4l-9 4l-9 5l-8 5l-8 5l-9 6l-7 6l-8 6l-8 7l-7 7l-6 7l-7 7l-6 7l-5 7l-6 8l-5 8l-5 9l-5 8l-4 9l-4 10l-4 9l-4 9l-3 9l-3 9l-2 10l-3 10l-2 10l-1 10l-2 10l-1 11v11l-1 11v11v2v11l1 11v11l1 11
l2 10l1 10l2 10l3 10l2 10l3 9l3 9l4 9l4 9l4 10l4 9l5 8l5 9l5 8l6 8l5 7l6 7l6 7l7 7l7 7l7 7l8 6l8 6l8 6l8 5l8 5l9 5l9 4l9 4l9 4l10 3l9 3l9 2l10 2l9 2l10 1l10 1l9 1h10h11l11 -1l11 -1l10 -1l10 -2l10 -2l10 -3l9 -3l8 -4l9 -3l8 -5l8 -4l8 -6l9 -7l8 -6l8 -7l8 -6
l7 -7l7 -7l7 -8l6 -7l6 -8v10v9v10v10v9v10v10v9v10h10h10h10h10h10h11h10h10h10h10h10h10v-10v-10v-10v-10v-10v-10v-10v-10v-10v-10v-10v-10v-10v-9v-10v-10v-10v-10v-10v-10v-10v-10v-10v-10v-10v-10v-10v-10v-10v-10v-10v-10v-10v-10v-10v-10v-10v-10v-10v-10v-10v-9
v-10v-10v-10v-10v-10v-10v-10v-10v-10v-10v-10v-10v-10h-10h-10h-10h-10h-10h-10h-11h-10h-10h-10h-10h-10v10v11v10v11v10v11v10v11v10l-6 -9l-7 -8l-6 -8l-8 -8l-7 -8l-8 -7l-8 -7l-8 -7l-9 -7l-9 -5l-8 -5l-8 -4l-8 -4l-9 -4l-9 -3l-9 -3l-9 -2l-10 -2l-10 -2l-11 -1
l-11 -1h-11zM339 93h11l11 1l10 2l10 3l11 3l10 4l9 5l9 5l9 6l9 6l8 7l8 8l6 6l6 8l5 7l5 8l5 9l4 9l5 9l3 8l2 9l3 9l2 9l1 9l1 10l1 10v10v2v10l-1 10l-1 9l-1 9l-2 9l-3 9l-2 9l-3 9l-5 9l-4 9l-5 8l-5 9l-5 7l-6 8l-6 7l-8 7l-8 7l-9 6l-9 6l-9 5l-9 5l-10 4l-11 3
l-10 3l-10 2l-11 1h-11h-11l-11 -1l-10 -2l-10 -3l-11 -3l-9 -3l-10 -5l-9 -5l-9 -6l-8 -6l-8 -7l-7 -7l-6 -7l-6 -8l-5 -7l-5 -8l-5 -9l-4 -9l-4 -9l-3 -8l-3 -9l-2 -9l-2 -9l-1 -10l-1 -10l-1 -10v-10v-2v-10l1 -10l1 -10l1 -9l2 -9l2 -9l3 -9l3 -8l4 -9l4 -9l5 -9l5 -8
l5 -7l6 -8l6 -6l8 -8l7 -7l9 -6l8 -6l10 -5l9 -5l10 -4l10 -3l10 -3l10 -2l11 -1h11zM189 737l9 4l9 4l10 5l9 4l9 4l9 4l9 4l9 4l10 5l9 4l9 4l9 4l5 -8l6 -9l5 -8l5 -9l6 -8l5 -8l5 -9l6 -8l5 -9l6 -8l5 -8l5 -9l6 -8l5 -9l5 -8l6 -8l5 -9l5 -8l6 -9l5 -8h-10h-10h-10h-10
h-11h-10h-10h-10h-10l-7 7l-8 7l-7 7l-8 7l-7 7l-7 7l-8 7l-7 7l-8 6l-7 7l-8 7l-7 7l-7 7l-8 7l-7 7l-8 7z" />
    <glyph glyph-name="Amacron" unicode="&#x100;" horiz-adv-x="830" 
d="M358 733h10h11h10h10h11h10h11h10h10h11h10l4 -9l4 -9l4 -9l4 -10l4 -9l4 -9l4 -9l4 -9l4 -9l4 -10l4 -9l4 -9l4 -9l4 -9l4 -9l4 -10l4 -9l4 -9l4 -9l4 -9l4 -9l4 -10l4 -9l4 -9l4 -9l4 -9l4 -9l4 -10l4 -9l4 -9l4 -9l4 -9l4 -9l4 -10l4 -9l4 -9l4 -9l4 -9l4 -9l5 -9
l4 -10l4 -9l4 -9l4 -9l4 -9l4 -9l4 -10l4 -9l4 -9l4 -9l4 -9l4 -9l4 -10l4 -9l4 -9l4 -9l4 -9l4 -9l4 -10l4 -9l4 -9l4 -9l4 -9l4 -9l4 -10l4 -9l4 -9l4 -9l4 -9l4 -9l4 -10l4 -9l4 -9l4 -9l4 -9l4 -9l4 -10l4 -9l4 -9l4 -9h-10h-10h-10h-10h-10h-10h-9h-10h-10h-10h-10h-10
h-10l-4 9l-4 10l-4 9l-4 9l-4 10l-4 9l-4 9l-4 10l-4 9l-4 9l-4 9l-4 10l-4 9l-4 9l-4 10l-4 9l-4 9l-4 10l-4 9h-10h-10h-10h-10h-10h-10h-10h-10h-10h-10h-10h-10h-10h-10h-10h-10h-10h-10h-10h-10h-10h-10h-10h-10h-10h-10h-10h-10h-10h-10h-10h-10h-10h-10h-10l-4 -9
l-4 -10l-4 -9l-4 -9l-4 -10l-4 -9l-4 -9l-4 -10l-4 -9l-4 -9l-4 -9l-4 -10l-4 -9l-4 -9l-4 -10l-4 -9l-4 -9l-4 -10l-4 -9h-10h-9h-10h-10h-9h-10h-10h-10h-9h-10h-10h-9h-10l4 9l4 9l4 9l4 10l4 9l4 9l4 9l4 9l4 9l4 10l4 9l4 9l4 9l4 9l4 9l4 10l4 9l4 9l4 9l5 9l4 9l4 10
l4 9l4 9l4 9l4 9l4 9l4 10l4 9l4 9l4 9l4 9l4 9l4 10l4 9l4 9l4 9l4 9l4 9l4 10l4 9l4 9l4 9l4 9l4 9l4 9l4 10l4 9l4 9l4 9l4 9l4 9l4 10l4 9l4 9l4 9l4 9l4 9l4 10l5 9l4 9l4 9l4 9l4 9l4 10l4 9l4 9l4 9l4 9l4 9l4 10l4 9l4 9l4 9l4 9l4 9l4 10l4 9l4 9zM543 287l-4 9
l-4 9l-4 9l-4 9l-4 9l-4 10l-4 9l-4 9l-3 9l-4 9l-4 9l-4 9l-4 9l-4 9l-4 9l-4 9l-4 10l-4 9l-4 9l-4 9l-4 9l-4 9l-4 9l-4 9l-3 9l-4 9l-4 9l-4 10l-4 9l-4 9l-4 9l-4 9l-4 9l-4 -9l-4 -9l-4 -9l-4 -9l-4 -9l-4 -10l-4 -9l-4 -9l-3 -9l-4 -9l-4 -9l-4 -9l-4 -9l-4 -9l-4 -9
l-4 -9l-4 -10l-4 -9l-4 -9l-4 -9l-4 -9l-4 -9l-4 -9l-4 -9l-3 -9l-4 -9l-4 -9l-4 -10l-4 -9l-4 -9l-4 -9l-4 -9l-4 -9h10h10h10h10h10h10h10h10h10h10h10h10h10h10h10h10h10h10h10h10h10h10h10h10h10h10zM230 902h10h10h10h10h10h10h10h10h10h10h10h10h10h10h10h10h10h10h10
h10h10h10h10h10h10h10h10h10h10h10h10h10h10h10h10h10h10v-10v-10v-10v-10v-10v-10v-10v-10v-10h-10h-10h-10h-10h-10h-10h-10h-10h-10h-10h-10h-10h-10h-10h-10h-10h-10h-10h-10h-10h-10h-10h-10h-10h-10h-10h-10h-10h-10h-10h-10h-10h-10h-10h-10h-10h-10v10v10v10v10v10
v10v10v10v10z" />
    <glyph glyph-name="amacron" unicode="&#x101;" horiz-adv-x="617" 
d="M243 -11h-10l-9 1l-10 1l-9 1l-9 1l-10 2l-9 2l-8 3l-10 3l-10 4l-9 4l-9 5l-9 5l-8 6l-8 6l-7 6l-8 7l-6 7l-6 7l-6 8l-5 9l-5 9l-4 9l-4 9l-3 10l-2 11l-2 10l-1 11v12v2v11l1 10l1 10l2 10l2 10l3 9l4 9l4 8l4 9l6 9l6 8l7 8l7 8l8 6l8 7l8 5l8 5l8 5l9 4l9 4l10 4
l10 3l10 3l9 2l10 2l10 2l10 2l10 1l11 1h10l11 1h11h12h11l11 -1h10l10 -1l10 -1l9 -2l10 -1l10 -2l10 -2l9 -2l10 -2l9 -3l10 -3l9 -3v14v12l-1 11l-2 10l-3 10l-3 10l-4 9l-4 8l-6 8l-6 7l-6 7l-7 5l-7 5l-8 4l-9 4l-8 4l-10 2l-10 3l-10 2l-11 1l-12 1h-12h-12l-11 -1
h-11l-10 -1l-11 -2l-10 -1l-9 -2l-9 -2l-10 -2l-9 -3l-9 -3l-9 -3l-10 -3l-9 -3l-10 -4l-9 -4l-3 9l-3 10l-4 9l-3 10l-3 9l-3 9l-3 10l-4 9l-3 10l-3 9l9 4l9 4l9 3l9 4l10 3l9 3l9 3l10 3l9 3l10 3l9 2l9 2l9 1l10 2l10 1l10 1l11 1l11 1l11 1h11h12h11l11 -1h10l10 -1
l10 -1l10 -2l9 -1l10 -2l8 -3l9 -2l9 -3l9 -4l10 -4l9 -4l9 -5l8 -5l8 -5l7 -6l7 -6l7 -6l7 -7l7 -8l6 -9l6 -8l5 -10l5 -9l4 -10l4 -10l3 -9l2 -9l2 -9l2 -9l2 -10l1 -10l1 -10v-10l1 -10v-11v-10v-10v-10v-10v-9v-10v-10v-10v-10v-10v-10v-10v-9v-10v-10v-10v-10v-10v-10
v-10v-9v-10v-10v-10v-10v-10v-10v-10v-9v-10v-10v-10v-10h-10h-9h-10h-10h-10h-9h-10h-10h-10h-9h-10h-10v10v10v10v10v10v10v10l-6 -7l-7 -8l-7 -6l-8 -7l-8 -7l-8 -6l-9 -6l-9 -5l-10 -5l-8 -5l-9 -3l-8 -4l-10 -2l-9 -3l-10 -2l-10 -2l-11 -1l-10 -1l-12 -1h-11zM275 77
h11l10 1l10 1l10 2l9 2l10 3l10 4l10 4l10 5l9 6l9 6l7 6l7 7l7 7l6 8l5 9l4 9l3 9l2 10l2 10v11v10v10v10v10l-9 3l-8 3l-10 2l-10 3l-10 2l-10 3l-10 1l-10 2l-10 1l-10 1h-10l-11 1h-11h-12l-12 -1l-11 -1l-11 -2l-10 -2l-9 -3l-9 -3l-9 -4l-7 -4l-7 -5l-9 -7l-7 -7
l-6 -7l-4 -9l-4 -9l-3 -9l-1 -10l-1 -11v-2l1 -12l2 -10l3 -10l4 -9l6 -9l8 -7l8 -7l8 -5l9 -5l9 -3l10 -3l9 -3l11 -2l11 -1h11zM135 720h10h10h10h10h10h10h10h10h10h10h10h10h10h10h10h10h10h10h10h10h10h10h10h10h10h10h10h10h10h10h10h10h10h10h10v-10v-10v-9v-10v-10
v-10v-9v-10v-10h-10h-10h-10h-10h-10h-10h-10h-10h-10h-10h-10h-10h-10h-10h-10h-10h-10h-10h-10h-10h-10h-10h-10h-10h-10h-10h-10h-10h-10h-10h-10h-10h-10h-10h-10v10v10v9v10v10v10v9v10v10z" />
    <glyph glyph-name="amacron.alt" horiz-adv-x="705" 
d="M311 -11h-10l-9 1l-10 1l-9 1l-9 2l-10 2l-9 2l-10 3l-9 3l-9 4l-9 4l-9 4l-9 5l-8 5l-8 5l-9 6l-7 6l-8 6l-8 7l-7 7l-6 7l-7 7l-6 7l-5 7l-6 8l-5 8l-5 9l-5 8l-4 9l-4 10l-4 9l-4 9l-3 9l-3 9l-2 10l-3 10l-2 10l-1 10l-2 10l-1 11v11l-1 11v11v2v11l1 11v11l1 11
l2 10l1 10l2 10l3 10l2 10l3 9l3 9l4 9l4 9l4 10l4 9l5 8l5 9l5 8l6 8l5 7l6 7l6 7l7 7l7 7l7 7l8 6l8 6l8 6l8 5l8 5l9 5l9 4l9 4l9 4l10 3l9 3l9 2l10 2l9 2l10 1l10 1l9 1h10h11l11 -1l11 -1l10 -1l10 -2l10 -2l10 -3l9 -3l8 -4l9 -3l8 -5l8 -4l8 -6l9 -7l8 -6l8 -7l8 -6
l7 -7l7 -7l7 -8l6 -7l6 -8v10v9v10v10v9v10v10v9v10h10h10h10h10h10h11h10h10h10h10h10h10v-10v-10v-10v-10v-10v-10v-10v-10v-10v-10v-10v-10v-10v-9v-10v-10v-10v-10v-10v-10v-10v-10v-10v-10v-10v-10v-10v-10v-10v-10v-10v-10v-10v-10v-10v-10v-10v-10v-10v-10v-10v-9
v-10v-10v-10v-10v-10v-10v-10v-10v-10v-10v-10v-10v-10h-10h-10h-10h-10h-10h-10h-11h-10h-10h-10h-10h-10v10v11v10v11v10v11v10v11v10l-6 -9l-7 -8l-6 -8l-8 -8l-7 -8l-8 -7l-8 -7l-8 -7l-9 -7l-9 -5l-8 -5l-8 -4l-8 -4l-9 -4l-9 -3l-9 -3l-9 -2l-10 -2l-10 -2l-11 -1
l-11 -1h-11zM339 93h11l11 1l10 2l10 3l11 3l10 4l9 5l9 5l9 6l9 6l8 7l8 8l6 6l6 8l5 7l5 8l5 9l4 9l5 9l3 8l2 9l3 9l2 9l1 9l1 10l1 10v10v2v10l-1 10l-1 9l-1 9l-2 9l-3 9l-2 9l-3 9l-5 9l-4 9l-5 8l-5 9l-5 7l-6 8l-6 7l-8 7l-8 7l-9 6l-9 6l-9 5l-9 5l-10 4l-11 3
l-10 3l-10 2l-11 1h-11h-11l-11 -1l-10 -2l-10 -3l-11 -3l-9 -3l-10 -5l-9 -5l-9 -6l-8 -6l-8 -7l-7 -7l-6 -7l-6 -8l-5 -7l-5 -8l-5 -9l-4 -9l-4 -9l-3 -8l-3 -9l-2 -9l-2 -9l-1 -10l-1 -10l-1 -10v-10v-2v-10l1 -10l1 -10l1 -9l2 -9l2 -9l3 -9l3 -8l4 -9l4 -9l5 -9l5 -8
l5 -7l6 -8l6 -6l8 -8l7 -7l9 -6l8 -6l10 -5l9 -5l10 -4l10 -3l10 -3l10 -2l11 -1h11zM183 720h10h10h10h10h10h10h10h10h10h10h10h10h10h10h10h10h10h10h10h10h10h10h10h10h10h10h10h10h10h10h10h10h10h10h10v-10v-10v-9v-10v-10v-10v-9v-10v-10h-10h-10h-10h-10h-10h-10
h-10h-10h-10h-10h-10h-10h-10h-10h-10h-10h-10h-10h-10h-10h-10h-10h-10h-10h-10h-10h-10h-10h-10h-10h-10h-10h-10h-10h-10v10v10v9v10v10v10v9v10v10z" />
    <glyph glyph-name="Aogonek" unicode="&#x104;" horiz-adv-x="830" 
d="M802 -171l-8 -1l-8 -1h-8h-7l-12 1h-11l-11 2l-10 1l-10 2l-9 3l-9 2l-8 4l-8 3l-7 4l-6 4l-10 7l-7 8l-7 8l-5 9l-3 9l-2 10l-1 11v9l2 9l2 9l3 8l4 8l5 9l5 8l6 8l7 9l8 8h-13l-4 9l-4 10l-4 9l-4 9l-4 10l-4 9l-4 9l-4 10l-4 9l-4 9l-4 9l-4 10l-4 9l-4 9l-4 10l-4 9
l-4 9l-4 10l-4 9h-10h-10h-10h-10h-10h-10h-10h-10h-10h-10h-10h-10h-10h-10h-10h-10h-10h-10h-10h-10h-10h-10h-10h-10h-10h-10h-10h-10h-10h-10h-10h-10h-10h-10h-10l-4 -9l-4 -10l-4 -9l-4 -9l-4 -10l-4 -9l-4 -9l-4 -10l-4 -9l-4 -9l-4 -9l-4 -10l-4 -9l-4 -9l-4 -10
l-4 -9l-4 -9l-4 -10l-4 -9h-10h-9h-10h-10h-9h-10h-10h-10h-9h-10h-10h-9h-10l4 9l4 9l4 9l4 10l4 9l4 9l4 9l4 9l4 9l4 10l4 9l4 9l4 9l4 9l4 9l4 10l4 9l4 9l4 9l5 9l4 9l4 10l4 9l4 9l4 9l4 9l4 9l4 10l4 9l4 9l4 9l4 9l4 9l4 10l4 9l4 9l4 9l4 9l4 9l4 10l4 9l4 9l4 9
l4 9l4 9l4 9l4 10l4 9l4 9l4 9l4 9l4 9l4 10l4 9l4 9l4 9l4 9l4 9l4 10l5 9l4 9l4 9l4 9l4 9l4 10l4 9l4 9l4 9l4 9l4 9l4 10l4 9l4 9l4 9l4 9l4 9l4 10l4 9l4 9l4 9h10h11h10h10h11h10h11h10h10h11h10l4 -9l4 -9l4 -9l4 -10l4 -9l4 -9l4 -9l4 -9l4 -9l4 -10l4 -9l4 -9l4 -9
l4 -9l4 -9l4 -10l4 -9l4 -9l4 -9l4 -9l4 -9l4 -10l4 -9l4 -9l4 -9l4 -9l4 -9l4 -10l4 -9l4 -9l4 -9l4 -9l4 -9l4 -10l4 -9l4 -9l4 -9l4 -9l4 -9l5 -9l4 -10l4 -9l4 -9l4 -9l4 -9l4 -9l4 -10l4 -9l4 -9l4 -9l4 -9l4 -9l4 -10l4 -9l4 -9l4 -9l4 -9l4 -9l4 -10l4 -9l4 -9l4 -9
l4 -9l4 -9l4 -10l4 -9l4 -9l4 -9l4 -9l4 -9l4 -10l4 -9l4 -9l4 -9l4 -9l4 -9l4 -10l4 -9l4 -9l4 -9h-10h-10h-10l-8 -7l-6 -8l-6 -7l-4 -6l-4 -7l-4 -11l-3 -10l-1 -11l1 -9l2 -7l4 -7l5 -6l7 -5l8 -4l10 -3l11 -2l13 -2h14v-10v-10v-10v-9v-10v-10zM543 287l-4 9l-4 9l-4 9
l-4 9l-4 9l-4 10l-4 9l-4 9l-3 9l-4 9l-4 9l-4 9l-4 9l-4 9l-4 9l-4 9l-4 10l-4 9l-4 9l-4 9l-4 9l-4 9l-4 9l-4 9l-3 9l-4 9l-4 9l-4 10l-4 9l-4 9l-4 9l-4 9l-4 9l-4 -9l-4 -9l-4 -9l-4 -9l-4 -9l-4 -10l-4 -9l-4 -9l-3 -9l-4 -9l-4 -9l-4 -9l-4 -9l-4 -9l-4 -9l-4 -9
l-4 -10l-4 -9l-4 -9l-4 -9l-4 -9l-4 -9l-4 -9l-4 -9l-3 -9l-4 -9l-4 -9l-4 -10l-4 -9l-4 -9l-4 -9l-4 -9l-4 -9h10h10h10h10h10h10h10h10h10h10h10h10h10h10h10h10h10h10h10h10h10h10h10h10h10h10z" />
    <glyph glyph-name="aogonek" unicode="&#x105;" horiz-adv-x="617" 
d="M549 -171l-8 -1l-8 -1h-8h-7l-12 1h-11l-11 2l-10 1l-10 2l-9 3l-9 2l-8 4l-8 3l-7 4l-6 4l-10 7l-7 8l-7 8l-5 9l-3 9l-2 10l-1 11v9l2 9l2 9l3 8l4 8l5 9l5 8l6 8l7 9l8 8h-1v10v10v10v10v10v10v10l-6 -7l-7 -8l-7 -6l-8 -7l-8 -7l-8 -6l-9 -6l-9 -5l-10 -5l-8 -5
l-9 -3l-8 -4l-10 -2l-9 -3l-10 -2l-10 -2l-11 -1l-10 -1l-12 -1h-11h-10l-9 1l-10 1l-9 1l-9 1l-10 2l-9 2l-8 3l-10 3l-10 4l-9 4l-9 5l-9 5l-8 6l-8 6l-7 6l-8 7l-6 7l-6 7l-6 8l-5 9l-5 9l-4 9l-4 9l-3 10l-2 11l-2 10l-1 11v12v2v11l1 10l1 10l2 10l2 10l3 9l4 9l4 8
l4 9l6 9l6 8l7 8l7 8l8 6l8 7l8 5l8 5l8 5l9 4l9 4l10 4l10 3l10 3l9 2l10 2l10 2l10 2l10 1l11 1h10l11 1h11h12h11l11 -1h10l10 -1l10 -1l9 -2l10 -1l10 -2l10 -2l9 -2l10 -2l9 -3l10 -3l9 -3v14v12l-1 11l-2 10l-3 10l-3 10l-4 9l-4 8l-6 8l-6 7l-6 7l-7 5l-7 5l-8 4
l-9 4l-8 4l-10 2l-10 3l-10 2l-11 1l-12 1h-12h-12l-11 -1h-11l-10 -1l-11 -2l-10 -1l-9 -2l-9 -2l-10 -2l-9 -3l-9 -3l-9 -3l-10 -3l-9 -3l-10 -4l-9 -4l-3 9l-3 10l-4 9l-3 10l-3 9l-3 9l-3 10l-4 9l-3 10l-3 9l9 4l9 4l9 3l9 4l10 3l9 3l9 3l10 3l9 3l10 3l9 2l9 2l9 1
l10 2l10 1l10 1l11 1l11 1l11 1h11h12h11l11 -1h10l10 -1l10 -1l10 -2l9 -1l10 -2l8 -3l9 -2l9 -3l9 -4l10 -4l9 -4l9 -5l8 -5l8 -5l7 -6l7 -6l7 -6l7 -7l7 -8l6 -9l6 -8l5 -10l5 -9l4 -10l4 -10l3 -9l2 -9l2 -9l2 -9l2 -10l1 -10l1 -10v-10l1 -10v-11v-10v-10v-10v-10v-9
v-10v-10v-10v-10v-10v-10v-10v-9v-10v-10v-10v-10v-10v-10v-10v-9v-10v-10v-10v-10v-10v-10v-10v-9v-10v-10v-10v-10h-10h-10h-10l-8 -7l-6 -8l-6 -7l-4 -6l-4 -7l-4 -11l-3 -10l-1 -11l1 -9l2 -7l4 -7l5 -6l7 -5l8 -4l10 -3l11 -2l13 -2h14v-10v-10v-10v-9v-10v-10zM275 77
h11l10 1l10 1l10 2l9 2l10 3l10 4l10 4l10 5l9 6l9 6l7 6l7 7l7 7l6 8l5 9l4 9l3 9l2 10l2 10v11v10v10v10v10l-9 3l-8 3l-10 2l-10 3l-10 2l-10 3l-10 1l-10 2l-10 1l-10 1h-10l-11 1h-11h-12l-12 -1l-11 -1l-11 -2l-10 -2l-9 -3l-9 -3l-9 -4l-7 -4l-7 -5l-9 -7l-7 -7
l-6 -7l-4 -9l-4 -9l-3 -9l-1 -10l-1 -11v-2l1 -12l2 -10l3 -10l4 -9l6 -9l8 -7l8 -7l8 -5l9 -5l9 -3l10 -3l9 -3l11 -2l11 -1h11z" />
    <glyph glyph-name="aogonek.alt" horiz-adv-x="705" 
d="M634 -171l-8 -1l-8 -1h-8h-7l-12 1h-11l-11 2l-10 1l-10 2l-9 3l-9 2l-8 4l-8 3l-7 4l-6 4l-10 7l-7 8l-7 8l-5 9l-3 9l-2 10l-1 11v9l2 9l2 9l3 8l4 8l5 9l5 8l6 8l7 9l8 8h-9v10v11v10v11v10v11v10v11v10l-6 -9l-7 -8l-6 -8l-8 -8l-7 -8l-8 -7l-8 -7l-8 -7l-9 -7l-9 -5
l-8 -5l-8 -4l-8 -4l-9 -4l-9 -3l-9 -3l-9 -2l-10 -2l-10 -2l-11 -1l-11 -1h-11h-10l-9 1l-10 1l-9 1l-9 2l-10 2l-9 2l-10 3l-9 3l-9 4l-9 4l-9 4l-9 5l-8 5l-8 5l-9 6l-7 6l-8 6l-8 7l-7 7l-6 7l-7 7l-6 7l-5 7l-6 8l-5 8l-5 9l-5 8l-4 9l-4 10l-4 9l-4 9l-3 9l-3 9l-2 10
l-3 10l-2 10l-1 10l-2 10l-1 11v11l-1 11v11v2v11l1 11v11l1 11l2 10l1 10l2 10l3 10l2 10l3 9l3 9l4 9l4 9l4 10l4 9l5 8l5 9l5 8l6 8l5 7l6 7l6 7l7 7l7 7l7 7l8 6l8 6l8 6l8 5l8 5l9 5l9 4l9 4l9 4l10 3l9 3l9 2l10 2l9 2l10 1l10 1l9 1h10h11l11 -1l11 -1l10 -1l10 -2
l10 -2l10 -3l9 -3l8 -4l9 -3l8 -5l8 -4l8 -6l9 -7l8 -6l8 -7l8 -6l7 -7l7 -7l7 -8l6 -7l6 -8v10v9v10v10v9v10v10v9v10h10h10h10h10h10h11h10h10h10h10h10h10v-10v-10v-10v-10v-10v-10v-10v-10v-10v-10v-10v-10v-10v-9v-10v-10v-10v-10v-10v-10v-10v-10v-10v-10v-10v-10v-10
v-10v-10v-10v-10v-10v-10v-10v-10v-10v-10v-10v-10v-10v-10v-9v-10v-10v-10v-10v-10v-10v-10v-10v-10v-10v-10v-10v-10h-9h-8h-9l-8 -7l-6 -8l-6 -7l-4 -6l-4 -7l-4 -11l-3 -10l-1 -11l1 -9l2 -7l4 -7l5 -6l7 -5l8 -4l10 -3l11 -2l13 -2h14v-10v-10v-10v-9v-10v-10zM339 93
h11l11 1l10 2l10 3l11 3l10 4l9 5l9 5l9 6l9 6l8 7l8 8l6 6l6 8l5 7l5 8l5 9l4 9l5 9l3 8l2 9l3 9l2 9l1 9l1 10l1 10v10v2v10l-1 10l-1 9l-1 9l-2 9l-3 9l-2 9l-3 9l-5 9l-4 9l-5 8l-5 9l-5 7l-6 8l-6 7l-8 7l-8 7l-9 6l-9 6l-9 5l-9 5l-10 4l-11 3l-10 3l-10 2l-11 1h-11
h-11l-11 -1l-10 -2l-10 -3l-11 -3l-9 -3l-10 -5l-9 -5l-9 -6l-8 -6l-8 -7l-7 -7l-6 -7l-6 -8l-5 -7l-5 -8l-5 -9l-4 -9l-4 -9l-3 -8l-3 -9l-2 -9l-2 -9l-1 -10l-1 -10l-1 -10v-10v-2v-10l1 -10l1 -10l1 -9l2 -9l2 -9l3 -9l3 -8l4 -9l4 -9l5 -9l5 -8l5 -7l6 -8l6 -6l8 -8
l7 -7l9 -6l8 -6l10 -5l9 -5l10 -4l10 -3l10 -3l10 -2l11 -1h11z" />
    <glyph glyph-name="Aring" unicode="&#xc5;" horiz-adv-x="830" 
d="M338 690l-8 6l-7 6l-7 8l-6 8l-5 8l-5 9l-3 10l-3 10l-1 10l-1 11v9l2 10l2 8l2 9l4 8l5 10l7 9l7 8l8 8l6 5l8 5l7 5l9 4l9 3l9 3l9 2l9 2l10 1h10h10l10 -1l9 -2l9 -2l9 -3l11 -4l10 -6l9 -6l9 -6l7 -8l7 -8l7 -9l5 -10l4 -8l2 -9l2 -8l2 -10v-9v-11l-2 -10l-2 -10
l-4 -9l-4 -9l-6 -9l-6 -7l-7 -8l-7 -7l-8 -6l4 -9l4 -9l4 -10l4 -9l4 -9l4 -9l4 -9l4 -10l4 -9l4 -9l4 -9l4 -9l4 -10l4 -9l4 -9l4 -9l4 -9l4 -10l5 -9l4 -9l4 -9l4 -9l4 -10l4 -9l4 -9l4 -9l4 -9l4 -10l4 -9l4 -9l4 -9l4 -9l4 -10l4 -9l4 -9l4 -9l4 -9l4 -10l4 -9l4 -9
l4 -9l4 -9l4 -10l4 -9l4 -9l4 -9l4 -9l4 -10l4 -9l4 -9l4 -9l4 -9l4 -10l4 -9l4 -9l4 -9l5 -9l4 -10l4 -9l4 -9l4 -9l4 -9l4 -10l4 -9l4 -9l4 -9l4 -9l4 -10l4 -9l4 -9l4 -9l4 -9l4 -10l4 -9l4 -9h-10h-10h-10h-10h-10h-10h-9h-10h-10h-10h-10h-10h-10l-4 9l-4 10l-4 9l-4 9
l-4 10l-4 9l-4 9l-4 10l-4 9l-4 9l-4 9l-4 10l-4 9l-4 9l-4 10l-4 9l-4 9l-4 10l-4 9h-10h-10h-10h-10h-10h-10h-10h-10h-10h-10h-10h-10h-10h-10h-10h-10h-10h-10h-10h-10h-10h-10h-10h-10h-10h-10h-10h-10h-10h-10h-10h-10h-10h-10h-10l-4 -9l-4 -10l-4 -9l-4 -9l-4 -10
l-4 -9l-4 -9l-4 -10l-4 -9l-4 -9l-4 -9l-4 -10l-4 -9l-4 -9l-4 -10l-4 -9l-4 -9l-4 -10l-4 -9h-10h-9h-10h-10h-9h-10h-10h-10h-9h-10h-10h-9h-10l4 9l4 9l4 10l4 9l4 9l4 9l4 9l4 10l4 9l4 9l4 9l4 9l4 10l4 9l4 9l4 9l4 9l4 10l5 9l4 9l4 9l4 9l4 10l4 9l4 9l4 9l4 9l4 10
l4 9l4 9l4 9l4 9l4 10l4 9l4 9l4 9l4 9l4 10l4 9l4 9l4 9l4 9l4 10l4 9l4 9l4 9l4 9l4 10l4 9l4 9l4 9l4 9l4 10l4 9l4 9l4 9l5 9l4 10l4 9l4 9l4 9l4 9l4 10l4 9l4 9l4 9l4 9l4 10l4 9l4 9l4 9l4 9l4 10l4 9zM543 287l-4 9l-4 9l-4 9l-4 9l-4 9l-4 10l-4 9l-4 9l-3 9l-4 9
l-4 9l-4 9l-4 9l-4 9l-4 9l-4 9l-4 10l-4 9l-4 9l-4 9l-4 9l-4 9l-4 9l-4 9l-3 9l-4 9l-4 9l-4 10l-4 9l-4 9l-4 9l-4 9l-4 9l-4 -9l-4 -9l-4 -9l-4 -9l-4 -9l-4 -10l-4 -9l-4 -9l-3 -9l-4 -9l-4 -9l-4 -9l-4 -9l-4 -9l-4 -9l-4 -9l-4 -10l-4 -9l-4 -9l-4 -9l-4 -9l-4 -9
l-4 -9l-4 -9l-3 -9l-4 -9l-4 -9l-4 -10l-4 -9l-4 -9l-4 -9l-4 -9l-4 -9h10h10h10h10h10h10h10h10h10h10h10h10h10h10h10h10h10h10h10h10h10h10h10h10h10h10zM415 715l11 1l11 2l9 3l9 5l8 7l7 7l5 8l4 9l2 9l1 10l-1 10l-2 9l-4 9l-5 8l-7 7l-8 6l-9 5l-9 3l-11 2l-11 1
l-12 -1l-10 -2l-10 -3l-9 -5l-8 -6l-7 -7l-5 -8l-4 -9l-2 -9l-1 -10l1 -10l2 -9l4 -9l5 -8l7 -7l8 -7l9 -5l10 -3l10 -2z" />
    <glyph glyph-name="aring" unicode="&#xe5;" horiz-adv-x="617" 
d="M243 -11h-10l-9 1l-10 1l-9 1l-9 1l-10 2l-9 2l-8 3l-10 3l-10 4l-9 4l-9 5l-9 5l-8 6l-8 6l-7 6l-8 7l-6 7l-6 7l-6 8l-5 9l-5 9l-4 9l-4 9l-3 10l-2 11l-2 10l-1 11v12v2v11l1 10l1 10l2 10l2 10l3 9l4 9l4 8l4 9l6 9l6 8l7 8l7 8l8 6l8 7l8 5l8 5l8 5l9 4l9 4l10 4
l10 3l10 3l9 2l10 2l10 2l10 2l10 1l11 1h10l11 1h11h12h11l11 -1h10l10 -1l10 -1l9 -2l10 -1l10 -2l10 -2l9 -2l10 -2l9 -3l10 -3l9 -3v14v12l-1 11l-2 10l-3 10l-3 10l-4 9l-4 8l-6 8l-6 7l-6 7l-7 5l-7 5l-8 4l-9 4l-8 4l-10 2l-10 3l-10 2l-11 1l-12 1h-12h-12l-11 -1
h-11l-10 -1l-11 -2l-10 -1l-9 -2l-9 -2l-10 -2l-9 -3l-9 -3l-9 -3l-10 -3l-9 -3l-10 -4l-9 -4l-3 9l-3 10l-4 9l-3 10l-3 9l-3 9l-3 10l-4 9l-3 10l-3 9l9 4l9 4l9 3l9 4l10 3l9 3l9 3l10 3l9 3l10 3l9 2l9 2l9 1l10 2l10 1l10 1l11 1l11 1l11 1h11h12h11l11 -1h10l10 -1
l10 -1l10 -2l9 -1l10 -2l8 -3l9 -2l9 -3l9 -4l10 -4l9 -4l9 -5l8 -5l8 -5l7 -6l7 -6l7 -6l7 -7l7 -8l6 -9l6 -8l5 -10l5 -9l4 -10l4 -10l3 -9l2 -9l2 -9l2 -9l2 -10l1 -10l1 -10v-10l1 -10v-11v-10v-10v-10v-10v-9v-10v-10v-10v-10v-10v-10v-10v-9v-10v-10v-10v-10v-10v-10
v-10v-9v-10v-10v-10v-10v-10v-10v-10v-9v-10v-10v-10v-10h-10h-9h-10h-10h-10h-9h-10h-10h-10h-9h-10h-10v10v10v10v10v10v10v10l-6 -7l-7 -8l-7 -6l-8 -7l-8 -7l-8 -6l-9 -6l-9 -5l-10 -5l-8 -5l-9 -3l-8 -4l-10 -2l-9 -3l-10 -2l-10 -2l-11 -1l-10 -1l-12 -1h-11zM275 77
h11l10 1l10 1l10 2l9 2l10 3l10 4l10 4l10 5l9 6l9 6l7 6l7 7l7 7l6 8l5 9l4 9l3 9l2 10l2 10v11v10v10v10v10l-9 3l-8 3l-10 2l-10 3l-10 2l-10 3l-10 1l-10 2l-10 1l-10 1h-10l-11 1h-11h-12l-12 -1l-11 -1l-11 -2l-10 -2l-9 -3l-9 -3l-9 -4l-7 -4l-7 -5l-9 -7l-7 -7
l-6 -7l-4 -9l-4 -9l-3 -9l-1 -10l-1 -11v-2l1 -12l2 -10l3 -10l4 -9l6 -9l8 -7l8 -7l8 -5l9 -5l9 -3l10 -3l9 -3l11 -2l11 -1h11zM310 617h-10l-9 1l-10 2l-9 3l-8 3l-9 4l-8 4l-7 5l-8 6l-6 6l-7 6l-6 7l-5 7l-4 8l-4 8l-4 9l-3 8l-1 9l-2 10v9v9l2 10l1 9l3 8l4 9l4 8l4 8
l5 7l6 7l7 7l6 6l8 6l7 5l8 4l9 4l8 3l9 3l10 2l9 1h10h10l9 -1l10 -2l9 -3l9 -3l8 -4l8 -4l8 -5l7 -6l7 -6l6 -7l6 -7l5 -7l4 -8l5 -8l3 -9l3 -8l1 -9l2 -10v-9v-9l-2 -10l-1 -9l-3 -8l-3 -9l-5 -8l-4 -8l-5 -7l-6 -7l-6 -6l-7 -6l-7 -6l-8 -5l-8 -4l-8 -4l-9 -3l-9 -3
l-10 -2l-9 -1h-10zM310 662l9 1l9 1l9 3l8 4l7 5l8 7l6 7l5 7l4 8l3 9l1 9l1 9l-1 9l-1 9l-3 9l-4 8l-5 7l-6 8l-8 6l-7 5l-8 4l-9 3l-9 1l-9 1l-9 -1l-9 -1l-9 -3l-8 -4l-7 -5l-7 -6l-7 -8l-5 -7l-4 -8l-3 -9l-1 -9l-1 -9l1 -9l1 -9l3 -9l4 -8l5 -7l7 -7l7 -7l7 -5l8 -4
l9 -3l9 -1z" />
    <glyph glyph-name="aring.alt" horiz-adv-x="705" 
d="M358 617h-10l-9 1l-10 2l-9 3l-8 3l-9 4l-8 4l-7 5l-8 6l-6 6l-7 6l-6 7l-5 7l-4 8l-4 8l-4 9l-3 8l-1 9l-2 10v9v9l2 10l1 9l3 8l4 9l4 8l4 8l5 7l6 7l7 7l6 6l8 6l7 5l8 4l9 4l8 3l9 3l10 2l9 1h10h10l9 -1l10 -2l9 -3l9 -3l8 -4l8 -4l8 -5l7 -6l7 -6l6 -7l6 -7l5 -7
l4 -8l5 -8l3 -9l3 -8l1 -9l2 -10v-9v-9l-2 -10l-1 -9l-3 -8l-3 -9l-5 -8l-4 -8l-5 -7l-6 -7l-6 -6l-7 -6l-7 -6l-8 -5l-8 -4l-8 -4l-9 -3l-9 -3l-10 -2l-9 -1h-10zM358 662l9 1l9 1l9 3l8 4l7 5l8 7l6 7l5 7l4 8l3 9l1 9l1 9l-1 9l-1 9l-3 9l-4 8l-5 7l-6 8l-8 6l-7 5l-8 4
l-9 3l-9 1l-9 1l-9 -1l-9 -1l-9 -3l-8 -4l-7 -5l-7 -6l-7 -8l-5 -7l-4 -8l-3 -9l-1 -9l-1 -9l1 -9l1 -9l3 -9l4 -8l5 -7l7 -7l7 -7l7 -5l8 -4l9 -3l9 -1zM311 -11h-10l-9 1l-10 1l-9 1l-9 2l-10 2l-9 2l-10 3l-9 3l-9 4l-9 4l-9 4l-9 5l-8 5l-8 5l-9 6l-7 6l-8 6l-8 7l-7 7
l-6 7l-7 7l-6 7l-5 7l-6 8l-5 8l-5 9l-5 8l-4 9l-4 10l-4 9l-4 9l-3 9l-3 9l-2 10l-3 10l-2 10l-1 10l-2 10l-1 11v11l-1 11v11v2v11l1 11v11l1 11l2 10l1 10l2 10l3 10l2 10l3 9l3 9l4 9l4 9l4 10l4 9l5 8l5 9l5 8l6 8l5 7l6 7l6 7l7 7l7 7l7 7l8 6l8 6l8 6l8 5l8 5l9 5
l9 4l9 4l9 4l10 3l9 3l9 2l10 2l9 2l10 1l10 1l9 1h10h11l11 -1l11 -1l10 -1l10 -2l10 -2l10 -3l9 -3l8 -4l9 -3l8 -5l8 -4l8 -6l9 -7l8 -6l8 -7l8 -6l7 -7l7 -7l7 -8l6 -7l6 -8v10v9v10v10v9v10v10v9v10h10h10h10h10h10h11h10h10h10h10h10h10v-10v-10v-10v-10v-10v-10v-10
v-10v-10v-10v-10v-10v-10v-9v-10v-10v-10v-10v-10v-10v-10v-10v-10v-10v-10v-10v-10v-10v-10v-10v-10v-10v-10v-10v-10v-10v-10v-10v-10v-10v-10v-9v-10v-10v-10v-10v-10v-10v-10v-10v-10v-10v-10v-10v-10h-10h-10h-10h-10h-10h-10h-11h-10h-10h-10h-10h-10v10v11v10v11v10
v11v10v11v10l-6 -9l-7 -8l-6 -8l-8 -8l-7 -8l-8 -7l-8 -7l-8 -7l-9 -7l-9 -5l-8 -5l-8 -4l-8 -4l-9 -4l-9 -3l-9 -3l-9 -2l-10 -2l-10 -2l-11 -1l-11 -1h-11zM339 93h11l11 1l10 2l10 3l11 3l10 4l9 5l9 5l9 6l9 6l8 7l8 8l6 6l6 8l5 7l5 8l5 9l4 9l5 9l3 8l2 9l3 9l2 9l1 9
l1 10l1 10v10v2v10l-1 10l-1 9l-1 9l-2 9l-3 9l-2 9l-3 9l-5 9l-4 9l-5 8l-5 9l-5 7l-6 8l-6 7l-8 7l-8 7l-9 6l-9 6l-9 5l-9 5l-10 4l-11 3l-10 3l-10 2l-11 1h-11h-11l-11 -1l-10 -2l-10 -3l-11 -3l-9 -3l-10 -5l-9 -5l-9 -6l-8 -6l-8 -7l-7 -7l-6 -7l-6 -8l-5 -7l-5 -8
l-5 -9l-4 -9l-4 -9l-3 -8l-3 -9l-2 -9l-2 -9l-1 -10l-1 -10l-1 -10v-10v-2v-10l1 -10l1 -10l1 -9l2 -9l2 -9l3 -9l3 -8l4 -9l4 -9l5 -9l5 -8l5 -7l6 -8l6 -6l8 -8l7 -7l9 -6l8 -6l10 -5l9 -5l10 -4l10 -3l10 -3l10 -2l11 -1h11z" />
    <glyph glyph-name="aring.alt2" horiz-adv-x="617" 
d="M243 -11h-10l-9 1l-10 1l-9 1l-9 1l-10 2l-9 2l-8 3l-10 3l-10 4l-9 4l-9 5l-9 5l-8 6l-8 6l-7 6l-8 7l-6 7l-6 7l-6 8l-5 9l-5 9l-4 9l-4 9l-3 10l-2 11l-2 10l-1 11v12v2v11l1 10l1 10l2 10l2 10l3 9l4 9l4 8l4 9l6 9l6 8l7 8l7 8l8 6l8 7l8 5l8 5l8 5l9 4l9 4l10 4
l10 3l10 3l9 2l10 2l10 2l10 2l10 1l11 1h10l11 1h11h12h11l11 -1h10l10 -1l10 -1l9 -2l10 -1l10 -2l10 -2l9 -2l10 -2l9 -3l10 -3l9 -3v14v12l-1 11l-2 10l-3 10l-3 10l-4 9l-4 8l-6 8l-6 7l-6 7l-7 5l-7 5l-8 4l-9 4l-8 4l-10 2l-10 3l-10 2l-11 1l-12 1h-12h-12l-11 -1
h-11l-10 -1l-11 -2l-10 -1l-9 -2l-9 -2l-10 -2l-9 -3l-9 -3l-9 -3l-10 -3l-9 -3l-10 -4l-9 -4l-3 9l-3 10l-4 9l-3 10l-3 9l-3 9l-3 10l-4 9l-3 10l-3 9l9 4l8 4l9 3l9 4l8 3l9 3l9 3l9 3l9 2l9 3l10 2l10 2l10 1l10 2l-7 7l-6 8l-5 7l-5 9l-3 8l-3 9l-2 9l-2 10v10v9l2 10
l1 9l3 8l4 9l4 8l4 8l5 7l6 7l7 7l6 5l8 6l7 5l8 4l9 4l8 3l9 3l10 2l9 1h10h10l9 -1l10 -2l9 -3l9 -3l8 -4l8 -4l8 -5l7 -6l7 -5l6 -7l6 -7l5 -7l4 -8l5 -8l3 -9l3 -8l1 -9l2 -10v-9v-10l-2 -9l-2 -10l-3 -8l-4 -9l-5 -8l-5 -8l-6 -7l-6 -7l-7 -6l10 -3l10 -3l9 -4l10 -4
l8 -4l9 -4l8 -5l7 -5l8 -6l6 -6l7 -6l7 -7l7 -8l6 -9l6 -8l5 -10l5 -9l4 -10l4 -10l3 -9l2 -9l2 -9l2 -9l2 -10l1 -10l1 -10v-10l1 -10v-11v-10v-10v-10v-10v-9v-10v-10v-10v-10v-10v-10v-10v-9v-10v-10v-10v-10v-10v-10v-10v-9v-10v-10v-10v-10v-10v-10v-10v-9v-10v-10v-10
v-10h-10h-9h-10h-10h-10h-9h-10h-10h-10h-9h-10h-10v10v10v10v10v10v10v10l-6 -7l-7 -8l-7 -6l-8 -7l-8 -7l-8 -6l-9 -6l-9 -5l-10 -5l-8 -5l-9 -3l-8 -4l-10 -2l-9 -3l-10 -2l-10 -2l-11 -1l-10 -1l-12 -1h-11zM275 77h11l10 1l10 1l10 2l9 2l10 3l10 4l10 4l10 5l9 6l9 6
l7 6l7 7l7 7l6 8l5 9l4 9l3 9l2 10l2 10v11v10v10v10v10l-9 3l-8 3l-10 2l-10 3l-10 2l-10 3l-10 1l-10 2l-10 1l-10 1h-10l-11 1h-11h-12l-12 -1l-11 -1l-11 -2l-10 -2l-9 -3l-9 -3l-9 -4l-7 -4l-7 -5l-9 -7l-7 -7l-6 -7l-4 -9l-4 -9l-3 -9l-1 -10l-1 -11v-2l1 -12l2 -10
l3 -10l4 -9l6 -9l8 -7l8 -7l8 -5l9 -5l9 -3l10 -3l9 -3l11 -2l11 -1h11zM240 626l1 -9l1 -9l3 -9l4 -8l5 -7l7 -7l7 -7l7 -5l8 -4l9 -3l9 -1l9 -1l9 1l9 1l9 3l8 4l7 5l8 7l6 7l5 7l4 8l3 9l1 9l1 9l-1 9l-1 9l-3 9l-4 8l-5 7l-6 8l-8 6l-7 5l-8 4l-9 3l-9 1l-9 1l-9 -1
l-9 -1l-9 -3l-8 -4l-7 -5l-7 -6l-7 -8l-5 -7l-4 -8l-3 -9l-1 -9z" />
    <glyph glyph-name="Aringacute" unicode="&#x1fa;" horiz-adv-x="830" 
d="M338 690l-8 6l-7 6l-7 8l-6 8l-5 8l-5 9l-3 10l-3 10l-1 10l-1 11v9l2 10l2 8l2 9l4 8l5 10l7 9l7 8l8 8l6 5l8 5l7 5l9 4l9 3l9 3l9 2l9 2l10 1h10h10l10 -1l9 -2l9 -2l9 -3l11 -4l10 -6l9 -6l9 -6l7 -8l7 -8l7 -9l5 -10l4 -8l2 -9l2 -8l2 -10v-9v-11l-2 -10l-2 -10
l-4 -9l-4 -9l-6 -9l-6 -7l-7 -8l-7 -7l-8 -6l4 -9l4 -9l4 -10l4 -9l4 -9l4 -9l4 -9l4 -10l4 -9l4 -9l4 -9l4 -9l4 -10l4 -9l4 -9l4 -9l4 -9l4 -10l5 -9l4 -9l4 -9l4 -9l4 -10l4 -9l4 -9l4 -9l4 -9l4 -10l4 -9l4 -9l4 -9l4 -9l4 -10l4 -9l4 -9l4 -9l4 -9l4 -10l4 -9l4 -9
l4 -9l4 -9l4 -10l4 -9l4 -9l4 -9l4 -9l4 -10l4 -9l4 -9l4 -9l4 -9l4 -10l4 -9l4 -9l4 -9l5 -9l4 -10l4 -9l4 -9l4 -9l4 -9l4 -10l4 -9l4 -9l4 -9l4 -9l4 -10l4 -9l4 -9l4 -9l4 -9l4 -10l4 -9l4 -9h-10h-10h-10h-10h-10h-10h-9h-10h-10h-10h-10h-10h-10l-4 9l-4 10l-4 9l-4 9
l-4 10l-4 9l-4 9l-4 10l-4 9l-4 9l-4 9l-4 10l-4 9l-4 9l-4 10l-4 9l-4 9l-4 10l-4 9h-10h-10h-10h-10h-10h-10h-10h-10h-10h-10h-10h-10h-10h-10h-10h-10h-10h-10h-10h-10h-10h-10h-10h-10h-10h-10h-10h-10h-10h-10h-10h-10h-10h-10h-10l-4 -9l-4 -10l-4 -9l-4 -9l-4 -10
l-4 -9l-4 -9l-4 -10l-4 -9l-4 -9l-4 -9l-4 -10l-4 -9l-4 -9l-4 -10l-4 -9l-4 -9l-4 -10l-4 -9h-10h-9h-10h-10h-9h-10h-10h-10h-9h-10h-10h-9h-10l4 9l4 9l4 10l4 9l4 9l4 9l4 9l4 10l4 9l4 9l4 9l4 9l4 10l4 9l4 9l4 9l4 9l4 10l5 9l4 9l4 9l4 9l4 10l4 9l4 9l4 9l4 9l4 10
l4 9l4 9l4 9l4 9l4 10l4 9l4 9l4 9l4 9l4 10l4 9l4 9l4 9l4 9l4 10l4 9l4 9l4 9l4 9l4 10l4 9l4 9l4 9l4 9l4 10l4 9l4 9l4 9l5 9l4 10l4 9l4 9l4 9l4 9l4 10l4 9l4 9l4 9l4 9l4 10l4 9l4 9l4 9l4 9l4 10l4 9zM543 287l-4 9l-4 9l-4 9l-4 9l-4 9l-4 10l-4 9l-4 9l-3 9l-4 9
l-4 9l-4 9l-4 9l-4 9l-4 9l-4 9l-4 10l-4 9l-4 9l-4 9l-4 9l-4 9l-4 9l-4 9l-3 9l-4 9l-4 9l-4 10l-4 9l-4 9l-4 9l-4 9l-4 9l-4 -9l-4 -9l-4 -9l-4 -9l-4 -9l-4 -10l-4 -9l-4 -9l-3 -9l-4 -9l-4 -9l-4 -9l-4 -9l-4 -9l-4 -9l-4 -9l-4 -10l-4 -9l-4 -9l-4 -9l-4 -9l-4 -9
l-4 -9l-4 -9l-3 -9l-4 -9l-4 -9l-4 -10l-4 -9l-4 -9l-4 -9l-4 -9l-4 -9h10h10h10h10h10h10h10h10h10h10h10h10h10h10h10h10h10h10h10h10h10h10h10h10h10h10zM415 715l11 1l11 2l9 3l9 5l8 7l7 7l5 8l4 9l2 9l1 10l-1 10l-2 9l-4 9l-5 8l-7 7l-8 6l-9 5l-9 3l-11 2l-11 1
l-12 -1l-10 -2l-10 -3l-9 -5l-8 -6l-7 -7l-5 -8l-4 -9l-2 -9l-1 -10l1 -10l2 -9l4 -9l5 -8l7 -7l8 -7l9 -5l10 -3l10 -2zM480 1046l9 -4l9 -4l9 -4l9 -4l9 -4l10 -4l9 -4l9 -4l9 -4l9 -4l9 -4l9 -4l-8 -5l-9 -5l-8 -6l-8 -5l-9 -5l-8 -5l-9 -6l-8 -5l-8 -5l-9 -5l-8 -6
l-8 -5l-9 -5l-8 -5l-9 -6l-8 -5h-9h-10h-9h-10h-9h-10h-9h-10h-9h-10l7 7l6 8l7 7l7 7l6 8l7 7l7 7l6 8l7 7l7 7l6 8l7 7l7 7l6 8l7 7l7 7l6 8z" />
    <glyph glyph-name="aringacute" unicode="&#x1fb;" horiz-adv-x="617" 
d="M243 -11h-10l-9 1l-10 1l-9 1l-9 1l-10 2l-9 2l-8 3l-10 3l-10 4l-9 4l-9 5l-9 5l-8 6l-8 6l-7 6l-8 7l-6 7l-6 7l-6 8l-5 9l-5 9l-4 9l-4 9l-3 10l-2 11l-2 10l-1 11v12v2v11l1 10l1 10l2 10l2 10l3 9l4 9l4 8l4 9l6 9l6 8l7 8l7 8l8 6l8 7l8 5l8 5l8 5l9 4l9 4l10 4
l10 3l10 3l9 2l10 2l10 2l10 2l10 1l11 1h10l11 1h11h12h11l11 -1h10l10 -1l10 -1l9 -2l10 -1l10 -2l10 -2l9 -2l10 -2l9 -3l10 -3l9 -3v14v12l-1 11l-2 10l-3 10l-3 10l-4 9l-4 8l-6 8l-6 7l-6 7l-7 5l-7 5l-8 4l-9 4l-8 4l-10 2l-10 3l-10 2l-11 1l-12 1h-12h-12l-11 -1
h-11l-10 -1l-11 -2l-10 -1l-9 -2l-9 -2l-10 -2l-9 -3l-9 -3l-9 -3l-10 -3l-9 -3l-10 -4l-9 -4l-3 9l-3 10l-4 9l-3 10l-3 9l-3 9l-3 10l-4 9l-3 10l-3 9l9 4l9 4l9 3l9 4l10 3l9 3l9 3l10 3l9 3l10 3l9 2l9 2l9 1l10 2l10 1l10 1l11 1l11 1l11 1h11h12h11l11 -1h10l10 -1
l10 -1l10 -2l9 -1l10 -2l8 -3l9 -2l9 -3l9 -4l10 -4l9 -4l9 -5l8 -5l8 -5l7 -6l7 -6l7 -6l7 -7l7 -8l6 -9l6 -8l5 -10l5 -9l4 -10l4 -10l3 -9l2 -9l2 -9l2 -9l2 -10l1 -10l1 -10v-10l1 -10v-11v-10v-10v-10v-10v-9v-10v-10v-10v-10v-10v-10v-10v-9v-10v-10v-10v-10v-10v-10
v-10v-9v-10v-10v-10v-10v-10v-10v-10v-9v-10v-10v-10v-10h-10h-9h-10h-10h-10h-9h-10h-10h-10h-9h-10h-10v10v10v10v10v10v10v10l-6 -7l-7 -8l-7 -6l-8 -7l-8 -7l-8 -6l-9 -6l-9 -5l-10 -5l-8 -5l-9 -3l-8 -4l-10 -2l-9 -3l-10 -2l-10 -2l-11 -1l-10 -1l-12 -1h-11zM275 77
h11l10 1l10 1l10 2l9 2l10 3l10 4l10 4l10 5l9 6l9 6l7 6l7 7l7 7l6 8l5 9l4 9l3 9l2 10l2 10v11v10v10v10v10l-9 3l-8 3l-10 2l-10 3l-10 2l-10 3l-10 1l-10 2l-10 1l-10 1h-10l-11 1h-11h-12l-12 -1l-11 -1l-11 -2l-10 -2l-9 -3l-9 -3l-9 -4l-7 -4l-7 -5l-9 -7l-7 -7
l-6 -7l-4 -9l-4 -9l-3 -9l-1 -10l-1 -11v-2l1 -12l2 -10l3 -10l4 -9l6 -9l8 -7l8 -7l8 -5l9 -5l9 -3l10 -3l9 -3l11 -2l11 -1h11zM310 617h-10l-9 1l-10 2l-9 3l-8 3l-9 4l-8 4l-7 5l-8 6l-6 6l-7 6l-6 7l-5 7l-4 8l-4 8l-4 9l-3 8l-1 9l-2 10v9v9l2 10l1 9l3 8l4 9l4 8l4 8
l5 7l6 7l7 7l6 6l8 6l7 5l8 4l9 4l8 3l9 3l10 2l9 1h10h10l9 -1l10 -2l9 -3l9 -3l8 -4l8 -4l8 -5l7 -6l7 -6l6 -7l6 -7l5 -7l4 -8l5 -8l3 -9l3 -8l1 -9l2 -10v-9v-9l-2 -10l-1 -9l-3 -8l-3 -9l-5 -8l-4 -8l-5 -7l-6 -7l-6 -6l-7 -6l-7 -6l-8 -5l-8 -4l-8 -4l-9 -3l-9 -3
l-10 -2l-9 -1h-10zM310 662l9 1l9 1l9 3l8 4l7 5l8 7l6 7l5 7l4 8l3 9l1 9l1 9l-1 9l-1 9l-3 9l-4 8l-5 7l-6 8l-8 6l-7 5l-8 4l-9 3l-9 1l-9 1l-9 -1l-9 -1l-9 -3l-8 -4l-7 -5l-7 -6l-7 -8l-5 -7l-4 -8l-3 -9l-1 -9l-1 -9l1 -9l1 -9l3 -9l4 -8l5 -7l7 -7l7 -7l7 -5l8 -4
l9 -3l9 -1zM374 1023l9 -4l9 -4l9 -4l9 -5l9 -4l9 -4l9 -4l9 -4l9 -4l9 -5l9 -4l9 -4l-8 -6l-8 -5l-8 -6l-8 -6l-9 -6l-8 -5l-8 -6l-8 -6l-8 -6l-8 -5l-8 -6l-8 -6l-9 -6l-8 -5l-8 -6l-8 -6h-10h-10h-10h-10h-11h-10h-10h-10h-10l6 8l7 8l6 8l6 8l6 7l7 8l6 8l6 8l7 8l6 8
l6 8l6 8l7 8l6 7l6 8l6 8l7 8z" />
    <glyph glyph-name="aringacute.alt" horiz-adv-x="705" 
d="M358 617h-10l-9 1l-10 2l-9 3l-8 3l-9 4l-8 4l-7 5l-8 6l-6 6l-7 6l-6 7l-5 7l-4 8l-4 8l-4 9l-3 8l-1 9l-2 10v9v9l2 10l1 9l3 8l4 9l4 8l4 8l5 7l6 7l7 7l6 6l8 6l7 5l8 4l9 4l8 3l9 3l10 2l9 1h10h10l9 -1l10 -2l9 -3l9 -3l8 -4l8 -4l8 -5l7 -6l7 -6l6 -7l6 -7l5 -7
l4 -8l5 -8l3 -9l3 -8l1 -9l2 -10v-9v-9l-2 -10l-1 -9l-3 -8l-3 -9l-5 -8l-4 -8l-5 -7l-6 -7l-6 -6l-7 -6l-7 -6l-8 -5l-8 -4l-8 -4l-9 -3l-9 -3l-10 -2l-9 -1h-10zM358 662l9 1l9 1l9 3l8 4l7 5l8 7l6 7l5 7l4 8l3 9l1 9l1 9l-1 9l-1 9l-3 9l-4 8l-5 7l-6 8l-8 6l-7 5l-8 4
l-9 3l-9 1l-9 1l-9 -1l-9 -1l-9 -3l-8 -4l-7 -5l-7 -6l-7 -8l-5 -7l-4 -8l-3 -9l-1 -9l-1 -9l1 -9l1 -9l3 -9l4 -8l5 -7l7 -7l7 -7l7 -5l8 -4l9 -3l9 -1zM311 -11h-10l-9 1l-10 1l-9 1l-9 2l-10 2l-9 2l-10 3l-9 3l-9 4l-9 4l-9 4l-9 5l-8 5l-8 5l-9 6l-7 6l-8 6l-8 7l-7 7
l-6 7l-7 7l-6 7l-5 7l-6 8l-5 8l-5 9l-5 8l-4 9l-4 10l-4 9l-4 9l-3 9l-3 9l-2 10l-3 10l-2 10l-1 10l-2 10l-1 11v11l-1 11v11v2v11l1 11v11l1 11l2 10l1 10l2 10l3 10l2 10l3 9l3 9l4 9l4 9l4 10l4 9l5 8l5 9l5 8l6 8l5 7l6 7l6 7l7 7l7 7l7 7l8 6l8 6l8 6l8 5l8 5l9 5
l9 4l9 4l9 4l10 3l9 3l9 2l10 2l9 2l10 1l10 1l9 1h10h11l11 -1l11 -1l10 -1l10 -2l10 -2l10 -3l9 -3l8 -4l9 -3l8 -5l8 -4l8 -6l9 -7l8 -6l8 -7l8 -6l7 -7l7 -7l7 -8l6 -7l6 -8v10v9v10v10v9v10v10v9v10h10h10h10h10h10h11h10h10h10h10h10h10v-10v-10v-10v-10v-10v-10v-10
v-10v-10v-10v-10v-10v-10v-9v-10v-10v-10v-10v-10v-10v-10v-10v-10v-10v-10v-10v-10v-10v-10v-10v-10v-10v-10v-10v-10v-10v-10v-10v-10v-10v-10v-9v-10v-10v-10v-10v-10v-10v-10v-10v-10v-10v-10v-10v-10h-10h-10h-10h-10h-10h-10h-11h-10h-10h-10h-10h-10v10v11v10v11v10
v11v10v11v10l-6 -9l-7 -8l-6 -8l-8 -8l-7 -8l-8 -7l-8 -7l-8 -7l-9 -7l-9 -5l-8 -5l-8 -4l-8 -4l-9 -4l-9 -3l-9 -3l-9 -2l-10 -2l-10 -2l-11 -1l-11 -1h-11zM339 93h11l11 1l10 2l10 3l11 3l10 4l9 5l9 5l9 6l9 6l8 7l8 8l6 6l6 8l5 7l5 8l5 9l4 9l5 9l3 8l2 9l3 9l2 9l1 9
l1 10l1 10v10v2v10l-1 10l-1 9l-1 9l-2 9l-3 9l-2 9l-3 9l-5 9l-4 9l-5 8l-5 9l-5 7l-6 8l-6 7l-8 7l-8 7l-9 6l-9 6l-9 5l-9 5l-10 4l-11 3l-10 3l-10 2l-11 1h-11h-11l-11 -1l-10 -2l-10 -3l-11 -3l-9 -3l-10 -5l-9 -5l-9 -6l-8 -6l-8 -7l-7 -7l-6 -7l-6 -8l-5 -7l-5 -8
l-5 -9l-4 -9l-4 -9l-3 -8l-3 -9l-2 -9l-2 -9l-1 -10l-1 -10l-1 -10v-10v-2v-10l1 -10l1 -10l1 -9l2 -9l2 -9l3 -9l3 -8l4 -9l4 -9l5 -9l5 -8l5 -7l6 -8l6 -6l8 -8l7 -7l9 -6l8 -6l10 -5l9 -5l10 -4l10 -3l10 -3l10 -2l11 -1h11zM422 1023l9 -4l9 -4l9 -4l9 -5l9 -4l9 -4
l9 -4l9 -4l9 -4l9 -5l9 -4l9 -4l-8 -6l-8 -5l-8 -6l-8 -6l-9 -6l-8 -5l-8 -6l-8 -6l-8 -6l-8 -5l-8 -6l-8 -6l-9 -6l-8 -5l-8 -6l-8 -6h-10h-10h-10h-10h-11h-10h-10h-10h-10l6 8l7 8l6 8l6 8l6 7l7 8l6 8l6 8l7 8l6 8l6 8l6 8l7 8l6 7l6 8l6 8l7 8z" />
    <glyph glyph-name="aringacute.alt2" horiz-adv-x="617" 
d="M243 -11h-10l-9 1l-10 1l-9 1l-9 1l-10 2l-9 2l-8 3l-10 3l-10 4l-9 4l-9 5l-9 5l-8 6l-8 6l-7 6l-8 7l-6 7l-6 7l-6 8l-5 9l-5 9l-4 9l-4 9l-3 10l-2 11l-2 10l-1 11v12v2v11l1 10l1 10l2 10l2 10l3 9l4 9l4 8l4 9l6 9l6 8l7 8l7 8l8 6l8 7l8 5l8 5l8 5l9 4l9 4l10 4
l10 3l10 3l9 2l10 2l10 2l10 2l10 1l11 1h10l11 1h11h12h11l11 -1h10l10 -1l10 -1l9 -2l10 -1l10 -2l10 -2l9 -2l10 -2l9 -3l10 -3l9 -3v14v12l-1 11l-2 10l-3 10l-3 10l-4 9l-4 8l-6 8l-6 7l-6 7l-7 5l-7 5l-8 4l-9 4l-8 4l-10 2l-10 3l-10 2l-11 1l-12 1h-12h-12l-11 -1
h-11l-10 -1l-11 -2l-10 -1l-9 -2l-9 -2l-10 -2l-9 -3l-9 -3l-9 -3l-10 -3l-9 -3l-10 -4l-9 -4l-3 9l-3 10l-4 9l-3 10l-3 9l-3 9l-3 10l-4 9l-3 10l-3 9l9 4l8 4l9 3l9 4l8 3l9 3l9 3l9 3l9 2l9 3l10 2l10 2l10 1l10 2l-7 7l-6 8l-5 7l-5 9l-3 8l-3 9l-2 9l-2 10v10v9l2 10
l1 9l3 8l4 9l4 8l4 8l5 7l6 7l7 7l6 5l8 6l7 5l8 4l9 4l8 3l9 3l10 2l9 1h10h10l9 -1l10 -2l9 -3l9 -3l8 -4l8 -4l8 -5l7 -6l7 -5l6 -7l6 -7l5 -7l4 -8l5 -8l3 -9l3 -8l1 -9l2 -10v-9v-10l-2 -9l-2 -10l-3 -8l-4 -9l-5 -8l-5 -8l-6 -7l-6 -7l-7 -6l10 -3l10 -3l9 -4l10 -4
l8 -4l9 -4l8 -5l7 -5l8 -6l6 -6l7 -6l7 -7l7 -8l6 -9l6 -8l5 -10l5 -9l4 -10l4 -10l3 -9l2 -9l2 -9l2 -9l2 -10l1 -10l1 -10v-10l1 -10v-11v-10v-10v-10v-10v-9v-10v-10v-10v-10v-10v-10v-10v-9v-10v-10v-10v-10v-10v-10v-10v-9v-10v-10v-10v-10v-10v-10v-10v-9v-10v-10v-10
v-10h-10h-9h-10h-10h-10h-9h-10h-10h-10h-9h-10h-10v10v10v10v10v10v10v10l-6 -7l-7 -8l-7 -6l-8 -7l-8 -7l-8 -6l-9 -6l-9 -5l-10 -5l-8 -5l-9 -3l-8 -4l-10 -2l-9 -3l-10 -2l-10 -2l-11 -1l-10 -1l-12 -1h-11zM275 77h11l10 1l10 1l10 2l9 2l10 3l10 4l10 4l10 5l9 6l9 6
l7 6l7 7l7 7l6 8l5 9l4 9l3 9l2 10l2 10v11v10v10v10v10l-9 3l-8 3l-10 2l-10 3l-10 2l-10 3l-10 1l-10 2l-10 1l-10 1h-10l-11 1h-11h-12l-12 -1l-11 -1l-11 -2l-10 -2l-9 -3l-9 -3l-9 -4l-7 -4l-7 -5l-9 -7l-7 -7l-6 -7l-4 -9l-4 -9l-3 -9l-1 -10l-1 -11v-2l1 -12l2 -10
l3 -10l4 -9l6 -9l8 -7l8 -7l8 -5l9 -5l9 -3l10 -3l9 -3l11 -2l11 -1h11zM240 626l1 -9l1 -9l3 -9l4 -8l5 -7l7 -7l7 -7l7 -5l8 -4l9 -3l9 -1l9 -1l9 1l9 1l9 3l8 4l7 5l8 7l6 7l5 7l4 8l3 9l1 9l1 9l-1 9l-1 9l-3 9l-4 8l-5 7l-6 8l-8 6l-7 5l-8 4l-9 3l-9 1l-9 1l-9 -1
l-9 -1l-9 -3l-8 -4l-7 -5l-7 -6l-7 -8l-5 -7l-4 -8l-3 -9l-1 -9zM374 920l9 -4l9 -4l9 -4l9 -5l9 -4l9 -4l9 -4l9 -4l9 -4l9 -5l9 -4l9 -4l-8 -6l-8 -5l-8 -6l-8 -6l-9 -6l-8 -5l-8 -6l-8 -6l-8 -6l-8 -5l-8 -6l-8 -6l-9 -6l-8 -5l-8 -6l-8 -6h-10h-10h-10h-10h-11h-10h-10
h-10h-10l6 8l7 8l6 8l6 8l6 7l7 8l6 8l6 8l7 8l6 8l6 8l6 8l7 8l6 7l6 8l6 8l7 8z" />
    <glyph glyph-name="Atilde" unicode="&#xc3;" horiz-adv-x="830" 
d="M358 733h10h11h10h10h11h10h11h10h10h11h10l4 -9l4 -9l4 -9l4 -10l4 -9l4 -9l4 -9l4 -9l4 -9l4 -10l4 -9l4 -9l4 -9l4 -9l4 -9l4 -10l4 -9l4 -9l4 -9l4 -9l4 -9l4 -10l4 -9l4 -9l4 -9l4 -9l4 -9l4 -10l4 -9l4 -9l4 -9l4 -9l4 -9l4 -10l4 -9l4 -9l4 -9l4 -9l4 -9l5 -9
l4 -10l4 -9l4 -9l4 -9l4 -9l4 -9l4 -10l4 -9l4 -9l4 -9l4 -9l4 -9l4 -10l4 -9l4 -9l4 -9l4 -9l4 -9l4 -10l4 -9l4 -9l4 -9l4 -9l4 -9l4 -10l4 -9l4 -9l4 -9l4 -9l4 -9l4 -10l4 -9l4 -9l4 -9l4 -9l4 -9l4 -10l4 -9l4 -9l4 -9h-10h-10h-10h-10h-10h-10h-9h-10h-10h-10h-10h-10
h-10l-4 9l-4 10l-4 9l-4 9l-4 10l-4 9l-4 9l-4 10l-4 9l-4 9l-4 9l-4 10l-4 9l-4 9l-4 10l-4 9l-4 9l-4 10l-4 9h-10h-10h-10h-10h-10h-10h-10h-10h-10h-10h-10h-10h-10h-10h-10h-10h-10h-10h-10h-10h-10h-10h-10h-10h-10h-10h-10h-10h-10h-10h-10h-10h-10h-10h-10l-4 -9
l-4 -10l-4 -9l-4 -9l-4 -10l-4 -9l-4 -9l-4 -10l-4 -9l-4 -9l-4 -9l-4 -10l-4 -9l-4 -9l-4 -10l-4 -9l-4 -9l-4 -10l-4 -9h-10h-9h-10h-10h-9h-10h-10h-10h-9h-10h-10h-9h-10l4 9l4 9l4 9l4 10l4 9l4 9l4 9l4 9l4 9l4 10l4 9l4 9l4 9l4 9l4 9l4 10l4 9l4 9l4 9l5 9l4 9l4 10
l4 9l4 9l4 9l4 9l4 9l4 10l4 9l4 9l4 9l4 9l4 9l4 10l4 9l4 9l4 9l4 9l4 9l4 10l4 9l4 9l4 9l4 9l4 9l4 9l4 10l4 9l4 9l4 9l4 9l4 9l4 10l4 9l4 9l4 9l4 9l4 9l4 10l5 9l4 9l4 9l4 9l4 9l4 10l4 9l4 9l4 9l4 9l4 9l4 10l4 9l4 9l4 9l4 9l4 9l4 10l4 9l4 9zM543 287l-4 9
l-4 9l-4 9l-4 9l-4 9l-4 10l-4 9l-4 9l-3 9l-4 9l-4 9l-4 9l-4 9l-4 9l-4 9l-4 9l-4 10l-4 9l-4 9l-4 9l-4 9l-4 9l-4 9l-4 9l-3 9l-4 9l-4 9l-4 10l-4 9l-4 9l-4 9l-4 9l-4 9l-4 -9l-4 -9l-4 -9l-4 -9l-4 -9l-4 -10l-4 -9l-4 -9l-3 -9l-4 -9l-4 -9l-4 -9l-4 -9l-4 -9l-4 -9
l-4 -9l-4 -10l-4 -9l-4 -9l-4 -9l-4 -9l-4 -9l-4 -9l-4 -9l-3 -9l-4 -9l-4 -9l-4 -10l-4 -9l-4 -9l-4 -9l-4 -9l-4 -9h10h10h10h10h10h10h10h10h10h10h10h10h10h10h10h10h10h10h10h10h10h10h10h10h10h10zM500 799h-9l-9 1l-10 2l-9 2l-9 3l-9 3l-9 3l-9 3l-9 3l-9 3l-11 4
l-11 4l-10 4l-10 3l-10 1l-8 1l-11 -1l-9 -2l-8 -4l-7 -5l-6 -7l-6 -8l-5 -11l-6 -12l-10 3l-9 3l-10 3l-10 2l-10 3l-9 3l-10 3l3 12l4 11l4 11l4 10l4 9l4 9l5 9l5 8l4 7l6 7l6 8l8 6l8 6l8 5l10 3l10 3l11 1l11 1h9l9 -1l10 -2l9 -2l9 -2l9 -4l9 -3l9 -3l9 -3l9 -4l11 -4
l11 -4l11 -4l9 -3l10 -1l8 -1l11 1l9 2l8 4l7 5l5 7l6 9l5 10l6 12l10 -3l9 -3l10 -3l10 -2l10 -3l9 -3l10 -3l-3 -12l-4 -11l-4 -11l-4 -10l-4 -9l-4 -9l-5 -9l-5 -7l-4 -8l-5 -6l-7 -8l-8 -7l-8 -5l-8 -5l-9 -3l-10 -3l-11 -1z" />
    <glyph glyph-name="atilde" unicode="&#xe3;" horiz-adv-x="617" 
d="M243 -11h-10l-9 1l-10 1l-9 1l-9 1l-10 2l-9 2l-8 3l-10 3l-10 4l-9 4l-9 5l-9 5l-8 6l-8 6l-7 6l-8 7l-6 7l-6 7l-6 8l-5 9l-5 9l-4 9l-4 9l-3 10l-2 11l-2 10l-1 11v12v2v11l1 10l1 10l2 10l2 10l3 9l4 9l4 8l4 9l6 9l6 8l7 8l7 8l8 6l8 7l8 5l8 5l8 5l9 4l9 4l10 4
l10 3l10 3l9 2l10 2l10 2l10 2l10 1l11 1h10l11 1h11h12h11l11 -1h10l10 -1l10 -1l9 -2l10 -1l10 -2l10 -2l9 -2l10 -2l9 -3l10 -3l9 -3v14v12l-1 11l-2 10l-3 10l-3 10l-4 9l-4 8l-6 8l-6 7l-6 7l-7 5l-7 5l-8 4l-9 4l-8 4l-10 2l-10 3l-10 2l-11 1l-12 1h-12h-12l-11 -1
h-11l-10 -1l-11 -2l-10 -1l-9 -2l-9 -2l-10 -2l-9 -3l-9 -3l-9 -3l-10 -3l-9 -3l-10 -4l-9 -4l-3 9l-3 10l-4 9l-3 10l-3 9l-3 9l-3 10l-4 9l-3 10l-3 9l9 4l9 4l9 3l9 4l10 3l9 3l9 3l10 3l9 3l10 3l9 2l9 2l9 1l10 2l10 1l10 1l11 1l11 1l11 1h11h12h11l11 -1h10l10 -1
l10 -1l10 -2l9 -1l10 -2l8 -3l9 -2l9 -3l9 -4l10 -4l9 -4l9 -5l8 -5l8 -5l7 -6l7 -6l7 -6l7 -7l7 -8l6 -9l6 -8l5 -10l5 -9l4 -10l4 -10l3 -9l2 -9l2 -9l2 -9l2 -10l1 -10l1 -10v-10l1 -10v-11v-10v-10v-10v-10v-9v-10v-10v-10v-10v-10v-10v-10v-9v-10v-10v-10v-10v-10v-10
v-10v-9v-10v-10v-10v-10v-10v-10v-10v-9v-10v-10v-10v-10h-10h-9h-10h-10h-10h-9h-10h-10h-10h-9h-10h-10v10v10v10v10v10v10v10l-6 -7l-7 -8l-7 -6l-8 -7l-8 -7l-8 -6l-9 -6l-9 -5l-10 -5l-8 -5l-9 -3l-8 -4l-10 -2l-9 -3l-10 -2l-10 -2l-11 -1l-10 -1l-12 -1h-11zM275 77
h11l10 1l10 1l10 2l9 2l10 3l10 4l10 4l10 5l9 6l9 6l7 6l7 7l7 7l6 8l5 9l4 9l3 9l2 10l2 10v11v10v10v10v10l-9 3l-8 3l-10 2l-10 3l-10 2l-10 3l-10 1l-10 2l-10 1l-10 1h-10l-11 1h-11h-12l-12 -1l-11 -1l-11 -2l-10 -2l-9 -3l-9 -3l-9 -4l-7 -4l-7 -5l-9 -7l-7 -7
l-6 -7l-4 -9l-4 -9l-3 -9l-1 -10l-1 -11v-2l1 -12l2 -10l3 -10l4 -9l6 -9l8 -7l8 -7l8 -5l9 -5l9 -3l10 -3l9 -3l11 -2l11 -1h11zM393 619h-11l-11 2l-11 2l-11 3l-10 4l-11 3l-10 4l-10 4l-9 4l-8 3l-9 4l-8 3l-10 3l-10 1l-9 1l-11 -1l-9 -2l-8 -4l-6 -5l-6 -8l-6 -8
l-5 -11l-6 -12l-10 3l-9 3l-10 3l-9 2l-10 3l-9 3l-10 3l3 12l4 12l4 11l4 10l4 10l4 9l5 9l4 8l5 7l5 7l7 8l7 6l8 6l9 4l9 4l10 2l11 2h11h11l12 -2l10 -2l11 -3l10 -4l11 -3l10 -4l10 -4l9 -4l9 -3l8 -4l8 -2l10 -4l10 -1l9 -1l11 1l9 2l8 4l7 6l5 7l6 8l5 11l6 12l10 -3
l9 -3l10 -3l9 -2l10 -3l9 -3l10 -3l-3 -12l-4 -12l-4 -11l-4 -10l-4 -10l-4 -9l-5 -9l-4 -8l-5 -7l-5 -7l-7 -7l-7 -7l-8 -5l-8 -5l-10 -3l-10 -3l-11 -1z" />
    <glyph glyph-name="atilde.alt" horiz-adv-x="705" 
d="M311 -11h-10l-9 1l-10 1l-9 1l-9 2l-10 2l-9 2l-10 3l-9 3l-9 4l-9 4l-9 4l-9 5l-8 5l-8 5l-9 6l-7 6l-8 6l-8 7l-7 7l-6 7l-7 7l-6 7l-5 7l-6 8l-5 8l-5 9l-5 8l-4 9l-4 10l-4 9l-4 9l-3 9l-3 9l-2 10l-3 10l-2 10l-1 10l-2 10l-1 11v11l-1 11v11v2v11l1 11v11l1 11
l2 10l1 10l2 10l3 10l2 10l3 9l3 9l4 9l4 9l4 10l4 9l5 8l5 9l5 8l6 8l5 7l6 7l6 7l7 7l7 7l7 7l8 6l8 6l8 6l8 5l8 5l9 5l9 4l9 4l9 4l10 3l9 3l9 2l10 2l9 2l10 1l10 1l9 1h10h11l11 -1l11 -1l10 -1l10 -2l10 -2l10 -3l9 -3l8 -4l9 -3l8 -5l8 -4l8 -6l9 -7l8 -6l8 -7l8 -6
l7 -7l7 -7l7 -8l6 -7l6 -8v10v9v10v10v9v10v10v9v10h10h10h10h10h10h11h10h10h10h10h10h10v-10v-10v-10v-10v-10v-10v-10v-10v-10v-10v-10v-10v-10v-9v-10v-10v-10v-10v-10v-10v-10v-10v-10v-10v-10v-10v-10v-10v-10v-10v-10v-10v-10v-10v-10v-10v-10v-10v-10v-10v-10v-9
v-10v-10v-10v-10v-10v-10v-10v-10v-10v-10v-10v-10v-10h-10h-10h-10h-10h-10h-10h-11h-10h-10h-10h-10h-10v10v11v10v11v10v11v10v11v10l-6 -9l-7 -8l-6 -8l-8 -8l-7 -8l-8 -7l-8 -7l-8 -7l-9 -7l-9 -5l-8 -5l-8 -4l-8 -4l-9 -4l-9 -3l-9 -3l-9 -2l-10 -2l-10 -2l-11 -1
l-11 -1h-11zM339 93h11l11 1l10 2l10 3l11 3l10 4l9 5l9 5l9 6l9 6l8 7l8 8l6 6l6 8l5 7l5 8l5 9l4 9l5 9l3 8l2 9l3 9l2 9l1 9l1 10l1 10v10v2v10l-1 10l-1 9l-1 9l-2 9l-3 9l-2 9l-3 9l-5 9l-4 9l-5 8l-5 9l-5 7l-6 8l-6 7l-8 7l-8 7l-9 6l-9 6l-9 5l-9 5l-10 4l-11 3
l-10 3l-10 2l-11 1h-11h-11l-11 -1l-10 -2l-10 -3l-11 -3l-9 -3l-10 -5l-9 -5l-9 -6l-8 -6l-8 -7l-7 -7l-6 -7l-6 -8l-5 -7l-5 -8l-5 -9l-4 -9l-4 -9l-3 -8l-3 -9l-2 -9l-2 -9l-1 -10l-1 -10l-1 -10v-10v-2v-10l1 -10l1 -10l1 -9l2 -9l2 -9l3 -9l3 -8l4 -9l4 -9l5 -9l5 -8
l5 -7l6 -8l6 -6l8 -8l7 -7l9 -6l8 -6l10 -5l9 -5l10 -4l10 -3l10 -3l10 -2l11 -1h11zM442 619h-11l-11 2l-11 2l-11 3l-10 4l-11 3l-10 4l-10 4l-9 4l-8 3l-9 4l-8 3l-10 3l-10 1l-9 1l-11 -1l-9 -2l-8 -4l-6 -5l-6 -8l-6 -8l-5 -11l-6 -12l-10 3l-9 3l-10 3l-9 2l-10 3
l-9 3l-10 3l3 12l4 12l4 11l4 10l4 10l4 9l5 9l4 8l5 7l5 7l7 8l7 6l8 6l9 4l9 4l10 2l11 2h11h11l12 -2l10 -2l11 -3l10 -4l11 -3l10 -4l10 -4l9 -4l9 -3l8 -4l8 -2l10 -4l10 -1l9 -1l11 1l9 2l8 4l7 6l5 7l6 8l5 11l6 12l10 -3l9 -3l10 -3l9 -2l10 -3l9 -3l10 -3l-3 -12
l-4 -12l-4 -11l-4 -10l-4 -10l-4 -9l-5 -9l-4 -8l-5 -7l-5 -7l-7 -7l-7 -7l-8 -5l-8 -5l-10 -3l-10 -3l-11 -1z" />
    <glyph glyph-name="Cacute" unicode="&#x106;" horiz-adv-x="777" 
d="M436 -12h-11l-10 1h-10l-11 1l-10 1l-10 2l-10 1l-10 2l-9 2l-10 3l-10 3l-9 3l-9 3l-9 3l-9 4l-10 4l-9 5l-10 4l-9 5l-8 5l-9 6l-8 5l-9 6l-8 6l-8 6l-7 7l-8 7l-7 6l-7 8l-7 7l-7 7l-7 8l-6 8l-6 8l-6 8l-6 9l-5 8l-5 9l-5 9l-5 9l-5 9l-4 10l-4 10l-4 9l-3 9l-3 9
l-3 10l-3 9l-2 10l-2 10l-2 9l-2 10l-1 10l-1 10l-1 10l-1 10v11v10v2v10v11l1 10l1 10l1 10l1 10l2 10l2 9l2 10l2 10l3 9l3 10l3 9l3 9l4 10l4 9l4 10l5 9l5 9l5 9l5 9l5 9l6 8l6 8l6 8l6 8l7 8l7 8l7 7l7 7l7 7l8 7l7 6l8 7l9 6l8 6l8 5l9 6l9 5l9 5l10 5l9 4l10 5l9 3
l10 4l9 3l10 3l9 3l10 2l10 3l10 2l10 1l11 2l10 1l11 1h10l11 1h11h11h11l10 -1l11 -1h10l10 -2l9 -1l10 -1l9 -2l10 -2l10 -2l10 -3l9 -3l10 -3l9 -3l9 -3l9 -4l9 -4l10 -5l9 -5l9 -5l9 -5l9 -6l8 -6l8 -6l8 -6l8 -7l8 -6l8 -7l8 -7l7 -7l-7 -8l-6 -7l-7 -8l-7 -7l-6 -8
l-7 -7l-7 -8l-6 -8l-7 -7l-7 -8l-6 -7l-7 -8l-8 7l-8 8l-8 7l-9 6l-8 7l-8 6l-9 5l-9 6l-8 5l-9 5l-9 5l-8 3l-9 4l-8 3l-9 3l-9 3l-10 2l-9 2l-10 1l-10 1l-10 1l-10 1h-11h-11l-10 -1l-10 -1l-10 -1l-10 -2l-10 -2l-9 -3l-10 -3l-9 -4l-9 -3l-9 -5l-8 -4l-9 -5l-8 -5
l-8 -6l-7 -5l-8 -6l-7 -7l-7 -6l-6 -7l-7 -7l-6 -8l-6 -7l-5 -8l-5 -8l-5 -9l-5 -8l-5 -9l-4 -10l-3 -9l-4 -10l-3 -9l-3 -10l-2 -10l-2 -10l-2 -11l-1 -10l-1 -11l-1 -10v-11v-2v-10l1 -10v-9l1 -10l2 -10l2 -9l1 -9l3 -9l2 -9l3 -9l4 -9l3 -9l4 -10l5 -9l5 -8l5 -9l5 -8
l5 -8l6 -8l6 -7l7 -7l6 -7l7 -7l7 -6l8 -6l7 -6l8 -6l8 -5l9 -5l8 -4l9 -4l9 -4l9 -4l10 -3l9 -3l10 -2l10 -2l10 -1l10 -1l10 -1h11h11l11 1l11 1l10 1l10 1l10 2l10 3l9 2l9 3l9 3l8 4l9 4l8 4l8 5l8 5l8 5l8 5l8 6l8 6l8 6l7 7l8 7l8 7l8 7l7 -7l7 -8l8 -7l7 -7l7 -7
l7 -8l7 -7l7 -7l8 -7l7 -8l7 -7l-7 -7l-8 -7l-7 -7l-7 -7l-8 -6l-7 -7l-8 -6l-7 -6l-8 -6l-8 -6l-8 -5l-8 -5l-8 -5l-9 -5l-8 -4l-9 -4l-9 -5l-9 -3l-9 -4l-10 -3l-9 -3l-10 -3l-11 -3l-10 -2l-9 -2l-10 -2l-10 -1l-10 -1l-10 -1l-11 -1l-11 -1h-11h-11zM496 948l9 -4l9 -4
l10 -4l9 -4l9 -4l9 -4l9 -5l9 -4l10 -4l9 -4l9 -4l9 -4l-8 -6l-8 -6l-9 -7l-8 -6l-8 -6l-8 -6l-8 -7l-8 -6l-9 -6l-8 -6l-8 -7l-8 -6l-8 -6l-9 -6l-8 -7l-8 -6h-10h-11h-10h-11h-10h-11h-10h-11h-10l6 8l6 8l6 8l6 7l6 8l6 8l6 8l6 8l6 8l7 7l6 8l6 8l6 8l6 8l6 8l6 7l6 8
l6 8z" />
    <glyph glyph-name="cacute" unicode="&#x107;" horiz-adv-x="602" 
d="M391 787l9 -4l9 -4l10 -4l9 -5l9 -4l9 -4l9 -4l9 -4l10 -4l9 -5l9 -4l9 -4l-7 -7l-8 -7l-7 -7l-8 -7l-7 -7l-7 -7l-8 -7l-7 -7l-8 -6l-7 -7l-8 -7l-7 -7l-7 -7l-8 -7l-7 -7l-8 -7l-7 -7h-10h-10h-10h-10h-11h-10h-10h-10h-10l5 8l6 9l5 8l5 9l6 8l5 8l5 9l6 8l5 9l6 8
l5 8l5 9l6 8l5 9l5 8l6 8l5 9l5 8l6 9zM337 -12h-10l-10 1h-10l-10 1l-9 2l-10 2l-9 2l-9 2l-9 3l-9 3l-9 3l-9 4l-9 4l-9 4l-9 5l-9 5l-8 5l-8 6l-8 6l-8 6l-7 6l-8 7l-6 7l-7 7l-7 7l-6 7l-6 8l-5 8l-6 8l-5 9l-5 8l-4 9l-4 9l-4 10l-4 9l-4 9l-3 10l-2 10l-3 10l-2 10
l-1 10l-1 10l-1 10l-1 11v10v2v10l1 11l1 10l1 10l1 10l2 10l3 10l2 10l3 10l4 9l4 10l4 9l4 9l4 9l5 9l5 9l6 8l5 8l6 8l6 7l7 8l7 7l6 7l8 7l7 6l8 6l8 6l8 6l8 5l9 5l9 5l9 5l9 4l9 4l9 3l9 3l9 3l9 2l10 2l9 2l10 1l10 2h10l10 1h10h12l11 -1h11l11 -2l11 -1l10 -2
l10 -2l9 -2l10 -3l9 -3l8 -3l9 -4l8 -3l9 -5l9 -6l9 -5l9 -6l8 -6l9 -6l8 -7l7 -6l8 -7l7 -7l7 -8l-7 -7l-7 -8l-7 -7l-7 -7l-7 -8l-6 -7l-7 -8l-7 -7l-7 -7l-7 -8l-7 -7l-7 8l-8 7l-7 7l-8 6l-8 6l-8 6l-8 6l-8 5l-9 5l-9 4l-10 3l-10 3l-10 2l-11 2l-11 1h-12h-10l-10 -1
l-9 -2l-9 -2l-9 -2l-9 -3l-9 -4l-8 -4l-8 -5l-8 -5l-8 -5l-7 -6l-7 -7l-6 -6l-6 -8l-6 -7l-5 -8l-5 -8l-4 -9l-4 -8l-4 -9l-3 -10l-3 -9l-2 -10l-2 -10l-1 -10l-1 -11v-10v-2v-11l1 -10l1 -11l2 -10l2 -9l3 -10l4 -9l3 -10l4 -8l5 -9l5 -8l5 -8l6 -7l7 -7l6 -7l7 -7l7 -6
l8 -5l8 -5l8 -5l9 -4l9 -4l9 -3l10 -2l9 -2l10 -2l11 -1h10h11l11 1l10 2l10 2l10 2l10 4l9 4l9 4l8 5l9 5l8 6l8 6l8 6l8 7l8 7l8 8l7 -7l8 -7l7 -7l7 -7l8 -7l7 -8l7 -7l7 -7l8 -7l7 -7l-7 -7l-7 -8l-7 -6l-8 -7l-7 -7l-8 -6l-8 -6l-8 -6l-8 -5l-8 -6l-8 -5l-9 -5l-8 -4
l-7 -4l-9 -3l-8 -3l-9 -3l-9 -3l-9 -2l-9 -2l-10 -1l-10 -2l-10 -1h-11l-11 -1h-11z" />
    <glyph glyph-name="Ccaron" unicode="&#x10c;" horiz-adv-x="777" 
d="M436 -12h-11l-10 1h-10l-11 1l-10 1l-10 2l-10 1l-10 2l-9 2l-10 3l-10 3l-9 3l-9 3l-9 3l-9 4l-10 4l-9 5l-10 4l-9 5l-8 5l-9 6l-8 5l-9 6l-8 6l-8 6l-7 7l-8 7l-7 6l-7 8l-7 7l-7 7l-7 8l-6 8l-6 8l-6 8l-6 9l-5 8l-5 9l-5 9l-5 9l-5 9l-4 10l-4 10l-4 9l-3 9l-3 9
l-3 10l-3 9l-2 10l-2 10l-2 9l-2 10l-1 10l-1 10l-1 10l-1 10v11v10v2v10v11l1 10l1 10l1 10l1 10l2 10l2 9l2 10l2 10l3 9l3 10l3 9l3 9l4 10l4 9l4 10l5 9l5 9l5 9l5 9l5 9l6 8l6 8l6 8l6 8l7 8l7 8l7 7l7 7l7 7l8 7l7 6l8 7l9 6l8 6l8 5l9 6l9 5l9 5l10 5l9 4l10 5l9 3
l10 4l9 3l10 3l9 3l10 2l10 3l10 2l10 1l11 2l10 1l11 1h10l11 1h11h11h11l10 -1l11 -1h10l10 -2l9 -1l10 -1l9 -2l10 -2l10 -2l10 -3l9 -3l10 -3l9 -3l9 -3l9 -4l9 -4l10 -5l9 -5l9 -5l9 -5l9 -6l8 -6l8 -6l8 -6l8 -7l8 -6l8 -7l8 -7l7 -7l-7 -8l-6 -7l-7 -8l-7 -7l-6 -8
l-7 -7l-7 -8l-6 -8l-7 -7l-7 -8l-6 -7l-7 -8l-8 7l-8 8l-8 7l-9 6l-8 7l-8 6l-9 5l-9 6l-8 5l-9 5l-9 5l-8 3l-9 4l-8 3l-9 3l-9 3l-10 2l-9 2l-10 1l-10 1l-10 1l-10 1h-11h-11l-10 -1l-10 -1l-10 -1l-10 -2l-10 -2l-9 -3l-10 -3l-9 -4l-9 -3l-9 -5l-8 -4l-9 -5l-8 -5
l-8 -6l-7 -5l-8 -6l-7 -7l-7 -6l-6 -7l-7 -7l-6 -8l-6 -7l-5 -8l-5 -8l-5 -9l-5 -8l-5 -9l-4 -10l-3 -9l-4 -10l-3 -9l-3 -10l-2 -10l-2 -10l-2 -11l-1 -10l-1 -11l-1 -10v-11v-2v-10l1 -10v-9l1 -10l2 -10l2 -9l1 -9l3 -9l2 -9l3 -9l4 -9l3 -9l4 -10l5 -9l5 -8l5 -9l5 -8
l5 -8l6 -8l6 -7l7 -7l6 -7l7 -7l7 -6l8 -6l7 -6l8 -6l8 -5l9 -5l8 -4l9 -4l9 -4l9 -4l10 -3l9 -3l10 -2l10 -2l10 -1l10 -1l10 -1h11h11l11 1l11 1l10 1l10 1l10 2l10 3l9 2l9 3l9 3l8 4l9 4l8 4l8 5l8 5l8 5l8 5l8 6l8 6l8 6l7 7l8 7l8 7l8 7l7 -7l7 -8l8 -7l7 -7l7 -7
l7 -8l7 -7l7 -7l8 -7l7 -8l7 -7l-7 -7l-8 -7l-7 -7l-7 -7l-8 -6l-7 -7l-8 -6l-7 -6l-8 -6l-8 -6l-8 -5l-8 -5l-8 -5l-9 -5l-8 -4l-9 -4l-9 -5l-9 -3l-9 -4l-10 -3l-9 -3l-10 -3l-11 -3l-10 -2l-9 -2l-10 -2l-10 -1l-10 -1l-10 -1l-11 -1l-11 -1h-11h-11zM487 799h-10h-11
h-10h-10h-11h-10h-11h-10h-10h-11h-10l-7 7l-6 8l-7 7l-6 7l-7 7l-6 8l-7 7l-6 7l-7 7l-6 8l-7 7l-6 7l-7 7l-6 8l-7 7l-6 7l-7 7l-6 8l-7 7h10h10h11h10h10h10h10h11h10h10l8 -6l8 -6l8 -6l8 -6l8 -6l8 -6l8 -6l8 -6l8 -6l8 -6l8 6l8 6l8 6l8 6l8 6l8 6l8 6l8 6l8 6l8 6h10
h10h10h10h10h10h10h10h10h10l-7 -7l-6 -8l-7 -7l-6 -7l-7 -7l-6 -8l-7 -7l-6 -7l-7 -7l-6 -8l-7 -7l-6 -7l-7 -7l-6 -8l-7 -7l-6 -7l-7 -7l-6 -8z" />
    <glyph glyph-name="ccaron" unicode="&#x10d;" horiz-adv-x="602" 
d="M388 619h-10h-10h-11h-10h-10h-10h-10h-10h-11h-10h-10l-6 8l-7 8l-6 8l-6 8l-6 7l-7 8l-6 8l-6 8l-6 8l-7 8l-6 8l-6 8l-6 8l-7 8l-6 7l-6 8l-6 8l-7 8l-6 8h10h9h10h9h10h10h9h10h9h10l7 -6l8 -7l7 -6l7 -6l7 -6l8 -7l7 -6l7 -6l7 -6l8 -7l7 -6l7 6l8 7l7 6l7 6l7 6
l8 7l7 6l7 6l7 6l8 7l7 6h10h9h10h9h10h9h10h9h10h9l-6 -8l-7 -8l-6 -8l-6 -8l-7 -7l-6 -8l-6 -8l-7 -8l-6 -8l-6 -8l-6 -8l-7 -8l-6 -8l-6 -8l-7 -7l-6 -8l-6 -8l-7 -8zM337 -12h-10l-10 1h-10l-10 1l-9 2l-10 2l-9 2l-9 2l-9 3l-9 3l-9 3l-9 4l-9 4l-9 4l-9 5l-9 5l-8 5
l-8 6l-8 6l-8 6l-7 6l-8 7l-6 7l-7 7l-7 7l-6 7l-6 8l-5 8l-6 8l-5 9l-5 8l-4 9l-4 9l-4 10l-4 9l-4 9l-3 10l-2 10l-3 10l-2 10l-1 10l-1 10l-1 10l-1 11v10v2v10l1 11l1 10l1 10l1 10l2 10l3 10l2 10l3 10l4 9l4 10l4 9l4 9l4 9l5 9l5 9l6 8l5 8l6 8l6 7l7 8l7 7l6 7l8 7
l7 6l8 6l8 6l8 6l8 5l9 5l9 5l9 5l9 4l9 4l9 3l9 3l9 3l9 2l10 2l9 2l10 1l10 2h10l10 1h10h12l11 -1h11l11 -2l11 -1l10 -2l10 -2l9 -2l10 -3l9 -3l8 -3l9 -4l8 -3l9 -5l9 -6l9 -5l9 -6l8 -6l9 -6l8 -7l7 -6l8 -7l7 -7l7 -8l-7 -7l-7 -8l-7 -7l-7 -7l-7 -8l-6 -7l-7 -8
l-7 -7l-7 -7l-7 -8l-7 -7l-7 8l-8 7l-7 7l-8 6l-8 6l-8 6l-8 6l-8 5l-9 5l-9 4l-10 3l-10 3l-10 2l-11 2l-11 1h-12h-10l-10 -1l-9 -2l-9 -2l-9 -2l-9 -3l-9 -4l-8 -4l-8 -5l-8 -5l-8 -5l-7 -6l-7 -7l-6 -6l-6 -8l-6 -7l-5 -8l-5 -8l-4 -9l-4 -8l-4 -9l-3 -10l-3 -9l-2 -10
l-2 -10l-1 -10l-1 -11v-10v-2v-11l1 -10l1 -11l2 -10l2 -9l3 -10l4 -9l3 -10l4 -8l5 -9l5 -8l5 -8l6 -7l7 -7l6 -7l7 -7l7 -6l8 -5l8 -5l8 -5l9 -4l9 -4l9 -3l10 -2l9 -2l10 -2l11 -1h10h11l11 1l10 2l10 2l10 2l10 4l9 4l9 4l8 5l9 5l8 6l8 6l8 6l8 7l8 7l8 8l7 -7l8 -7
l7 -7l7 -7l8 -7l7 -8l7 -7l7 -7l8 -7l7 -7l-7 -7l-7 -8l-7 -6l-8 -7l-7 -7l-8 -6l-8 -6l-8 -6l-8 -5l-8 -6l-8 -5l-9 -5l-8 -4l-7 -4l-9 -3l-8 -3l-9 -3l-9 -3l-9 -2l-9 -2l-10 -1l-10 -2l-10 -1h-11l-11 -1h-11z" />
    <glyph glyph-name="Ccedilla" unicode="&#xc7;" horiz-adv-x="777" 
d="M284 -126l5 8l6 8l5 8l6 8l5 8l5 8l6 8l5 9l6 8l5 8l5 8l6 8l5 8l6 8l5 8l-10 2l-10 2l-10 3l-10 2l-9 3l-9 3l-10 4l-9 4l-9 3l-9 5l-8 4l-9 5l-8 5l-9 5l-8 5l-8 5l-8 6l-7 6l-8 6l-7 6l-7 7l-7 6l-7 7l-6 7l-7 7l-6 8l-6 7l-6 8l-6 8l-5 8l-5 8l-5 8l-5 9l-4 8l-5 9
l-4 9l-4 9l-4 10l-3 9l-3 10l-3 9l-3 10l-2 10l-3 10l-2 10l-1 10l-2 10l-1 10l-1 11v10l-1 10v11v2v10v11l1 10l1 10l1 10l1 10l2 10l2 9l2 10l2 10l3 9l3 10l3 9l3 9l4 10l4 9l4 10l5 9l5 9l5 9l5 9l5 9l6 8l6 8l6 8l6 8l7 8l7 8l7 7l7 7l7 7l8 7l7 6l8 7l9 6l8 6l8 5l9 6
l9 5l9 5l10 5l9 4l10 5l9 3l10 4l9 3l10 3l9 3l10 2l10 3l10 2l10 1l11 2l10 1l11 1h10l11 1h11h11h11l10 -1l11 -1h10l10 -2l9 -1l10 -1l9 -2l10 -2l10 -2l10 -3l9 -3l10 -3l9 -3l9 -3l9 -4l9 -4l10 -5l9 -5l9 -5l9 -5l9 -6l8 -6l8 -6l8 -6l8 -7l8 -6l8 -7l8 -7l7 -7l-7 -8
l-6 -7l-7 -8l-7 -7l-6 -8l-7 -7l-7 -8l-6 -8l-7 -7l-7 -8l-6 -7l-7 -8l-8 7l-8 8l-8 7l-9 6l-8 7l-8 6l-9 5l-9 6l-8 5l-9 5l-9 5l-8 3l-9 4l-8 3l-9 3l-9 3l-10 2l-9 2l-10 1l-10 1l-10 1l-10 1h-11h-11l-10 -1l-10 -1l-10 -1l-10 -2l-10 -2l-9 -3l-10 -3l-9 -4l-9 -3
l-9 -5l-8 -4l-9 -5l-8 -5l-8 -6l-7 -5l-8 -6l-7 -7l-7 -6l-6 -7l-7 -7l-6 -8l-6 -7l-5 -8l-5 -8l-5 -9l-5 -8l-5 -9l-4 -10l-3 -9l-4 -10l-3 -9l-3 -10l-2 -10l-2 -10l-2 -11l-1 -10l-1 -11l-1 -10v-11v-2v-10l1 -10v-9l1 -10l2 -10l2 -9l1 -9l3 -9l2 -9l3 -9l4 -9l3 -9
l4 -10l5 -9l5 -8l5 -9l5 -8l5 -8l6 -8l6 -7l7 -7l6 -7l7 -7l7 -6l8 -6l7 -6l8 -6l8 -5l9 -5l8 -4l9 -4l9 -4l9 -4l10 -3l9 -3l10 -2l10 -2l10 -1l10 -1l10 -1h11h11l11 1l11 1l10 1l10 1l10 2l10 3l9 2l9 3l9 3l8 4l9 4l8 4l8 5l8 5l8 5l8 5l8 6l8 6l8 6l7 7l8 7l8 7l8 7
l7 -7l7 -8l8 -7l7 -7l7 -7l7 -8l7 -7l7 -7l8 -7l7 -8l7 -7l-7 -7l-8 -8l-7 -6l-7 -7l-8 -7l-8 -6l-7 -6l-8 -6l-8 -6l-8 -6l-8 -5l-8 -5l-9 -5l-8 -5l-8 -4l-9 -5l-8 -3l-8 -4l-9 -3l-9 -4l-9 -2l-9 -3l-10 -3l-10 -2l-10 -2l-10 -2l-10 -1l-11 -1l-11 -2h-11l-11 -1l-4 -9
l-4 -10l-4 -9l-4 -10l-4 -9l-4 -9l-4 -10l-4 -9l-5 -10l-4 -9l-4 -10l-4 -9l-4 -9l-4 -10l-4 -9l-4 -10l-4 -9l-9 4l-9 3l-8 4l-9 4l-9 4l-9 3l-9 4l-9 4l-8 4l-9 3l-9 4z" />
    <glyph glyph-name="ccedilla" unicode="&#xe7;" horiz-adv-x="602" 
d="M184 -126l6 8l5 8l6 9l5 8l6 8l5 8l6 8l5 9l6 8l5 8l6 8l5 8l6 9l5 8l6 8l-10 3l-11 3l-9 3l-10 4l-10 4l-9 4l-10 5l-9 5l-8 6l-9 6l-8 6l-9 6l-7 7l-8 7l-7 7l-7 7l-7 8l-6 8l-6 8l-6 8l-5 9l-5 9l-5 9l-5 9l-4 9l-4 10l-3 10l-3 8l-3 10l-2 9l-2 9l-2 9l-2 10l-1 9v10
l-1 10v10v2v10l1 11l1 10l1 10l1 10l2 10l3 10l2 10l3 10l4 9l4 10l4 9l4 9l4 9l5 9l5 9l6 8l5 8l6 8l6 7l7 8l7 7l6 7l8 7l7 6l8 6l8 6l8 6l8 5l9 5l9 5l9 5l9 4l9 4l9 3l9 3l9 3l9 2l10 2l9 2l10 1l10 2h10l10 1h10h12l11 -1h11l11 -2l11 -1l10 -2l10 -2l9 -2l10 -3l9 -3
l8 -3l9 -4l8 -3l9 -5l9 -6l9 -5l9 -6l8 -6l9 -6l8 -7l7 -6l8 -7l7 -7l7 -8l-7 -7l-7 -8l-7 -7l-7 -7l-7 -8l-6 -7l-7 -8l-7 -7l-7 -7l-7 -8l-7 -7l-7 8l-8 7l-7 7l-8 6l-8 6l-8 6l-8 6l-8 5l-9 5l-9 4l-10 3l-10 3l-10 2l-11 2l-11 1h-12h-10l-10 -1l-9 -2l-9 -2l-9 -2
l-9 -3l-9 -4l-8 -4l-8 -5l-8 -5l-8 -5l-7 -6l-7 -7l-6 -6l-6 -8l-6 -7l-5 -8l-5 -8l-4 -9l-4 -8l-4 -9l-3 -10l-3 -9l-2 -10l-2 -10l-1 -10l-1 -11v-10v-2v-11l1 -10l1 -11l2 -10l2 -9l3 -10l4 -9l3 -10l4 -8l5 -9l5 -8l5 -8l6 -7l7 -7l6 -7l7 -7l7 -6l8 -5l8 -5l8 -5l9 -4
l9 -4l9 -3l10 -2l9 -2l10 -2l11 -1h10h11l11 1l10 2l10 2l10 2l10 4l9 4l9 4l8 5l9 5l8 6l8 6l8 6l8 7l8 7l8 8l7 -7l8 -7l7 -7l7 -7l8 -7l7 -8l7 -7l7 -7l8 -7l7 -7l-7 -8l-7 -7l-7 -7l-8 -7l-8 -6l-7 -7l-8 -6l-8 -6l-9 -5l-8 -6l-8 -5l-9 -4l-8 -5l-9 -3l-9 -4l-9 -3
l-10 -3l-10 -2l-10 -3l-10 -1l-11 -2l-11 -1l-12 -1l-4 -9l-4 -10l-4 -9l-4 -10l-4 -9l-4 -9l-4 -10l-4 -9l-4 -10l-4 -9l-4 -10l-4 -9l-4 -9l-4 -10l-4 -9l-4 -10l-4 -9l-9 4l-9 3l-8 4l-9 4l-9 4l-9 3l-9 4l-9 4l-8 4l-9 3l-9 4z" />
    <glyph glyph-name="Cdotaccent" unicode="&#x10a;" horiz-adv-x="777" 
d="M365 912h10h10h10h10h10h10h10h10h10h10h10h10h10v-10v-11v-10v-10v-10v-11v-10v-10v-10v-11v-10h-10h-10h-10h-10h-10h-10h-10h-10h-10h-10h-10h-10h-10v10v11v10v10v10v11v10v10v10v11v10zM436 -12h-11l-10 1h-10l-11 1l-10 1l-10 2l-10 1l-10 2l-9 2l-10 3l-10 3l-9 3
l-9 3l-9 3l-9 4l-10 4l-9 5l-10 4l-9 5l-8 5l-9 6l-8 5l-9 6l-8 6l-8 6l-7 7l-8 7l-7 6l-7 8l-7 7l-7 7l-7 8l-6 8l-6 8l-6 8l-6 9l-5 8l-5 9l-5 9l-5 9l-5 9l-4 10l-4 10l-4 9l-3 9l-3 9l-3 10l-3 9l-2 10l-2 10l-2 9l-2 10l-1 10l-1 10l-1 10l-1 10v11v10v2v10v11l1 10
l1 10l1 10l1 10l2 10l2 9l2 10l2 10l3 9l3 10l3 9l3 9l4 10l4 9l4 10l5 9l5 9l5 9l5 9l5 9l6 8l6 8l6 8l6 8l7 8l7 8l7 7l7 7l7 7l8 7l7 6l8 7l9 6l8 6l8 5l9 6l9 5l9 5l10 5l9 4l10 5l9 3l10 4l9 3l10 3l9 3l10 2l10 3l10 2l10 1l11 2l10 1l11 1h10l11 1h11h11h11l10 -1
l11 -1h10l10 -2l9 -1l10 -1l9 -2l10 -2l10 -2l10 -3l9 -3l10 -3l9 -3l9 -3l9 -4l9 -4l10 -5l9 -5l9 -5l9 -5l9 -6l8 -6l8 -6l8 -6l8 -7l8 -6l8 -7l8 -7l7 -7l-7 -8l-6 -7l-7 -8l-7 -7l-6 -8l-7 -7l-7 -8l-6 -8l-7 -7l-7 -8l-6 -7l-7 -8l-8 7l-8 8l-8 7l-9 6l-8 7l-8 6l-9 5
l-9 6l-8 5l-9 5l-9 5l-8 3l-9 4l-8 3l-9 3l-9 3l-10 2l-9 2l-10 1l-10 1l-10 1l-10 1h-11h-11l-10 -1l-10 -1l-10 -1l-10 -2l-10 -2l-9 -3l-10 -3l-9 -4l-9 -3l-9 -5l-8 -4l-9 -5l-8 -5l-8 -6l-7 -5l-8 -6l-7 -7l-7 -6l-6 -7l-7 -7l-6 -8l-6 -7l-5 -8l-5 -8l-5 -9l-5 -8
l-5 -9l-4 -10l-3 -9l-4 -10l-3 -9l-3 -10l-2 -10l-2 -10l-2 -11l-1 -10l-1 -11l-1 -10v-11v-2v-10l1 -10v-9l1 -10l2 -10l2 -9l1 -9l3 -9l2 -9l3 -9l4 -9l3 -9l4 -10l5 -9l5 -8l5 -9l5 -8l5 -8l6 -8l6 -7l7 -7l6 -7l7 -7l7 -6l8 -6l7 -6l8 -6l8 -5l9 -5l8 -4l9 -4l9 -4l9 -4
l10 -3l9 -3l10 -2l10 -2l10 -1l10 -1l10 -1h11h11l11 1l11 1l10 1l10 1l10 2l10 3l9 2l9 3l9 3l8 4l9 4l8 4l8 5l8 5l8 5l8 5l8 6l8 6l8 6l7 7l8 7l8 7l8 7l7 -7l7 -8l8 -7l7 -7l7 -7l7 -8l7 -7l7 -7l8 -7l7 -8l7 -7l-7 -7l-8 -7l-7 -7l-7 -7l-8 -6l-7 -7l-8 -6l-7 -6l-8 -6
l-8 -6l-8 -5l-8 -5l-8 -5l-9 -5l-8 -4l-9 -4l-9 -5l-9 -3l-9 -4l-10 -3l-9 -3l-10 -3l-11 -3l-10 -2l-9 -2l-10 -2l-10 -1l-10 -1l-10 -1l-11 -1l-11 -1h-11h-11z" />
    <glyph glyph-name="cdotaccent" unicode="&#x10b;" horiz-adv-x="602" 
d="M337 -12h-10l-10 1h-10l-10 1l-9 2l-10 2l-9 2l-9 2l-9 3l-9 3l-9 3l-9 4l-9 4l-9 4l-9 5l-9 5l-8 5l-8 6l-8 6l-8 6l-7 6l-8 7l-6 7l-7 7l-7 7l-6 7l-6 8l-5 8l-6 8l-5 9l-5 8l-4 9l-4 9l-4 10l-4 9l-4 9l-3 10l-2 10l-3 10l-2 10l-1 10l-1 10l-1 10l-1 11v10v2v10l1 11
l1 10l1 10l1 10l2 10l3 10l2 10l3 10l4 9l4 10l4 9l4 9l4 9l5 9l5 9l6 8l5 8l6 8l6 7l7 8l7 7l6 7l8 7l7 6l8 6l8 6l8 6l8 5l9 5l9 5l9 5l9 4l9 4l9 3l9 3l9 3l9 2l10 2l9 2l10 1l10 2h10l10 1h10h12l11 -1h11l11 -2l11 -1l10 -2l10 -2l9 -2l10 -3l9 -3l8 -3l9 -4l8 -3l9 -5
l9 -6l9 -5l9 -6l8 -6l9 -6l8 -7l7 -6l8 -7l7 -7l7 -8l-7 -7l-7 -8l-7 -7l-7 -7l-7 -8l-6 -7l-7 -8l-7 -7l-7 -7l-7 -8l-7 -7l-7 8l-8 7l-7 7l-8 6l-8 6l-8 6l-8 6l-8 5l-9 5l-9 4l-10 3l-10 3l-10 2l-11 2l-11 1h-12h-10l-10 -1l-9 -2l-9 -2l-9 -2l-9 -3l-9 -4l-8 -4l-8 -5
l-8 -5l-8 -5l-7 -6l-7 -7l-6 -6l-6 -8l-6 -7l-5 -8l-5 -8l-4 -9l-4 -8l-4 -9l-3 -10l-3 -9l-2 -10l-2 -10l-1 -10l-1 -11v-10v-2v-11l1 -10l1 -11l2 -10l2 -9l3 -10l4 -9l3 -10l4 -8l5 -9l5 -8l5 -8l6 -7l7 -7l6 -7l7 -7l7 -6l8 -5l8 -5l8 -5l9 -4l9 -4l9 -3l10 -2l9 -2
l10 -2l11 -1h10h11l11 1l10 2l10 2l10 2l10 4l9 4l9 4l8 5l9 5l8 6l8 6l8 6l8 7l8 7l8 8l7 -7l8 -7l7 -7l7 -7l8 -7l7 -8l7 -7l7 -7l8 -7l7 -7l-7 -7l-7 -8l-7 -6l-8 -7l-7 -7l-8 -6l-8 -6l-8 -6l-8 -5l-8 -6l-8 -5l-9 -5l-8 -4l-7 -4l-9 -3l-8 -3l-9 -3l-9 -3l-9 -2l-9 -2
l-10 -1l-10 -2l-10 -1h-11l-11 -1h-11zM268 740h10h10h10h9h10h10h10h10h10h9h10h10h10v-10v-10v-10v-10v-10v-10v-11v-10v-10v-10v-10v-10h-10h-10h-10h-9h-10h-10h-10h-10h-10h-9h-10h-10h-10v10v10v10v10v10v11v10v10v10v10v10v10z" />
    <glyph glyph-name="Dcaron" unicode="&#x10e;" horiz-adv-x="821" 
d="M453 789h-10h-11h-10h-10h-11h-10h-11h-10h-10h-11h-10l-7 7l-6 8l-7 7l-6 7l-7 7l-6 8l-7 7l-6 7l-7 7l-6 8l-7 7l-6 7l-7 7l-6 8l-7 7l-6 7l-7 7l-6 8l-7 7h10h10h11h10h10h10h10h11h10h10l8 -6l8 -6l8 -6l8 -6l8 -6l8 -6l8 -6l8 -6l8 -6l8 -6l8 6l8 6l8 6l8 6l8 6l8 6
l8 6l8 6l8 6l8 6h10h10h10h10h10h10h10h10h10h10l-7 -7l-6 -8l-7 -7l-6 -7l-7 -7l-6 -8l-7 -7l-6 -7l-7 -7l-6 -8l-7 -7l-6 -7l-7 -7l-6 -8l-7 -7l-6 -7l-7 -7l-6 -8zM99 728h10h10h10h10h10h10h10h10h10h10h10h10h10h9h10h10h10h10h10h10h10h10h10h10h10h10h10h11h10l11 -1
l10 -1l10 -1l10 -1l10 -1l10 -2l10 -2l10 -2l9 -2l10 -2l9 -3l9 -3l9 -3l9 -3l10 -5l10 -4l10 -4l9 -5l9 -5l9 -5l9 -5l9 -6l8 -6l8 -6l8 -6l8 -6l8 -7l7 -7l7 -7l7 -7l7 -8l6 -7l7 -8l6 -8l5 -8l6 -9l5 -8l5 -9l5 -8l5 -9l4 -10l5 -9l3 -9l4 -9l3 -9l3 -9l2 -9l3 -10l2 -9
l2 -10l1 -9l2 -10l1 -10l1 -10v-10l1 -10v-10v-2v-10l-1 -10v-10l-1 -10l-1 -10l-2 -10l-1 -10l-2 -9l-2 -10l-3 -9l-2 -9l-3 -9l-3 -10l-4 -9l-3 -8l-5 -10l-4 -9l-5 -9l-5 -9l-5 -9l-5 -8l-6 -9l-5 -8l-6 -8l-7 -8l-6 -7l-7 -8l-7 -7l-7 -7l-7 -6l-7 -7l-7 -6l-8 -6l-7 -5
l-8 -6l-8 -5l-8 -5l-8 -5l-9 -5l-9 -5l-8 -4l-9 -4l-10 -4l-9 -4l-9 -3l-9 -4l-9 -3l-9 -2l-10 -3l-9 -2l-10 -2l-10 -2l-10 -2l-10 -1l-10 -1l-10 -1l-10 -1l-11 -1h-10h-11h-10h-10h-10h-10h-10h-10h-10h-10h-10h-10h-10h-10h-10h-9h-10h-10h-10h-10h-10h-10h-10h-10h-10
h-10h-10h-10h-10v10v10v10v10v10v10v10v10v10v10v10v10v10v10v10v10v10v10v9v10v10v10v10v10v10v10v10v10v10v10v10v10v10v10v10v10v10v10v10v10v10v10v10v10v10v10v10v10v10v10v10v10v10v10v9v10v10v10v10v10v10v10v10v10v10v10v10v10v10v10v10v10v10zM222 617v-10v-10v-10
v-10v-10v-10v-9v-10v-10v-10v-10v-10v-10v-10v-10v-10v-10v-10v-10v-9v-10v-10v-10v-10v-10v-10v-10v-10v-10v-10v-10v-9v-10v-10v-10v-10v-10v-10v-10v-10v-10v-10v-10v-10v-9v-10v-10v-10v-10v-10v-10h10h9h10h10h10h9h10h10h10h9h10h10h10h9h10h10l11 1h10l10 2l10 1l9 2
l10 2l9 2l9 3l9 3l9 3l9 4l10 4l8 5l9 5l8 5l8 5l8 6l8 6l7 6l7 7l6 6l6 7l6 8l6 7l5 8l5 8l5 9l5 8l4 9l4 9l3 9l3 10l3 9l2 10l2 10l2 10l1 10l1 11l1 10v11v2v11l-1 10l-1 11l-1 10l-2 10l-2 10l-2 10l-3 10l-3 9l-3 10l-4 9l-4 9l-5 8l-5 9l-5 8l-5 8l-6 7l-6 8l-6 7
l-6 7l-7 6l-7 6l-8 6l-8 6l-8 6l-8 5l-9 5l-8 4l-10 4l-9 5l-9 3l-9 3l-9 3l-9 2l-10 2l-9 2l-10 1l-10 2h-10l-11 1h-10h-10h-9h-10h-10h-10h-9h-10h-10h-10h-9h-10h-10h-10h-9h-10z" />
    <glyph glyph-name="dcaron" unicode="&#x10f;" horiz-adv-x="705" 
d="M693 760h10h9h10h9h10h10h9h10h9h10v-4l-3 -10l-3 -9l-3 -10l-3 -9l-2 -10l-3 -9l-3 -10l-3 -9l-3 -10l-3 -9l-3 -10l-3 -10l-3 -9l-3 -10l-2 -9l-3 -10l-3 -9l-3 -10l-3 -9l-3 -10h-10h-10h-11h-10h-10l1 10v10l1 9l1 10v10l1 10l1 9v10l1 10l1 10v9l1 10v10l1 10l1 9
v10l1 10l1 10v9zM311 -11h-10l-9 1l-10 1l-9 1l-9 2l-10 2l-9 2l-10 3l-9 3l-9 4l-9 4l-9 4l-9 5l-8 5l-8 5l-9 6l-7 6l-8 6l-8 7l-7 7l-6 7l-7 7l-6 7l-5 7l-6 8l-5 8l-5 9l-5 8l-4 9l-4 10l-4 9l-4 9l-3 9l-3 9l-2 10l-3 10l-2 10l-1 10l-2 10l-1 11v11l-1 11v11v2v11
l1 11v11l1 11l2 10l1 10l2 10l3 10l2 10l3 9l3 9l4 9l4 9l4 10l4 9l5 8l5 9l5 8l6 8l5 7l6 7l6 7l7 7l7 7l7 7l8 6l8 6l8 6l8 5l8 5l9 5l9 4l9 4l9 4l10 3l9 3l9 2l10 2l9 2l10 1l10 1l9 1h10h11l11 -1l11 -1l10 -1l10 -2l10 -2l10 -3l9 -3l8 -4l9 -3l8 -5l8 -4l8 -6l9 -7
l8 -6l8 -7l8 -6l7 -7l7 -7l7 -8l6 -7l6 -8v10v10v10v10v10v10v10v9v10v10v10v10v10v10v10v10v10v10v10v10v10v10v9v10v10v10v10v10v10v10h10h10h10h10h10h11h10h10h10h10h10h10v-10v-10v-10v-10v-10v-10v-10v-10v-10v-10v-10v-10v-10v-10v-10v-10v-10v-10v-10v-10v-10v-10
v-10v-10v-10v-10v-10v-10v-10v-10v-10v-10v-10v-10v-10v-10v-10v-9v-10v-10v-10v-10v-10v-10v-10v-10v-10v-10v-10v-10v-10v-10v-10v-10v-10v-10v-10v-10v-10v-10v-10v-10v-10v-10v-10v-10v-10v-10v-10v-10v-10v-10v-10v-10v-10v-10h-10h-10h-10h-10h-10h-10h-11h-10h-10
h-10h-10h-10v10v11v10v11v10v11v10v11v10l-6 -9l-7 -8l-6 -8l-8 -8l-7 -8l-8 -7l-8 -7l-8 -7l-9 -7l-9 -5l-8 -5l-8 -4l-8 -4l-9 -4l-9 -3l-9 -3l-9 -2l-10 -2l-10 -2l-11 -1l-11 -1h-11zM339 93h11l11 1l10 2l10 3l11 3l10 4l9 5l9 5l9 6l9 6l8 7l8 8l6 6l6 8l5 7l5 8l5 9
l4 9l5 9l3 8l2 9l3 9l2 9l1 9l1 10l1 10v10v2v10l-1 10l-1 9l-1 9l-2 9l-3 9l-2 9l-3 9l-5 9l-4 9l-5 8l-5 9l-5 7l-6 8l-6 7l-8 7l-8 7l-9 6l-9 6l-9 5l-9 5l-10 4l-11 3l-10 3l-10 2l-11 1h-11h-11l-11 -1l-10 -2l-10 -3l-11 -3l-9 -3l-10 -5l-9 -5l-9 -6l-8 -6l-8 -7
l-7 -7l-6 -7l-6 -8l-5 -7l-5 -8l-5 -9l-4 -9l-4 -9l-3 -8l-3 -9l-2 -9l-2 -9l-1 -10l-1 -10l-1 -10v-10v-2v-10l1 -10l1 -10l1 -9l2 -9l2 -9l3 -9l3 -8l4 -9l4 -9l5 -9l5 -8l5 -7l6 -8l6 -6l8 -8l7 -7l9 -6l8 -6l10 -5l9 -5l10 -4l10 -3l10 -3l10 -2l11 -1h11z" />
    <glyph glyph-name="Dcroat" unicode="&#x110;" horiz-adv-x="852" 
d="M130 322h-10h-9h-10h-10h-10h-9h-10h-10v10v10v10v10v9v10v10v10v10h10h10h9h10h10h10h9h10v10v10v10v10v10v9v10v10v10v10v10v10v10v10v10v10v9v10v10v10v10v10v10v10v10v10v9v10v10v10v10v10h10h10h10h10h10h10h10h10h10h10h10h10h10h9h10h10h10h10h10h10h10h10h10h10
h10h10h10h11h10l11 -1l10 -1l10 -1l10 -1l10 -1l10 -2l10 -2l10 -2l9 -2l10 -2l9 -3l9 -3l9 -3l9 -3l10 -5l10 -4l10 -4l9 -5l9 -5l9 -5l9 -5l9 -6l8 -6l8 -6l8 -6l8 -6l8 -7l7 -7l7 -7l7 -7l7 -8l6 -7l7 -8l6 -8l5 -8l6 -9l5 -8l5 -9l5 -8l5 -9l4 -10l5 -9l3 -9l4 -9l3 -9
l3 -9l2 -9l3 -10l2 -9l2 -10l1 -9l2 -10l1 -10l1 -10v-10l1 -10v-10v-2v-10l-1 -10v-10l-1 -10l-1 -10l-2 -10l-1 -10l-2 -9l-2 -10l-3 -9l-2 -9l-3 -9l-3 -10l-4 -9l-3 -8l-5 -10l-4 -9l-5 -9l-5 -9l-5 -9l-5 -8l-6 -9l-5 -8l-6 -8l-7 -8l-6 -7l-7 -8l-7 -7l-7 -7l-7 -6
l-7 -7l-7 -6l-8 -6l-7 -5l-8 -6l-8 -5l-8 -5l-8 -5l-9 -5l-9 -5l-8 -4l-9 -4l-10 -4l-9 -4l-9 -3l-9 -4l-9 -3l-9 -2l-10 -3l-9 -2l-10 -2l-10 -2l-10 -2l-10 -1l-10 -1l-10 -1l-10 -1l-11 -1h-10h-11h-10h-10h-10h-10h-10h-10h-10h-10h-10h-10h-10h-10h-10h-9h-10h-10h-10
h-10h-10h-10h-10h-10h-10h-10h-10h-10h-10v10v10v10v10v10v10v10v11v10v10v10v10v10v10v10v10v10v10v10v10v10v10v10v11v10v10v10v10v10v10v10v10zM253 322v-10v-10v-10v-10v-10v-10v-10v-10v-10v-10v-11v-10v-10v-10v-10v-10v-10v-10v-10v-10v-10h10h9h10h10h10h9h10h10h10
h9h10h10h10h9h10h10l11 1h10l10 2l10 1l9 2l10 2l9 2l9 3l9 3l9 3l9 4l10 4l9 5l8 5l9 5l8 5l7 6l8 6l7 6l7 7l7 6l6 7l6 8l6 7l5 8l5 8l5 9l4 8l5 9l4 9l3 9l3 10l3 9l2 10l2 10l2 10l1 10l1 11l1 10v11v2v11l-1 10l-1 11l-1 10l-2 10l-2 10l-2 10l-3 10l-3 9l-3 10l-4 9
l-5 9l-4 8l-5 9l-5 8l-5 8l-6 7l-6 8l-6 7l-7 7l-7 6l-7 6l-8 6l-7 6l-8 6l-9 5l-8 5l-9 4l-10 4l-9 5l-9 3l-9 3l-9 3l-9 2l-10 2l-9 2l-10 1l-10 2h-10l-11 1h-10h-10h-9h-10h-10h-10h-9h-10h-10h-10h-9h-10h-10h-10h-9h-10v-10v-10v-9v-10v-10v-10v-10v-9v-10v-10v-10
v-10v-10v-9v-10v-10v-10v-10v-9v-10v-10h10h10h9h10h10h10h10h9h10h10h10h9h10h10h10h10h9h10h10v-10v-10v-10v-10v-9v-10v-10v-10v-10h-10h-10h-9h-10h-10h-10h-10h-9h-10h-10h-10h-9h-10h-10h-10h-10h-9h-10h-10z" />
    <glyph glyph-name="dcroat" unicode="&#x111;" horiz-adv-x="705" 
d="M328 700h10h10h10h10h11h10h10h10h10h10h10h10h11h10h10h10h10v10v10v10v9v10v10h10h10h10h10h10h11h10h10h10h10h10h10v-10v-10v-9v-10v-10v-10h10h10h10h11h10h10h10v-11v-10v-11v-10v-11v-10v-11h-10h-10h-10h-11h-10h-10h-10v-10v-10v-10v-10v-10v-10v-10v-9v-10v-10
v-10v-10v-10v-10v-10v-10v-10v-10v-10v-10v-10v-10v-10v-9v-10v-10v-10v-10v-10v-10v-10v-10v-10v-10v-10v-10v-10v-10v-10v-9v-10v-10v-10v-10v-10v-10v-10v-10v-10v-10v-10v-10v-10v-10v-10v-9v-10v-10v-10v-10v-10v-10v-10h-10h-10h-10h-10h-10h-10h-11h-10h-10h-10h-10
h-10v10v11v10v11v10v11v10v11v10l-6 -9l-7 -8l-6 -8l-8 -8l-7 -8l-8 -7l-8 -7l-8 -7l-9 -7l-9 -5l-8 -5l-8 -4l-8 -4l-9 -4l-9 -3l-9 -3l-9 -2l-10 -2l-10 -2l-11 -1l-11 -1h-11h-10l-9 1l-10 1l-9 1l-9 2l-10 2l-9 2l-10 3l-9 3l-9 4l-9 4l-9 4l-9 5l-8 5l-8 5l-9 6l-7 6
l-8 6l-8 7l-7 7l-6 7l-7 7l-6 7l-5 7l-6 8l-5 8l-5 9l-5 8l-4 9l-4 10l-4 9l-4 9l-3 9l-3 9l-2 10l-3 10l-2 10l-1 10l-2 10l-1 11v11l-1 11v11v2v11l1 11v11l1 11l2 10l1 10l2 10l3 10l2 10l3 9l3 9l4 9l4 9l4 10l4 9l5 8l5 9l5 8l6 8l5 7l6 7l6 7l7 7l7 7l7 7l8 6l8 6l8 6
l8 5l8 5l9 5l9 4l9 4l9 4l10 3l9 3l9 2l10 2l9 2l10 1l10 1l9 1h10h11l11 -1l11 -1l10 -1l10 -2l10 -2l10 -3l9 -3l8 -4l9 -3l8 -5l8 -4l8 -6l9 -7l8 -6l8 -7l8 -6l7 -7l7 -7l7 -8l6 -7l6 -8v10v9v10v10v10v9v10v10v9v10v10v9v10v10v10v9v10h-10h-10h-10h-10h-11h-10h-10
h-10h-10h-10h-10h-10h-11h-10h-10h-10h-10v11v10v11v10v11v10v11zM339 93h11l11 1l10 2l10 3l11 3l10 4l9 5l9 5l9 6l9 6l8 7l8 8l6 6l6 8l5 7l5 8l5 9l4 9l5 9l3 8l2 9l3 9l2 9l1 9l1 10l1 10v10v2v10l-1 10l-1 9l-1 9l-2 9l-3 9l-2 9l-3 9l-5 9l-4 9l-5 8l-5 9l-5 7l-6 8
l-6 7l-8 7l-8 7l-9 6l-9 6l-9 5l-9 5l-10 4l-11 3l-10 3l-10 2l-11 1h-11h-11l-11 -1l-10 -2l-10 -3l-11 -3l-9 -3l-10 -5l-9 -5l-9 -6l-8 -6l-8 -7l-7 -7l-6 -7l-6 -8l-5 -7l-5 -8l-5 -9l-4 -9l-4 -9l-3 -8l-3 -9l-2 -9l-2 -9l-1 -10l-1 -10l-1 -10v-10v-2v-10l1 -10l1 -10
l1 -9l2 -9l2 -9l3 -9l3 -8l4 -9l4 -9l5 -9l5 -8l5 -7l6 -8l6 -6l8 -8l7 -7l9 -6l8 -6l10 -5l9 -5l10 -4l10 -3l10 -3l10 -2l11 -1h11z" />
    <glyph glyph-name="Eacute" unicode="&#xc9;" horiz-adv-x="705" 
d="M436 938l9 -4l9 -4l10 -4l9 -4l9 -4l9 -4l9 -5l9 -4l10 -4l9 -4l9 -4l9 -4l-8 -6l-8 -6l-9 -7l-8 -6l-8 -6l-8 -6l-8 -7l-8 -6l-9 -6l-8 -6l-8 -7l-8 -6l-8 -6l-9 -6l-8 -7l-8 -6h-10h-11h-10h-11h-10h-11h-10h-11h-10l6 8l6 8l6 8l6 7l6 8l6 8l6 8l6 8l6 8l7 7l6 8l6 8
l6 8l6 8l6 8l6 7l6 8l6 8zM99 728h10h10h10h10h10h10h10h10h10h10h10h10h10h9h10h10h10h10h10h10h10h10h10h10h10h10h10h10h10h10h10h10h10h10h10h10h10h10h10h10h9h10h10h10h10h10h10h10h10h10h10h10h10h10v-10v-10v-10v-10v-10v-10v-10v-10v-10v-10v-10h-10h-10h-10h-10
h-10h-9h-10h-10h-10h-10h-10h-10h-10h-10h-10h-9h-10h-10h-10h-10h-10h-10h-10h-10h-10h-10h-9h-10h-10h-10h-10h-10h-10h-10h-10h-10h-9h-10h-10h-10h-10h-10v-10v-10v-9v-10v-10v-10v-10v-9v-10v-10v-10v-10v-9v-10v-10v-10v-10v-9v-10v-10h10h10h10h10h10h10h10h10h10h10
h10h10h10h10h10h10h10h10h9h10h10h10h10h10h10h10h10h10h10h10h10h10h10h10h10h10h10v-10v-10v-10v-10v-10v-10v-10v-10v-10v-10v-10h-10h-10h-10h-10h-10h-10h-10h-10h-10h-10h-10h-10h-10h-10h-10h-10h-10h-10h-9h-10h-10h-10h-10h-10h-10h-10h-10h-10h-10h-10h-10h-10
h-10h-10h-10h-10h-10v-10v-10v-10v-10v-10v-11v-10v-10v-10v-10v-10v-10v-10v-10v-10v-11v-10v-10v-10v-10h10h10h10h10h10h10h10h10h10h10h10h10h10h10h10h10h10h10h10h10h11h10h10h10h10h10h10h10h10h10h10h10h10h10h10h10h10h10h10h10h10h10v-10v-10v-10v-10v-10v-10v-10
v-10v-10v-10v-10h-10h-10h-10h-10h-10h-10h-10h-10h-10h-11h-10h-10h-10h-10h-10h-10h-10h-10h-10h-10h-10h-10h-10h-10h-10h-10h-10h-11h-10h-10h-10h-10h-10h-10h-10h-10h-10h-10h-10h-10h-10h-10h-10h-10h-10h-11h-10h-10h-10h-10h-10h-10h-10h-10v10v10v10v10v10v10v10
v10v10v10v10v10v10v10v10v10v10v10v9v10v10v10v10v10v10v10v10v10v10v10v10v10v10v10v10v10v10v10v10v10v10v10v10v10v10v10v10v10v10v10v10v10v10v10v9v10v10v10v10v10v10v10v10v10v10v10v10v10v10v10v10v10v10z" />
    <glyph glyph-name="eacute" unicode="&#xe9;" horiz-adv-x="635" 
d="M379 787l9 -4l9 -4l10 -4l9 -5l9 -4l9 -4l9 -4l9 -4l10 -4l9 -5l9 -4l9 -4l-7 -7l-8 -7l-7 -7l-8 -7l-7 -7l-7 -7l-8 -7l-7 -7l-8 -6l-7 -7l-8 -7l-7 -7l-7 -7l-8 -7l-7 -7l-8 -7l-7 -7h-10h-10h-10h-10h-11h-10h-10h-10h-10l5 8l6 9l5 8l5 9l6 8l5 8l5 9l6 8l5 9l6 8
l5 8l5 9l6 8l5 9l5 8l6 8l5 9l5 8l6 9zM334 -12h-11l-10 1l-11 1l-10 1l-10 1l-10 2l-10 2l-10 3l-10 3l-9 3l-9 4l-10 3l-9 5l-9 4l-8 5l-8 5l-9 5l-7 5l-8 6l-7 6l-8 7l-6 7l-7 6l-7 8l-6 7l-6 8l-5 8l-6 8l-5 8l-5 9l-4 9l-4 9l-4 10l-4 8l-3 9l-3 9l-2 10l-3 9l-2 10
l-1 9l-2 10l-1 10v10l-1 11v10v2v11l1 10v11l2 10l1 10l2 10l2 10l3 10l2 10l4 9l3 10l4 9l4 9l4 9l5 9l4 8l5 9l6 8l5 7l6 8l6 7l6 8l7 7l8 7l7 7l8 7l9 6l8 6l9 6l9 5l9 5l10 5l9 3l9 4l9 3l10 3l10 2l9 2l10 2l11 1l10 1l10 1h11h11l10 -1h11l10 -2l9 -1l10 -2l9 -2
l10 -2l9 -3l8 -3l9 -4l8 -3l10 -5l9 -6l9 -5l9 -6l8 -6l8 -7l8 -7l7 -7l7 -8l7 -7l5 -8l6 -8l5 -8l5 -8l5 -8l4 -9l4 -8l4 -9l4 -9l3 -10l4 -9l2 -10l3 -10l2 -10l2 -10l2 -10l2 -10l1 -11l1 -10v-11l1 -10v-11v-8v-8v-9l-1 -9h-10h-10h-10h-10h-10h-9h-10h-10h-10h-10h-10
h-10h-10h-10h-10h-9h-10h-10h-10h-10h-10h-10h-10h-10h-10h-9h-10h-10h-10h-10h-10h-10h-10h-10h-10h-9h-10h-10h-10h-10h-10l2 -11l2 -11l3 -11l3 -10l4 -10l5 -9l4 -8l5 -9l6 -7l6 -8l7 -7l7 -6l7 -6l8 -5l8 -5l8 -5l9 -3l9 -4l9 -3l9 -2l10 -2l10 -1l10 -1h10h11l10 1
l10 1l9 1l9 2l9 3l9 2l8 3l9 4l8 4l9 5l9 6l8 6l9 6l8 7l8 7l8 8l7 -6l7 -7l8 -6l7 -6l7 -6l7 -7l7 -6l8 -6l7 -7l7 -6l-7 -8l-7 -7l-7 -7l-7 -7l-8 -7l-8 -6l-8 -6l-8 -6l-8 -6l-9 -5l-9 -5l-8 -4l-9 -5l-9 -3l-9 -4l-9 -3l-10 -3l-9 -2l-10 -2l-11 -2l-10 -1l-11 -2h-11
l-11 -1h-12zM463 311l-1 10l-2 10l-2 10l-3 10l-3 9l-3 10l-4 8l-4 9l-5 8l-5 8l-5 7l-6 7l-7 8l-9 7l-8 6l-9 6l-10 5l-9 3l-8 3l-10 2l-9 2l-11 1h-10h-11l-10 -1l-10 -2l-10 -2l-9 -4l-9 -3l-9 -5l-8 -5l-8 -6l-8 -6l-7 -7l-6 -8l-6 -7l-6 -8l-5 -8l-4 -8l-4 -9l-4 -9
l-4 -10l-3 -10l-2 -10l-2 -10l-2 -11h10h10h10h10h10h10h10h10h10h10h10h10h10h10h10h10h10h10h10h10h10h10h10h10h10h10h10h10h10z" />
    <glyph glyph-name="Ebreve" unicode="&#x114;" horiz-adv-x="705" 
d="M370 787h-11l-11 1l-11 1l-11 1l-10 2l-9 3l-10 2l-9 3l-9 4l-8 4l-9 4l-7 5l-8 6l-8 6l-7 6l-6 7l-6 8l-6 7l-4 9l-5 8l-3 9l-3 10l-3 10l-2 10l-1 11h10h9h10h9h10h9h10h9h10l4 -10l6 -8l6 -8l7 -7l8 -5l8 -5l8 -3l10 -3l10 -1l12 -2h12h13l11 2l11 1l9 3l9 3l7 5l8 5
l7 7l6 8l6 8l4 10h10h9h10h9h10h9h10h9h10l-1 -11l-2 -10l-3 -10l-3 -10l-3 -9l-4 -8l-5 -9l-6 -7l-6 -8l-6 -7l-7 -6l-8 -6l-8 -6l-7 -5l-9 -4l-8 -4l-9 -4l-9 -3l-10 -2l-9 -3l-10 -2l-11 -1l-11 -1l-11 -1h-11zM99 728h10h10h10h10h10h10h10h10h10h10h10h10h10h9h10h10
h10h10h10h10h10h10h10h10h10h10h10h10h10h10h10h10h10h10h10h10h10h10h10h10h9h10h10h10h10h10h10h10h10h10h10h10h10h10v-10v-10v-10v-10v-10v-10v-10v-10v-10v-10v-10h-10h-10h-10h-10h-10h-9h-10h-10h-10h-10h-10h-10h-10h-10h-10h-9h-10h-10h-10h-10h-10h-10h-10h-10
h-10h-10h-9h-10h-10h-10h-10h-10h-10h-10h-10h-10h-9h-10h-10h-10h-10h-10v-10v-10v-9v-10v-10v-10v-10v-9v-10v-10v-10v-10v-9v-10v-10v-10v-10v-9v-10v-10h10h10h10h10h10h10h10h10h10h10h10h10h10h10h10h10h10h10h9h10h10h10h10h10h10h10h10h10h10h10h10h10h10h10h10h10
h10v-10v-10v-10v-10v-10v-10v-10v-10v-10v-10v-10h-10h-10h-10h-10h-10h-10h-10h-10h-10h-10h-10h-10h-10h-10h-10h-10h-10h-10h-9h-10h-10h-10h-10h-10h-10h-10h-10h-10h-10h-10h-10h-10h-10h-10h-10h-10h-10v-10v-10v-10v-10v-10v-11v-10v-10v-10v-10v-10v-10v-10v-10v-10
v-11v-10v-10v-10v-10h10h10h10h10h10h10h10h10h10h10h10h10h10h10h10h10h10h10h10h10h11h10h10h10h10h10h10h10h10h10h10h10h10h10h10h10h10h10h10h10h10h10v-10v-10v-10v-10v-10v-10v-10v-10v-10v-10v-10h-10h-10h-10h-10h-10h-10h-10h-10h-10h-11h-10h-10h-10h-10h-10h-10
h-10h-10h-10h-10h-10h-10h-10h-10h-10h-10h-10h-11h-10h-10h-10h-10h-10h-10h-10h-10h-10h-10h-10h-10h-10h-10h-10h-10h-10h-11h-10h-10h-10h-10h-10h-10h-10h-10v10v10v10v10v10v10v10v10v10v10v10v10v10v10v10v10v10v10v9v10v10v10v10v10v10v10v10v10v10v10v10v10v10v10
v10v10v10v10v10v10v10v10v10v10v10v10v10v10v10v10v10v10v10v10v9v10v10v10v10v10v10v10v10v10v10v10v10v10v10v10v10v10v10z" />
    <glyph glyph-name="ebreve" unicode="&#x115;" horiz-adv-x="635" 
d="M334 -12h-11l-10 1l-11 1l-10 1l-10 1l-10 2l-10 2l-10 3l-10 3l-9 3l-9 4l-10 3l-9 5l-9 4l-8 5l-8 5l-9 5l-7 5l-8 6l-7 6l-8 7l-6 7l-7 6l-7 8l-6 7l-6 8l-5 8l-6 8l-5 8l-5 9l-4 9l-4 9l-4 10l-4 8l-3 9l-3 9l-2 10l-3 9l-2 10l-1 9l-2 10l-1 10v10l-1 11v10v2v11
l1 10v11l2 10l1 10l2 10l2 10l3 10l2 10l4 9l3 10l4 9l4 9l4 9l5 9l4 8l5 9l6 8l5 7l6 8l6 7l6 8l7 7l8 7l7 7l8 7l9 6l8 6l9 6l9 5l9 5l10 5l9 3l9 4l9 3l10 3l10 2l9 2l10 2l11 1l10 1l10 1h11h11l10 -1h11l10 -2l9 -1l10 -2l9 -2l10 -2l9 -3l8 -3l9 -4l8 -3l10 -5l9 -6
l9 -5l9 -6l8 -6l8 -7l8 -7l7 -7l7 -8l7 -7l5 -8l6 -8l5 -8l5 -8l5 -8l4 -9l4 -8l4 -9l4 -9l3 -10l4 -9l2 -10l3 -10l2 -10l2 -10l2 -10l2 -10l1 -11l1 -10v-11l1 -10v-11v-8v-8v-9l-1 -9h-10h-10h-10h-10h-10h-9h-10h-10h-10h-10h-10h-10h-10h-10h-10h-9h-10h-10h-10h-10
h-10h-10h-10h-10h-10h-9h-10h-10h-10h-10h-10h-10h-10h-10h-10h-9h-10h-10h-10h-10h-10l2 -11l2 -11l3 -11l3 -10l4 -10l5 -9l4 -8l5 -9l6 -7l6 -8l7 -7l7 -6l7 -6l8 -5l8 -5l8 -5l9 -3l9 -4l9 -3l9 -2l10 -2l10 -1l10 -1h10h11l10 1l10 1l9 1l9 2l9 3l9 2l8 3l9 4l8 4l9 5
l9 6l8 6l9 6l8 7l8 7l8 8l7 -6l7 -7l8 -6l7 -6l7 -6l7 -7l7 -6l8 -6l7 -7l7 -6l-7 -8l-7 -7l-7 -7l-7 -7l-8 -7l-8 -6l-8 -6l-8 -6l-8 -6l-9 -5l-9 -5l-8 -4l-9 -5l-9 -3l-9 -4l-9 -3l-10 -3l-9 -2l-10 -2l-11 -2l-10 -1l-11 -2h-11l-11 -1h-12zM463 311l-1 10l-2 10l-2 10
l-3 10l-3 9l-3 10l-4 8l-4 9l-5 8l-5 8l-5 7l-6 7l-7 8l-9 7l-8 6l-9 6l-10 5l-9 3l-8 3l-10 2l-9 2l-11 1h-10h-11l-10 -1l-10 -2l-10 -2l-9 -4l-9 -3l-9 -5l-8 -5l-8 -6l-8 -6l-7 -7l-6 -8l-6 -7l-6 -8l-5 -8l-4 -8l-4 -9l-4 -9l-4 -10l-3 -10l-2 -10l-2 -10l-2 -11h10h10
h10h10h10h10h10h10h10h10h10h10h10h10h10h10h10h10h10h10h10h10h10h10h10h10h10h10h10zM319 617h-11l-11 1l-11 1l-11 2l-10 2l-9 2l-10 3l-9 4l-9 3l-8 5l-8 5l-8 5l-7 6l-8 6l-6 6l-6 7l-6 7l-5 8l-4 8l-4 8l-4 9l-3 9l-2 10l-2 10l-2 10l-1 11h10h11h10h11h10h10h11h10
l3 -9l4 -9l5 -8l6 -8l6 -6l7 -6l6 -5l7 -4l8 -3l9 -3l10 -2l10 -1h11h11l10 1l10 2l9 3l8 3l7 4l7 5l6 6l6 6l6 8l5 8l4 9l3 9h11h10h11h10h11h10h11h10l-1 -11l-2 -10l-2 -10l-3 -10l-3 -9l-3 -9l-4 -8l-5 -8l-5 -8l-6 -7l-6 -7l-6 -6l-7 -6l-8 -6l-8 -5l-8 -5l-8 -5l-9 -3
l-9 -4l-10 -3l-9 -2l-10 -2l-11 -2l-11 -1l-11 -1h-11z" />
    <glyph glyph-name="Ecaron" unicode="&#x11a;" horiz-adv-x="705" 
d="M427 789h-10h-11h-10h-10h-11h-10h-11h-10h-10h-11h-10l-7 7l-6 8l-7 7l-6 7l-7 7l-6 8l-7 7l-6 7l-7 7l-6 8l-7 7l-6 7l-7 7l-6 8l-7 7l-6 7l-7 7l-6 8l-7 7h10h10h11h10h10h10h10h11h10h10l8 -6l8 -6l8 -6l8 -6l8 -6l8 -6l8 -6l8 -6l8 -6l8 -6l8 6l8 6l8 6l8 6l8 6l8 6
l8 6l8 6l8 6l8 6h10h10h10h10h10h10h10h10h10h10l-7 -7l-6 -8l-7 -7l-6 -7l-7 -7l-6 -8l-7 -7l-6 -7l-7 -7l-6 -8l-7 -7l-6 -7l-7 -7l-6 -8l-7 -7l-6 -7l-7 -7l-6 -8zM99 728h10h10h10h10h10h10h10h10h10h10h10h10h10h9h10h10h10h10h10h10h10h10h10h10h10h10h10h10h10h10h10
h10h10h10h10h10h10h10h10h10h9h10h10h10h10h10h10h10h10h10h10h10h10h10v-10v-10v-10v-10v-10v-10v-10v-10v-10v-10v-10h-10h-10h-10h-10h-10h-9h-10h-10h-10h-10h-10h-10h-10h-10h-10h-9h-10h-10h-10h-10h-10h-10h-10h-10h-10h-10h-9h-10h-10h-10h-10h-10h-10h-10h-10h-10
h-9h-10h-10h-10h-10h-10v-10v-10v-9v-10v-10v-10v-10v-9v-10v-10v-10v-10v-9v-10v-10v-10v-10v-9v-10v-10h10h10h10h10h10h10h10h10h10h10h10h10h10h10h10h10h10h10h9h10h10h10h10h10h10h10h10h10h10h10h10h10h10h10h10h10h10v-10v-10v-10v-10v-10v-10v-10v-10v-10v-10v-10
h-10h-10h-10h-10h-10h-10h-10h-10h-10h-10h-10h-10h-10h-10h-10h-10h-10h-10h-9h-10h-10h-10h-10h-10h-10h-10h-10h-10h-10h-10h-10h-10h-10h-10h-10h-10h-10v-10v-10v-10v-10v-10v-11v-10v-10v-10v-10v-10v-10v-10v-10v-10v-11v-10v-10v-10v-10h10h10h10h10h10h10h10h10h10
h10h10h10h10h10h10h10h10h10h10h10h11h10h10h10h10h10h10h10h10h10h10h10h10h10h10h10h10h10h10h10h10h10v-10v-10v-10v-10v-10v-10v-10v-10v-10v-10v-10h-10h-10h-10h-10h-10h-10h-10h-10h-10h-11h-10h-10h-10h-10h-10h-10h-10h-10h-10h-10h-10h-10h-10h-10h-10h-10h-10
h-11h-10h-10h-10h-10h-10h-10h-10h-10h-10h-10h-10h-10h-10h-10h-10h-10h-10h-11h-10h-10h-10h-10h-10h-10h-10h-10v10v10v10v10v10v10v10v10v10v10v10v10v10v10v10v10v10v10v9v10v10v10v10v10v10v10v10v10v10v10v10v10v10v10v10v10v10v10v10v10v10v10v10v10v10v10v10v10v10
v10v10v10v10v10v9v10v10v10v10v10v10v10v10v10v10v10v10v10v10v10v10v10v10z" />
    </font>
</defs>
</svg>
